<?xml version="1.0" encoding="UTF-8" standalone="no"?>
<!DOCTYPE svg PUBLIC "-//W3C//DTD SVG 1.1//EN"
 "http://www.w3.org/Graphics/SVG/1.1/DTD/svg11.dtd">
<!-- Generated by graphviz version 7.0.4 (20221203.1631)
 -->
<!-- Title: oneDegreeRelationshipsDiagram Pages: 1 -->
<svg width="658pt" height="377pt"
 viewBox="0.00 0.00 658.00 377.00" xmlns="http://www.w3.org/2000/svg" xmlns:xlink="http://www.w3.org/1999/xlink">
<g id="graph0" class="graph" transform="scale(1 1) rotate(0) translate(4 373)">
<title>oneDegreeRelationshipsDiagram</title>
<polygon fill="#ffffff" stroke="none" points="-4,4 -4,-373 654,-373 654,4 -4,4"/>
<text text-anchor="middle" x="72" y="-7.2" font-family="IPAGothic" font-size="11.00">Generated by SchemaSpy</text>
<!-- 担当者入力（Results_42） -->
<g id="node1" class="node">
<title>担当者入力（Results_42）</title>
<g id="a_node1"><a xlink:href="../../tables/______Results_42__f4325587.html" xlink:title="担当者入力（Results_42）" target="_top">
<polygon fill="#ffffff" stroke="none" points="424,-263 424,-365 642,-365 642,-263 424,-263"/>
<polygon fill="#f5f5f5" stroke="none" points="424,-343 424,-365 642,-365 642,-343 424,-343"/>
<polygon fill="none" stroke="black" points="424,-343 424,-365 642,-365 642,-343 424,-343"/>
<text text-anchor="start" x="424.5" y="-352.2" font-family="IPAGothic" font-weight="bold" font-size="11.00">担当者入力（Results_42）</text>
<text text-anchor="start" x="604" y="-351.2" font-family="IPAGothic" font-size="11.00">[table]</text>
<polygon fill="none" stroke="black" points="424,-321 424,-343 642,-343 642,-321 424,-321"/>
<image xlink:href="../../images/primaryKeys.png" width="11px" height="12px" preserveAspectRatio="xMinYMin meet" x="429" y="-338"/>
<text text-anchor="start" x="444" y="-329.2" font-family="IPAGothic" font-size="11.00">ID（ResultId）</text>
<polygon fill="none" stroke="black" points="424,-299 424,-321 642,-321 642,-299 424,-299"/>
<image xlink:href="../../images/foreignKeys.png" width="11px" height="12px" preserveAspectRatio="xMinYMin meet" x="429" y="-316"/>
<text text-anchor="start" x="444" y="-307.2" font-family="IPAGothic" font-size="11.00">対象月（ClassA）</text>
<polygon fill="none" stroke="black" points="424,-281 424,-299 642,-299 642,-281 424,-281"/>
<text text-anchor="start" x="427" y="-287.2" font-family="IPAGothic" font-size="11.00">...</text>
<polygon fill="#ffffff" stroke="none" points="424,-263 424,-281 519,-281 519,-263 424,-263"/>
<polygon fill="none" stroke="black" points="424,-263 424,-281 519,-281 519,-263 424,-263"/>
<text text-anchor="start" x="427" y="-269.2" font-family="IPAGothic" font-size="11.00">&lt; 1</text>
<polygon fill="#ffffff" stroke="none" points="519,-263 519,-281 593,-281 593,-263 519,-263"/>
<polygon fill="none" stroke="black" points="519,-263 519,-281 593,-281 593,-263 519,-263"/>
<text text-anchor="start" x="557" y="-269.2" font-family="IPAGothic" font-size="11.00">0 rows</text>
<polygon fill="#ffffff" stroke="none" points="593,-263 593,-281 642,-281 642,-263 593,-263"/>
<polygon fill="none" stroke="black" points="593,-263 593,-281 642,-281 642,-263 593,-263"/>
<text text-anchor="start" x="631" y="-269.2" font-family="IPAGothic" font-size="11.00"> &#160;</text>
</a>
</g>
</g>
<!-- セキュリティチェック表（Results_41） -->
<g id="node2" class="node">
<title>セキュリティチェック表（Results_41）</title>
<g id="a_node2"><a xlink:href="../../tables/____________Results_41__b90bfb3d.html" xlink:title="セキュリティチェック表（Results_41）" target="_top">
<polygon fill="#ffffff" stroke="none" points="8,-37 8,-345 375,-345 375,-37 8,-37"/>
<polygon fill="#f5f5f5" stroke="none" points="10.5,-321 10.5,-343 373.5,-343 373.5,-321 10.5,-321"/>
<polygon fill="none" stroke="black" points="10.5,-321 10.5,-343 373.5,-343 373.5,-321 10.5,-321"/>
<text text-anchor="start" x="10" y="-330.2" font-family="IPAGothic" font-weight="bold" font-size="11.00">セキュリティチェック表（Results_41）</text>
<text text-anchor="start" x="335.5" y="-329.2" font-family="IPAGothic" font-size="11.00">[table]</text>
<polygon fill="none" stroke="black" points="10.5,-299 10.5,-321 255.5,-321 255.5,-299 10.5,-299"/>
<image xlink:href="../../images/primaryKeys.png" width="11px" height="12px" preserveAspectRatio="xMinYMin meet" x="15.5" y="-316"/>
<text text-anchor="start" x="30.5" y="-307.2" font-family="IPAGothic" font-size="11.00">ID（ResultId）</text>
<polygon fill="none" stroke="black" points="255.5,-299 255.5,-321 373.5,-321 373.5,-299 255.5,-299"/>
<text text-anchor="start" x="258.5" y="-307.2" font-family="IPAGothic" font-size="11.00">int[4]</text>
<polygon fill="none" stroke="black" points="10.5,-277 10.5,-299 255.5,-299 255.5,-277 10.5,-277"/>
<text text-anchor="start" x="30.5" y="-285.2" font-family="IPAGothic" font-size="11.00">バージョン（Ver）</text>
<polygon fill="none" stroke="black" points="255.5,-277 255.5,-299 373.5,-299 373.5,-277 255.5,-277"/>
<text text-anchor="start" x="258.5" y="-285.2" font-family="IPAGothic" font-size="11.00">int[4]</text>
<polygon fill="none" stroke="black" points="10.5,-255 10.5,-277 255.5,-277 255.5,-255 10.5,-255"/>
<text text-anchor="start" x="30.5" y="-263.2" font-family="IPAGothic" font-size="11.00">対象月（ClassA）</text>
<polygon fill="none" stroke="black" points="255.5,-255 255.5,-277 373.5,-277 373.5,-255 255.5,-255"/>
<text text-anchor="start" x="258.5" y="-263.2" font-family="IPAGothic" font-size="11.00">nvarchar[2048]</text>
<polygon fill="none" stroke="black" points="10.5,-233 10.5,-255 255.5,-255 255.5,-233 10.5,-233"/>
<text text-anchor="start" x="30.5" y="-241.2" font-family="IPAGothic" font-size="11.00">管理者（Manager）</text>
<polygon fill="none" stroke="black" points="255.5,-233 255.5,-255 373.5,-255 373.5,-233 255.5,-233"/>
<text text-anchor="start" x="258.5" y="-241.2" font-family="IPAGothic" font-size="11.00">int[4]</text>
<polygon fill="none" stroke="black" points="10.5,-211 10.5,-233 255.5,-233 255.5,-211 10.5,-211"/>
<text text-anchor="start" x="30.5" y="-219.2" font-family="IPAGothic" font-size="11.00">状況（Status）</text>
<polygon fill="none" stroke="black" points="255.5,-211 255.5,-233 373.5,-233 373.5,-211 255.5,-211"/>
<text text-anchor="start" x="258.5" y="-219.2" font-family="IPAGothic" font-size="11.00">int[4]</text>
<polygon fill="none" stroke="black" points="10.5,-189 10.5,-211 255.5,-211 255.5,-189 10.5,-189"/>
<text text-anchor="start" x="30.5" y="-197.2" font-family="IPAGothic" font-size="11.00">開始日（DateA）</text>
<polygon fill="none" stroke="black" points="255.5,-189 255.5,-211 373.5,-211 373.5,-189 255.5,-189"/>
<text text-anchor="start" x="258.5" y="-197.2" font-family="IPAGothic" font-size="11.00">datetime[16,3]</text>
<polygon fill="none" stroke="black" points="10.5,-167 10.5,-189 255.5,-189 255.5,-167 10.5,-167"/>
<text text-anchor="start" x="30.5" y="-175.2" font-family="IPAGothic" font-size="11.00">終了日（DateB）</text>
<polygon fill="none" stroke="black" points="255.5,-167 255.5,-189 373.5,-189 373.5,-167 255.5,-167"/>
<text text-anchor="start" x="258.5" y="-175.2" font-family="IPAGothic" font-size="11.00">datetime[16,3]</text>
<polygon fill="none" stroke="black" points="10.5,-145 10.5,-167 255.5,-167 255.5,-145 10.5,-145"/>
<text text-anchor="start" x="30.5" y="-153.2" font-family="IPAGothic" font-size="11.00">部員数（NumB）</text>
<polygon fill="none" stroke="black" points="255.5,-145 255.5,-167 373.5,-167 373.5,-145 255.5,-145"/>
<text text-anchor="start" x="258.5" y="-153.2" font-family="IPAGothic" font-size="11.00">decimal[21,4]</text>
<polygon fill="none" stroke="black" points="10.5,-123 10.5,-145 255.5,-145 255.5,-123 10.5,-123"/>
<text text-anchor="start" x="30.5" y="-131.2" font-family="IPAGothic" font-size="11.00">完了人数（NumA）</text>
<polygon fill="none" stroke="black" points="255.5,-123 255.5,-145 373.5,-145 373.5,-123 255.5,-123"/>
<text text-anchor="start" x="258.5" y="-131.2" font-family="IPAGothic" font-size="11.00">decimal[21,4]</text>
<polygon fill="none" stroke="black" points="10.5,-101 10.5,-123 255.5,-123 255.5,-101 10.5,-101"/>
<text text-anchor="start" x="30.5" y="-109.2" font-family="IPAGothic" font-size="11.00">未完了人数（NumC）</text>
<polygon fill="none" stroke="black" points="255.5,-101 255.5,-123 373.5,-123 373.5,-101 255.5,-101"/>
<text text-anchor="start" x="258.5" y="-109.2" font-family="IPAGothic" font-size="11.00">decimal[21,4]</text>
<polygon fill="none" stroke="black" points="10.5,-79 10.5,-101 255.5,-101 255.5,-79 10.5,-79"/>
<text text-anchor="start" x="30.5" y="-87.2" font-family="IPAGothic" font-size="11.00">添付資料（AttachmentsA）</text>
<polygon fill="none" stroke="black" points="255.5,-79 255.5,-101 373.5,-101 373.5,-79 255.5,-79"/>
<text text-anchor="start" x="258.5" y="-87.2" font-family="IPAGothic" font-size="11.00">nvarchar[2147483647]</text>
<polygon fill="none" stroke="black" points="10.5,-57 10.5,-79 255.5,-79 255.5,-57 10.5,-57"/>
<text text-anchor="start" x="30.5" y="-65.2" font-family="IPAGothic" font-size="11.00">コメント（Comments）</text>
<polygon fill="none" stroke="black" points="255.5,-57 255.5,-79 373.5,-79 373.5,-57 255.5,-57"/>
<text text-anchor="start" x="258.5" y="-65.2" font-family="IPAGothic" font-size="11.00">nvarchar[2147483647]</text>
<polygon fill="#ffffff" stroke="none" points="10.5,-39 10.5,-57 125.5,-57 125.5,-39 10.5,-39"/>
<polygon fill="none" stroke="black" points="10.5,-39 10.5,-57 125.5,-57 125.5,-39 10.5,-39"/>
<text text-anchor="start" x="13.5" y="-45.2" font-family="IPAGothic" font-size="11.00">&lt; 0</text>
<polygon fill="#ffffff" stroke="none" points="125.5,-39 125.5,-57 255.5,-57 255.5,-39 125.5,-39"/>
<polygon fill="none" stroke="black" points="125.5,-39 125.5,-57 255.5,-57 255.5,-39 125.5,-39"/>
<text text-anchor="start" x="219.5" y="-45.2" font-family="IPAGothic" font-size="11.00">0 rows</text>
<polygon fill="#ffffff" stroke="none" points="255.5,-39 255.5,-57 373.5,-57 373.5,-39 255.5,-39"/>
<polygon fill="none" stroke="black" points="255.5,-39 255.5,-57 373.5,-57 373.5,-39 255.5,-39"/>
<text text-anchor="start" x="351.5" y="-45.2" font-family="IPAGothic" font-size="11.00">1 &gt;</text>
<polygon fill="none" stroke="black" stroke-width="2" points="9,-38 9,-344 374,-344 374,-38 9,-38"/>
</a>
</g>
</g>
<!-- 担当者入力（Results_42）&#45;&gt;セキュリティチェック表（Results_41） -->
<g id="edge1" class="edge">
<title>担当者入力（Results_42）:w&#45;&gt;セキュリティチェック表（Results_41）:e</title>
<path fill="none" stroke="black" d="M407.93,-310C397.13,-310 389.99,-310 374.5,-310"/>
<polygon fill="black" stroke="black" points="415,-310 423,-313.6 419,-310 423,-310 423,-310 423,-310 419,-310 423,-306.4 415,-310 415,-310"/>
<ellipse fill="none" stroke="black" cx="411.3" cy="-310" rx="3.2" ry="3.2"/>
</g>
</g>
</svg>
