<?xml version="1.0" encoding="UTF-8" standalone="no"?>
<!DOCTYPE svg PUBLIC "-//W3C//DTD SVG 1.1//EN"
 "http://www.w3.org/Graphics/SVG/1.1/DTD/svg11.dtd">
<!-- Generated by graphviz version 7.0.4 (20221203.1631)
 -->
<!-- Title: oneDegreeRelationshipsDiagram Pages: 1 -->
<svg width="551pt" height="416pt"
 viewBox="0.00 0.00 551.00 416.00" xmlns="http://www.w3.org/2000/svg" xmlns:xlink="http://www.w3.org/1999/xlink">
<g id="graph0" class="graph" transform="scale(1 1) rotate(0) translate(4 412)">
<title>oneDegreeRelationshipsDiagram</title>
<polygon fill="#ffffff" stroke="none" points="-4,4 -4,-412 547,-412 547,4 -4,4"/>
<text text-anchor="middle" x="72" y="-7.2" font-family="IPAGothic" font-size="11.00">Generated by SchemaSpy</text>
<!-- 利用台帳（Results_14） -->
<g id="node1" class="node">
<title>利用台帳（Results_14）</title>
<g id="a_node1"><a xlink:href="../../tables/_____Results_14__e9cd32f7.html" xlink:title="利用台帳（Results_14）" target="_top">
<polygon fill="#ffffff" stroke="none" points="355,-302 355,-404 535,-404 535,-302 355,-302"/>
<polygon fill="#f5f5f5" stroke="none" points="355,-382 355,-404 535,-404 535,-382 355,-382"/>
<polygon fill="none" stroke="black" points="355,-382 355,-404 535,-404 535,-382 355,-382"/>
<text text-anchor="start" x="356" y="-391.2" font-family="IPAGothic" font-weight="bold" font-size="11.00">利用台帳（Results_14）</text>
<text text-anchor="start" x="497" y="-390.2" font-family="IPAGothic" font-size="11.00">[table]</text>
<polygon fill="none" stroke="black" points="355,-360 355,-382 535,-382 535,-360 355,-360"/>
<image xlink:href="../../images/primaryKeys.png" width="11px" height="12px" preserveAspectRatio="xMinYMin meet" x="360" y="-377"/>
<text text-anchor="start" x="377" y="-368.2" font-family="IPAGothic" font-size="11.00">ID（ResultId）</text>
<polygon fill="none" stroke="black" points="355,-338 355,-360 535,-360 535,-338 355,-338"/>
<image xlink:href="../../images/foreignKeys.png" width="11px" height="12px" preserveAspectRatio="xMinYMin meet" x="360" y="-355"/>
<text text-anchor="start" x="377" y="-346.2" font-family="IPAGothic" font-size="11.00">商品分類（ClassA）</text>
<polygon fill="none" stroke="black" points="355,-320 355,-338 535,-338 535,-320 355,-320"/>
<text text-anchor="start" x="358" y="-326.2" font-family="IPAGothic" font-size="11.00">...</text>
<polygon fill="#ffffff" stroke="none" points="355,-302 355,-320 431,-320 431,-302 355,-302"/>
<polygon fill="none" stroke="black" points="355,-302 355,-320 431,-320 431,-302 355,-302"/>
<text text-anchor="start" x="358" y="-308.2" font-family="IPAGothic" font-size="11.00">&lt; 1</text>
<polygon fill="#ffffff" stroke="none" points="431,-302 431,-320 495,-320 495,-302 431,-302"/>
<polygon fill="none" stroke="black" points="431,-302 431,-320 495,-320 495,-302 431,-302"/>
<text text-anchor="start" x="459" y="-308.2" font-family="IPAGothic" font-size="11.00">0 rows</text>
<polygon fill="#ffffff" stroke="none" points="495,-302 495,-320 535,-320 535,-302 495,-302"/>
<polygon fill="none" stroke="black" points="495,-302 495,-320 535,-320 535,-302 495,-302"/>
<text text-anchor="start" x="524" y="-308.2" font-family="IPAGothic" font-size="11.00"> &#160;</text>
</a>
</g>
</g>
<!-- 消耗品管理（Results_12） -->
<g id="node2" class="node">
<title>消耗品管理（Results_12）</title>
<g id="a_node2"><a xlink:href="../../tables/______Results_12__2634b9ae.html" xlink:title="消耗品管理（Results_12）" target="_top">
<polygon fill="#ffffff" stroke="none" points="8,-37 8,-323 306,-323 306,-37 8,-37"/>
<polygon fill="#f5f5f5" stroke="none" points="10,-299 10,-321 304,-321 304,-299 10,-299"/>
<polygon fill="none" stroke="black" points="10,-299 10,-321 304,-321 304,-299 10,-299"/>
<text text-anchor="start" x="10.5" y="-308.2" font-family="IPAGothic" font-weight="bold" font-size="11.00">消耗品管理（Results_12）</text>
<text text-anchor="start" x="266" y="-307.2" font-family="IPAGothic" font-size="11.00">[table]</text>
<polygon fill="none" stroke="black" points="10,-277 10,-299 186,-299 186,-277 10,-277"/>
<image xlink:href="../../images/primaryKeys.png" width="11px" height="12px" preserveAspectRatio="xMinYMin meet" x="15" y="-294"/>
<text text-anchor="start" x="30" y="-285.2" font-family="IPAGothic" font-size="11.00">ID（ResultId）</text>
<polygon fill="none" stroke="black" points="186,-277 186,-299 304,-299 304,-277 186,-277"/>
<text text-anchor="start" x="189" y="-285.2" font-family="IPAGothic" font-size="11.00">int[4]</text>
<polygon fill="none" stroke="black" points="10,-255 10,-277 186,-277 186,-255 10,-255"/>
<text text-anchor="start" x="30" y="-263.2" font-family="IPAGothic" font-size="11.00">バージョン（Ver）</text>
<polygon fill="none" stroke="black" points="186,-255 186,-277 304,-277 304,-255 186,-255"/>
<text text-anchor="start" x="189" y="-263.2" font-family="IPAGothic" font-size="11.00">int[4]</text>
<polygon fill="none" stroke="black" points="10,-233 10,-255 186,-255 186,-233 10,-233"/>
<text text-anchor="start" x="30" y="-241.2" font-family="IPAGothic" font-size="11.00">タイトル（Title）</text>
<polygon fill="none" stroke="black" points="186,-233 186,-255 304,-255 304,-233 186,-233"/>
<text text-anchor="start" x="189" y="-241.2" font-family="IPAGothic" font-size="11.00">nvarchar[2048]</text>
<polygon fill="none" stroke="black" points="10,-211 10,-233 186,-233 186,-211 10,-211"/>
<text text-anchor="start" x="30" y="-219.2" font-family="IPAGothic" font-size="11.00">種別（ClassA）</text>
<polygon fill="none" stroke="black" points="186,-211 186,-233 304,-233 304,-211 186,-211"/>
<text text-anchor="start" x="189" y="-219.2" font-family="IPAGothic" font-size="11.00">nvarchar[2048]</text>
<polygon fill="none" stroke="black" points="10,-189 10,-211 186,-211 186,-189 10,-189"/>
<text text-anchor="start" x="30" y="-197.2" font-family="IPAGothic" font-size="11.00">備考（Body）</text>
<polygon fill="none" stroke="black" points="186,-189 186,-211 304,-211 304,-189 186,-189"/>
<text text-anchor="start" x="189" y="-197.2" font-family="IPAGothic" font-size="11.00">nvarchar[2147483647]</text>
<polygon fill="none" stroke="black" points="10,-167 10,-189 186,-189 186,-167 10,-167"/>
<text text-anchor="start" x="30" y="-175.2" font-family="IPAGothic" font-size="11.00">管理者（Manager）</text>
<polygon fill="none" stroke="black" points="186,-167 186,-189 304,-189 304,-167 186,-167"/>
<text text-anchor="start" x="189" y="-175.2" font-family="IPAGothic" font-size="11.00">int[4]</text>
<polygon fill="none" stroke="black" points="10,-145 10,-167 186,-167 186,-145 10,-145"/>
<text text-anchor="start" x="30" y="-153.2" font-family="IPAGothic" font-size="11.00">在庫合計（NumA）</text>
<polygon fill="none" stroke="black" points="186,-145 186,-167 304,-167 304,-145 186,-145"/>
<text text-anchor="start" x="189" y="-153.2" font-family="IPAGothic" font-size="11.00">decimal[21,4]</text>
<polygon fill="none" stroke="black" points="10,-123 10,-145 186,-145 186,-123 10,-123"/>
<text text-anchor="start" x="30" y="-131.2" font-family="IPAGothic" font-size="11.00">仕入合計（NumB）</text>
<polygon fill="none" stroke="black" points="186,-123 186,-145 304,-145 304,-123 186,-123"/>
<text text-anchor="start" x="189" y="-131.2" font-family="IPAGothic" font-size="11.00">decimal[21,4]</text>
<polygon fill="none" stroke="black" points="10,-101 10,-123 186,-123 186,-101 10,-101"/>
<text text-anchor="start" x="30" y="-109.2" font-family="IPAGothic" font-size="11.00">利用合計（NumC）</text>
<polygon fill="none" stroke="black" points="186,-101 186,-123 304,-123 304,-101 186,-101"/>
<text text-anchor="start" x="189" y="-109.2" font-family="IPAGothic" font-size="11.00">decimal[21,4]</text>
<polygon fill="none" stroke="black" points="10,-79 10,-101 186,-101 186,-79 10,-79"/>
<text text-anchor="start" x="30" y="-87.2" font-family="IPAGothic" font-size="11.00">金額合計（NumD）</text>
<polygon fill="none" stroke="black" points="186,-79 186,-101 304,-101 304,-79 186,-79"/>
<text text-anchor="start" x="189" y="-87.2" font-family="IPAGothic" font-size="11.00">decimal[21,4]</text>
<polygon fill="none" stroke="black" points="10,-57 10,-79 186,-79 186,-57 10,-57"/>
<text text-anchor="start" x="30" y="-65.2" font-family="IPAGothic" font-size="11.00">添付資料（AttachmentsA）</text>
<polygon fill="none" stroke="black" points="186,-57 186,-79 304,-79 304,-57 186,-57"/>
<text text-anchor="start" x="189" y="-65.2" font-family="IPAGothic" font-size="11.00">nvarchar[2147483647]</text>
<polygon fill="#ffffff" stroke="none" points="10,-39 10,-57 91,-57 91,-39 10,-39"/>
<polygon fill="none" stroke="black" points="10,-39 10,-57 91,-57 91,-39 10,-39"/>
<text text-anchor="start" x="13" y="-45.2" font-family="IPAGothic" font-size="11.00">&lt; 0</text>
<polygon fill="#ffffff" stroke="none" points="91,-39 91,-57 186,-57 186,-39 91,-39"/>
<polygon fill="none" stroke="black" points="91,-39 91,-57 186,-57 186,-39 91,-39"/>
<text text-anchor="start" x="150" y="-45.2" font-family="IPAGothic" font-size="11.00">0 rows</text>
<polygon fill="#ffffff" stroke="none" points="186,-39 186,-57 304,-57 304,-39 186,-39"/>
<polygon fill="none" stroke="black" points="186,-39 186,-57 304,-57 304,-39 186,-39"/>
<text text-anchor="start" x="282" y="-45.2" font-family="IPAGothic" font-size="11.00">2 &gt;</text>
<polygon fill="none" stroke="black" stroke-width="2" points="9,-38 9,-322 305,-322 305,-38 9,-38"/>
</a>
</g>
</g>
<!-- 利用台帳（Results_14）&#45;&gt;消耗品管理（Results_12） -->
<g id="edge1" class="edge">
<title>利用台帳（Results_14）:w&#45;&gt;消耗品管理（Results_12）:e</title>
<path fill="none" stroke="black" d="M339.97,-343.8C324.82,-329.05 333.53,-288 305,-288"/>
<polygon fill="black" stroke="black" points="346.5,-346.22 352.75,-352.38 350.25,-347.61 354,-349 354,-349 354,-349 350.25,-347.61 355.25,-345.62 346.5,-346.22 346.5,-346.22"/>
<ellipse fill="none" stroke="black" cx="343.03" cy="-344.93" rx="3.2" ry="3.2"/>
</g>
<!-- 購入台帳（Results_13） -->
<g id="node3" class="node">
<title>購入台帳（Results_13）</title>
<g id="a_node3"><a xlink:href="../../tables/_____Results_13__6fa2c522.html" xlink:title="購入台帳（Results_13）" target="_top">
<polygon fill="#ffffff" stroke="none" points="355,-179 355,-281 535,-281 535,-179 355,-179"/>
<polygon fill="#f5f5f5" stroke="none" points="355,-259 355,-281 535,-281 535,-259 355,-259"/>
<polygon fill="none" stroke="black" points="355,-259 355,-281 535,-281 535,-259 355,-259"/>
<text text-anchor="start" x="356" y="-268.2" font-family="IPAGothic" font-weight="bold" font-size="11.00">購入台帳（Results_13）</text>
<text text-anchor="start" x="497" y="-267.2" font-family="IPAGothic" font-size="11.00">[table]</text>
<polygon fill="none" stroke="black" points="355,-237 355,-259 535,-259 535,-237 355,-237"/>
<image xlink:href="../../images/primaryKeys.png" width="11px" height="12px" preserveAspectRatio="xMinYMin meet" x="360" y="-254"/>
<text text-anchor="start" x="377" y="-245.2" font-family="IPAGothic" font-size="11.00">ID（ResultId）</text>
<polygon fill="none" stroke="black" points="355,-215 355,-237 535,-237 535,-215 355,-215"/>
<image xlink:href="../../images/foreignKeys.png" width="11px" height="12px" preserveAspectRatio="xMinYMin meet" x="360" y="-232"/>
<text text-anchor="start" x="377" y="-223.2" font-family="IPAGothic" font-size="11.00">商品分類（ClassA）</text>
<polygon fill="none" stroke="black" points="355,-197 355,-215 535,-215 535,-197 355,-197"/>
<text text-anchor="start" x="358" y="-203.2" font-family="IPAGothic" font-size="11.00">...</text>
<polygon fill="#ffffff" stroke="none" points="355,-179 355,-197 431,-197 431,-179 355,-179"/>
<polygon fill="none" stroke="black" points="355,-179 355,-197 431,-197 431,-179 355,-179"/>
<text text-anchor="start" x="358" y="-185.2" font-family="IPAGothic" font-size="11.00">&lt; 1</text>
<polygon fill="#ffffff" stroke="none" points="431,-179 431,-197 495,-197 495,-179 431,-179"/>
<polygon fill="none" stroke="black" points="431,-179 431,-197 495,-197 495,-179 431,-179"/>
<text text-anchor="start" x="459" y="-185.2" font-family="IPAGothic" font-size="11.00">0 rows</text>
<polygon fill="#ffffff" stroke="none" points="495,-179 495,-197 535,-197 535,-179 495,-179"/>
<polygon fill="none" stroke="black" points="495,-179 495,-197 535,-197 535,-179 495,-179"/>
<text text-anchor="start" x="524" y="-185.2" font-family="IPAGothic" font-size="11.00"> &#160;</text>
</a>
</g>
</g>
<!-- 購入台帳（Results_13）&#45;&gt;消耗品管理（Results_12） -->
<g id="edge2" class="edge">
<title>購入台帳（Results_13）:w&#45;&gt;消耗品管理（Results_12）:e</title>
<path fill="none" stroke="black" d="M339.87,-231.29C324.69,-246.28 333.81,-288 305,-288"/>
<polygon fill="black" stroke="black" points="346.51,-228.8 355.26,-229.37 350.25,-227.4 354,-226 354,-226 354,-226 350.25,-227.4 352.74,-222.63 346.51,-228.8 346.51,-228.8"/>
<ellipse fill="none" stroke="black" cx="343.04" cy="-230.1" rx="3.2" ry="3.2"/>
</g>
</g>
</svg>
