<?xml version="1.0" encoding="UTF-8" standalone="no"?>
<!DOCTYPE svg PUBLIC "-//W3C//DTD SVG 1.1//EN"
 "http://www.w3.org/Graphics/SVG/1.1/DTD/svg11.dtd">
<!-- Generated by graphviz version 7.0.4 (20221203.1631)
 -->
<!-- Title: oneDegreeRelationshipsDiagram Pages: 1 -->
<svg width="631pt" height="445pt"
 viewBox="0.00 0.00 631.00 445.00" xmlns="http://www.w3.org/2000/svg" xmlns:xlink="http://www.w3.org/1999/xlink">
<g id="graph0" class="graph" transform="scale(1 1) rotate(0) translate(4 441)">
<title>oneDegreeRelationshipsDiagram</title>
<polygon fill="#ffffff" stroke="none" points="-4,4 -4,-441 627,-441 627,4 -4,4"/>
<text text-anchor="middle" x="72" y="-7.2" font-family="IPAGothic" font-size="11.00">Generated by SchemaSpy</text>
<!-- 課題管理（Issues_3） -->
<g id="node1" class="node">
<title>課題管理（Issues_3）</title>
<g id="a_node1"><a xlink:href="../../tables/_____Issues_3__d1af85d2.html" xlink:title="課題管理（Issues_3）" target="_top">
<polygon fill="#ffffff" stroke="none" points="275,-37 275,-433 615,-433 615,-37 275,-37"/>
<polygon fill="#f5f5f5" stroke="none" points="277,-409 277,-431 613,-431 613,-409 277,-409"/>
<polygon fill="none" stroke="black" points="277,-409 277,-431 613,-431 613,-409 277,-409"/>
<text text-anchor="start" x="277.5" y="-418.2" font-family="IPAGothic" font-weight="bold" font-size="11.00">課題管理（Issues_3）</text>
<text text-anchor="start" x="575" y="-417.2" font-family="IPAGothic" font-size="11.00">[table]</text>
<polygon fill="none" stroke="black" points="277,-387 277,-409 495,-409 495,-387 277,-387"/>
<image xlink:href="../../images/primaryKeys.png" width="11px" height="12px" preserveAspectRatio="xMinYMin meet" x="282" y="-404"/>
<text text-anchor="start" x="297" y="-395.2" font-family="IPAGothic" font-size="11.00">ID（IssueId）</text>
<polygon fill="none" stroke="black" points="495,-387 495,-409 613,-409 613,-387 495,-387"/>
<text text-anchor="start" x="498" y="-395.2" font-family="IPAGothic" font-size="11.00">int[4]</text>
<polygon fill="none" stroke="black" points="277,-365 277,-387 495,-387 495,-365 277,-365"/>
<text text-anchor="start" x="297" y="-373.2" font-family="IPAGothic" font-size="11.00">バージョン（Ver）</text>
<polygon fill="none" stroke="black" points="495,-365 495,-387 613,-387 613,-365 495,-365"/>
<text text-anchor="start" x="498" y="-373.2" font-family="IPAGothic" font-size="11.00">int[4]</text>
<polygon fill="none" stroke="black" points="277,-343 277,-365 495,-365 495,-343 277,-343"/>
<text text-anchor="start" x="297" y="-351.2" font-family="IPAGothic" font-size="11.00">タイトル（Title）</text>
<polygon fill="none" stroke="black" points="495,-343 495,-365 613,-365 613,-343 495,-343"/>
<text text-anchor="start" x="498" y="-351.2" font-family="IPAGothic" font-size="11.00">nvarchar[2048]</text>
<polygon fill="none" stroke="black" points="277,-321 277,-343 495,-343 495,-321 277,-321"/>
<text text-anchor="start" x="297" y="-329.2" font-family="IPAGothic" font-size="11.00">内容（Body）</text>
<polygon fill="none" stroke="black" points="495,-321 495,-343 613,-343 613,-321 495,-321"/>
<text text-anchor="start" x="498" y="-329.2" font-family="IPAGothic" font-size="11.00">nvarchar[2147483647]</text>
<polygon fill="none" stroke="black" points="277,-299 277,-321 495,-321 495,-299 277,-299"/>
<text text-anchor="start" x="297" y="-307.2" font-family="IPAGothic" font-size="11.00">開始（StartTime）</text>
<polygon fill="none" stroke="black" points="495,-299 495,-321 613,-321 613,-299 495,-299"/>
<text text-anchor="start" x="498" y="-307.2" font-family="IPAGothic" font-size="11.00">datetime[16,3]</text>
<polygon fill="none" stroke="black" points="277,-277 277,-299 495,-299 495,-277 277,-277"/>
<text text-anchor="start" x="297" y="-285.2" font-family="IPAGothic" font-size="11.00">完了（CompletionTime）</text>
<polygon fill="none" stroke="black" points="495,-277 495,-299 613,-299 613,-277 495,-277"/>
<text text-anchor="start" x="498" y="-285.2" font-family="IPAGothic" font-size="11.00">datetime[16,3]</text>
<polygon fill="none" stroke="black" points="277,-255 277,-277 495,-277 495,-255 277,-255"/>
<text text-anchor="start" x="297" y="-263.2" font-family="IPAGothic" font-size="11.00">作業量（WorkValue）</text>
<polygon fill="none" stroke="black" points="495,-255 495,-277 613,-277 613,-255 495,-255"/>
<text text-anchor="start" x="498" y="-263.2" font-family="IPAGothic" font-size="11.00">decimal[21,4]</text>
<polygon fill="none" stroke="black" points="277,-233 277,-255 495,-255 495,-233 277,-233"/>
<text text-anchor="start" x="297" y="-241.2" font-family="IPAGothic" font-size="11.00">進捗率（ProgressRate）</text>
<polygon fill="none" stroke="black" points="495,-233 495,-255 613,-255 613,-233 495,-233"/>
<text text-anchor="start" x="498" y="-241.2" font-family="IPAGothic" font-size="11.00">decimal[6,1]</text>
<polygon fill="none" stroke="black" points="277,-211 277,-233 495,-233 495,-211 277,-211"/>
<text text-anchor="start" x="297" y="-219.2" font-family="IPAGothic" font-size="11.00">残作業量（RemainingWorkValue）</text>
<polygon fill="none" stroke="black" points="495,-211 495,-233 613,-233 613,-211 495,-211"/>
<text text-anchor="start" x="498" y="-219.2" font-family="IPAGothic" font-size="11.00">decimal[21,4]</text>
<polygon fill="none" stroke="black" points="277,-189 277,-211 495,-211 495,-189 277,-189"/>
<text text-anchor="start" x="297" y="-197.2" font-family="IPAGothic" font-size="11.00">状況（Status）</text>
<polygon fill="none" stroke="black" points="495,-189 495,-211 613,-211 613,-189 495,-189"/>
<text text-anchor="start" x="498" y="-197.2" font-family="IPAGothic" font-size="11.00">int[4]</text>
<polygon fill="none" stroke="black" points="277,-167 277,-189 495,-189 495,-167 277,-167"/>
<text text-anchor="start" x="297" y="-175.2" font-family="IPAGothic" font-size="11.00">管理者（Manager）</text>
<polygon fill="none" stroke="black" points="495,-167 495,-189 613,-189 613,-167 495,-167"/>
<text text-anchor="start" x="498" y="-175.2" font-family="IPAGothic" font-size="11.00">int[4]</text>
<polygon fill="none" stroke="black" points="277,-145 277,-167 495,-167 495,-145 277,-145"/>
<text text-anchor="start" x="297" y="-153.2" font-family="IPAGothic" font-size="11.00">担当者（Owner）</text>
<polygon fill="none" stroke="black" points="495,-145 495,-167 613,-167 613,-145 495,-145"/>
<text text-anchor="start" x="498" y="-153.2" font-family="IPAGothic" font-size="11.00">int[4]</text>
<polygon fill="none" stroke="black" points="277,-123 277,-145 495,-145 495,-123 277,-123"/>
<image xlink:href="../../images/foreignKeys.png" width="11px" height="12px" preserveAspectRatio="xMinYMin meet" x="282" y="-140"/>
<text text-anchor="start" x="297" y="-131.2" font-family="IPAGothic" font-size="11.00">WBS（ClassA）</text>
<polygon fill="none" stroke="black" points="495,-123 495,-145 613,-145 613,-123 495,-123"/>
<text text-anchor="start" x="498" y="-131.2" font-family="IPAGothic" font-size="11.00">int[4]</text>
<polygon fill="none" stroke="black" points="277,-101 277,-123 495,-123 495,-101 277,-101"/>
<text text-anchor="start" x="297" y="-109.2" font-family="IPAGothic" font-size="11.00">区分（ClassB）</text>
<polygon fill="none" stroke="black" points="495,-101 495,-123 613,-123 613,-101 495,-101"/>
<text text-anchor="start" x="498" y="-109.2" font-family="IPAGothic" font-size="11.00">nvarchar[2048]</text>
<polygon fill="none" stroke="black" points="277,-79 277,-101 495,-101 495,-79 277,-79"/>
<text text-anchor="start" x="297" y="-87.2" font-family="IPAGothic" font-size="11.00">添付資料（AttachmentsA）</text>
<polygon fill="none" stroke="black" points="495,-79 495,-101 613,-101 613,-79 495,-79"/>
<text text-anchor="start" x="498" y="-87.2" font-family="IPAGothic" font-size="11.00">nvarchar[2147483647]</text>
<polygon fill="none" stroke="black" points="277,-57 277,-79 495,-79 495,-57 277,-57"/>
<text text-anchor="start" x="297" y="-65.2" font-family="IPAGothic" font-size="11.00">コメント（Comments）</text>
<polygon fill="none" stroke="black" points="495,-57 495,-79 613,-79 613,-57 495,-57"/>
<text text-anchor="start" x="498" y="-65.2" font-family="IPAGothic" font-size="11.00">nvarchar[2147483647]</text>
<polygon fill="#ffffff" stroke="none" points="277,-39 277,-57 379,-57 379,-39 277,-39"/>
<polygon fill="none" stroke="black" points="277,-39 277,-57 379,-57 379,-39 277,-39"/>
<text text-anchor="start" x="280" y="-45.2" font-family="IPAGothic" font-size="11.00">&lt; 1</text>
<polygon fill="#ffffff" stroke="none" points="379,-39 379,-57 495,-57 495,-39 379,-39"/>
<polygon fill="none" stroke="black" points="379,-39 379,-57 495,-57 495,-39 379,-39"/>
<text text-anchor="start" x="459" y="-45.2" font-family="IPAGothic" font-size="11.00">0 rows</text>
<polygon fill="#ffffff" stroke="none" points="495,-39 495,-57 613,-57 613,-39 495,-39"/>
<polygon fill="none" stroke="black" points="495,-39 495,-57 613,-57 613,-39 495,-39"/>
<text text-anchor="start" x="591" y="-45.2" font-family="IPAGothic" font-size="11.00">0 &gt;</text>
<polygon fill="none" stroke="black" stroke-width="2" points="276,-38 276,-432 614,-432 614,-38 276,-38"/>
</a>
</g>
</g>
<!-- WBS（Issues_2） -->
<g id="node2" class="node">
<title>WBS（Issues_2）</title>
<g id="a_node2"><a xlink:href="../../tables/WBS_Issues_2__9cf79b7c.html" xlink:title="WBS（Issues_2）" target="_top">
<polygon fill="#ffffff" stroke="none" points="8,-87 8,-167 226,-167 226,-87 8,-87"/>
<polygon fill="#f5f5f5" stroke="none" points="8,-145 8,-167 226,-167 226,-145 8,-145"/>
<polygon fill="none" stroke="black" points="8,-145 8,-167 226,-167 226,-145 8,-145"/>
<text text-anchor="start" x="10.5" y="-154.2" font-family="IPAGothic" font-weight="bold" font-size="11.00">WBS（Issues_2）</text>
<text text-anchor="start" x="188" y="-153.2" font-family="IPAGothic" font-size="11.00">[table]</text>
<polygon fill="none" stroke="black" points="8,-123 8,-145 226,-145 226,-123 8,-123"/>
<image xlink:href="../../images/primaryKeys.png" width="11px" height="12px" preserveAspectRatio="xMinYMin meet" x="13" y="-140"/>
<text text-anchor="start" x="28" y="-131.2" font-family="IPAGothic" font-size="11.00">ID（IssueId）</text>
<polygon fill="none" stroke="black" points="8,-105 8,-123 226,-123 226,-105 8,-105"/>
<text text-anchor="start" x="11" y="-111.2" font-family="IPAGothic" font-size="11.00">...</text>
<polygon fill="#ffffff" stroke="none" points="8,-87 8,-105 92,-105 92,-87 8,-87"/>
<polygon fill="none" stroke="black" points="8,-87 8,-105 92,-105 92,-87 8,-87"/>
<text text-anchor="start" x="11" y="-93.2" font-family="IPAGothic" font-size="11.00"> &#160;</text>
<polygon fill="#ffffff" stroke="none" points="92,-87 92,-105 166,-105 166,-87 92,-87"/>
<polygon fill="none" stroke="black" points="92,-87 92,-105 166,-105 166,-87 92,-87"/>
<text text-anchor="start" x="130" y="-93.2" font-family="IPAGothic" font-size="11.00">0 rows</text>
<polygon fill="#ffffff" stroke="none" points="166,-87 166,-105 226,-105 226,-87 166,-87"/>
<polygon fill="none" stroke="black" points="166,-87 166,-105 226,-105 226,-87 166,-87"/>
<text text-anchor="start" x="204" y="-93.2" font-family="IPAGothic" font-size="11.00">2 &gt;</text>
</a>
</g>
</g>
<!-- 課題管理（Issues_3）&#45;&gt;WBS（Issues_2） -->
<g id="edge1" class="edge">
<title>課題管理（Issues_3）:w&#45;&gt;WBS（Issues_2）:e</title>
<path fill="none" stroke="black" d="M260.77,-134C249.87,-134 242.65,-134 227,-134"/>
<polygon fill="black" stroke="black" points="268,-134 276,-137.6 272,-134 276,-134 276,-134 276,-134 272,-134 276,-130.4 268,-134 268,-134"/>
<ellipse fill="none" stroke="black" cx="264.3" cy="-134" rx="3.2" ry="3.2"/>
</g>
</g>
</svg>
