<?xml version="1.0" encoding="UTF-8" standalone="no"?>
<!DOCTYPE svg PUBLIC "-//W3C//DTD SVG 1.1//EN"
 "http://www.w3.org/Graphics/SVG/1.1/DTD/svg11.dtd">
<!-- Generated by graphviz version 7.0.4 (20221203.1631)
 -->
<!-- Title: oneDegreeRelationshipsDiagram Pages: 1 -->
<svg width="335pt" height="357pt"
 viewBox="0.00 0.00 335.00 357.00" xmlns="http://www.w3.org/2000/svg" xmlns:xlink="http://www.w3.org/1999/xlink">
<g id="graph0" class="graph" transform="scale(1 1) rotate(0) translate(4 353)">
<title>oneDegreeRelationshipsDiagram</title>
<polygon fill="#ffffff" stroke="none" points="-4,4 -4,-353 331,-353 331,4 -4,4"/>
<text text-anchor="middle" x="72" y="-7.2" font-family="IPAGothic" font-size="11.00">Generated by SchemaSpy</text>
<!-- タスク引継ぎ表（Issues_35） -->
<g id="node1" class="node">
<title>タスク引継ぎ表（Issues_35）</title>
<g id="a_node1"><a xlink:href="../../tables/________Issues_35__c8a59597.html" xlink:title="タスク引継ぎ表（Issues_35）" target="_top">
<polygon fill="#ffffff" stroke="none" points="8,-37 8,-345 319,-345 319,-37 8,-37"/>
<polygon fill="#f5f5f5" stroke="none" points="10.5,-321 10.5,-343 317.5,-343 317.5,-321 10.5,-321"/>
<polygon fill="none" stroke="black" points="10.5,-321 10.5,-343 317.5,-343 317.5,-321 10.5,-321"/>
<text text-anchor="start" x="10.5" y="-330.2" font-family="IPAGothic" font-weight="bold" font-size="11.00">タスク引継ぎ表（Issues_35）</text>
<text text-anchor="start" x="279.5" y="-329.2" font-family="IPAGothic" font-size="11.00">[table]</text>
<polygon fill="none" stroke="black" points="10.5,-299 10.5,-321 199.5,-321 199.5,-299 10.5,-299"/>
<image xlink:href="../../images/primaryKeys.png" width="11px" height="12px" preserveAspectRatio="xMinYMin meet" x="15.5" y="-316"/>
<text text-anchor="start" x="30.5" y="-307.2" font-family="IPAGothic" font-size="11.00">ID（IssueId）</text>
<polygon fill="none" stroke="black" points="199.5,-299 199.5,-321 317.5,-321 317.5,-299 199.5,-299"/>
<text text-anchor="start" x="202.5" y="-307.2" font-family="IPAGothic" font-size="11.00">int[4]</text>
<polygon fill="none" stroke="black" points="10.5,-277 10.5,-299 199.5,-299 199.5,-277 10.5,-277"/>
<text text-anchor="start" x="30.5" y="-285.2" font-family="IPAGothic" font-size="11.00">バージョン（Ver）</text>
<polygon fill="none" stroke="black" points="199.5,-277 199.5,-299 317.5,-299 317.5,-277 199.5,-277"/>
<text text-anchor="start" x="202.5" y="-285.2" font-family="IPAGothic" font-size="11.00">int[4]</text>
<polygon fill="none" stroke="black" points="10.5,-255 10.5,-277 199.5,-277 199.5,-255 10.5,-255"/>
<text text-anchor="start" x="30.5" y="-263.2" font-family="IPAGothic" font-size="11.00">タイトル（Title）</text>
<polygon fill="none" stroke="black" points="199.5,-255 199.5,-277 317.5,-277 317.5,-255 199.5,-255"/>
<text text-anchor="start" x="202.5" y="-263.2" font-family="IPAGothic" font-size="11.00">nvarchar[2048]</text>
<polygon fill="none" stroke="black" points="10.5,-233 10.5,-255 199.5,-255 199.5,-233 10.5,-233"/>
<text text-anchor="start" x="30.5" y="-241.2" font-family="IPAGothic" font-size="11.00">内容（Body）</text>
<polygon fill="none" stroke="black" points="199.5,-233 199.5,-255 317.5,-255 317.5,-233 199.5,-233"/>
<text text-anchor="start" x="202.5" y="-241.2" font-family="IPAGothic" font-size="11.00">nvarchar[2147483647]</text>
<polygon fill="none" stroke="black" points="10.5,-211 10.5,-233 199.5,-233 199.5,-211 10.5,-211"/>
<text text-anchor="start" x="30.5" y="-219.2" font-family="IPAGothic" font-size="11.00">種別（ClassA）</text>
<polygon fill="none" stroke="black" points="199.5,-211 199.5,-233 317.5,-233 317.5,-211 199.5,-211"/>
<text text-anchor="start" x="202.5" y="-219.2" font-family="IPAGothic" font-size="11.00">nvarchar[2048]</text>
<polygon fill="none" stroke="black" points="10.5,-189 10.5,-211 199.5,-211 199.5,-189 10.5,-189"/>
<text text-anchor="start" x="30.5" y="-197.2" font-family="IPAGothic" font-size="11.00">開始（StartTime）</text>
<polygon fill="none" stroke="black" points="199.5,-189 199.5,-211 317.5,-211 317.5,-189 199.5,-189"/>
<text text-anchor="start" x="202.5" y="-197.2" font-family="IPAGothic" font-size="11.00">datetime[16,3]</text>
<polygon fill="none" stroke="black" points="10.5,-167 10.5,-189 199.5,-189 199.5,-167 10.5,-167"/>
<text text-anchor="start" x="30.5" y="-175.2" font-family="IPAGothic" font-size="11.00">完了（CompletionTime）</text>
<polygon fill="none" stroke="black" points="199.5,-167 199.5,-189 317.5,-189 317.5,-167 199.5,-167"/>
<text text-anchor="start" x="202.5" y="-175.2" font-family="IPAGothic" font-size="11.00">datetime[16,3]</text>
<polygon fill="none" stroke="black" points="10.5,-145 10.5,-167 199.5,-167 199.5,-145 10.5,-145"/>
<text text-anchor="start" x="30.5" y="-153.2" font-family="IPAGothic" font-size="11.00">状況（Status）</text>
<polygon fill="none" stroke="black" points="199.5,-145 199.5,-167 317.5,-167 317.5,-145 199.5,-145"/>
<text text-anchor="start" x="202.5" y="-153.2" font-family="IPAGothic" font-size="11.00">int[4]</text>
<polygon fill="none" stroke="black" points="10.5,-123 10.5,-145 199.5,-145 199.5,-123 10.5,-123"/>
<text text-anchor="start" x="30.5" y="-131.2" font-family="IPAGothic" font-size="11.00">起票者（Manager）</text>
<polygon fill="none" stroke="black" points="199.5,-123 199.5,-145 317.5,-145 317.5,-123 199.5,-123"/>
<text text-anchor="start" x="202.5" y="-131.2" font-family="IPAGothic" font-size="11.00">int[4]</text>
<polygon fill="none" stroke="black" points="10.5,-101 10.5,-123 199.5,-123 199.5,-101 10.5,-101"/>
<text text-anchor="start" x="30.5" y="-109.2" font-family="IPAGothic" font-size="11.00">担当者（Owner）</text>
<polygon fill="none" stroke="black" points="199.5,-101 199.5,-123 317.5,-123 317.5,-101 199.5,-101"/>
<text text-anchor="start" x="202.5" y="-109.2" font-family="IPAGothic" font-size="11.00">int[4]</text>
<polygon fill="none" stroke="black" points="10.5,-79 10.5,-101 199.5,-101 199.5,-79 10.5,-79"/>
<text text-anchor="start" x="30.5" y="-87.2" font-family="IPAGothic" font-size="11.00">添付資料（AttachmentsA）</text>
<polygon fill="none" stroke="black" points="199.5,-79 199.5,-101 317.5,-101 317.5,-79 199.5,-79"/>
<text text-anchor="start" x="202.5" y="-87.2" font-family="IPAGothic" font-size="11.00">nvarchar[2147483647]</text>
<polygon fill="none" stroke="black" points="10.5,-57 10.5,-79 199.5,-79 199.5,-57 10.5,-57"/>
<text text-anchor="start" x="30.5" y="-65.2" font-family="IPAGothic" font-size="11.00">コメント（Comments）</text>
<polygon fill="none" stroke="black" points="199.5,-57 199.5,-79 317.5,-79 317.5,-57 199.5,-57"/>
<text text-anchor="start" x="202.5" y="-65.2" font-family="IPAGothic" font-size="11.00">nvarchar[2147483647]</text>
<polygon fill="#ffffff" stroke="none" points="10.5,-39 10.5,-57 97.5,-57 97.5,-39 10.5,-39"/>
<polygon fill="none" stroke="black" points="10.5,-39 10.5,-57 97.5,-57 97.5,-39 10.5,-39"/>
<text text-anchor="start" x="13.5" y="-45.2" font-family="IPAGothic" font-size="11.00">&lt; 0</text>
<polygon fill="#ffffff" stroke="none" points="97.5,-39 97.5,-57 199.5,-57 199.5,-39 97.5,-39"/>
<polygon fill="none" stroke="black" points="97.5,-39 97.5,-57 199.5,-57 199.5,-39 97.5,-39"/>
<text text-anchor="start" x="163.5" y="-45.2" font-family="IPAGothic" font-size="11.00">0 rows</text>
<polygon fill="#ffffff" stroke="none" points="199.5,-39 199.5,-57 317.5,-57 317.5,-39 199.5,-39"/>
<polygon fill="none" stroke="black" points="199.5,-39 199.5,-57 317.5,-57 317.5,-39 199.5,-39"/>
<text text-anchor="start" x="295.5" y="-45.2" font-family="IPAGothic" font-size="11.00">0 &gt;</text>
<polygon fill="none" stroke="black" stroke-width="2" points="9,-38 9,-344 318,-344 318,-38 9,-38"/>
</a>
</g>
</g>
</g>
</svg>
