<?xml version="1.0" encoding="UTF-8" standalone="no"?>
<!DOCTYPE svg PUBLIC "-//W3C//DTD SVG 1.1//EN"
 "http://www.w3.org/Graphics/SVG/1.1/DTD/svg11.dtd">
<!-- Generated by graphviz version 7.0.4 (20221203.1631)
 -->
<!-- Title: twoDegreesRelationshipsDiagram Pages: 1 -->
<svg width="631pt" height="524pt"
 viewBox="0.00 0.00 631.00 524.00" xmlns="http://www.w3.org/2000/svg" xmlns:xlink="http://www.w3.org/1999/xlink">
<g id="graph0" class="graph" transform="scale(1 1) rotate(0) translate(4 520)">
<title>twoDegreesRelationshipsDiagram</title>
<polygon fill="#ffffff" stroke="none" points="-4,4 -4,-520 627,-520 627,4 -4,4"/>
<text text-anchor="middle" x="72" y="-7.2" font-family="IPAGothic" font-size="11.00">Generated by SchemaSpy</text>
<!-- レビュー記録（Results_4） -->
<g id="node1" class="node">
<title>レビュー記録（Results_4）</title>
<g id="a_node1"><a xlink:href="../../tables/_______Results_4__36cfdf6e.html" xlink:title="レビュー記録（Results_4）" target="_top">
<polygon fill="#ffffff" stroke="none" points="346,-454 346,-512 544,-512 544,-454 346,-454"/>
<polygon fill="#f5f5f5" stroke="none" points="346,-490 346,-512 544,-512 544,-490 346,-490"/>
<polygon fill="none" stroke="black" points="346,-490 346,-512 544,-512 544,-490 346,-490"/>
<text text-anchor="start" x="347" y="-499.2" font-family="IPAGothic" font-weight="bold" font-size="11.00">レビュー記録（Results_4）</text>
<text text-anchor="start" x="506" y="-498.2" font-family="IPAGothic" font-size="11.00">[table]</text>
<polygon fill="none" stroke="black" points="346,-472 346,-490 544,-490 544,-472 346,-472"/>
<text text-anchor="start" x="349" y="-478.2" font-family="IPAGothic" font-size="11.00">...</text>
<polygon fill="#ffffff" stroke="none" points="346,-454 346,-472 431,-472 431,-454 346,-454"/>
<polygon fill="none" stroke="black" points="346,-454 346,-472 431,-472 431,-454 346,-454"/>
<text text-anchor="start" x="349" y="-460.2" font-family="IPAGothic" font-size="11.00">&lt; 1</text>
<polygon fill="#ffffff" stroke="none" points="431,-454 431,-472 500,-472 500,-454 431,-454"/>
<polygon fill="none" stroke="black" points="431,-454 431,-472 500,-472 500,-454 431,-454"/>
<text text-anchor="start" x="464" y="-460.2" font-family="IPAGothic" font-size="11.00">0 rows</text>
<polygon fill="#ffffff" stroke="none" points="500,-454 500,-472 544,-472 544,-454 500,-454"/>
<polygon fill="none" stroke="black" points="500,-454 500,-472 544,-472 544,-454 500,-454"/>
<text text-anchor="start" x="533" y="-460.2" font-family="IPAGothic" font-size="11.00"> &#160;</text>
</a>
</g>
</g>
<!-- WBS（Issues_2） -->
<g id="node2" class="node">
<title>WBS（Issues_2）</title>
<g id="a_node2"><a xlink:href="../../tables/WBS_Issues_2__9cf79b7c.html" xlink:title="WBS（Issues_2）" target="_top">
<polygon fill="#ffffff" stroke="none" points="8,-260 8,-340 226,-340 226,-260 8,-260"/>
<polygon fill="#f5f5f5" stroke="none" points="8,-318 8,-340 226,-340 226,-318 8,-318"/>
<polygon fill="none" stroke="black" points="8,-318 8,-340 226,-340 226,-318 8,-318"/>
<text text-anchor="start" x="10.5" y="-327.2" font-family="IPAGothic" font-weight="bold" font-size="11.00">WBS（Issues_2）</text>
<text text-anchor="start" x="188" y="-326.2" font-family="IPAGothic" font-size="11.00">[table]</text>
<polygon fill="none" stroke="black" points="8,-296 8,-318 226,-318 226,-296 8,-296"/>
<image xlink:href="../../images/primaryKeys.png" width="11px" height="12px" preserveAspectRatio="xMinYMin meet" x="13" y="-313"/>
<text text-anchor="start" x="28" y="-304.2" font-family="IPAGothic" font-size="11.00">ID（IssueId）</text>
<polygon fill="none" stroke="black" points="8,-278 8,-296 226,-296 226,-278 8,-278"/>
<text text-anchor="start" x="11" y="-284.2" font-family="IPAGothic" font-size="11.00">...</text>
<polygon fill="#ffffff" stroke="none" points="8,-260 8,-278 92,-278 92,-260 8,-260"/>
<polygon fill="none" stroke="black" points="8,-260 8,-278 92,-278 92,-260 8,-260"/>
<text text-anchor="start" x="11" y="-266.2" font-family="IPAGothic" font-size="11.00"> &#160;</text>
<polygon fill="#ffffff" stroke="none" points="92,-260 92,-278 166,-278 166,-260 92,-260"/>
<polygon fill="none" stroke="black" points="92,-260 92,-278 166,-278 166,-260 92,-260"/>
<text text-anchor="start" x="130" y="-266.2" font-family="IPAGothic" font-size="11.00">0 rows</text>
<polygon fill="#ffffff" stroke="none" points="166,-260 166,-278 226,-278 226,-260 166,-260"/>
<polygon fill="none" stroke="black" points="166,-260 166,-278 226,-278 226,-260 166,-260"/>
<text text-anchor="start" x="204" y="-266.2" font-family="IPAGothic" font-size="11.00">2 &gt;</text>
</a>
</g>
</g>
<!-- レビュー記録（Results_4）&#45;&gt;WBS（Issues_2） -->
<g id="edge1" class="edge">
<title>レビュー記録（Results_4）:w&#45;&gt;WBS（Issues_2）:e</title>
<path fill="none" stroke="black" d="M329.74,-480.47C302.16,-478.3 288.3,-468.98 267,-444 225.85,-395.73 290.43,-307 227,-307"/>
<polygon fill="black" stroke="black" points="337,-480.72 344.88,-484.6 341,-480.86 345,-481 345,-481 345,-481 341,-480.86 345.12,-477.4 337,-480.72 337,-480.72"/>
<ellipse fill="none" stroke="black" cx="333.31" cy="-480.59" rx="3.2" ry="3.2"/>
</g>
<!-- 課題管理（Issues_3） -->
<g id="node3" class="node">
<title>課題管理（Issues_3）</title>
<g id="a_node3"><a xlink:href="../../tables/_____Issues_3__d1af85d2.html" xlink:title="課題管理（Issues_3）" target="_top">
<polygon fill="#ffffff" stroke="none" points="275,-37 275,-433 615,-433 615,-37 275,-37"/>
<polygon fill="#f5f5f5" stroke="none" points="277,-409 277,-431 613,-431 613,-409 277,-409"/>
<polygon fill="none" stroke="black" points="277,-409 277,-431 613,-431 613,-409 277,-409"/>
<text text-anchor="start" x="277.5" y="-418.2" font-family="IPAGothic" font-weight="bold" font-size="11.00">課題管理（Issues_3）</text>
<text text-anchor="start" x="575" y="-417.2" font-family="IPAGothic" font-size="11.00">[table]</text>
<polygon fill="none" stroke="black" points="277,-387 277,-409 495,-409 495,-387 277,-387"/>
<image xlink:href="../../images/primaryKeys.png" width="11px" height="12px" preserveAspectRatio="xMinYMin meet" x="282" y="-404"/>
<text text-anchor="start" x="297" y="-395.2" font-family="IPAGothic" font-size="11.00">ID（IssueId）</text>
<polygon fill="none" stroke="black" points="495,-387 495,-409 613,-409 613,-387 495,-387"/>
<text text-anchor="start" x="498" y="-395.2" font-family="IPAGothic" font-size="11.00">int[4]</text>
<polygon fill="none" stroke="black" points="277,-365 277,-387 495,-387 495,-365 277,-365"/>
<text text-anchor="start" x="297" y="-373.2" font-family="IPAGothic" font-size="11.00">バージョン（Ver）</text>
<polygon fill="none" stroke="black" points="495,-365 495,-387 613,-387 613,-365 495,-365"/>
<text text-anchor="start" x="498" y="-373.2" font-family="IPAGothic" font-size="11.00">int[4]</text>
<polygon fill="none" stroke="black" points="277,-343 277,-365 495,-365 495,-343 277,-343"/>
<text text-anchor="start" x="297" y="-351.2" font-family="IPAGothic" font-size="11.00">タイトル（Title）</text>
<polygon fill="none" stroke="black" points="495,-343 495,-365 613,-365 613,-343 495,-343"/>
<text text-anchor="start" x="498" y="-351.2" font-family="IPAGothic" font-size="11.00">nvarchar[2048]</text>
<polygon fill="none" stroke="black" points="277,-321 277,-343 495,-343 495,-321 277,-321"/>
<text text-anchor="start" x="297" y="-329.2" font-family="IPAGothic" font-size="11.00">内容（Body）</text>
<polygon fill="none" stroke="black" points="495,-321 495,-343 613,-343 613,-321 495,-321"/>
<text text-anchor="start" x="498" y="-329.2" font-family="IPAGothic" font-size="11.00">nvarchar[2147483647]</text>
<polygon fill="none" stroke="black" points="277,-299 277,-321 495,-321 495,-299 277,-299"/>
<text text-anchor="start" x="297" y="-307.2" font-family="IPAGothic" font-size="11.00">開始（StartTime）</text>
<polygon fill="none" stroke="black" points="495,-299 495,-321 613,-321 613,-299 495,-299"/>
<text text-anchor="start" x="498" y="-307.2" font-family="IPAGothic" font-size="11.00">datetime[16,3]</text>
<polygon fill="none" stroke="black" points="277,-277 277,-299 495,-299 495,-277 277,-277"/>
<text text-anchor="start" x="297" y="-285.2" font-family="IPAGothic" font-size="11.00">完了（CompletionTime）</text>
<polygon fill="none" stroke="black" points="495,-277 495,-299 613,-299 613,-277 495,-277"/>
<text text-anchor="start" x="498" y="-285.2" font-family="IPAGothic" font-size="11.00">datetime[16,3]</text>
<polygon fill="none" stroke="black" points="277,-255 277,-277 495,-277 495,-255 277,-255"/>
<text text-anchor="start" x="297" y="-263.2" font-family="IPAGothic" font-size="11.00">作業量（WorkValue）</text>
<polygon fill="none" stroke="black" points="495,-255 495,-277 613,-277 613,-255 495,-255"/>
<text text-anchor="start" x="498" y="-263.2" font-family="IPAGothic" font-size="11.00">decimal[21,4]</text>
<polygon fill="none" stroke="black" points="277,-233 277,-255 495,-255 495,-233 277,-233"/>
<text text-anchor="start" x="297" y="-241.2" font-family="IPAGothic" font-size="11.00">進捗率（ProgressRate）</text>
<polygon fill="none" stroke="black" points="495,-233 495,-255 613,-255 613,-233 495,-233"/>
<text text-anchor="start" x="498" y="-241.2" font-family="IPAGothic" font-size="11.00">decimal[6,1]</text>
<polygon fill="none" stroke="black" points="277,-211 277,-233 495,-233 495,-211 277,-211"/>
<text text-anchor="start" x="297" y="-219.2" font-family="IPAGothic" font-size="11.00">残作業量（RemainingWorkValue）</text>
<polygon fill="none" stroke="black" points="495,-211 495,-233 613,-233 613,-211 495,-211"/>
<text text-anchor="start" x="498" y="-219.2" font-family="IPAGothic" font-size="11.00">decimal[21,4]</text>
<polygon fill="none" stroke="black" points="277,-189 277,-211 495,-211 495,-189 277,-189"/>
<text text-anchor="start" x="297" y="-197.2" font-family="IPAGothic" font-size="11.00">状況（Status）</text>
<polygon fill="none" stroke="black" points="495,-189 495,-211 613,-211 613,-189 495,-189"/>
<text text-anchor="start" x="498" y="-197.2" font-family="IPAGothic" font-size="11.00">int[4]</text>
<polygon fill="none" stroke="black" points="277,-167 277,-189 495,-189 495,-167 277,-167"/>
<text text-anchor="start" x="297" y="-175.2" font-family="IPAGothic" font-size="11.00">管理者（Manager）</text>
<polygon fill="none" stroke="black" points="495,-167 495,-189 613,-189 613,-167 495,-167"/>
<text text-anchor="start" x="498" y="-175.2" font-family="IPAGothic" font-size="11.00">int[4]</text>
<polygon fill="none" stroke="black" points="277,-145 277,-167 495,-167 495,-145 277,-145"/>
<text text-anchor="start" x="297" y="-153.2" font-family="IPAGothic" font-size="11.00">担当者（Owner）</text>
<polygon fill="none" stroke="black" points="495,-145 495,-167 613,-167 613,-145 495,-145"/>
<text text-anchor="start" x="498" y="-153.2" font-family="IPAGothic" font-size="11.00">int[4]</text>
<polygon fill="none" stroke="black" points="277,-123 277,-145 495,-145 495,-123 277,-123"/>
<image xlink:href="../../images/foreignKeys.png" width="11px" height="12px" preserveAspectRatio="xMinYMin meet" x="282" y="-140"/>
<text text-anchor="start" x="297" y="-131.2" font-family="IPAGothic" font-size="11.00">WBS（ClassA）</text>
<polygon fill="none" stroke="black" points="495,-123 495,-145 613,-145 613,-123 495,-123"/>
<text text-anchor="start" x="498" y="-131.2" font-family="IPAGothic" font-size="11.00">int[4]</text>
<polygon fill="none" stroke="black" points="277,-101 277,-123 495,-123 495,-101 277,-101"/>
<text text-anchor="start" x="297" y="-109.2" font-family="IPAGothic" font-size="11.00">区分（ClassB）</text>
<polygon fill="none" stroke="black" points="495,-101 495,-123 613,-123 613,-101 495,-101"/>
<text text-anchor="start" x="498" y="-109.2" font-family="IPAGothic" font-size="11.00">nvarchar[2048]</text>
<polygon fill="none" stroke="black" points="277,-79 277,-101 495,-101 495,-79 277,-79"/>
<text text-anchor="start" x="297" y="-87.2" font-family="IPAGothic" font-size="11.00">添付資料（AttachmentsA）</text>
<polygon fill="none" stroke="black" points="495,-79 495,-101 613,-101 613,-79 495,-79"/>
<text text-anchor="start" x="498" y="-87.2" font-family="IPAGothic" font-size="11.00">nvarchar[2147483647]</text>
<polygon fill="none" stroke="black" points="277,-57 277,-79 495,-79 495,-57 277,-57"/>
<text text-anchor="start" x="297" y="-65.2" font-family="IPAGothic" font-size="11.00">コメント（Comments）</text>
<polygon fill="none" stroke="black" points="495,-57 495,-79 613,-79 613,-57 495,-57"/>
<text text-anchor="start" x="498" y="-65.2" font-family="IPAGothic" font-size="11.00">nvarchar[2147483647]</text>
<polygon fill="#ffffff" stroke="none" points="277,-39 277,-57 379,-57 379,-39 277,-39"/>
<polygon fill="none" stroke="black" points="277,-39 277,-57 379,-57 379,-39 277,-39"/>
<text text-anchor="start" x="280" y="-45.2" font-family="IPAGothic" font-size="11.00">&lt; 1</text>
<polygon fill="#ffffff" stroke="none" points="379,-39 379,-57 495,-57 495,-39 379,-39"/>
<polygon fill="none" stroke="black" points="379,-39 379,-57 495,-57 495,-39 379,-39"/>
<text text-anchor="start" x="459" y="-45.2" font-family="IPAGothic" font-size="11.00">0 rows</text>
<polygon fill="#ffffff" stroke="none" points="495,-39 495,-57 613,-57 613,-39 495,-39"/>
<polygon fill="none" stroke="black" points="495,-39 495,-57 613,-57 613,-39 495,-39"/>
<text text-anchor="start" x="591" y="-45.2" font-family="IPAGothic" font-size="11.00">0 &gt;</text>
<polygon fill="none" stroke="black" stroke-width="2" points="276,-38 276,-432 614,-432 614,-38 276,-38"/>
</a>
</g>
</g>
<!-- 課題管理（Issues_3）&#45;&gt;WBS（Issues_2） -->
<g id="edge2" class="edge">
<title>課題管理（Issues_3）:w&#45;&gt;WBS（Issues_2）:e</title>
<path fill="none" stroke="black" d="M260.89,-136.86C211.86,-159.35 300.83,-307 227,-307"/>
<polygon fill="black" stroke="black" points="268.14,-135.49 276.67,-137.54 272.07,-134.74 276,-134 276,-134 276,-134 272.07,-134.74 275.33,-130.46 268.14,-135.49 268.14,-135.49"/>
<ellipse fill="none" stroke="black" cx="264.5" cy="-136.17" rx="3.2" ry="3.2"/>
</g>
</g>
</svg>
