<?xml version="1.0" encoding="UTF-8" standalone="no"?>
<!DOCTYPE svg PUBLIC "-//W3C//DTD SVG 1.1//EN"
 "http://www.w3.org/Graphics/SVG/1.1/DTD/svg11.dtd">
<!-- Generated by graphviz version 7.0.4 (20221203.1631)
 -->
<!-- Title: oneDegreeRelationshipsDiagram Pages: 1 -->
<svg width="328pt" height="511pt"
 viewBox="0.00 0.00 328.00 511.00" xmlns="http://www.w3.org/2000/svg" xmlns:xlink="http://www.w3.org/1999/xlink">
<g id="graph0" class="graph" transform="scale(1 1) rotate(0) translate(4 507)">
<title>oneDegreeRelationshipsDiagram</title>
<polygon fill="#ffffff" stroke="none" points="-4,4 -4,-507 324,-507 324,4 -4,4"/>
<text text-anchor="middle" x="72" y="-7.2" font-family="IPAGothic" font-size="11.00">Generated by SchemaSpy</text>
<!-- 営業日報（Results_16） -->
<g id="node1" class="node">
<title>営業日報（Results_16）</title>
<g id="a_node1"><a xlink:href="../../tables/_____Results_16__c05f0cb6.html" xlink:title="営業日報（Results_16）" target="_top">
<polygon fill="#ffffff" stroke="none" points="8,-37 8,-499 312,-499 312,-37 8,-37"/>
<polygon fill="#f5f5f5" stroke="none" points="10,-475 10,-497 310,-497 310,-475 10,-475"/>
<polygon fill="none" stroke="black" points="10,-475 10,-497 310,-497 310,-475 10,-475"/>
<text text-anchor="start" x="11" y="-484.2" font-family="IPAGothic" font-weight="bold" font-size="11.00">営業日報（Results_16）</text>
<text text-anchor="start" x="272" y="-483.2" font-family="IPAGothic" font-size="11.00">[table]</text>
<polygon fill="none" stroke="black" points="10,-453 10,-475 192,-475 192,-453 10,-453"/>
<image xlink:href="../../images/primaryKeys.png" width="11px" height="12px" preserveAspectRatio="xMinYMin meet" x="15" y="-470"/>
<text text-anchor="start" x="30" y="-461.2" font-family="IPAGothic" font-size="11.00">ID（ResultId）</text>
<polygon fill="none" stroke="black" points="192,-453 192,-475 310,-475 310,-453 192,-453"/>
<text text-anchor="start" x="195" y="-461.2" font-family="IPAGothic" font-size="11.00">int[4]</text>
<polygon fill="none" stroke="black" points="10,-431 10,-453 192,-453 192,-431 10,-431"/>
<text text-anchor="start" x="30" y="-439.2" font-family="IPAGothic" font-size="11.00">バージョン（Ver）</text>
<polygon fill="none" stroke="black" points="192,-431 192,-453 310,-453 310,-431 192,-431"/>
<text text-anchor="start" x="195" y="-439.2" font-family="IPAGothic" font-size="11.00">int[4]</text>
<polygon fill="none" stroke="black" points="10,-409 10,-431 192,-431 192,-409 10,-409"/>
<text text-anchor="start" x="30" y="-417.2" font-family="IPAGothic" font-size="11.00">日報作成日（DateA）</text>
<polygon fill="none" stroke="black" points="192,-409 192,-431 310,-431 310,-409 192,-409"/>
<text text-anchor="start" x="195" y="-417.2" font-family="IPAGothic" font-size="11.00">datetime[16,3]</text>
<polygon fill="none" stroke="black" points="10,-387 10,-409 192,-409 192,-387 10,-387"/>
<text text-anchor="start" x="30" y="-395.2" font-family="IPAGothic" font-size="11.00">所属（ClassB）</text>
<polygon fill="none" stroke="black" points="192,-387 192,-409 310,-409 310,-387 192,-387"/>
<text text-anchor="start" x="195" y="-395.2" font-family="IPAGothic" font-size="11.00">nvarchar[2048]</text>
<polygon fill="none" stroke="black" points="10,-365 10,-387 192,-387 192,-365 10,-365"/>
<text text-anchor="start" x="30" y="-373.2" font-family="IPAGothic" font-size="11.00">営業担当者（Owner）</text>
<polygon fill="none" stroke="black" points="192,-365 192,-387 310,-387 310,-365 192,-365"/>
<text text-anchor="start" x="195" y="-373.2" font-family="IPAGothic" font-size="11.00">int[4]</text>
<polygon fill="none" stroke="black" points="10,-343 10,-365 192,-365 192,-343 10,-343"/>
<text text-anchor="start" x="30" y="-351.2" font-family="IPAGothic" font-size="11.00">承認者（Manager）</text>
<polygon fill="none" stroke="black" points="192,-343 192,-365 310,-365 310,-343 192,-343"/>
<text text-anchor="start" x="195" y="-351.2" font-family="IPAGothic" font-size="11.00">int[4]</text>
<polygon fill="none" stroke="black" points="10,-321 10,-343 192,-343 192,-321 10,-321"/>
<text text-anchor="start" x="30" y="-329.2" font-family="IPAGothic" font-size="11.00">状況（Status）</text>
<polygon fill="none" stroke="black" points="192,-321 192,-343 310,-343 310,-321 192,-321"/>
<text text-anchor="start" x="195" y="-329.2" font-family="IPAGothic" font-size="11.00">int[4]</text>
<polygon fill="none" stroke="black" points="10,-299 10,-321 192,-321 192,-299 10,-299"/>
<text text-anchor="start" x="30" y="-307.2" font-family="IPAGothic" font-size="11.00">目標達成度（ClassA）</text>
<polygon fill="none" stroke="black" points="192,-299 192,-321 310,-321 310,-299 192,-299"/>
<text text-anchor="start" x="195" y="-307.2" font-family="IPAGothic" font-size="11.00">nvarchar[2048]</text>
<polygon fill="none" stroke="black" points="10,-277 10,-299 192,-299 192,-277 10,-277"/>
<text text-anchor="start" x="30" y="-285.2" font-family="IPAGothic" font-size="11.00">作業内容（Body）</text>
<polygon fill="none" stroke="black" points="192,-277 192,-299 310,-299 310,-277 192,-277"/>
<text text-anchor="start" x="195" y="-285.2" font-family="IPAGothic" font-size="11.00">nvarchar[2147483647]</text>
<polygon fill="none" stroke="black" points="10,-255 10,-277 192,-277 192,-255 10,-255"/>
<text text-anchor="start" x="30" y="-263.2" font-family="IPAGothic" font-size="11.00">所感・学び（DescriptionA）</text>
<polygon fill="none" stroke="black" points="192,-255 192,-277 310,-277 310,-255 192,-255"/>
<text text-anchor="start" x="195" y="-263.2" font-family="IPAGothic" font-size="11.00">nvarchar[2147483647]</text>
<polygon fill="none" stroke="black" points="10,-233 10,-255 192,-255 192,-233 10,-233"/>
<text text-anchor="start" x="30" y="-241.2" font-family="IPAGothic" font-size="11.00">顧客先訪問（NumB）</text>
<polygon fill="none" stroke="black" points="192,-233 192,-255 310,-255 310,-233 192,-233"/>
<text text-anchor="start" x="195" y="-241.2" font-family="IPAGothic" font-size="11.00">decimal[21,4]</text>
<polygon fill="none" stroke="black" points="10,-211 10,-233 192,-233 192,-211 10,-211"/>
<text text-anchor="start" x="30" y="-219.2" font-family="IPAGothic" font-size="11.00">資料作成（NumC）</text>
<polygon fill="none" stroke="black" points="192,-211 192,-233 310,-233 310,-211 192,-211"/>
<text text-anchor="start" x="195" y="-219.2" font-family="IPAGothic" font-size="11.00">decimal[21,4]</text>
<polygon fill="none" stroke="black" points="10,-189 10,-211 192,-211 192,-189 10,-189"/>
<text text-anchor="start" x="30" y="-197.2" font-family="IPAGothic" font-size="11.00">移動（NumD）</text>
<polygon fill="none" stroke="black" points="192,-189 192,-211 310,-211 310,-189 192,-189"/>
<text text-anchor="start" x="195" y="-197.2" font-family="IPAGothic" font-size="11.00">decimal[21,4]</text>
<polygon fill="none" stroke="black" points="10,-167 10,-189 192,-189 192,-167 10,-167"/>
<text text-anchor="start" x="30" y="-175.2" font-family="IPAGothic" font-size="11.00">社内業務（NumE）</text>
<polygon fill="none" stroke="black" points="192,-167 192,-189 310,-189 310,-167 192,-167"/>
<text text-anchor="start" x="195" y="-175.2" font-family="IPAGothic" font-size="11.00">decimal[21,4]</text>
<polygon fill="none" stroke="black" points="10,-145 10,-167 192,-167 192,-145 10,-145"/>
<text text-anchor="start" x="30" y="-153.2" font-family="IPAGothic" font-size="11.00">その他（NumF）</text>
<polygon fill="none" stroke="black" points="192,-145 192,-167 310,-167 310,-145 192,-145"/>
<text text-anchor="start" x="195" y="-153.2" font-family="IPAGothic" font-size="11.00">decimal[21,4]</text>
<polygon fill="none" stroke="black" points="10,-123 10,-145 192,-145 192,-123 10,-123"/>
<text text-anchor="start" x="30" y="-131.2" font-family="IPAGothic" font-size="11.00">作業時間合計（NumA）</text>
<polygon fill="none" stroke="black" points="192,-123 192,-145 310,-145 310,-123 192,-123"/>
<text text-anchor="start" x="195" y="-131.2" font-family="IPAGothic" font-size="11.00">decimal[21,4]</text>
<polygon fill="none" stroke="black" points="10,-101 10,-123 192,-123 192,-101 10,-101"/>
<text text-anchor="start" x="30" y="-109.2" font-family="IPAGothic" font-size="11.00">顧客対応割合（NumG）</text>
<polygon fill="none" stroke="black" points="192,-101 192,-123 310,-123 310,-101 192,-101"/>
<text text-anchor="start" x="195" y="-109.2" font-family="IPAGothic" font-size="11.00">decimal[21,4]</text>
<polygon fill="none" stroke="black" points="10,-79 10,-101 192,-101 192,-79 10,-79"/>
<text text-anchor="start" x="30" y="-87.2" font-family="IPAGothic" font-size="11.00">添付資料（AttachmentsA）</text>
<polygon fill="none" stroke="black" points="192,-79 192,-101 310,-101 310,-79 192,-79"/>
<text text-anchor="start" x="195" y="-87.2" font-family="IPAGothic" font-size="11.00">nvarchar[2147483647]</text>
<polygon fill="none" stroke="black" points="10,-57 10,-79 192,-79 192,-57 10,-57"/>
<text text-anchor="start" x="30" y="-65.2" font-family="IPAGothic" font-size="11.00">コメント（Comments）</text>
<polygon fill="none" stroke="black" points="192,-57 192,-79 310,-79 310,-57 192,-57"/>
<text text-anchor="start" x="195" y="-65.2" font-family="IPAGothic" font-size="11.00">nvarchar[2147483647]</text>
<polygon fill="#ffffff" stroke="none" points="10,-39 10,-57 94,-57 94,-39 10,-39"/>
<polygon fill="none" stroke="black" points="10,-39 10,-57 94,-57 94,-39 10,-39"/>
<text text-anchor="start" x="13" y="-45.2" font-family="IPAGothic" font-size="11.00">&lt; 0</text>
<polygon fill="#ffffff" stroke="none" points="94,-39 94,-57 192,-57 192,-39 94,-39"/>
<polygon fill="none" stroke="black" points="94,-39 94,-57 192,-57 192,-39 94,-39"/>
<text text-anchor="start" x="156" y="-45.2" font-family="IPAGothic" font-size="11.00">0 rows</text>
<polygon fill="#ffffff" stroke="none" points="192,-39 192,-57 310,-57 310,-39 192,-39"/>
<polygon fill="none" stroke="black" points="192,-39 192,-57 310,-57 310,-39 192,-39"/>
<text text-anchor="start" x="288" y="-45.2" font-family="IPAGothic" font-size="11.00">0 &gt;</text>
<polygon fill="none" stroke="black" stroke-width="2" points="9,-38 9,-498 311,-498 311,-38 9,-38"/>
</a>
</g>
</g>
</g>
</svg>
