<?xml version="1.0" encoding="UTF-8" standalone="no"?>
<!DOCTYPE svg PUBLIC "-//W3C//DTD SVG 1.1//EN"
 "http://www.w3.org/Graphics/SVG/1.1/DTD/svg11.dtd">
<!-- Generated by graphviz version 7.0.4 (20221203.1631)
 -->
<!-- Title: oneDegreeRelationshipsDiagram Pages: 1 -->
<svg width="377pt" height="511pt"
 viewBox="0.00 0.00 377.00 511.00" xmlns="http://www.w3.org/2000/svg" xmlns:xlink="http://www.w3.org/1999/xlink">
<g id="graph0" class="graph" transform="scale(1 1) rotate(0) translate(4 507)">
<title>oneDegreeRelationshipsDiagram</title>
<polygon fill="#ffffff" stroke="none" points="-4,4 -4,-507 373,-507 373,4 -4,4"/>
<text text-anchor="middle" x="72" y="-7.2" font-family="IPAGothic" font-size="11.00">Generated by SchemaSpy</text>
<!-- 成績管理（Results_32） -->
<g id="node1" class="node">
<title>成績管理（Results_32）</title>
<g id="a_node1"><a xlink:href="../../tables/_____Results_32__b99a7b4c.html" xlink:title="成績管理（Results_32）" target="_top">
<polygon fill="#ffffff" stroke="none" points="8,-37 8,-499 361,-499 361,-37 8,-37"/>
<polygon fill="#f5f5f5" stroke="none" points="10.5,-475 10.5,-497 359.5,-497 359.5,-475 10.5,-475"/>
<polygon fill="none" stroke="black" points="10.5,-475 10.5,-497 359.5,-497 359.5,-475 10.5,-475"/>
<text text-anchor="start" x="11.5" y="-484.2" font-family="IPAGothic" font-weight="bold" font-size="11.00">成績管理（Results_32）</text>
<text text-anchor="start" x="321.5" y="-483.2" font-family="IPAGothic" font-size="11.00">[table]</text>
<polygon fill="none" stroke="black" points="10.5,-453 10.5,-475 241.5,-475 241.5,-453 10.5,-453"/>
<image xlink:href="../../images/primaryKeys.png" width="11px" height="12px" preserveAspectRatio="xMinYMin meet" x="15.5" y="-470"/>
<text text-anchor="start" x="30.5" y="-461.2" font-family="IPAGothic" font-size="11.00">ID（ResultId）</text>
<polygon fill="none" stroke="black" points="241.5,-453 241.5,-475 359.5,-475 359.5,-453 241.5,-453"/>
<text text-anchor="start" x="244.5" y="-461.2" font-family="IPAGothic" font-size="11.00">int[4]</text>
<polygon fill="none" stroke="black" points="10.5,-431 10.5,-453 241.5,-453 241.5,-431 10.5,-431"/>
<text text-anchor="start" x="30.5" y="-439.2" font-family="IPAGothic" font-size="11.00">バージョン（Ver）</text>
<polygon fill="none" stroke="black" points="241.5,-431 241.5,-453 359.5,-453 359.5,-431 241.5,-431"/>
<text text-anchor="start" x="244.5" y="-439.2" font-family="IPAGothic" font-size="11.00">int[4]</text>
<polygon fill="none" stroke="black" points="10.5,-409 10.5,-431 241.5,-431 241.5,-409 10.5,-409"/>
<text text-anchor="start" x="30.5" y="-417.2" font-family="IPAGothic" font-size="11.00">評価期間（ClassA）</text>
<polygon fill="none" stroke="black" points="241.5,-409 241.5,-431 359.5,-431 359.5,-409 241.5,-409"/>
<text text-anchor="start" x="244.5" y="-417.2" font-family="IPAGothic" font-size="11.00">nvarchar[2048]</text>
<polygon fill="none" stroke="black" points="10.5,-387 10.5,-409 241.5,-409 241.5,-387 10.5,-387"/>
<text text-anchor="start" x="30.5" y="-395.2" font-family="IPAGothic" font-size="11.00">状況（Status）</text>
<polygon fill="none" stroke="black" points="241.5,-387 241.5,-409 359.5,-409 359.5,-387 241.5,-387"/>
<text text-anchor="start" x="244.5" y="-395.2" font-family="IPAGothic" font-size="11.00">int[4]</text>
<polygon fill="none" stroke="black" points="10.5,-365 10.5,-387 241.5,-387 241.5,-365 10.5,-365"/>
<text text-anchor="start" x="30.5" y="-373.2" font-family="IPAGothic" font-size="11.00">面談日程（DateA）</text>
<polygon fill="none" stroke="black" points="241.5,-365 241.5,-387 359.5,-387 359.5,-365 241.5,-365"/>
<text text-anchor="start" x="244.5" y="-373.2" font-family="IPAGothic" font-size="11.00">datetime[16,3]</text>
<polygon fill="none" stroke="black" points="10.5,-343 10.5,-365 241.5,-365 241.5,-343 10.5,-343"/>
<text text-anchor="start" x="30.5" y="-351.2" font-family="IPAGothic" font-size="11.00">管理者（Manager）</text>
<polygon fill="none" stroke="black" points="241.5,-343 241.5,-365 359.5,-365 359.5,-343 241.5,-343"/>
<text text-anchor="start" x="244.5" y="-351.2" font-family="IPAGothic" font-size="11.00">int[4]</text>
<polygon fill="none" stroke="black" points="10.5,-321 10.5,-343 241.5,-343 241.5,-321 10.5,-321"/>
<text text-anchor="start" x="30.5" y="-329.2" font-family="IPAGothic" font-size="11.00">担当者（ClassB）</text>
<polygon fill="none" stroke="black" points="241.5,-321 241.5,-343 359.5,-343 359.5,-321 241.5,-321"/>
<text text-anchor="start" x="244.5" y="-329.2" font-family="IPAGothic" font-size="11.00">int[4]</text>
<polygon fill="none" stroke="black" points="10.5,-299 10.5,-321 241.5,-321 241.5,-299 10.5,-299"/>
<text text-anchor="start" x="30.5" y="-307.2" font-family="IPAGothic" font-size="11.00">目標達成/未達成（ClassC）</text>
<polygon fill="none" stroke="black" points="241.5,-299 241.5,-321 359.5,-321 359.5,-299 241.5,-299"/>
<text text-anchor="start" x="244.5" y="-307.2" font-family="IPAGothic" font-size="11.00">nvarchar[2048]</text>
<polygon fill="none" stroke="black" points="10.5,-277 10.5,-299 241.5,-299 241.5,-277 10.5,-277"/>
<text text-anchor="start" x="30.5" y="-285.2" font-family="IPAGothic" font-size="11.00">目標（Body）</text>
<polygon fill="none" stroke="black" points="241.5,-277 241.5,-299 359.5,-299 359.5,-277 241.5,-277"/>
<text text-anchor="start" x="244.5" y="-285.2" font-family="IPAGothic" font-size="11.00">nvarchar[2147483647]</text>
<polygon fill="none" stroke="black" points="10.5,-255 10.5,-277 241.5,-277 241.5,-255 10.5,-255"/>
<text text-anchor="start" x="30.5" y="-263.2" font-family="IPAGothic" font-size="11.00">結果報告（DescriptionA）</text>
<polygon fill="none" stroke="black" points="241.5,-255 241.5,-277 359.5,-277 359.5,-255 241.5,-255"/>
<text text-anchor="start" x="244.5" y="-263.2" font-family="IPAGothic" font-size="11.00">nvarchar[2147483647]</text>
<polygon fill="none" stroke="black" points="10.5,-233 10.5,-255 241.5,-255 241.5,-233 10.5,-233"/>
<text text-anchor="start" x="30.5" y="-241.2" font-family="IPAGothic" font-size="11.00">上司フィードバック（DescriptionB）</text>
<polygon fill="none" stroke="black" points="241.5,-233 241.5,-255 359.5,-255 359.5,-233 241.5,-233"/>
<text text-anchor="start" x="244.5" y="-241.2" font-family="IPAGothic" font-size="11.00">nvarchar[2147483647]</text>
<polygon fill="none" stroke="black" points="10.5,-211 10.5,-233 241.5,-233 241.5,-211 10.5,-211"/>
<text text-anchor="start" x="30.5" y="-219.2" font-family="IPAGothic" font-size="11.00">姿勢（NumA）</text>
<polygon fill="none" stroke="black" points="241.5,-211 241.5,-233 359.5,-233 359.5,-211 241.5,-211"/>
<text text-anchor="start" x="244.5" y="-219.2" font-family="IPAGothic" font-size="11.00">decimal[21,4]</text>
<polygon fill="none" stroke="black" points="10.5,-189 10.5,-211 241.5,-211 241.5,-189 10.5,-189"/>
<text text-anchor="start" x="30.5" y="-197.2" font-family="IPAGothic" font-size="11.00">段取り（NumB）</text>
<polygon fill="none" stroke="black" points="241.5,-189 241.5,-211 359.5,-211 359.5,-189 241.5,-189"/>
<text text-anchor="start" x="244.5" y="-197.2" font-family="IPAGothic" font-size="11.00">decimal[21,4]</text>
<polygon fill="none" stroke="black" points="10.5,-167 10.5,-189 241.5,-189 241.5,-167 10.5,-167"/>
<text text-anchor="start" x="30.5" y="-175.2" font-family="IPAGothic" font-size="11.00">勤務態度（NumC）</text>
<polygon fill="none" stroke="black" points="241.5,-167 241.5,-189 359.5,-189 359.5,-167 241.5,-167"/>
<text text-anchor="start" x="244.5" y="-175.2" font-family="IPAGothic" font-size="11.00">decimal[21,4]</text>
<polygon fill="none" stroke="black" points="10.5,-145 10.5,-167 241.5,-167 241.5,-145 10.5,-145"/>
<text text-anchor="start" x="30.5" y="-153.2" font-family="IPAGothic" font-size="11.00">能力（NumD）</text>
<polygon fill="none" stroke="black" points="241.5,-145 241.5,-167 359.5,-167 359.5,-145 241.5,-145"/>
<text text-anchor="start" x="244.5" y="-153.2" font-family="IPAGothic" font-size="11.00">decimal[21,4]</text>
<polygon fill="none" stroke="black" points="10.5,-123 10.5,-145 241.5,-145 241.5,-123 10.5,-123"/>
<text text-anchor="start" x="30.5" y="-131.2" font-family="IPAGothic" font-size="11.00">成果（NumE）</text>
<polygon fill="none" stroke="black" points="241.5,-123 241.5,-145 359.5,-145 359.5,-123 241.5,-123"/>
<text text-anchor="start" x="244.5" y="-131.2" font-family="IPAGothic" font-size="11.00">decimal[21,4]</text>
<polygon fill="none" stroke="black" points="10.5,-101 10.5,-123 241.5,-123 241.5,-101 10.5,-101"/>
<text text-anchor="start" x="30.5" y="-109.2" font-family="IPAGothic" font-size="11.00">ポイント合計（NumF）</text>
<polygon fill="none" stroke="black" points="241.5,-101 241.5,-123 359.5,-123 359.5,-101 241.5,-101"/>
<text text-anchor="start" x="244.5" y="-109.2" font-family="IPAGothic" font-size="11.00">decimal[21,4]</text>
<polygon fill="none" stroke="black" points="10.5,-79 10.5,-101 241.5,-101 241.5,-79 10.5,-79"/>
<text text-anchor="start" x="30.5" y="-87.2" font-family="IPAGothic" font-size="11.00">添付資料（AttachmentsA）</text>
<polygon fill="none" stroke="black" points="241.5,-79 241.5,-101 359.5,-101 359.5,-79 241.5,-79"/>
<text text-anchor="start" x="244.5" y="-87.2" font-family="IPAGothic" font-size="11.00">nvarchar[2147483647]</text>
<polygon fill="none" stroke="black" points="10.5,-57 10.5,-79 241.5,-79 241.5,-57 10.5,-57"/>
<text text-anchor="start" x="30.5" y="-65.2" font-family="IPAGothic" font-size="11.00">コメント（Comments）</text>
<polygon fill="none" stroke="black" points="241.5,-57 241.5,-79 359.5,-79 359.5,-57 241.5,-57"/>
<text text-anchor="start" x="244.5" y="-65.2" font-family="IPAGothic" font-size="11.00">nvarchar[2147483647]</text>
<polygon fill="#ffffff" stroke="none" points="10.5,-39 10.5,-57 118.5,-57 118.5,-39 10.5,-39"/>
<polygon fill="none" stroke="black" points="10.5,-39 10.5,-57 118.5,-57 118.5,-39 10.5,-39"/>
<text text-anchor="start" x="13.5" y="-45.2" font-family="IPAGothic" font-size="11.00">&lt; 0</text>
<polygon fill="#ffffff" stroke="none" points="118.5,-39 118.5,-57 241.5,-57 241.5,-39 118.5,-39"/>
<polygon fill="none" stroke="black" points="118.5,-39 118.5,-57 241.5,-57 241.5,-39 118.5,-39"/>
<text text-anchor="start" x="205.5" y="-45.2" font-family="IPAGothic" font-size="11.00">0 rows</text>
<polygon fill="#ffffff" stroke="none" points="241.5,-39 241.5,-57 359.5,-57 359.5,-39 241.5,-39"/>
<polygon fill="none" stroke="black" points="241.5,-39 241.5,-57 359.5,-57 359.5,-39 241.5,-39"/>
<text text-anchor="start" x="337.5" y="-45.2" font-family="IPAGothic" font-size="11.00">0 &gt;</text>
<polygon fill="none" stroke="black" stroke-width="2" points="9,-38 9,-498 360,-498 360,-38 9,-38"/>
</a>
</g>
</g>
</g>
</svg>
