<?xml version="1.0" encoding="UTF-8" standalone="no"?>
<!DOCTYPE svg PUBLIC "-//W3C//DTD SVG 1.1//EN"
 "http://www.w3.org/Graphics/SVG/1.1/DTD/svg11.dtd">
<!-- Generated by graphviz version 7.0.4 (20221203.1631)
 -->
<!-- Title: oneDegreeRelationshipsDiagram Pages: 1 -->
<svg width="570pt" height="465pt"
 viewBox="0.00 0.00 570.00 465.00" xmlns="http://www.w3.org/2000/svg" xmlns:xlink="http://www.w3.org/1999/xlink">
<g id="graph0" class="graph" transform="scale(1 1) rotate(0) translate(4 461)">
<title>oneDegreeRelationshipsDiagram</title>
<polygon fill="#ffffff" stroke="none" points="-4,4 -4,-461 566,-461 566,4 -4,4"/>
<text text-anchor="middle" x="72" y="-7.2" font-family="IPAGothic" font-size="11.00">Generated by SchemaSpy</text>
<!-- 参加者一覧（Results_26） -->
<g id="node1" class="node">
<title>参加者一覧（Results_26）</title>
<g id="a_node1"><a xlink:href="../../tables/______Results_26__1d7aaae2.html" xlink:title="参加者一覧（Results_26）" target="_top">
<polygon fill="#ffffff" stroke="none" points="362,-351 362,-453 554,-453 554,-351 362,-351"/>
<polygon fill="#f5f5f5" stroke="none" points="362,-431 362,-453 554,-453 554,-431 362,-431"/>
<polygon fill="none" stroke="black" points="362,-431 362,-453 554,-453 554,-431 362,-431"/>
<text text-anchor="start" x="362.5" y="-440.2" font-family="IPAGothic" font-weight="bold" font-size="11.00">参加者一覧（Results_26）</text>
<text text-anchor="start" x="516" y="-439.2" font-family="IPAGothic" font-size="11.00">[table]</text>
<polygon fill="none" stroke="black" points="362,-409 362,-431 554,-431 554,-409 362,-409"/>
<image xlink:href="../../images/primaryKeys.png" width="11px" height="12px" preserveAspectRatio="xMinYMin meet" x="367" y="-426"/>
<text text-anchor="start" x="390" y="-417.2" font-family="IPAGothic" font-size="11.00">ID（ResultId）</text>
<polygon fill="none" stroke="black" points="362,-387 362,-409 554,-409 554,-387 362,-387"/>
<image xlink:href="../../images/foreignKeys.png" width="11px" height="12px" preserveAspectRatio="xMinYMin meet" x="367" y="-404"/>
<text text-anchor="start" x="390" y="-395.2" font-family="IPAGothic" font-size="11.00">勉強会名（ClassA）</text>
<polygon fill="none" stroke="black" points="362,-369 362,-387 554,-387 554,-369 362,-369"/>
<text text-anchor="start" x="365" y="-375.2" font-family="IPAGothic" font-size="11.00">...</text>
<polygon fill="#ffffff" stroke="none" points="362,-351 362,-369 444,-369 444,-351 362,-351"/>
<polygon fill="none" stroke="black" points="362,-351 362,-369 444,-369 444,-351 362,-351"/>
<text text-anchor="start" x="365" y="-357.2" font-family="IPAGothic" font-size="11.00">&lt; 1</text>
<polygon fill="#ffffff" stroke="none" points="444,-351 444,-369 511,-369 511,-351 444,-351"/>
<polygon fill="none" stroke="black" points="444,-351 444,-369 511,-369 511,-351 444,-351"/>
<text text-anchor="start" x="475" y="-357.2" font-family="IPAGothic" font-size="11.00">0 rows</text>
<polygon fill="#ffffff" stroke="none" points="511,-351 511,-369 554,-369 554,-351 511,-351"/>
<polygon fill="none" stroke="black" points="511,-351 511,-369 554,-369 554,-351 511,-351"/>
<text text-anchor="start" x="543" y="-357.2" font-family="IPAGothic" font-size="11.00"> &#160;</text>
</a>
</g>
</g>
<!-- 勉強会リスト（Results_25） -->
<g id="node2" class="node">
<title>勉強会リスト（Results_25）</title>
<g id="a_node2"><a xlink:href="../../tables/_______Results_25__ce04b082.html" xlink:title="勉強会リスト（Results_25）" target="_top">
<polygon fill="#ffffff" stroke="none" points="8,-37 8,-433 313,-433 313,-37 8,-37"/>
<polygon fill="#f5f5f5" stroke="none" points="10.5,-409 10.5,-431 311.5,-431 311.5,-409 10.5,-409"/>
<polygon fill="none" stroke="black" points="10.5,-409 10.5,-431 311.5,-431 311.5,-409 10.5,-409"/>
<text text-anchor="start" x="11" y="-418.2" font-family="IPAGothic" font-weight="bold" font-size="11.00">勉強会リスト（Results_25）</text>
<text text-anchor="start" x="273.5" y="-417.2" font-family="IPAGothic" font-size="11.00">[table]</text>
<polygon fill="none" stroke="black" points="10.5,-387 10.5,-409 193.5,-409 193.5,-387 10.5,-387"/>
<image xlink:href="../../images/primaryKeys.png" width="11px" height="12px" preserveAspectRatio="xMinYMin meet" x="15.5" y="-404"/>
<text text-anchor="start" x="30.5" y="-395.2" font-family="IPAGothic" font-size="11.00">ID（ResultId）</text>
<polygon fill="none" stroke="black" points="193.5,-387 193.5,-409 311.5,-409 311.5,-387 193.5,-387"/>
<text text-anchor="start" x="196.5" y="-395.2" font-family="IPAGothic" font-size="11.00">int[4]</text>
<polygon fill="none" stroke="black" points="10.5,-365 10.5,-387 193.5,-387 193.5,-365 10.5,-365"/>
<text text-anchor="start" x="30.5" y="-373.2" font-family="IPAGothic" font-size="11.00">バージョン（Ver）</text>
<polygon fill="none" stroke="black" points="193.5,-365 193.5,-387 311.5,-387 311.5,-365 193.5,-365"/>
<text text-anchor="start" x="196.5" y="-373.2" font-family="IPAGothic" font-size="11.00">int[4]</text>
<polygon fill="none" stroke="black" points="10.5,-343 10.5,-365 193.5,-365 193.5,-343 10.5,-343"/>
<text text-anchor="start" x="30.5" y="-351.2" font-family="IPAGothic" font-size="11.00">件名（Title）</text>
<polygon fill="none" stroke="black" points="193.5,-343 193.5,-365 311.5,-365 311.5,-343 193.5,-343"/>
<text text-anchor="start" x="196.5" y="-351.2" font-family="IPAGothic" font-size="11.00">nvarchar[2048]</text>
<polygon fill="none" stroke="black" points="10.5,-321 10.5,-343 193.5,-343 193.5,-321 10.5,-321"/>
<text text-anchor="start" x="30.5" y="-329.2" font-family="IPAGothic" font-size="11.00">内容（Body）</text>
<polygon fill="none" stroke="black" points="193.5,-321 193.5,-343 311.5,-343 311.5,-321 193.5,-321"/>
<text text-anchor="start" x="196.5" y="-329.2" font-family="IPAGothic" font-size="11.00">nvarchar[2147483647]</text>
<polygon fill="none" stroke="black" points="10.5,-299 10.5,-321 193.5,-321 193.5,-299 10.5,-299"/>
<text text-anchor="start" x="30.5" y="-307.2" font-family="IPAGothic" font-size="11.00">状況（Status）</text>
<polygon fill="none" stroke="black" points="193.5,-299 193.5,-321 311.5,-321 311.5,-299 193.5,-299"/>
<text text-anchor="start" x="196.5" y="-307.2" font-family="IPAGothic" font-size="11.00">int[4]</text>
<polygon fill="none" stroke="black" points="10.5,-277 10.5,-299 193.5,-299 193.5,-277 10.5,-277"/>
<text text-anchor="start" x="30.5" y="-285.2" font-family="IPAGothic" font-size="11.00">担当者（Owner）</text>
<polygon fill="none" stroke="black" points="193.5,-277 193.5,-299 311.5,-299 311.5,-277 193.5,-277"/>
<text text-anchor="start" x="196.5" y="-285.2" font-family="IPAGothic" font-size="11.00">int[4]</text>
<polygon fill="none" stroke="black" points="10.5,-255 10.5,-277 193.5,-277 193.5,-255 10.5,-255"/>
<text text-anchor="start" x="30.5" y="-263.2" font-family="IPAGothic" font-size="11.00">開始時間（DateA）</text>
<polygon fill="none" stroke="black" points="193.5,-255 193.5,-277 311.5,-277 311.5,-255 193.5,-255"/>
<text text-anchor="start" x="196.5" y="-263.2" font-family="IPAGothic" font-size="11.00">datetime[16,3]</text>
<polygon fill="none" stroke="black" points="10.5,-233 10.5,-255 193.5,-255 193.5,-233 10.5,-233"/>
<text text-anchor="start" x="30.5" y="-241.2" font-family="IPAGothic" font-size="11.00">終了時間（DateB）</text>
<polygon fill="none" stroke="black" points="193.5,-233 193.5,-255 311.5,-255 311.5,-233 193.5,-233"/>
<text text-anchor="start" x="196.5" y="-241.2" font-family="IPAGothic" font-size="11.00">datetime[16,3]</text>
<polygon fill="none" stroke="black" points="10.5,-211 10.5,-233 193.5,-233 193.5,-211 10.5,-211"/>
<text text-anchor="start" x="30.5" y="-219.2" font-family="IPAGothic" font-size="11.00">場所（ClassA）</text>
<polygon fill="none" stroke="black" points="193.5,-211 193.5,-233 311.5,-233 311.5,-211 193.5,-211"/>
<text text-anchor="start" x="196.5" y="-219.2" font-family="IPAGothic" font-size="11.00">nvarchar[2048]</text>
<polygon fill="none" stroke="black" points="10.5,-189 10.5,-211 193.5,-211 193.5,-189 10.5,-189"/>
<text text-anchor="start" x="30.5" y="-197.2" font-family="IPAGothic" font-size="11.00">募集開始（DateC）</text>
<polygon fill="none" stroke="black" points="193.5,-189 193.5,-211 311.5,-211 311.5,-189 193.5,-189"/>
<text text-anchor="start" x="196.5" y="-197.2" font-family="IPAGothic" font-size="11.00">datetime[16,3]</text>
<polygon fill="none" stroke="black" points="10.5,-167 10.5,-189 193.5,-189 193.5,-167 10.5,-167"/>
<text text-anchor="start" x="30.5" y="-175.2" font-family="IPAGothic" font-size="11.00">募集終了（DateD）</text>
<polygon fill="none" stroke="black" points="193.5,-167 193.5,-189 311.5,-189 311.5,-167 193.5,-167"/>
<text text-anchor="start" x="196.5" y="-175.2" font-family="IPAGothic" font-size="11.00">datetime[16,3]</text>
<polygon fill="none" stroke="black" points="10.5,-145 10.5,-167 193.5,-167 193.5,-145 10.5,-145"/>
<text text-anchor="start" x="30.5" y="-153.2" font-family="IPAGothic" font-size="11.00">定員（NumA）</text>
<polygon fill="none" stroke="black" points="193.5,-145 193.5,-167 311.5,-167 311.5,-145 193.5,-145"/>
<text text-anchor="start" x="196.5" y="-153.2" font-family="IPAGothic" font-size="11.00">decimal[21,4]</text>
<polygon fill="none" stroke="black" points="10.5,-123 10.5,-145 193.5,-145 193.5,-123 10.5,-123"/>
<text text-anchor="start" x="30.5" y="-131.2" font-family="IPAGothic" font-size="11.00">申込人数（NumB）</text>
<polygon fill="none" stroke="black" points="193.5,-123 193.5,-145 311.5,-145 311.5,-123 193.5,-123"/>
<text text-anchor="start" x="196.5" y="-131.2" font-family="IPAGothic" font-size="11.00">decimal[21,4]</text>
<polygon fill="none" stroke="black" points="10.5,-101 10.5,-123 193.5,-123 193.5,-101 10.5,-101"/>
<text text-anchor="start" x="30.5" y="-109.2" font-family="IPAGothic" font-size="11.00">備考（DescriptionA）</text>
<polygon fill="none" stroke="black" points="193.5,-101 193.5,-123 311.5,-123 311.5,-101 193.5,-101"/>
<text text-anchor="start" x="196.5" y="-109.2" font-family="IPAGothic" font-size="11.00">nvarchar[2147483647]</text>
<polygon fill="none" stroke="black" points="10.5,-79 10.5,-101 193.5,-101 193.5,-79 10.5,-79"/>
<text text-anchor="start" x="30.5" y="-87.2" font-family="IPAGothic" font-size="11.00">添付資料（AttachmentsA）</text>
<polygon fill="none" stroke="black" points="193.5,-79 193.5,-101 311.5,-101 311.5,-79 193.5,-79"/>
<text text-anchor="start" x="196.5" y="-87.2" font-family="IPAGothic" font-size="11.00">nvarchar[2147483647]</text>
<polygon fill="none" stroke="black" points="10.5,-57 10.5,-79 193.5,-79 193.5,-57 10.5,-57"/>
<text text-anchor="start" x="30.5" y="-65.2" font-family="IPAGothic" font-size="11.00">コメント（Comments）</text>
<polygon fill="none" stroke="black" points="193.5,-57 193.5,-79 311.5,-79 311.5,-57 193.5,-57"/>
<text text-anchor="start" x="196.5" y="-65.2" font-family="IPAGothic" font-size="11.00">nvarchar[2147483647]</text>
<polygon fill="#ffffff" stroke="none" points="10.5,-39 10.5,-57 94.5,-57 94.5,-39 10.5,-39"/>
<polygon fill="none" stroke="black" points="10.5,-39 10.5,-57 94.5,-57 94.5,-39 10.5,-39"/>
<text text-anchor="start" x="13.5" y="-45.2" font-family="IPAGothic" font-size="11.00">&lt; 0</text>
<polygon fill="#ffffff" stroke="none" points="94.5,-39 94.5,-57 193.5,-57 193.5,-39 94.5,-39"/>
<polygon fill="none" stroke="black" points="94.5,-39 94.5,-57 193.5,-57 193.5,-39 94.5,-39"/>
<text text-anchor="start" x="157.5" y="-45.2" font-family="IPAGothic" font-size="11.00">0 rows</text>
<polygon fill="#ffffff" stroke="none" points="193.5,-39 193.5,-57 311.5,-57 311.5,-39 193.5,-39"/>
<polygon fill="none" stroke="black" points="193.5,-39 193.5,-57 311.5,-57 311.5,-39 193.5,-39"/>
<text text-anchor="start" x="289.5" y="-45.2" font-family="IPAGothic" font-size="11.00">1 &gt;</text>
<polygon fill="none" stroke="black" stroke-width="2" points="9,-38 9,-432 312,-432 312,-38 9,-38"/>
</a>
</g>
</g>
<!-- 参加者一覧（Results_26）&#45;&gt;勉強会リスト（Results_25） -->
<g id="edge1" class="edge">
<title>参加者一覧（Results_26）:w&#45;&gt;勉強会リスト（Results_25）:e</title>
<path fill="none" stroke="black" d="M345.93,-398C335.13,-398 327.99,-398 312.5,-398"/>
<polygon fill="black" stroke="black" points="353,-398 361,-401.6 357,-398 361,-398 361,-398 361,-398 357,-398 361,-394.4 353,-398 353,-398"/>
<ellipse fill="none" stroke="black" cx="349.3" cy="-398" rx="3.2" ry="3.2"/>
</g>
</g>
</svg>
