<?xml version="1.0" encoding="UTF-8" standalone="no"?>
<!DOCTYPE svg PUBLIC "-//W3C//DTD SVG 1.1//EN"
 "http://www.w3.org/Graphics/SVG/1.1/DTD/svg11.dtd">
<!-- Generated by graphviz version 7.0.4 (20221203.1631)
 -->
<!-- Title: twoDegreesRelationshipsDiagram Pages: 1 -->
<svg width="576pt" height="348pt"
 viewBox="0.00 0.00 576.00 348.00" xmlns="http://www.w3.org/2000/svg" xmlns:xlink="http://www.w3.org/1999/xlink">
<g id="graph0" class="graph" transform="scale(1 1) rotate(0) translate(4 344)">
<title>twoDegreesRelationshipsDiagram</title>
<polygon fill="#ffffff" stroke="none" points="-4,4 -4,-344 572,-344 572,4 -4,4"/>
<text text-anchor="middle" x="72" y="-7.2" font-family="IPAGothic" font-size="11.00">Generated by SchemaSpy</text>
<!-- 売上管理台帳（Results_51） -->
<g id="node1" class="node">
<title>売上管理台帳（Results_51）</title>
<g id="a_node1"><a xlink:href="../../tables/_______Results_51__1810fedc.html" xlink:title="売上管理台帳（Results_51）" target="_top">
<polygon fill="#ffffff" stroke="none" points="355,-205 355,-329 560,-329 560,-205 355,-205"/>
<polygon fill="#f5f5f5" stroke="none" points="355.5,-307 355.5,-329 560.5,-329 560.5,-307 355.5,-307"/>
<polygon fill="none" stroke="black" points="355.5,-307 355.5,-329 560.5,-329 560.5,-307 355.5,-307"/>
<text text-anchor="start" x="356" y="-316.2" font-family="IPAGothic" font-weight="bold" font-size="11.00">売上管理台帳（Results_51）</text>
<text text-anchor="start" x="522.5" y="-315.2" font-family="IPAGothic" font-size="11.00">[table]</text>
<polygon fill="none" stroke="black" points="355.5,-285 355.5,-307 560.5,-307 560.5,-285 355.5,-285"/>
<image xlink:href="../../images/primaryKeys.png" width="11px" height="12px" preserveAspectRatio="xMinYMin meet" x="360.5" y="-302"/>
<text text-anchor="start" x="386.5" y="-293.2" font-family="IPAGothic" font-size="11.00">ID（ResultId）</text>
<polygon fill="none" stroke="black" points="355.5,-263 355.5,-285 560.5,-285 560.5,-263 355.5,-263"/>
<image xlink:href="../../images/foreignKeys.png" width="11px" height="12px" preserveAspectRatio="xMinYMin meet" x="360.5" y="-280"/>
<text text-anchor="start" x="386.5" y="-271.2" font-family="IPAGothic" font-size="11.00">店舗名（ClassA）</text>
<polygon fill="none" stroke="black" points="355.5,-241 355.5,-263 560.5,-263 560.5,-241 355.5,-241"/>
<image xlink:href="../../images/foreignKeys.png" width="11px" height="12px" preserveAspectRatio="xMinYMin meet" x="360.5" y="-258"/>
<text text-anchor="start" x="386.5" y="-249.2" font-family="IPAGothic" font-size="11.00">商品名（ClassB）</text>
<polygon fill="none" stroke="black" points="355.5,-223 355.5,-241 560.5,-241 560.5,-223 355.5,-223"/>
<text text-anchor="start" x="358.5" y="-229.2" font-family="IPAGothic" font-size="11.00">...</text>
<polygon fill="#ffffff" stroke="none" points="355.5,-205 355.5,-223 443.5,-223 443.5,-205 355.5,-205"/>
<polygon fill="none" stroke="black" points="355.5,-205 355.5,-223 443.5,-223 443.5,-205 355.5,-205"/>
<text text-anchor="start" x="358.5" y="-211.2" font-family="IPAGothic" font-size="11.00">&lt; 2</text>
<polygon fill="#ffffff" stroke="none" points="443.5,-205 443.5,-223 514.5,-223 514.5,-205 443.5,-205"/>
<polygon fill="none" stroke="black" points="443.5,-205 443.5,-223 514.5,-223 514.5,-205 443.5,-205"/>
<text text-anchor="start" x="478.5" y="-211.2" font-family="IPAGothic" font-size="11.00">0 rows</text>
<polygon fill="#ffffff" stroke="none" points="514.5,-205 514.5,-223 560.5,-223 560.5,-205 514.5,-205"/>
<polygon fill="none" stroke="black" points="514.5,-205 514.5,-223 560.5,-223 560.5,-205 514.5,-205"/>
<text text-anchor="start" x="549.5" y="-211.2" font-family="IPAGothic" font-size="11.00"> &#160;</text>
</a>
</g>
</g>
<!-- 商品一覧（Results_50） -->
<g id="node2" class="node">
<title>商品一覧（Results_50）</title>
<g id="a_node2"><a xlink:href="../../tables/_____Results_50__98f69dff.html" xlink:title="商品一覧（Results_50）" target="_top">
<polygon fill="#ffffff" stroke="none" points="8,-37 8,-257 306,-257 306,-37 8,-37"/>
<polygon fill="#f5f5f5" stroke="none" points="10,-233 10,-255 304,-255 304,-233 10,-233"/>
<polygon fill="none" stroke="black" points="10,-233 10,-255 304,-255 304,-233 10,-233"/>
<text text-anchor="start" x="11" y="-242.2" font-family="IPAGothic" font-weight="bold" font-size="11.00">商品一覧（Results_50）</text>
<text text-anchor="start" x="266" y="-241.2" font-family="IPAGothic" font-size="11.00">[table]</text>
<polygon fill="none" stroke="black" points="10,-211 10,-233 186,-233 186,-211 10,-211"/>
<image xlink:href="../../images/primaryKeys.png" width="11px" height="12px" preserveAspectRatio="xMinYMin meet" x="15" y="-228"/>
<text text-anchor="start" x="30" y="-219.2" font-family="IPAGothic" font-size="11.00">ID（ResultId）</text>
<polygon fill="none" stroke="black" points="186,-211 186,-233 304,-233 304,-211 186,-211"/>
<text text-anchor="start" x="189" y="-219.2" font-family="IPAGothic" font-size="11.00">int[4]</text>
<polygon fill="none" stroke="black" points="10,-189 10,-211 186,-211 186,-189 10,-189"/>
<text text-anchor="start" x="30" y="-197.2" font-family="IPAGothic" font-size="11.00">バージョン（Ver）</text>
<polygon fill="none" stroke="black" points="186,-189 186,-211 304,-211 304,-189 186,-189"/>
<text text-anchor="start" x="189" y="-197.2" font-family="IPAGothic" font-size="11.00">int[4]</text>
<polygon fill="none" stroke="black" points="10,-167 10,-189 186,-189 186,-167 10,-167"/>
<text text-anchor="start" x="30" y="-175.2" font-family="IPAGothic" font-size="11.00">商品名（Title）</text>
<polygon fill="none" stroke="black" points="186,-167 186,-189 304,-189 304,-167 186,-167"/>
<text text-anchor="start" x="189" y="-175.2" font-family="IPAGothic" font-size="11.00">nvarchar[2048]</text>
<polygon fill="none" stroke="black" points="10,-145 10,-167 186,-167 186,-145 10,-145"/>
<text text-anchor="start" x="30" y="-153.2" font-family="IPAGothic" font-size="11.00">単価（NumA）</text>
<polygon fill="none" stroke="black" points="186,-145 186,-167 304,-167 304,-145 186,-145"/>
<text text-anchor="start" x="189" y="-153.2" font-family="IPAGothic" font-size="11.00">decimal[21,4]</text>
<polygon fill="none" stroke="black" points="10,-123 10,-145 186,-145 186,-123 10,-123"/>
<text text-anchor="start" x="30" y="-131.2" font-family="IPAGothic" font-size="11.00">総数（NumB）</text>
<polygon fill="none" stroke="black" points="186,-123 186,-145 304,-145 304,-123 186,-123"/>
<text text-anchor="start" x="189" y="-131.2" font-family="IPAGothic" font-size="11.00">decimal[21,4]</text>
<polygon fill="none" stroke="black" points="10,-101 10,-123 186,-123 186,-101 10,-101"/>
<text text-anchor="start" x="30" y="-109.2" font-family="IPAGothic" font-size="11.00">売上合計（NumC）</text>
<polygon fill="none" stroke="black" points="186,-101 186,-123 304,-123 304,-101 186,-101"/>
<text text-anchor="start" x="189" y="-109.2" font-family="IPAGothic" font-size="11.00">decimal[21,4]</text>
<polygon fill="none" stroke="black" points="10,-79 10,-101 186,-101 186,-79 10,-79"/>
<text text-anchor="start" x="30" y="-87.2" font-family="IPAGothic" font-size="11.00">添付資料（AttachmentsA）</text>
<polygon fill="none" stroke="black" points="186,-79 186,-101 304,-101 304,-79 186,-79"/>
<text text-anchor="start" x="189" y="-87.2" font-family="IPAGothic" font-size="11.00">nvarchar[2147483647]</text>
<polygon fill="none" stroke="black" points="10,-57 10,-79 186,-79 186,-57 10,-57"/>
<text text-anchor="start" x="30" y="-65.2" font-family="IPAGothic" font-size="11.00">コメント（Comments）</text>
<polygon fill="none" stroke="black" points="186,-57 186,-79 304,-79 304,-57 186,-57"/>
<text text-anchor="start" x="189" y="-65.2" font-family="IPAGothic" font-size="11.00">nvarchar[2147483647]</text>
<polygon fill="#ffffff" stroke="none" points="10,-39 10,-57 91,-57 91,-39 10,-39"/>
<polygon fill="none" stroke="black" points="10,-39 10,-57 91,-57 91,-39 10,-39"/>
<text text-anchor="start" x="13" y="-45.2" font-family="IPAGothic" font-size="11.00">&lt; 0</text>
<polygon fill="#ffffff" stroke="none" points="91,-39 91,-57 186,-57 186,-39 91,-39"/>
<polygon fill="none" stroke="black" points="91,-39 91,-57 186,-57 186,-39 91,-39"/>
<text text-anchor="start" x="150" y="-45.2" font-family="IPAGothic" font-size="11.00">0 rows</text>
<polygon fill="#ffffff" stroke="none" points="186,-39 186,-57 304,-57 304,-39 186,-39"/>
<polygon fill="none" stroke="black" points="186,-39 186,-57 304,-57 304,-39 186,-39"/>
<text text-anchor="start" x="282" y="-45.2" font-family="IPAGothic" font-size="11.00">1 &gt;</text>
<polygon fill="none" stroke="black" stroke-width="2" points="9,-38 9,-256 305,-256 305,-38 9,-38"/>
</a>
</g>
</g>
<!-- 売上管理台帳（Results_51）&#45;&gt;商品一覧（Results_50） -->
<g id="edge1" class="edge">
<title>売上管理台帳（Results_51）:w&#45;&gt;商品一覧（Results_50）:e</title>
<path fill="none" stroke="black" d="M339.89,-247.57C328.1,-239.23 324.49,-222 305,-222"/>
<polygon fill="black" stroke="black" points="346.84,-249.68 353.46,-255.45 350.67,-250.84 354.5,-252 354.5,-252 354.5,-252 350.67,-250.84 355.54,-248.55 346.84,-249.68 346.84,-249.68"/>
<ellipse fill="none" stroke="black" cx="343.3" cy="-248.61" rx="3.2" ry="3.2"/>
</g>
<!-- 店舗一覧（Results_49） -->
<g id="node3" class="node">
<title>店舗一覧（Results_49）</title>
<g id="a_node3"><a xlink:href="../../tables/_____Results_49__da4dc4ba.html" xlink:title="店舗一覧（Results_49）" target="_top">
<polygon fill="#ffffff" stroke="none" points="67,-278 67,-336 247,-336 247,-278 67,-278"/>
<polygon fill="#f5f5f5" stroke="none" points="67,-314 67,-336 247,-336 247,-314 67,-314"/>
<polygon fill="none" stroke="black" points="67,-314 67,-336 247,-336 247,-314 67,-314"/>
<text text-anchor="start" x="68" y="-323.2" font-family="IPAGothic" font-weight="bold" font-size="11.00">店舗一覧（Results_49）</text>
<text text-anchor="start" x="209" y="-322.2" font-family="IPAGothic" font-size="11.00">[table]</text>
<polygon fill="none" stroke="black" points="67,-296 67,-314 247,-314 247,-296 67,-296"/>
<text text-anchor="start" x="70" y="-302.2" font-family="IPAGothic" font-size="11.00">...</text>
<polygon fill="#ffffff" stroke="none" points="67,-278 67,-296 132,-296 132,-278 67,-278"/>
<polygon fill="none" stroke="black" points="67,-278 67,-296 132,-296 132,-278 67,-278"/>
<text text-anchor="start" x="70" y="-284.2" font-family="IPAGothic" font-size="11.00"> &#160;</text>
<polygon fill="#ffffff" stroke="none" points="132,-278 132,-296 196,-296 196,-278 132,-278"/>
<polygon fill="none" stroke="black" points="132,-278 132,-296 196,-296 196,-278 132,-278"/>
<text text-anchor="start" x="160" y="-284.2" font-family="IPAGothic" font-size="11.00">0 rows</text>
<polygon fill="#ffffff" stroke="none" points="196,-278 196,-296 247,-296 247,-278 196,-278"/>
<polygon fill="none" stroke="black" points="196,-278 196,-296 247,-296 247,-278 196,-278"/>
<text text-anchor="start" x="225" y="-284.2" font-family="IPAGothic" font-size="11.00">1 &gt;</text>
</a>
</g>
</g>
<!-- 売上管理台帳（Results_51）&#45;&gt;店舗一覧（Results_49） -->
<g id="edge2" class="edge">
<title>売上管理台帳（Results_51）:w&#45;&gt;店舗一覧（Results_49）:e</title>
<path fill="none" stroke="black" d="M339.22,-275.1C302.88,-280.63 291.71,-305 248,-305"/>
<polygon fill="black" stroke="black" points="346.52,-274.58 354.76,-277.59 350.51,-274.29 354.5,-274 354.5,-274 354.5,-274 350.51,-274.29 354.24,-270.41 346.52,-274.58 346.52,-274.58"/>
<ellipse fill="none" stroke="black" cx="342.83" cy="-274.84" rx="3.2" ry="3.2"/>
</g>
</g>
</svg>
