<?xml version="1.0" encoding="UTF-8" standalone="no"?>
<!DOCTYPE svg PUBLIC "-//W3C//DTD SVG 1.1//EN"
 "http://www.w3.org/Graphics/SVG/1.1/DTD/svg11.dtd">
<!-- Generated by graphviz version 7.0.4 (20221203.1631)
 -->
<!-- Title: oneDegreeRelationshipsDiagram Pages: 1 -->
<svg width="563pt" height="313pt"
 viewBox="0.00 0.00 563.00 313.00" xmlns="http://www.w3.org/2000/svg" xmlns:xlink="http://www.w3.org/1999/xlink">
<g id="graph0" class="graph" transform="scale(1 1) rotate(0) translate(4 309)">
<title>oneDegreeRelationshipsDiagram</title>
<polygon fill="#ffffff" stroke="none" points="-4,4 -4,-309 559,-309 559,4 -4,4"/>
<text text-anchor="middle" x="72" y="-7.2" font-family="IPAGothic" font-size="11.00">Generated by SchemaSpy</text>
<!-- 利用台帳（Results_14） -->
<g id="node1" class="node">
<title>利用台帳（Results_14）</title>
<g id="a_node1"><a xlink:href="../../tables/_____Results_14__e9cd32f7.html" xlink:title="利用台帳（Results_14）" target="_top">
<polygon fill="#ffffff" stroke="none" points="249,-37 249,-301 547,-301 547,-37 249,-37"/>
<polygon fill="#f5f5f5" stroke="none" points="251,-277 251,-299 545,-299 545,-277 251,-277"/>
<polygon fill="none" stroke="black" points="251,-277 251,-299 545,-299 545,-277 251,-277"/>
<text text-anchor="start" x="252" y="-286.2" font-family="IPAGothic" font-weight="bold" font-size="11.00">利用台帳（Results_14）</text>
<text text-anchor="start" x="507" y="-285.2" font-family="IPAGothic" font-size="11.00">[table]</text>
<polygon fill="none" stroke="black" points="251,-255 251,-277 427,-277 427,-255 251,-255"/>
<image xlink:href="../../images/primaryKeys.png" width="11px" height="12px" preserveAspectRatio="xMinYMin meet" x="256" y="-272"/>
<text text-anchor="start" x="271" y="-263.2" font-family="IPAGothic" font-size="11.00">ID（ResultId）</text>
<polygon fill="none" stroke="black" points="427,-255 427,-277 545,-277 545,-255 427,-255"/>
<text text-anchor="start" x="430" y="-263.2" font-family="IPAGothic" font-size="11.00">int[4]</text>
<polygon fill="none" stroke="black" points="251,-233 251,-255 427,-255 427,-233 251,-233"/>
<text text-anchor="start" x="271" y="-241.2" font-family="IPAGothic" font-size="11.00">バージョン（Ver）</text>
<polygon fill="none" stroke="black" points="427,-233 427,-255 545,-255 545,-233 427,-233"/>
<text text-anchor="start" x="430" y="-241.2" font-family="IPAGothic" font-size="11.00">int[4]</text>
<polygon fill="none" stroke="black" points="251,-211 251,-233 427,-233 427,-211 251,-211"/>
<image xlink:href="../../images/foreignKeys.png" width="11px" height="12px" preserveAspectRatio="xMinYMin meet" x="256" y="-228"/>
<text text-anchor="start" x="271" y="-219.2" font-family="IPAGothic" font-size="11.00">商品分類（ClassA）</text>
<polygon fill="none" stroke="black" points="427,-211 427,-233 545,-233 545,-211 427,-211"/>
<text text-anchor="start" x="430" y="-219.2" font-family="IPAGothic" font-size="11.00">int[4]</text>
<polygon fill="none" stroke="black" points="251,-189 251,-211 427,-211 427,-189 251,-189"/>
<text text-anchor="start" x="271" y="-197.2" font-family="IPAGothic" font-size="11.00">利用日（DateA）</text>
<polygon fill="none" stroke="black" points="427,-189 427,-211 545,-211 545,-189 427,-189"/>
<text text-anchor="start" x="430" y="-197.2" font-family="IPAGothic" font-size="11.00">datetime[16,3]</text>
<polygon fill="none" stroke="black" points="251,-167 251,-189 427,-189 427,-167 251,-167"/>
<text text-anchor="start" x="271" y="-175.2" font-family="IPAGothic" font-size="11.00">所属（ClassB）</text>
<polygon fill="none" stroke="black" points="427,-167 427,-189 545,-189 545,-167 427,-167"/>
<text text-anchor="start" x="430" y="-175.2" font-family="IPAGothic" font-size="11.00">nvarchar[2048]</text>
<polygon fill="none" stroke="black" points="251,-145 251,-167 427,-167 427,-145 251,-145"/>
<text text-anchor="start" x="271" y="-153.2" font-family="IPAGothic" font-size="11.00">個数（NumA）</text>
<polygon fill="none" stroke="black" points="427,-145 427,-167 545,-167 545,-145 427,-145"/>
<text text-anchor="start" x="430" y="-153.2" font-family="IPAGothic" font-size="11.00">decimal[21,4]</text>
<polygon fill="none" stroke="black" points="251,-123 251,-145 427,-145 427,-123 251,-123"/>
<text text-anchor="start" x="271" y="-131.2" font-family="IPAGothic" font-size="11.00">利用者（Owner）</text>
<polygon fill="none" stroke="black" points="427,-123 427,-145 545,-145 545,-123 427,-123"/>
<text text-anchor="start" x="430" y="-131.2" font-family="IPAGothic" font-size="11.00">int[4]</text>
<polygon fill="none" stroke="black" points="251,-101 251,-123 427,-123 427,-101 251,-101"/>
<text text-anchor="start" x="271" y="-109.2" font-family="IPAGothic" font-size="11.00">備考（Body）</text>
<polygon fill="none" stroke="black" points="427,-101 427,-123 545,-123 545,-101 427,-101"/>
<text text-anchor="start" x="430" y="-109.2" font-family="IPAGothic" font-size="11.00">nvarchar[2147483647]</text>
<polygon fill="none" stroke="black" points="251,-79 251,-101 427,-101 427,-79 251,-79"/>
<text text-anchor="start" x="271" y="-87.2" font-family="IPAGothic" font-size="11.00">添付資料（AttachmentsA）</text>
<polygon fill="none" stroke="black" points="427,-79 427,-101 545,-101 545,-79 427,-79"/>
<text text-anchor="start" x="430" y="-87.2" font-family="IPAGothic" font-size="11.00">nvarchar[2147483647]</text>
<polygon fill="none" stroke="black" points="251,-57 251,-79 427,-79 427,-57 251,-57"/>
<text text-anchor="start" x="271" y="-65.2" font-family="IPAGothic" font-size="11.00">コメント（Comments）</text>
<polygon fill="none" stroke="black" points="427,-57 427,-79 545,-79 545,-57 427,-57"/>
<text text-anchor="start" x="430" y="-65.2" font-family="IPAGothic" font-size="11.00">nvarchar[2147483647]</text>
<polygon fill="#ffffff" stroke="none" points="251,-39 251,-57 332,-57 332,-39 251,-39"/>
<polygon fill="none" stroke="black" points="251,-39 251,-57 332,-57 332,-39 251,-39"/>
<text text-anchor="start" x="254" y="-45.2" font-family="IPAGothic" font-size="11.00">&lt; 1</text>
<polygon fill="#ffffff" stroke="none" points="332,-39 332,-57 427,-57 427,-39 332,-39"/>
<polygon fill="none" stroke="black" points="332,-39 332,-57 427,-57 427,-39 332,-39"/>
<text text-anchor="start" x="391" y="-45.2" font-family="IPAGothic" font-size="11.00">0 rows</text>
<polygon fill="#ffffff" stroke="none" points="427,-39 427,-57 545,-57 545,-39 427,-39"/>
<polygon fill="none" stroke="black" points="427,-39 427,-57 545,-57 545,-39 427,-39"/>
<text text-anchor="start" x="523" y="-45.2" font-family="IPAGothic" font-size="11.00">0 &gt;</text>
<polygon fill="none" stroke="black" stroke-width="2" points="250,-38 250,-300 546,-300 546,-38 250,-38"/>
</a>
</g>
</g>
<!-- 消耗品管理（Results_12） -->
<g id="node2" class="node">
<title>消耗品管理（Results_12）</title>
<g id="a_node2"><a xlink:href="../../tables/______Results_12__2634b9ae.html" xlink:title="消耗品管理（Results_12）" target="_top">
<polygon fill="#ffffff" stroke="none" points="8,-175 8,-255 200,-255 200,-175 8,-175"/>
<polygon fill="#f5f5f5" stroke="none" points="8,-233 8,-255 200,-255 200,-233 8,-233"/>
<polygon fill="none" stroke="black" points="8,-233 8,-255 200,-255 200,-233 8,-233"/>
<text text-anchor="start" x="8.5" y="-242.2" font-family="IPAGothic" font-weight="bold" font-size="11.00">消耗品管理（Results_12）</text>
<text text-anchor="start" x="162" y="-241.2" font-family="IPAGothic" font-size="11.00">[table]</text>
<polygon fill="none" stroke="black" points="8,-211 8,-233 200,-233 200,-211 8,-211"/>
<image xlink:href="../../images/primaryKeys.png" width="11px" height="12px" preserveAspectRatio="xMinYMin meet" x="13" y="-228"/>
<text text-anchor="start" x="36" y="-219.2" font-family="IPAGothic" font-size="11.00">ID（ResultId）</text>
<polygon fill="none" stroke="black" points="8,-193 8,-211 200,-211 200,-193 8,-193"/>
<text text-anchor="start" x="11" y="-199.2" font-family="IPAGothic" font-size="11.00">...</text>
<polygon fill="#ffffff" stroke="none" points="8,-175 8,-193 79,-193 79,-175 8,-175"/>
<polygon fill="none" stroke="black" points="8,-175 8,-193 79,-193 79,-175 8,-175"/>
<text text-anchor="start" x="11" y="-181.2" font-family="IPAGothic" font-size="11.00"> &#160;</text>
<polygon fill="#ffffff" stroke="none" points="79,-175 79,-193 146,-193 146,-175 79,-175"/>
<polygon fill="none" stroke="black" points="79,-175 79,-193 146,-193 146,-175 79,-175"/>
<text text-anchor="start" x="110" y="-181.2" font-family="IPAGothic" font-size="11.00">0 rows</text>
<polygon fill="#ffffff" stroke="none" points="146,-175 146,-193 200,-193 200,-175 146,-175"/>
<polygon fill="none" stroke="black" points="146,-175 146,-193 200,-193 200,-175 146,-175"/>
<text text-anchor="start" x="178" y="-181.2" font-family="IPAGothic" font-size="11.00">2 &gt;</text>
</a>
</g>
</g>
<!-- 利用台帳（Results_14）&#45;&gt;消耗品管理（Results_12） -->
<g id="edge1" class="edge">
<title>利用台帳（Results_14）:w&#45;&gt;消耗品管理（Results_12）:e</title>
<path fill="none" stroke="black" d="M234.77,-222C223.87,-222 216.65,-222 201,-222"/>
<polygon fill="black" stroke="black" points="242,-222 250,-225.6 246,-222 250,-222 250,-222 250,-222 246,-222 250,-218.4 242,-222 242,-222"/>
<ellipse fill="none" stroke="black" cx="238.3" cy="-222" rx="3.2" ry="3.2"/>
</g>
</g>
</svg>
