<?xml version="1.0" encoding="UTF-8" standalone="no"?>
<!DOCTYPE svg PUBLIC "-//W3C//DTD SVG 1.1//EN"
 "http://www.w3.org/Graphics/SVG/1.1/DTD/svg11.dtd">
<!-- Generated by graphviz version 7.0.4 (20221203.1631)
 -->
<!-- Title: oneDegreeRelationshipsDiagram Pages: 1 -->
<svg width="576pt" height="291pt"
 viewBox="0.00 0.00 576.00 291.00" xmlns="http://www.w3.org/2000/svg" xmlns:xlink="http://www.w3.org/1999/xlink">
<g id="graph0" class="graph" transform="scale(1 1) rotate(0) translate(4 287)">
<title>oneDegreeRelationshipsDiagram</title>
<polygon fill="#ffffff" stroke="none" points="-4,4 -4,-287 572,-287 572,4 -4,4"/>
<text text-anchor="middle" x="72" y="-7.2" font-family="IPAGothic" font-size="11.00">Generated by SchemaSpy</text>
<!-- 参加者一覧（Results_26） -->
<g id="node1" class="node">
<title>参加者一覧（Results_26）</title>
<g id="a_node1"><a xlink:href="../../tables/______Results_26__1d7aaae2.html" xlink:title="参加者一覧（Results_26）" target="_top">
<polygon fill="#ffffff" stroke="none" points="262,-37 262,-279 560,-279 560,-37 262,-37"/>
<polygon fill="#f5f5f5" stroke="none" points="264,-255 264,-277 558,-277 558,-255 264,-255"/>
<polygon fill="none" stroke="black" points="264,-255 264,-277 558,-277 558,-255 264,-255"/>
<text text-anchor="start" x="264.5" y="-264.2" font-family="IPAGothic" font-weight="bold" font-size="11.00">参加者一覧（Results_26）</text>
<text text-anchor="start" x="520" y="-263.2" font-family="IPAGothic" font-size="11.00">[table]</text>
<polygon fill="none" stroke="black" points="264,-233 264,-255 440,-255 440,-233 264,-233"/>
<image xlink:href="../../images/primaryKeys.png" width="11px" height="12px" preserveAspectRatio="xMinYMin meet" x="269" y="-250"/>
<text text-anchor="start" x="284" y="-241.2" font-family="IPAGothic" font-size="11.00">ID（ResultId）</text>
<polygon fill="none" stroke="black" points="440,-233 440,-255 558,-255 558,-233 440,-233"/>
<text text-anchor="start" x="443" y="-241.2" font-family="IPAGothic" font-size="11.00">int[4]</text>
<polygon fill="none" stroke="black" points="264,-211 264,-233 440,-233 440,-211 264,-211"/>
<text text-anchor="start" x="284" y="-219.2" font-family="IPAGothic" font-size="11.00">バージョン（Ver）</text>
<polygon fill="none" stroke="black" points="440,-211 440,-233 558,-233 558,-211 440,-211"/>
<text text-anchor="start" x="443" y="-219.2" font-family="IPAGothic" font-size="11.00">int[4]</text>
<polygon fill="none" stroke="black" points="264,-189 264,-211 440,-211 440,-189 264,-189"/>
<image xlink:href="../../images/foreignKeys.png" width="11px" height="12px" preserveAspectRatio="xMinYMin meet" x="269" y="-206"/>
<text text-anchor="start" x="284" y="-197.2" font-family="IPAGothic" font-size="11.00">勉強会名（ClassA）</text>
<polygon fill="none" stroke="black" points="440,-189 440,-211 558,-211 558,-189 440,-189"/>
<text text-anchor="start" x="443" y="-197.2" font-family="IPAGothic" font-size="11.00">int[4]</text>
<polygon fill="none" stroke="black" points="264,-167 264,-189 440,-189 440,-167 264,-167"/>
<text text-anchor="start" x="284" y="-175.2" font-family="IPAGothic" font-size="11.00">フリガナ（ClassB）</text>
<polygon fill="none" stroke="black" points="440,-167 440,-189 558,-189 558,-167 440,-167"/>
<text text-anchor="start" x="443" y="-175.2" font-family="IPAGothic" font-size="11.00">nvarchar[2048]</text>
<polygon fill="none" stroke="black" points="264,-145 264,-167 440,-167 440,-145 264,-145"/>
<text text-anchor="start" x="284" y="-153.2" font-family="IPAGothic" font-size="11.00">氏名（ClassC）</text>
<polygon fill="none" stroke="black" points="440,-145 440,-167 558,-167 558,-145 440,-145"/>
<text text-anchor="start" x="443" y="-153.2" font-family="IPAGothic" font-size="11.00">nvarchar[2048]</text>
<polygon fill="none" stroke="black" points="264,-123 264,-145 440,-145 440,-123 264,-123"/>
<text text-anchor="start" x="284" y="-131.2" font-family="IPAGothic" font-size="11.00">電話番号（ClassD）</text>
<polygon fill="none" stroke="black" points="440,-123 440,-145 558,-145 558,-123 440,-123"/>
<text text-anchor="start" x="443" y="-131.2" font-family="IPAGothic" font-size="11.00">nvarchar[2048]</text>
<polygon fill="none" stroke="black" points="264,-101 264,-123 440,-123 440,-101 264,-101"/>
<text text-anchor="start" x="284" y="-109.2" font-family="IPAGothic" font-size="11.00">メールアドレス（ClassE）</text>
<polygon fill="none" stroke="black" points="440,-101 440,-123 558,-123 558,-101 440,-101"/>
<text text-anchor="start" x="443" y="-109.2" font-family="IPAGothic" font-size="11.00">nvarchar[2048]</text>
<polygon fill="none" stroke="black" points="264,-79 264,-101 440,-101 440,-79 264,-79"/>
<text text-anchor="start" x="284" y="-87.2" font-family="IPAGothic" font-size="11.00">添付資料（AttachmentsA）</text>
<polygon fill="none" stroke="black" points="440,-79 440,-101 558,-101 558,-79 440,-79"/>
<text text-anchor="start" x="443" y="-87.2" font-family="IPAGothic" font-size="11.00">nvarchar[2147483647]</text>
<polygon fill="none" stroke="black" points="264,-57 264,-79 440,-79 440,-57 264,-57"/>
<text text-anchor="start" x="284" y="-65.2" font-family="IPAGothic" font-size="11.00">コメント（Comments）</text>
<polygon fill="none" stroke="black" points="440,-57 440,-79 558,-79 558,-57 440,-57"/>
<text text-anchor="start" x="443" y="-65.2" font-family="IPAGothic" font-size="11.00">nvarchar[2147483647]</text>
<polygon fill="#ffffff" stroke="none" points="264,-39 264,-57 345,-57 345,-39 264,-39"/>
<polygon fill="none" stroke="black" points="264,-39 264,-57 345,-57 345,-39 264,-39"/>
<text text-anchor="start" x="267" y="-45.2" font-family="IPAGothic" font-size="11.00">&lt; 1</text>
<polygon fill="#ffffff" stroke="none" points="345,-39 345,-57 440,-57 440,-39 345,-39"/>
<polygon fill="none" stroke="black" points="345,-39 345,-57 440,-57 440,-39 345,-39"/>
<text text-anchor="start" x="404" y="-45.2" font-family="IPAGothic" font-size="11.00">0 rows</text>
<polygon fill="#ffffff" stroke="none" points="440,-39 440,-57 558,-57 558,-39 440,-39"/>
<polygon fill="none" stroke="black" points="440,-39 440,-57 558,-57 558,-39 440,-39"/>
<text text-anchor="start" x="536" y="-45.2" font-family="IPAGothic" font-size="11.00">0 &gt;</text>
<polygon fill="none" stroke="black" stroke-width="2" points="263,-38 263,-278 559,-278 559,-38 263,-38"/>
</a>
</g>
</g>
<!-- 勉強会リスト（Results_25） -->
<g id="node2" class="node">
<title>勉強会リスト（Results_25）</title>
<g id="a_node2"><a xlink:href="../../tables/_______Results_25__ce04b082.html" xlink:title="勉強会リスト（Results_25）" target="_top">
<polygon fill="#ffffff" stroke="none" points="8,-153 8,-233 213,-233 213,-153 8,-153"/>
<polygon fill="#f5f5f5" stroke="none" points="8.5,-211 8.5,-233 213.5,-233 213.5,-211 8.5,-211"/>
<polygon fill="none" stroke="black" points="8.5,-211 8.5,-233 213.5,-233 213.5,-211 8.5,-211"/>
<text text-anchor="start" x="9" y="-220.2" font-family="IPAGothic" font-weight="bold" font-size="11.00">勉強会リスト（Results_25）</text>
<text text-anchor="start" x="175.5" y="-219.2" font-family="IPAGothic" font-size="11.00">[table]</text>
<polygon fill="none" stroke="black" points="8.5,-189 8.5,-211 213.5,-211 213.5,-189 8.5,-189"/>
<image xlink:href="../../images/primaryKeys.png" width="11px" height="12px" preserveAspectRatio="xMinYMin meet" x="13.5" y="-206"/>
<text text-anchor="start" x="39.5" y="-197.2" font-family="IPAGothic" font-size="11.00">ID（ResultId）</text>
<polygon fill="none" stroke="black" points="8.5,-171 8.5,-189 213.5,-189 213.5,-171 8.5,-171"/>
<text text-anchor="start" x="11.5" y="-177.2" font-family="IPAGothic" font-size="11.00">...</text>
<polygon fill="#ffffff" stroke="none" points="8.5,-153 8.5,-171 85.5,-171 85.5,-153 8.5,-153"/>
<polygon fill="none" stroke="black" points="8.5,-153 8.5,-171 85.5,-171 85.5,-153 8.5,-153"/>
<text text-anchor="start" x="11.5" y="-159.2" font-family="IPAGothic" font-size="11.00"> &#160;</text>
<polygon fill="#ffffff" stroke="none" points="85.5,-153 85.5,-171 156.5,-171 156.5,-153 85.5,-153"/>
<polygon fill="none" stroke="black" points="85.5,-153 85.5,-171 156.5,-171 156.5,-153 85.5,-153"/>
<text text-anchor="start" x="120.5" y="-159.2" font-family="IPAGothic" font-size="11.00">0 rows</text>
<polygon fill="#ffffff" stroke="none" points="156.5,-153 156.5,-171 213.5,-171 213.5,-153 156.5,-153"/>
<polygon fill="none" stroke="black" points="156.5,-153 156.5,-171 213.5,-171 213.5,-153 156.5,-153"/>
<text text-anchor="start" x="191.5" y="-159.2" font-family="IPAGothic" font-size="11.00">1 &gt;</text>
</a>
</g>
</g>
<!-- 参加者一覧（Results_26）&#45;&gt;勉強会リスト（Results_25） -->
<g id="edge1" class="edge">
<title>参加者一覧（Results_26）:w&#45;&gt;勉強会リスト（Results_25）:e</title>
<path fill="none" stroke="black" d="M247.93,-200C237.13,-200 229.99,-200 214.5,-200"/>
<polygon fill="black" stroke="black" points="255,-200 263,-203.6 259,-200 263,-200 263,-200 263,-200 259,-200 263,-196.4 255,-200 255,-200"/>
<ellipse fill="none" stroke="black" cx="251.3" cy="-200" rx="3.2" ry="3.2"/>
</g>
</g>
</svg>
