<?xml version="1.0" encoding="UTF-8" standalone="no"?>
<!DOCTYPE svg PUBLIC "-//W3C//DTD SVG 1.1//EN"
 "http://www.w3.org/Graphics/SVG/1.1/DTD/svg11.dtd">
<!-- Generated by graphviz version 7.0.4 (20221203.1631)
 -->
<!-- Title: oneDegreeRelationshipsDiagram Pages: 1 -->
<svg width="563pt" height="335pt"
 viewBox="0.00 0.00 563.00 335.00" xmlns="http://www.w3.org/2000/svg" xmlns:xlink="http://www.w3.org/1999/xlink">
<g id="graph0" class="graph" transform="scale(1 1) rotate(0) translate(4 331)">
<title>oneDegreeRelationshipsDiagram</title>
<polygon fill="#ffffff" stroke="none" points="-4,4 -4,-331 559,-331 559,4 -4,4"/>
<text text-anchor="middle" x="72" y="-7.2" font-family="IPAGothic" font-size="11.00">Generated by SchemaSpy</text>
<!-- 購入台帳（Results_13） -->
<g id="node1" class="node">
<title>購入台帳（Results_13）</title>
<g id="a_node1"><a xlink:href="../../tables/_____Results_13__6fa2c522.html" xlink:title="購入台帳（Results_13）" target="_top">
<polygon fill="#ffffff" stroke="none" points="249,-37 249,-323 547,-323 547,-37 249,-37"/>
<polygon fill="#f5f5f5" stroke="none" points="251,-299 251,-321 545,-321 545,-299 251,-299"/>
<polygon fill="none" stroke="black" points="251,-299 251,-321 545,-321 545,-299 251,-299"/>
<text text-anchor="start" x="252" y="-308.2" font-family="IPAGothic" font-weight="bold" font-size="11.00">購入台帳（Results_13）</text>
<text text-anchor="start" x="507" y="-307.2" font-family="IPAGothic" font-size="11.00">[table]</text>
<polygon fill="none" stroke="black" points="251,-277 251,-299 427,-299 427,-277 251,-277"/>
<image xlink:href="../../images/primaryKeys.png" width="11px" height="12px" preserveAspectRatio="xMinYMin meet" x="256" y="-294"/>
<text text-anchor="start" x="271" y="-285.2" font-family="IPAGothic" font-size="11.00">ID（ResultId）</text>
<polygon fill="none" stroke="black" points="427,-277 427,-299 545,-299 545,-277 427,-277"/>
<text text-anchor="start" x="430" y="-285.2" font-family="IPAGothic" font-size="11.00">int[4]</text>
<polygon fill="none" stroke="black" points="251,-255 251,-277 427,-277 427,-255 251,-255"/>
<text text-anchor="start" x="271" y="-263.2" font-family="IPAGothic" font-size="11.00">バージョン（Ver）</text>
<polygon fill="none" stroke="black" points="427,-255 427,-277 545,-277 545,-255 427,-255"/>
<text text-anchor="start" x="430" y="-263.2" font-family="IPAGothic" font-size="11.00">int[4]</text>
<polygon fill="none" stroke="black" points="251,-233 251,-255 427,-255 427,-233 251,-233"/>
<image xlink:href="../../images/foreignKeys.png" width="11px" height="12px" preserveAspectRatio="xMinYMin meet" x="256" y="-250"/>
<text text-anchor="start" x="271" y="-241.2" font-family="IPAGothic" font-size="11.00">商品分類（ClassA）</text>
<polygon fill="none" stroke="black" points="427,-233 427,-255 545,-255 545,-233 427,-233"/>
<text text-anchor="start" x="430" y="-241.2" font-family="IPAGothic" font-size="11.00">int[4]</text>
<polygon fill="none" stroke="black" points="251,-211 251,-233 427,-233 427,-211 251,-211"/>
<text text-anchor="start" x="271" y="-219.2" font-family="IPAGothic" font-size="11.00">購入日（DateA）</text>
<polygon fill="none" stroke="black" points="427,-211 427,-233 545,-233 545,-211 427,-211"/>
<text text-anchor="start" x="430" y="-219.2" font-family="IPAGothic" font-size="11.00">datetime[16,3]</text>
<polygon fill="none" stroke="black" points="251,-189 251,-211 427,-211 427,-189 251,-189"/>
<text text-anchor="start" x="271" y="-197.2" font-family="IPAGothic" font-size="11.00">購入店名（ClassB）</text>
<polygon fill="none" stroke="black" points="427,-189 427,-211 545,-211 545,-189 427,-189"/>
<text text-anchor="start" x="430" y="-197.2" font-family="IPAGothic" font-size="11.00">nvarchar[2048]</text>
<polygon fill="none" stroke="black" points="251,-167 251,-189 427,-189 427,-167 251,-167"/>
<text text-anchor="start" x="271" y="-175.2" font-family="IPAGothic" font-size="11.00">個数（NumA）</text>
<polygon fill="none" stroke="black" points="427,-167 427,-189 545,-189 545,-167 427,-167"/>
<text text-anchor="start" x="430" y="-175.2" font-family="IPAGothic" font-size="11.00">decimal[21,4]</text>
<polygon fill="none" stroke="black" points="251,-145 251,-167 427,-167 427,-145 251,-145"/>
<text text-anchor="start" x="271" y="-153.2" font-family="IPAGothic" font-size="11.00">金額（NumB）</text>
<polygon fill="none" stroke="black" points="427,-145 427,-167 545,-167 545,-145 427,-145"/>
<text text-anchor="start" x="430" y="-153.2" font-family="IPAGothic" font-size="11.00">decimal[21,4]</text>
<polygon fill="none" stroke="black" points="251,-123 251,-145 427,-145 427,-123 251,-123"/>
<text text-anchor="start" x="271" y="-131.2" font-family="IPAGothic" font-size="11.00">購入者（Owner）</text>
<polygon fill="none" stroke="black" points="427,-123 427,-145 545,-145 545,-123 427,-123"/>
<text text-anchor="start" x="430" y="-131.2" font-family="IPAGothic" font-size="11.00">int[4]</text>
<polygon fill="none" stroke="black" points="251,-101 251,-123 427,-123 427,-101 251,-101"/>
<text text-anchor="start" x="271" y="-109.2" font-family="IPAGothic" font-size="11.00">備考（Body）</text>
<polygon fill="none" stroke="black" points="427,-101 427,-123 545,-123 545,-101 427,-101"/>
<text text-anchor="start" x="430" y="-109.2" font-family="IPAGothic" font-size="11.00">nvarchar[2147483647]</text>
<polygon fill="none" stroke="black" points="251,-79 251,-101 427,-101 427,-79 251,-79"/>
<text text-anchor="start" x="271" y="-87.2" font-family="IPAGothic" font-size="11.00">添付資料（AttachmentsA）</text>
<polygon fill="none" stroke="black" points="427,-79 427,-101 545,-101 545,-79 427,-79"/>
<text text-anchor="start" x="430" y="-87.2" font-family="IPAGothic" font-size="11.00">nvarchar[2147483647]</text>
<polygon fill="none" stroke="black" points="251,-57 251,-79 427,-79 427,-57 251,-57"/>
<text text-anchor="start" x="271" y="-65.2" font-family="IPAGothic" font-size="11.00">コメント（Comments）</text>
<polygon fill="none" stroke="black" points="427,-57 427,-79 545,-79 545,-57 427,-57"/>
<text text-anchor="start" x="430" y="-65.2" font-family="IPAGothic" font-size="11.00">nvarchar[2147483647]</text>
<polygon fill="#ffffff" stroke="none" points="251,-39 251,-57 332,-57 332,-39 251,-39"/>
<polygon fill="none" stroke="black" points="251,-39 251,-57 332,-57 332,-39 251,-39"/>
<text text-anchor="start" x="254" y="-45.2" font-family="IPAGothic" font-size="11.00">&lt; 1</text>
<polygon fill="#ffffff" stroke="none" points="332,-39 332,-57 427,-57 427,-39 332,-39"/>
<polygon fill="none" stroke="black" points="332,-39 332,-57 427,-57 427,-39 332,-39"/>
<text text-anchor="start" x="391" y="-45.2" font-family="IPAGothic" font-size="11.00">0 rows</text>
<polygon fill="#ffffff" stroke="none" points="427,-39 427,-57 545,-57 545,-39 427,-39"/>
<polygon fill="none" stroke="black" points="427,-39 427,-57 545,-57 545,-39 427,-39"/>
<text text-anchor="start" x="523" y="-45.2" font-family="IPAGothic" font-size="11.00">0 &gt;</text>
<polygon fill="none" stroke="black" stroke-width="2" points="250,-38 250,-322 546,-322 546,-38 250,-38"/>
</a>
</g>
</g>
<!-- 消耗品管理（Results_12） -->
<g id="node2" class="node">
<title>消耗品管理（Results_12）</title>
<g id="a_node2"><a xlink:href="../../tables/______Results_12__2634b9ae.html" xlink:title="消耗品管理（Results_12）" target="_top">
<polygon fill="#ffffff" stroke="none" points="8,-197 8,-277 200,-277 200,-197 8,-197"/>
<polygon fill="#f5f5f5" stroke="none" points="8,-255 8,-277 200,-277 200,-255 8,-255"/>
<polygon fill="none" stroke="black" points="8,-255 8,-277 200,-277 200,-255 8,-255"/>
<text text-anchor="start" x="8.5" y="-264.2" font-family="IPAGothic" font-weight="bold" font-size="11.00">消耗品管理（Results_12）</text>
<text text-anchor="start" x="162" y="-263.2" font-family="IPAGothic" font-size="11.00">[table]</text>
<polygon fill="none" stroke="black" points="8,-233 8,-255 200,-255 200,-233 8,-233"/>
<image xlink:href="../../images/primaryKeys.png" width="11px" height="12px" preserveAspectRatio="xMinYMin meet" x="13" y="-250"/>
<text text-anchor="start" x="36" y="-241.2" font-family="IPAGothic" font-size="11.00">ID（ResultId）</text>
<polygon fill="none" stroke="black" points="8,-215 8,-233 200,-233 200,-215 8,-215"/>
<text text-anchor="start" x="11" y="-221.2" font-family="IPAGothic" font-size="11.00">...</text>
<polygon fill="#ffffff" stroke="none" points="8,-197 8,-215 79,-215 79,-197 8,-197"/>
<polygon fill="none" stroke="black" points="8,-197 8,-215 79,-215 79,-197 8,-197"/>
<text text-anchor="start" x="11" y="-203.2" font-family="IPAGothic" font-size="11.00"> &#160;</text>
<polygon fill="#ffffff" stroke="none" points="79,-197 79,-215 146,-215 146,-197 79,-197"/>
<polygon fill="none" stroke="black" points="79,-197 79,-215 146,-215 146,-197 79,-197"/>
<text text-anchor="start" x="110" y="-203.2" font-family="IPAGothic" font-size="11.00">0 rows</text>
<polygon fill="#ffffff" stroke="none" points="146,-197 146,-215 200,-215 200,-197 146,-197"/>
<polygon fill="none" stroke="black" points="146,-197 146,-215 200,-215 200,-197 146,-197"/>
<text text-anchor="start" x="178" y="-203.2" font-family="IPAGothic" font-size="11.00">2 &gt;</text>
</a>
</g>
</g>
<!-- 購入台帳（Results_13）&#45;&gt;消耗品管理（Results_12） -->
<g id="edge1" class="edge">
<title>購入台帳（Results_13）:w&#45;&gt;消耗品管理（Results_12）:e</title>
<path fill="none" stroke="black" d="M234.77,-244C223.87,-244 216.65,-244 201,-244"/>
<polygon fill="black" stroke="black" points="242,-244 250,-247.6 246,-244 250,-244 250,-244 250,-244 246,-244 250,-240.4 242,-244 242,-244"/>
<ellipse fill="none" stroke="black" cx="238.3" cy="-244" rx="3.2" ry="3.2"/>
</g>
</g>
</svg>
