<?xml version="1.0" encoding="UTF-8" standalone="no"?>
<!DOCTYPE svg PUBLIC "-//W3C//DTD SVG 1.1//EN"
 "http://www.w3.org/Graphics/SVG/1.1/DTD/svg11.dtd">
<!-- Generated by graphviz version 7.0.4 (20221203.1631)
 -->
<!-- Title: oneDegreeRelationshipsDiagram Pages: 1 -->
<svg width="329pt" height="357pt"
 viewBox="0.00 0.00 329.00 357.00" xmlns="http://www.w3.org/2000/svg" xmlns:xlink="http://www.w3.org/1999/xlink">
<g id="graph0" class="graph" transform="scale(1 1) rotate(0) translate(4 353)">
<title>oneDegreeRelationshipsDiagram</title>
<polygon fill="#ffffff" stroke="none" points="-4,4 -4,-353 325,-353 325,4 -4,4"/>
<text text-anchor="middle" x="72" y="-7.2" font-family="IPAGothic" font-size="11.00">Generated by SchemaSpy</text>
<!-- 交通費精算表（Results_18） -->
<g id="node1" class="node">
<title>交通費精算表（Results_18）</title>
<g id="a_node1"><a xlink:href="../../tables/_______Results_18__61ccf81b.html" xlink:title="交通費精算表（Results_18）" target="_top">
<polygon fill="#ffffff" stroke="none" points="8,-37 8,-345 313,-345 313,-37 8,-37"/>
<polygon fill="#f5f5f5" stroke="none" points="10.5,-321 10.5,-343 311.5,-343 311.5,-321 10.5,-321"/>
<polygon fill="none" stroke="black" points="10.5,-321 10.5,-343 311.5,-343 311.5,-321 10.5,-321"/>
<text text-anchor="start" x="11" y="-330.2" font-family="IPAGothic" font-weight="bold" font-size="11.00">交通費精算表（Results_18）</text>
<text text-anchor="start" x="273.5" y="-329.2" font-family="IPAGothic" font-size="11.00">[table]</text>
<polygon fill="none" stroke="black" points="10.5,-299 10.5,-321 193.5,-321 193.5,-299 10.5,-299"/>
<image xlink:href="../../images/primaryKeys.png" width="11px" height="12px" preserveAspectRatio="xMinYMin meet" x="15.5" y="-316"/>
<text text-anchor="start" x="30.5" y="-307.2" font-family="IPAGothic" font-size="11.00">ID（ResultId）</text>
<polygon fill="none" stroke="black" points="193.5,-299 193.5,-321 311.5,-321 311.5,-299 193.5,-299"/>
<text text-anchor="start" x="196.5" y="-307.2" font-family="IPAGothic" font-size="11.00">int[4]</text>
<polygon fill="none" stroke="black" points="10.5,-277 10.5,-299 193.5,-299 193.5,-277 10.5,-277"/>
<text text-anchor="start" x="30.5" y="-285.2" font-family="IPAGothic" font-size="11.00">バージョン（Ver）</text>
<polygon fill="none" stroke="black" points="193.5,-277 193.5,-299 311.5,-299 311.5,-277 193.5,-277"/>
<text text-anchor="start" x="196.5" y="-285.2" font-family="IPAGothic" font-size="11.00">int[4]</text>
<polygon fill="none" stroke="black" points="10.5,-255 10.5,-277 193.5,-277 193.5,-255 10.5,-255"/>
<text text-anchor="start" x="30.5" y="-263.2" font-family="IPAGothic" font-size="11.00">利用日（DateA）</text>
<polygon fill="none" stroke="black" points="193.5,-255 193.5,-277 311.5,-277 311.5,-255 193.5,-255"/>
<text text-anchor="start" x="196.5" y="-263.2" font-family="IPAGothic" font-size="11.00">datetime[16,3]</text>
<polygon fill="none" stroke="black" points="10.5,-233 10.5,-255 193.5,-255 193.5,-233 10.5,-233"/>
<text text-anchor="start" x="30.5" y="-241.2" font-family="IPAGothic" font-size="11.00">利用者（Manager）</text>
<polygon fill="none" stroke="black" points="193.5,-233 193.5,-255 311.5,-255 311.5,-233 193.5,-233"/>
<text text-anchor="start" x="196.5" y="-241.2" font-family="IPAGothic" font-size="11.00">int[4]</text>
<polygon fill="none" stroke="black" points="10.5,-211 10.5,-233 193.5,-233 193.5,-211 10.5,-211"/>
<text text-anchor="start" x="30.5" y="-219.2" font-family="IPAGothic" font-size="11.00">目的地（ClassB）</text>
<polygon fill="none" stroke="black" points="193.5,-211 193.5,-233 311.5,-233 311.5,-211 193.5,-211"/>
<text text-anchor="start" x="196.5" y="-219.2" font-family="IPAGothic" font-size="11.00">nvarchar[2048]</text>
<polygon fill="none" stroke="black" points="10.5,-189 10.5,-211 193.5,-211 193.5,-189 10.5,-189"/>
<text text-anchor="start" x="30.5" y="-197.2" font-family="IPAGothic" font-size="11.00">出発地（ClassA）</text>
<polygon fill="none" stroke="black" points="193.5,-189 193.5,-211 311.5,-211 311.5,-189 193.5,-189"/>
<text text-anchor="start" x="196.5" y="-197.2" font-family="IPAGothic" font-size="11.00">nvarchar[2048]</text>
<polygon fill="none" stroke="black" points="10.5,-167 10.5,-189 193.5,-189 193.5,-167 10.5,-167"/>
<text text-anchor="start" x="30.5" y="-175.2" font-family="IPAGothic" font-size="11.00">帰着地（ClassH）</text>
<polygon fill="none" stroke="black" points="193.5,-167 193.5,-189 311.5,-189 311.5,-167 193.5,-167"/>
<text text-anchor="start" x="196.5" y="-175.2" font-family="IPAGothic" font-size="11.00">nvarchar[2048]</text>
<polygon fill="none" stroke="black" points="10.5,-145 10.5,-167 193.5,-167 193.5,-145 10.5,-145"/>
<text text-anchor="start" x="30.5" y="-153.2" font-family="IPAGothic" font-size="11.00">出張理由（ClassE）</text>
<polygon fill="none" stroke="black" points="193.5,-145 193.5,-167 311.5,-167 311.5,-145 193.5,-145"/>
<text text-anchor="start" x="196.5" y="-153.2" font-family="IPAGothic" font-size="11.00">nvarchar[2048]</text>
<polygon fill="none" stroke="black" points="10.5,-123 10.5,-145 193.5,-145 193.5,-123 10.5,-123"/>
<text text-anchor="start" x="30.5" y="-131.2" font-family="IPAGothic" font-size="11.00">金額（NumA）</text>
<polygon fill="none" stroke="black" points="193.5,-123 193.5,-145 311.5,-145 311.5,-123 193.5,-123"/>
<text text-anchor="start" x="196.5" y="-131.2" font-family="IPAGothic" font-size="11.00">decimal[21,4]</text>
<polygon fill="none" stroke="black" points="10.5,-101 10.5,-123 193.5,-123 193.5,-101 10.5,-101"/>
<text text-anchor="start" x="30.5" y="-109.2" font-family="IPAGothic" font-size="11.00">状況（Status）</text>
<polygon fill="none" stroke="black" points="193.5,-101 193.5,-123 311.5,-123 311.5,-101 193.5,-101"/>
<text text-anchor="start" x="196.5" y="-109.2" font-family="IPAGothic" font-size="11.00">int[4]</text>
<polygon fill="none" stroke="black" points="10.5,-79 10.5,-101 193.5,-101 193.5,-79 10.5,-79"/>
<text text-anchor="start" x="30.5" y="-87.2" font-family="IPAGothic" font-size="11.00">添付資料（AttachmentsA）</text>
<polygon fill="none" stroke="black" points="193.5,-79 193.5,-101 311.5,-101 311.5,-79 193.5,-79"/>
<text text-anchor="start" x="196.5" y="-87.2" font-family="IPAGothic" font-size="11.00">nvarchar[2147483647]</text>
<polygon fill="none" stroke="black" points="10.5,-57 10.5,-79 193.5,-79 193.5,-57 10.5,-57"/>
<text text-anchor="start" x="30.5" y="-65.2" font-family="IPAGothic" font-size="11.00">コメント（Comments）</text>
<polygon fill="none" stroke="black" points="193.5,-57 193.5,-79 311.5,-79 311.5,-57 193.5,-57"/>
<text text-anchor="start" x="196.5" y="-65.2" font-family="IPAGothic" font-size="11.00">nvarchar[2147483647]</text>
<polygon fill="#ffffff" stroke="none" points="10.5,-39 10.5,-57 94.5,-57 94.5,-39 10.5,-39"/>
<polygon fill="none" stroke="black" points="10.5,-39 10.5,-57 94.5,-57 94.5,-39 10.5,-39"/>
<text text-anchor="start" x="13.5" y="-45.2" font-family="IPAGothic" font-size="11.00">&lt; 0</text>
<polygon fill="#ffffff" stroke="none" points="94.5,-39 94.5,-57 193.5,-57 193.5,-39 94.5,-39"/>
<polygon fill="none" stroke="black" points="94.5,-39 94.5,-57 193.5,-57 193.5,-39 94.5,-39"/>
<text text-anchor="start" x="157.5" y="-45.2" font-family="IPAGothic" font-size="11.00">0 rows</text>
<polygon fill="#ffffff" stroke="none" points="193.5,-39 193.5,-57 311.5,-57 311.5,-39 193.5,-39"/>
<polygon fill="none" stroke="black" points="193.5,-39 193.5,-57 311.5,-57 311.5,-39 193.5,-39"/>
<text text-anchor="start" x="289.5" y="-45.2" font-family="IPAGothic" font-size="11.00">0 &gt;</text>
<polygon fill="none" stroke="black" stroke-width="2" points="9,-38 9,-344 312,-344 312,-38 9,-38"/>
</a>
</g>
</g>
</g>
</svg>
