<?xml version="1.0" encoding="UTF-8" standalone="no"?>
<!DOCTYPE svg PUBLIC "-//W3C//DTD SVG 1.1//EN"
 "http://www.w3.org/Graphics/SVG/1.1/DTD/svg11.dtd">
<!-- Generated by graphviz version 7.0.4 (20221203.1631)
 -->
<!-- Title: oneDegreeRelationshipsDiagram Pages: 1 -->
<svg width="563pt" height="311pt"
 viewBox="0.00 0.00 563.00 311.00" xmlns="http://www.w3.org/2000/svg" xmlns:xlink="http://www.w3.org/1999/xlink">
<g id="graph0" class="graph" transform="scale(1 1) rotate(0) translate(4 307)">
<title>oneDegreeRelationshipsDiagram</title>
<polygon fill="#ffffff" stroke="none" points="-4,4 -4,-307 559,-307 559,4 -4,4"/>
<text text-anchor="middle" x="72" y="-7.2" font-family="IPAGothic" font-size="11.00">Generated by SchemaSpy</text>
<!-- 生産管理表（Results_45） -->
<g id="node1" class="node">
<title>生産管理表（Results_45）</title>
<g id="a_node1"><a xlink:href="../../tables/______Results_45__98675456.html" xlink:title="生産管理表（Results_45）" target="_top">
<polygon fill="#ffffff" stroke="none" points="355,-197 355,-299 547,-299 547,-197 355,-197"/>
<polygon fill="#f5f5f5" stroke="none" points="355,-277 355,-299 547,-299 547,-277 355,-277"/>
<polygon fill="none" stroke="black" points="355,-277 355,-299 547,-299 547,-277 355,-277"/>
<text text-anchor="start" x="355.5" y="-286.2" font-family="IPAGothic" font-weight="bold" font-size="11.00">生産管理表（Results_45）</text>
<text text-anchor="start" x="509" y="-285.2" font-family="IPAGothic" font-size="11.00">[table]</text>
<polygon fill="none" stroke="black" points="355,-255 355,-277 547,-277 547,-255 355,-255"/>
<image xlink:href="../../images/primaryKeys.png" width="11px" height="12px" preserveAspectRatio="xMinYMin meet" x="360" y="-272"/>
<text text-anchor="start" x="383" y="-263.2" font-family="IPAGothic" font-size="11.00">ID（ResultId）</text>
<polygon fill="none" stroke="black" points="355,-233 355,-255 547,-255 547,-233 355,-233"/>
<image xlink:href="../../images/foreignKeys.png" width="11px" height="12px" preserveAspectRatio="xMinYMin meet" x="360" y="-250"/>
<text text-anchor="start" x="383" y="-241.2" font-family="IPAGothic" font-size="11.00">製品名（ClassA）</text>
<polygon fill="none" stroke="black" points="355,-215 355,-233 547,-233 547,-215 355,-215"/>
<text text-anchor="start" x="358" y="-221.2" font-family="IPAGothic" font-size="11.00">...</text>
<polygon fill="#ffffff" stroke="none" points="355,-197 355,-215 437,-215 437,-197 355,-197"/>
<polygon fill="none" stroke="black" points="355,-197 355,-215 437,-215 437,-197 355,-197"/>
<text text-anchor="start" x="358" y="-203.2" font-family="IPAGothic" font-size="11.00">&lt; 1</text>
<polygon fill="#ffffff" stroke="none" points="437,-197 437,-215 504,-215 504,-197 437,-197"/>
<polygon fill="none" stroke="black" points="437,-197 437,-215 504,-215 504,-197 437,-197"/>
<text text-anchor="start" x="468" y="-203.2" font-family="IPAGothic" font-size="11.00">0 rows</text>
<polygon fill="#ffffff" stroke="none" points="504,-197 504,-215 547,-215 547,-197 504,-197"/>
<polygon fill="none" stroke="black" points="504,-197 504,-215 547,-215 547,-197 504,-197"/>
<text text-anchor="start" x="536" y="-203.2" font-family="IPAGothic" font-size="11.00"> &#160;</text>
</a>
</g>
</g>
<!-- 製品一覧（Results_44） -->
<g id="node2" class="node">
<title>製品一覧（Results_44）</title>
<g id="a_node2"><a xlink:href="../../tables/_____Results_44__e76fa223.html" xlink:title="製品一覧（Results_44）" target="_top">
<polygon fill="#ffffff" stroke="none" points="8,-37 8,-279 306,-279 306,-37 8,-37"/>
<polygon fill="#f5f5f5" stroke="none" points="10,-255 10,-277 304,-277 304,-255 10,-255"/>
<polygon fill="none" stroke="black" points="10,-255 10,-277 304,-277 304,-255 10,-255"/>
<text text-anchor="start" x="11" y="-264.2" font-family="IPAGothic" font-weight="bold" font-size="11.00">製品一覧（Results_44）</text>
<text text-anchor="start" x="266" y="-263.2" font-family="IPAGothic" font-size="11.00">[table]</text>
<polygon fill="none" stroke="black" points="10,-233 10,-255 186,-255 186,-233 10,-233"/>
<image xlink:href="../../images/primaryKeys.png" width="11px" height="12px" preserveAspectRatio="xMinYMin meet" x="15" y="-250"/>
<text text-anchor="start" x="30" y="-241.2" font-family="IPAGothic" font-size="11.00">ID（ResultId）</text>
<polygon fill="none" stroke="black" points="186,-233 186,-255 304,-255 304,-233 186,-233"/>
<text text-anchor="start" x="189" y="-241.2" font-family="IPAGothic" font-size="11.00">int[4]</text>
<polygon fill="none" stroke="black" points="10,-211 10,-233 186,-233 186,-211 10,-211"/>
<text text-anchor="start" x="30" y="-219.2" font-family="IPAGothic" font-size="11.00">バージョン（Ver）</text>
<polygon fill="none" stroke="black" points="186,-211 186,-233 304,-233 304,-211 186,-211"/>
<text text-anchor="start" x="189" y="-219.2" font-family="IPAGothic" font-size="11.00">int[4]</text>
<polygon fill="none" stroke="black" points="10,-189 10,-211 186,-211 186,-189 10,-189"/>
<text text-anchor="start" x="30" y="-197.2" font-family="IPAGothic" font-size="11.00">製品名（Title）</text>
<polygon fill="none" stroke="black" points="186,-189 186,-211 304,-211 304,-189 186,-189"/>
<text text-anchor="start" x="189" y="-197.2" font-family="IPAGothic" font-size="11.00">nvarchar[2048]</text>
<polygon fill="none" stroke="black" points="10,-167 10,-189 186,-189 186,-167 10,-167"/>
<text text-anchor="start" x="30" y="-175.2" font-family="IPAGothic" font-size="11.00">総稼働時間（NumA）</text>
<polygon fill="none" stroke="black" points="186,-167 186,-189 304,-189 304,-167 186,-167"/>
<text text-anchor="start" x="189" y="-175.2" font-family="IPAGothic" font-size="11.00">decimal[21,4]</text>
<polygon fill="none" stroke="black" points="10,-145 10,-167 186,-167 186,-145 10,-145"/>
<text text-anchor="start" x="30" y="-153.2" font-family="IPAGothic" font-size="11.00">総生産数（NumB）</text>
<polygon fill="none" stroke="black" points="186,-145 186,-167 304,-167 304,-145 186,-145"/>
<text text-anchor="start" x="189" y="-153.2" font-family="IPAGothic" font-size="11.00">decimal[21,4]</text>
<polygon fill="none" stroke="black" points="10,-123 10,-145 186,-145 186,-123 10,-123"/>
<text text-anchor="start" x="30" y="-131.2" font-family="IPAGothic" font-size="11.00">総生産金額（NumC）</text>
<polygon fill="none" stroke="black" points="186,-123 186,-145 304,-145 304,-123 186,-123"/>
<text text-anchor="start" x="189" y="-131.2" font-family="IPAGothic" font-size="11.00">decimal[21,4]</text>
<polygon fill="none" stroke="black" points="10,-101 10,-123 186,-123 186,-101 10,-101"/>
<text text-anchor="start" x="30" y="-109.2" font-family="IPAGothic" font-size="11.00">管理者（Manager）</text>
<polygon fill="none" stroke="black" points="186,-101 186,-123 304,-123 304,-101 186,-101"/>
<text text-anchor="start" x="189" y="-109.2" font-family="IPAGothic" font-size="11.00">int[4]</text>
<polygon fill="none" stroke="black" points="10,-79 10,-101 186,-101 186,-79 10,-79"/>
<text text-anchor="start" x="30" y="-87.2" font-family="IPAGothic" font-size="11.00">添付資料（AttachmentsA）</text>
<polygon fill="none" stroke="black" points="186,-79 186,-101 304,-101 304,-79 186,-79"/>
<text text-anchor="start" x="189" y="-87.2" font-family="IPAGothic" font-size="11.00">nvarchar[2147483647]</text>
<polygon fill="none" stroke="black" points="10,-57 10,-79 186,-79 186,-57 10,-57"/>
<text text-anchor="start" x="30" y="-65.2" font-family="IPAGothic" font-size="11.00">コメント（Comments）</text>
<polygon fill="none" stroke="black" points="186,-57 186,-79 304,-79 304,-57 186,-57"/>
<text text-anchor="start" x="189" y="-65.2" font-family="IPAGothic" font-size="11.00">nvarchar[2147483647]</text>
<polygon fill="#ffffff" stroke="none" points="10,-39 10,-57 91,-57 91,-39 10,-39"/>
<polygon fill="none" stroke="black" points="10,-39 10,-57 91,-57 91,-39 10,-39"/>
<text text-anchor="start" x="13" y="-45.2" font-family="IPAGothic" font-size="11.00">&lt; 0</text>
<polygon fill="#ffffff" stroke="none" points="91,-39 91,-57 186,-57 186,-39 91,-39"/>
<polygon fill="none" stroke="black" points="91,-39 91,-57 186,-57 186,-39 91,-39"/>
<text text-anchor="start" x="150" y="-45.2" font-family="IPAGothic" font-size="11.00">0 rows</text>
<polygon fill="#ffffff" stroke="none" points="186,-39 186,-57 304,-57 304,-39 186,-39"/>
<polygon fill="none" stroke="black" points="186,-39 186,-57 304,-57 304,-39 186,-39"/>
<text text-anchor="start" x="282" y="-45.2" font-family="IPAGothic" font-size="11.00">1 &gt;</text>
<polygon fill="none" stroke="black" stroke-width="2" points="9,-38 9,-278 305,-278 305,-38 9,-38"/>
</a>
</g>
</g>
<!-- 生産管理表（Results_45）&#45;&gt;製品一覧（Results_44） -->
<g id="edge1" class="edge">
<title>生産管理表（Results_45）:w&#45;&gt;製品一覧（Results_44）:e</title>
<path fill="none" stroke="black" d="M338.77,-244C327.87,-244 320.65,-244 305,-244"/>
<polygon fill="black" stroke="black" points="346,-244 354,-247.6 350,-244 354,-244 354,-244 354,-244 350,-244 354,-240.4 346,-244 346,-244"/>
<ellipse fill="none" stroke="black" cx="342.3" cy="-244" rx="3.2" ry="3.2"/>
</g>
</g>
</svg>
