<?xml version="1.0" encoding="UTF-8" standalone="no"?>
<!DOCTYPE svg PUBLIC "-//W3C//DTD SVG 1.1//EN"
 "http://www.w3.org/Graphics/SVG/1.1/DTD/svg11.dtd">
<!-- Generated by graphviz version 7.0.4 (20221203.1631)
 -->
<!-- Title: oneDegreeRelationshipsDiagram Pages: 1 -->
<svg width="572pt" height="289pt"
 viewBox="0.00 0.00 572.00 289.00" xmlns="http://www.w3.org/2000/svg" xmlns:xlink="http://www.w3.org/1999/xlink">
<g id="graph0" class="graph" transform="scale(1 1) rotate(0) translate(4 285)">
<title>oneDegreeRelationshipsDiagram</title>
<polygon fill="#ffffff" stroke="none" points="-4,4 -4,-285 568,-285 568,4 -4,4"/>
<text text-anchor="middle" x="72" y="-7.2" font-family="IPAGothic" font-size="11.00">Generated by SchemaSpy</text>
<!-- 商談（Issues_7） -->
<g id="node1" class="node">
<title>商談（Issues_7）</title>
<g id="a_node1"><a xlink:href="../../tables/___Issues_7__691c9030.html" xlink:title="商談（Issues_7）" target="_top">
<polygon fill="#ffffff" stroke="none" points="355,-175 355,-277 556,-277 556,-175 355,-175"/>
<polygon fill="#f5f5f5" stroke="none" points="355.5,-255 355.5,-277 556.5,-277 556.5,-255 355.5,-255"/>
<polygon fill="none" stroke="black" points="355.5,-255 355.5,-277 556.5,-277 556.5,-255 355.5,-255"/>
<text text-anchor="start" x="357" y="-264.2" font-family="IPAGothic" font-weight="bold" font-size="11.00">商談（Issues_7）</text>
<text text-anchor="start" x="518.5" y="-263.2" font-family="IPAGothic" font-size="11.00">[table]</text>
<polygon fill="none" stroke="black" points="355.5,-233 355.5,-255 556.5,-255 556.5,-233 355.5,-233"/>
<image xlink:href="../../images/primaryKeys.png" width="11px" height="12px" preserveAspectRatio="xMinYMin meet" x="360.5" y="-250"/>
<text text-anchor="start" x="375.5" y="-241.2" font-family="IPAGothic" font-size="11.00">ID（IssueId）</text>
<polygon fill="none" stroke="black" points="355.5,-211 355.5,-233 556.5,-233 556.5,-211 355.5,-211"/>
<image xlink:href="../../images/foreignKeys.png" width="11px" height="12px" preserveAspectRatio="xMinYMin meet" x="360.5" y="-228"/>
<text text-anchor="start" x="375.5" y="-219.2" font-family="IPAGothic" font-size="11.00">顧客（ClassA）</text>
<polygon fill="none" stroke="black" points="355.5,-193 355.5,-211 556.5,-211 556.5,-193 355.5,-193"/>
<text text-anchor="start" x="358.5" y="-199.2" font-family="IPAGothic" font-size="11.00">...</text>
<polygon fill="#ffffff" stroke="none" points="355.5,-175 355.5,-193 436.5,-193 436.5,-175 355.5,-175"/>
<polygon fill="none" stroke="black" points="355.5,-175 355.5,-193 436.5,-193 436.5,-175 355.5,-175"/>
<text text-anchor="start" x="358.5" y="-181.2" font-family="IPAGothic" font-size="11.00">&lt; 1</text>
<polygon fill="#ffffff" stroke="none" points="436.5,-175 436.5,-193 503.5,-193 503.5,-175 436.5,-175"/>
<polygon fill="none" stroke="black" points="436.5,-175 436.5,-193 503.5,-193 503.5,-175 436.5,-175"/>
<text text-anchor="start" x="467.5" y="-181.2" font-family="IPAGothic" font-size="11.00">0 rows</text>
<polygon fill="#ffffff" stroke="none" points="503.5,-175 503.5,-193 556.5,-193 556.5,-175 503.5,-175"/>
<polygon fill="none" stroke="black" points="503.5,-175 503.5,-193 556.5,-193 556.5,-175 503.5,-175"/>
<text text-anchor="start" x="534.5" y="-181.2" font-family="IPAGothic" font-size="11.00">1 &gt;</text>
</a>
</g>
</g>
<!-- 顧客マスタ（Results_6） -->
<g id="node2" class="node">
<title>顧客マスタ（Results_6）</title>
<g id="a_node2"><a xlink:href="../../tables/______Results_6__71a0957b.html" xlink:title="顧客マスタ（Results_6）" target="_top">
<polygon fill="#ffffff" stroke="none" points="8,-37 8,-257 306,-257 306,-37 8,-37"/>
<polygon fill="#f5f5f5" stroke="none" points="10,-233 10,-255 304,-255 304,-233 10,-233"/>
<polygon fill="none" stroke="black" points="10,-233 10,-255 304,-255 304,-233 10,-233"/>
<text text-anchor="start" x="11" y="-242.2" font-family="IPAGothic" font-weight="bold" font-size="11.00">顧客マスタ（Results_6）</text>
<text text-anchor="start" x="266" y="-241.2" font-family="IPAGothic" font-size="11.00">[table]</text>
<polygon fill="none" stroke="black" points="10,-211 10,-233 186,-233 186,-211 10,-211"/>
<image xlink:href="../../images/primaryKeys.png" width="11px" height="12px" preserveAspectRatio="xMinYMin meet" x="15" y="-228"/>
<text text-anchor="start" x="30" y="-219.2" font-family="IPAGothic" font-size="11.00">ID（ResultId）</text>
<polygon fill="none" stroke="black" points="186,-211 186,-233 304,-233 304,-211 186,-211"/>
<text text-anchor="start" x="189" y="-219.2" font-family="IPAGothic" font-size="11.00">int[4]</text>
<polygon fill="none" stroke="black" points="10,-189 10,-211 186,-211 186,-189 10,-189"/>
<text text-anchor="start" x="30" y="-197.2" font-family="IPAGothic" font-size="11.00">バージョン（Ver）</text>
<polygon fill="none" stroke="black" points="186,-189 186,-211 304,-211 304,-189 186,-189"/>
<text text-anchor="start" x="189" y="-197.2" font-family="IPAGothic" font-size="11.00">int[4]</text>
<polygon fill="none" stroke="black" points="10,-167 10,-189 186,-189 186,-167 10,-167"/>
<text text-anchor="start" x="30" y="-175.2" font-family="IPAGothic" font-size="11.00">顧客名（Title）</text>
<polygon fill="none" stroke="black" points="186,-167 186,-189 304,-189 304,-167 186,-167"/>
<text text-anchor="start" x="189" y="-175.2" font-family="IPAGothic" font-size="11.00">nvarchar[2048]</text>
<polygon fill="none" stroke="black" points="10,-145 10,-167 186,-167 186,-145 10,-145"/>
<text text-anchor="start" x="30" y="-153.2" font-family="IPAGothic" font-size="11.00">住所（ClassA）</text>
<polygon fill="none" stroke="black" points="186,-145 186,-167 304,-167 304,-145 186,-145"/>
<text text-anchor="start" x="189" y="-153.2" font-family="IPAGothic" font-size="11.00">nvarchar[2048]</text>
<polygon fill="none" stroke="black" points="10,-123 10,-145 186,-145 186,-123 10,-123"/>
<text text-anchor="start" x="30" y="-131.2" font-family="IPAGothic" font-size="11.00">連絡先（ClassB）</text>
<polygon fill="none" stroke="black" points="186,-123 186,-145 304,-145 304,-123 186,-123"/>
<text text-anchor="start" x="189" y="-131.2" font-family="IPAGothic" font-size="11.00">nvarchar[2048]</text>
<polygon fill="none" stroke="black" points="10,-101 10,-123 186,-123 186,-101 10,-101"/>
<text text-anchor="start" x="30" y="-109.2" font-family="IPAGothic" font-size="11.00">担当者（Owner）</text>
<polygon fill="none" stroke="black" points="186,-101 186,-123 304,-123 304,-101 186,-101"/>
<text text-anchor="start" x="189" y="-109.2" font-family="IPAGothic" font-size="11.00">int[4]</text>
<polygon fill="none" stroke="black" points="10,-79 10,-101 186,-101 186,-79 10,-79"/>
<text text-anchor="start" x="30" y="-87.2" font-family="IPAGothic" font-size="11.00">添付資料（AttachmentsA）</text>
<polygon fill="none" stroke="black" points="186,-79 186,-101 304,-101 304,-79 186,-79"/>
<text text-anchor="start" x="189" y="-87.2" font-family="IPAGothic" font-size="11.00">nvarchar[2147483647]</text>
<polygon fill="none" stroke="black" points="10,-57 10,-79 186,-79 186,-57 10,-57"/>
<text text-anchor="start" x="30" y="-65.2" font-family="IPAGothic" font-size="11.00">コメント（Comments）</text>
<polygon fill="none" stroke="black" points="186,-57 186,-79 304,-79 304,-57 186,-57"/>
<text text-anchor="start" x="189" y="-65.2" font-family="IPAGothic" font-size="11.00">nvarchar[2147483647]</text>
<polygon fill="#ffffff" stroke="none" points="10,-39 10,-57 91,-57 91,-39 10,-39"/>
<polygon fill="none" stroke="black" points="10,-39 10,-57 91,-57 91,-39 10,-39"/>
<text text-anchor="start" x="13" y="-45.2" font-family="IPAGothic" font-size="11.00">&lt; 0</text>
<polygon fill="#ffffff" stroke="none" points="91,-39 91,-57 186,-57 186,-39 91,-39"/>
<polygon fill="none" stroke="black" points="91,-39 91,-57 186,-57 186,-39 91,-39"/>
<text text-anchor="start" x="150" y="-45.2" font-family="IPAGothic" font-size="11.00">0 rows</text>
<polygon fill="#ffffff" stroke="none" points="186,-39 186,-57 304,-57 304,-39 186,-39"/>
<polygon fill="none" stroke="black" points="186,-39 186,-57 304,-57 304,-39 186,-39"/>
<text text-anchor="start" x="282" y="-45.2" font-family="IPAGothic" font-size="11.00">1 &gt;</text>
<polygon fill="none" stroke="black" stroke-width="2" points="9,-38 9,-256 305,-256 305,-38 9,-38"/>
</a>
</g>
</g>
<!-- 商談（Issues_7）&#45;&gt;顧客マスタ（Results_6） -->
<g id="edge1" class="edge">
<title>商談（Issues_7）:w&#45;&gt;顧客マスタ（Results_6）:e</title>
<path fill="none" stroke="black" d="M339.12,-222C328.1,-222 320.81,-222 305,-222"/>
<polygon fill="black" stroke="black" points="346.5,-222 354.5,-225.6 350.5,-222 354.5,-222 354.5,-222 354.5,-222 350.5,-222 354.5,-218.4 346.5,-222 346.5,-222"/>
<ellipse fill="none" stroke="black" cx="342.8" cy="-222" rx="3.2" ry="3.2"/>
</g>
</g>
</svg>
