<?xml version="1.0" encoding="UTF-8" standalone="no"?>
<!DOCTYPE svg PUBLIC "-//W3C//DTD SVG 1.1//EN"
 "http://www.w3.org/Graphics/SVG/1.1/DTD/svg11.dtd">
<!-- Generated by graphviz version 7.0.4 (20221203.1631)
 -->
<!-- Title: oneDegreeRelationshipsDiagram Pages: 1 -->
<svg width="323pt" height="401pt"
 viewBox="0.00 0.00 323.00 401.00" xmlns="http://www.w3.org/2000/svg" xmlns:xlink="http://www.w3.org/1999/xlink">
<g id="graph0" class="graph" transform="scale(1 1) rotate(0) translate(4 397)">
<title>oneDegreeRelationshipsDiagram</title>
<polygon fill="#ffffff" stroke="none" points="-4,4 -4,-397 319,-397 319,4 -4,4"/>
<text text-anchor="middle" x="72" y="-7.2" font-family="IPAGothic" font-size="11.00">Generated by SchemaSpy</text>
<!-- 受け付け台帳（Issues_10） -->
<g id="node1" class="node">
<title>受け付け台帳（Issues_10）</title>
<g id="a_node1"><a xlink:href="../../tables/_______Issues_10__5f0dbc57.html" xlink:title="受け付け台帳（Issues_10）" target="_top">
<polygon fill="#ffffff" stroke="none" points="8,-37 8,-389 307,-389 307,-37 8,-37"/>
<polygon fill="#f5f5f5" stroke="none" points="10.5,-365 10.5,-387 305.5,-387 305.5,-365 10.5,-365"/>
<polygon fill="none" stroke="black" points="10.5,-365 10.5,-387 305.5,-387 305.5,-365 10.5,-365"/>
<text text-anchor="start" x="10.5" y="-374.2" font-family="IPAGothic" font-weight="bold" font-size="11.00">受け付け台帳（Issues_10）</text>
<text text-anchor="start" x="267.5" y="-373.2" font-family="IPAGothic" font-size="11.00">[table]</text>
<polygon fill="none" stroke="black" points="10.5,-343 10.5,-365 187.5,-365 187.5,-343 10.5,-343"/>
<image xlink:href="../../images/primaryKeys.png" width="11px" height="12px" preserveAspectRatio="xMinYMin meet" x="15.5" y="-360"/>
<text text-anchor="start" x="30.5" y="-351.2" font-family="IPAGothic" font-size="11.00">ID（IssueId）</text>
<polygon fill="none" stroke="black" points="187.5,-343 187.5,-365 305.5,-365 305.5,-343 187.5,-343"/>
<text text-anchor="start" x="190.5" y="-351.2" font-family="IPAGothic" font-size="11.00">int[4]</text>
<polygon fill="none" stroke="black" points="10.5,-321 10.5,-343 187.5,-343 187.5,-321 10.5,-321"/>
<text text-anchor="start" x="30.5" y="-329.2" font-family="IPAGothic" font-size="11.00">バージョン（Ver）</text>
<polygon fill="none" stroke="black" points="187.5,-321 187.5,-343 305.5,-343 305.5,-321 187.5,-321"/>
<text text-anchor="start" x="190.5" y="-329.2" font-family="IPAGothic" font-size="11.00">int[4]</text>
<polygon fill="none" stroke="black" points="10.5,-299 10.5,-321 187.5,-321 187.5,-299 10.5,-299"/>
<text text-anchor="start" x="30.5" y="-307.2" font-family="IPAGothic" font-size="11.00">タイトル（Title）</text>
<polygon fill="none" stroke="black" points="187.5,-299 187.5,-321 305.5,-321 305.5,-299 187.5,-299"/>
<text text-anchor="start" x="190.5" y="-307.2" font-family="IPAGothic" font-size="11.00">nvarchar[2048]</text>
<polygon fill="none" stroke="black" points="10.5,-277 10.5,-299 187.5,-299 187.5,-277 10.5,-277"/>
<text text-anchor="start" x="30.5" y="-285.2" font-family="IPAGothic" font-size="11.00">内容（Body）</text>
<polygon fill="none" stroke="black" points="187.5,-277 187.5,-299 305.5,-299 305.5,-277 187.5,-277"/>
<text text-anchor="start" x="190.5" y="-285.2" font-family="IPAGothic" font-size="11.00">nvarchar[2147483647]</text>
<polygon fill="none" stroke="black" points="10.5,-255 10.5,-277 187.5,-277 187.5,-255 10.5,-255"/>
<text text-anchor="start" x="30.5" y="-263.2" font-family="IPAGothic" font-size="11.00">開始（StartTime）</text>
<polygon fill="none" stroke="black" points="187.5,-255 187.5,-277 305.5,-277 305.5,-255 187.5,-255"/>
<text text-anchor="start" x="190.5" y="-263.2" font-family="IPAGothic" font-size="11.00">datetime[16,3]</text>
<polygon fill="none" stroke="black" points="10.5,-233 10.5,-255 187.5,-255 187.5,-233 10.5,-233"/>
<text text-anchor="start" x="30.5" y="-241.2" font-family="IPAGothic" font-size="11.00">完了（CompletionTime）</text>
<polygon fill="none" stroke="black" points="187.5,-233 187.5,-255 305.5,-255 305.5,-233 187.5,-233"/>
<text text-anchor="start" x="190.5" y="-241.2" font-family="IPAGothic" font-size="11.00">datetime[16,3]</text>
<polygon fill="none" stroke="black" points="10.5,-211 10.5,-233 187.5,-233 187.5,-211 10.5,-211"/>
<text text-anchor="start" x="30.5" y="-219.2" font-family="IPAGothic" font-size="11.00">緊急度（ClassA）</text>
<polygon fill="none" stroke="black" points="187.5,-211 187.5,-233 305.5,-233 305.5,-211 187.5,-211"/>
<text text-anchor="start" x="190.5" y="-219.2" font-family="IPAGothic" font-size="11.00">nvarchar[2048]</text>
<polygon fill="none" stroke="black" points="10.5,-189 10.5,-211 187.5,-211 187.5,-189 10.5,-189"/>
<text text-anchor="start" x="30.5" y="-197.2" font-family="IPAGothic" font-size="11.00">内容区分（ClassB）</text>
<polygon fill="none" stroke="black" points="187.5,-189 187.5,-211 305.5,-211 305.5,-189 187.5,-189"/>
<text text-anchor="start" x="190.5" y="-197.2" font-family="IPAGothic" font-size="11.00">nvarchar[2048]</text>
<polygon fill="none" stroke="black" points="10.5,-167 10.5,-189 187.5,-189 187.5,-167 10.5,-167"/>
<text text-anchor="start" x="30.5" y="-175.2" font-family="IPAGothic" font-size="11.00">機能区分（ClassC）</text>
<polygon fill="none" stroke="black" points="187.5,-167 187.5,-189 305.5,-189 305.5,-167 187.5,-167"/>
<text text-anchor="start" x="190.5" y="-175.2" font-family="IPAGothic" font-size="11.00">nvarchar[2048]</text>
<polygon fill="none" stroke="black" points="10.5,-145 10.5,-167 187.5,-167 187.5,-145 10.5,-145"/>
<text text-anchor="start" x="30.5" y="-153.2" font-family="IPAGothic" font-size="11.00">状況（Status）</text>
<polygon fill="none" stroke="black" points="187.5,-145 187.5,-167 305.5,-167 305.5,-145 187.5,-145"/>
<text text-anchor="start" x="190.5" y="-153.2" font-family="IPAGothic" font-size="11.00">int[4]</text>
<polygon fill="none" stroke="black" points="10.5,-123 10.5,-145 187.5,-145 187.5,-123 10.5,-123"/>
<text text-anchor="start" x="30.5" y="-131.2" font-family="IPAGothic" font-size="11.00">依頼者（Manager）</text>
<polygon fill="none" stroke="black" points="187.5,-123 187.5,-145 305.5,-145 305.5,-123 187.5,-123"/>
<text text-anchor="start" x="190.5" y="-131.2" font-family="IPAGothic" font-size="11.00">int[4]</text>
<polygon fill="none" stroke="black" points="10.5,-101 10.5,-123 187.5,-123 187.5,-101 10.5,-101"/>
<text text-anchor="start" x="30.5" y="-109.2" font-family="IPAGothic" font-size="11.00">対応者（Owner）</text>
<polygon fill="none" stroke="black" points="187.5,-101 187.5,-123 305.5,-123 305.5,-101 187.5,-101"/>
<text text-anchor="start" x="190.5" y="-109.2" font-family="IPAGothic" font-size="11.00">int[4]</text>
<polygon fill="none" stroke="black" points="10.5,-79 10.5,-101 187.5,-101 187.5,-79 10.5,-79"/>
<text text-anchor="start" x="30.5" y="-87.2" font-family="IPAGothic" font-size="11.00">添付資料（AttachmentsA）</text>
<polygon fill="none" stroke="black" points="187.5,-79 187.5,-101 305.5,-101 305.5,-79 187.5,-79"/>
<text text-anchor="start" x="190.5" y="-87.2" font-family="IPAGothic" font-size="11.00">nvarchar[2147483647]</text>
<polygon fill="none" stroke="black" points="10.5,-57 10.5,-79 187.5,-79 187.5,-57 10.5,-57"/>
<text text-anchor="start" x="30.5" y="-65.2" font-family="IPAGothic" font-size="11.00">コメント（Comments）</text>
<polygon fill="none" stroke="black" points="187.5,-57 187.5,-79 305.5,-79 305.5,-57 187.5,-57"/>
<text text-anchor="start" x="190.5" y="-65.2" font-family="IPAGothic" font-size="11.00">nvarchar[2147483647]</text>
<polygon fill="#ffffff" stroke="none" points="10.5,-39 10.5,-57 91.5,-57 91.5,-39 10.5,-39"/>
<polygon fill="none" stroke="black" points="10.5,-39 10.5,-57 91.5,-57 91.5,-39 10.5,-39"/>
<text text-anchor="start" x="13.5" y="-45.2" font-family="IPAGothic" font-size="11.00">&lt; 0</text>
<polygon fill="#ffffff" stroke="none" points="91.5,-39 91.5,-57 187.5,-57 187.5,-39 91.5,-39"/>
<polygon fill="none" stroke="black" points="91.5,-39 91.5,-57 187.5,-57 187.5,-39 91.5,-39"/>
<text text-anchor="start" x="151.5" y="-45.2" font-family="IPAGothic" font-size="11.00">0 rows</text>
<polygon fill="#ffffff" stroke="none" points="187.5,-39 187.5,-57 305.5,-57 305.5,-39 187.5,-39"/>
<polygon fill="none" stroke="black" points="187.5,-39 187.5,-57 305.5,-57 305.5,-39 187.5,-39"/>
<text text-anchor="start" x="283.5" y="-45.2" font-family="IPAGothic" font-size="11.00">0 &gt;</text>
<polygon fill="none" stroke="black" stroke-width="2" points="9,-38 9,-388 306,-388 306,-38 9,-38"/>
</a>
</g>
</g>
</g>
</svg>
