<?xml version="1.0" encoding="UTF-8" standalone="no"?>
<!DOCTYPE svg PUBLIC "-//W3C//DTD SVG 1.1//EN"
 "http://www.w3.org/Graphics/SVG/1.1/DTD/svg11.dtd">
<!-- Generated by graphviz version 7.0.4 (20221203.1631)
 -->
<!-- Title: twoDegreesRelationshipsDiagram Pages: 1 -->
<svg width="563pt" height="414pt"
 viewBox="0.00 0.00 563.00 414.00" xmlns="http://www.w3.org/2000/svg" xmlns:xlink="http://www.w3.org/1999/xlink">
<g id="graph0" class="graph" transform="scale(1 1) rotate(0) translate(4 410)">
<title>twoDegreesRelationshipsDiagram</title>
<polygon fill="#ffffff" stroke="none" points="-4,4 -4,-410 559,-410 559,4 -4,4"/>
<text text-anchor="middle" x="72" y="-7.2" font-family="IPAGothic" font-size="11.00">Generated by SchemaSpy</text>
<!-- 利用台帳（Results_14） -->
<g id="node1" class="node">
<title>利用台帳（Results_14）</title>
<g id="a_node1"><a xlink:href="../../tables/_____Results_14__e9cd32f7.html" xlink:title="利用台帳（Results_14）" target="_top">
<polygon fill="#ffffff" stroke="none" points="308,-344 308,-402 488,-402 488,-344 308,-344"/>
<polygon fill="#f5f5f5" stroke="none" points="308,-380 308,-402 488,-402 488,-380 308,-380"/>
<polygon fill="none" stroke="black" points="308,-380 308,-402 488,-402 488,-380 308,-380"/>
<text text-anchor="start" x="309" y="-389.2" font-family="IPAGothic" font-weight="bold" font-size="11.00">利用台帳（Results_14）</text>
<text text-anchor="start" x="450" y="-388.2" font-family="IPAGothic" font-size="11.00">[table]</text>
<polygon fill="none" stroke="black" points="308,-362 308,-380 488,-380 488,-362 308,-362"/>
<text text-anchor="start" x="311" y="-368.2" font-family="IPAGothic" font-size="11.00">...</text>
<polygon fill="#ffffff" stroke="none" points="308,-344 308,-362 384,-362 384,-344 308,-344"/>
<polygon fill="none" stroke="black" points="308,-344 308,-362 384,-362 384,-344 308,-344"/>
<text text-anchor="start" x="311" y="-350.2" font-family="IPAGothic" font-size="11.00">&lt; 1</text>
<polygon fill="#ffffff" stroke="none" points="384,-344 384,-362 448,-362 448,-344 384,-344"/>
<polygon fill="none" stroke="black" points="384,-344 384,-362 448,-362 448,-344 384,-344"/>
<text text-anchor="start" x="412" y="-350.2" font-family="IPAGothic" font-size="11.00">0 rows</text>
<polygon fill="#ffffff" stroke="none" points="448,-344 448,-362 488,-362 488,-344 448,-344"/>
<polygon fill="none" stroke="black" points="448,-344 448,-362 488,-362 488,-344 448,-344"/>
<text text-anchor="start" x="477" y="-350.2" font-family="IPAGothic" font-size="11.00"> &#160;</text>
</a>
</g>
</g>
<!-- 消耗品管理（Results_12） -->
<g id="node2" class="node">
<title>消耗品管理（Results_12）</title>
<g id="a_node2"><a xlink:href="../../tables/______Results_12__2634b9ae.html" xlink:title="消耗品管理（Results_12）" target="_top">
<polygon fill="#ffffff" stroke="none" points="8,-260 8,-340 200,-340 200,-260 8,-260"/>
<polygon fill="#f5f5f5" stroke="none" points="8,-318 8,-340 200,-340 200,-318 8,-318"/>
<polygon fill="none" stroke="black" points="8,-318 8,-340 200,-340 200,-318 8,-318"/>
<text text-anchor="start" x="8.5" y="-327.2" font-family="IPAGothic" font-weight="bold" font-size="11.00">消耗品管理（Results_12）</text>
<text text-anchor="start" x="162" y="-326.2" font-family="IPAGothic" font-size="11.00">[table]</text>
<polygon fill="none" stroke="black" points="8,-296 8,-318 200,-318 200,-296 8,-296"/>
<image xlink:href="../../images/primaryKeys.png" width="11px" height="12px" preserveAspectRatio="xMinYMin meet" x="13" y="-313"/>
<text text-anchor="start" x="36" y="-304.2" font-family="IPAGothic" font-size="11.00">ID（ResultId）</text>
<polygon fill="none" stroke="black" points="8,-278 8,-296 200,-296 200,-278 8,-278"/>
<text text-anchor="start" x="11" y="-284.2" font-family="IPAGothic" font-size="11.00">...</text>
<polygon fill="#ffffff" stroke="none" points="8,-260 8,-278 79,-278 79,-260 8,-260"/>
<polygon fill="none" stroke="black" points="8,-260 8,-278 79,-278 79,-260 8,-260"/>
<text text-anchor="start" x="11" y="-266.2" font-family="IPAGothic" font-size="11.00"> &#160;</text>
<polygon fill="#ffffff" stroke="none" points="79,-260 79,-278 146,-278 146,-260 79,-260"/>
<polygon fill="none" stroke="black" points="79,-260 79,-278 146,-278 146,-260 79,-260"/>
<text text-anchor="start" x="110" y="-266.2" font-family="IPAGothic" font-size="11.00">0 rows</text>
<polygon fill="#ffffff" stroke="none" points="146,-260 146,-278 200,-278 200,-260 146,-260"/>
<polygon fill="none" stroke="black" points="146,-260 146,-278 200,-278 200,-260 146,-260"/>
<text text-anchor="start" x="178" y="-266.2" font-family="IPAGothic" font-size="11.00">2 &gt;</text>
</a>
</g>
</g>
<!-- 利用台帳（Results_14）&#45;&gt;消耗品管理（Results_12） -->
<g id="edge1" class="edge">
<title>利用台帳（Results_14）:w&#45;&gt;消耗品管理（Results_12）:e</title>
<path fill="none" stroke="black" d="M291.74,-369.32C271.29,-364.25 264.6,-348.54 241,-334 222.74,-322.75 222.45,-307 201,-307"/>
<polygon fill="black" stroke="black" points="299.05,-370.12 306.61,-374.58 303.02,-370.56 307,-371 307,-371 307,-371 303.02,-370.56 307.39,-367.42 299.05,-370.12 299.05,-370.12"/>
<ellipse fill="none" stroke="black" cx="295.37" cy="-369.72" rx="3.2" ry="3.2"/>
</g>
<!-- 購入台帳（Results_13） -->
<g id="node3" class="node">
<title>購入台帳（Results_13）</title>
<g id="a_node3"><a xlink:href="../../tables/_____Results_13__6fa2c522.html" xlink:title="購入台帳（Results_13）" target="_top">
<polygon fill="#ffffff" stroke="none" points="249,-37 249,-323 547,-323 547,-37 249,-37"/>
<polygon fill="#f5f5f5" stroke="none" points="251,-299 251,-321 545,-321 545,-299 251,-299"/>
<polygon fill="none" stroke="black" points="251,-299 251,-321 545,-321 545,-299 251,-299"/>
<text text-anchor="start" x="252" y="-308.2" font-family="IPAGothic" font-weight="bold" font-size="11.00">購入台帳（Results_13）</text>
<text text-anchor="start" x="507" y="-307.2" font-family="IPAGothic" font-size="11.00">[table]</text>
<polygon fill="none" stroke="black" points="251,-277 251,-299 427,-299 427,-277 251,-277"/>
<image xlink:href="../../images/primaryKeys.png" width="11px" height="12px" preserveAspectRatio="xMinYMin meet" x="256" y="-294"/>
<text text-anchor="start" x="271" y="-285.2" font-family="IPAGothic" font-size="11.00">ID（ResultId）</text>
<polygon fill="none" stroke="black" points="427,-277 427,-299 545,-299 545,-277 427,-277"/>
<text text-anchor="start" x="430" y="-285.2" font-family="IPAGothic" font-size="11.00">int[4]</text>
<polygon fill="none" stroke="black" points="251,-255 251,-277 427,-277 427,-255 251,-255"/>
<text text-anchor="start" x="271" y="-263.2" font-family="IPAGothic" font-size="11.00">バージョン（Ver）</text>
<polygon fill="none" stroke="black" points="427,-255 427,-277 545,-277 545,-255 427,-255"/>
<text text-anchor="start" x="430" y="-263.2" font-family="IPAGothic" font-size="11.00">int[4]</text>
<polygon fill="none" stroke="black" points="251,-233 251,-255 427,-255 427,-233 251,-233"/>
<image xlink:href="../../images/foreignKeys.png" width="11px" height="12px" preserveAspectRatio="xMinYMin meet" x="256" y="-250"/>
<text text-anchor="start" x="271" y="-241.2" font-family="IPAGothic" font-size="11.00">商品分類（ClassA）</text>
<polygon fill="none" stroke="black" points="427,-233 427,-255 545,-255 545,-233 427,-233"/>
<text text-anchor="start" x="430" y="-241.2" font-family="IPAGothic" font-size="11.00">int[4]</text>
<polygon fill="none" stroke="black" points="251,-211 251,-233 427,-233 427,-211 251,-211"/>
<text text-anchor="start" x="271" y="-219.2" font-family="IPAGothic" font-size="11.00">購入日（DateA）</text>
<polygon fill="none" stroke="black" points="427,-211 427,-233 545,-233 545,-211 427,-211"/>
<text text-anchor="start" x="430" y="-219.2" font-family="IPAGothic" font-size="11.00">datetime[16,3]</text>
<polygon fill="none" stroke="black" points="251,-189 251,-211 427,-211 427,-189 251,-189"/>
<text text-anchor="start" x="271" y="-197.2" font-family="IPAGothic" font-size="11.00">購入店名（ClassB）</text>
<polygon fill="none" stroke="black" points="427,-189 427,-211 545,-211 545,-189 427,-189"/>
<text text-anchor="start" x="430" y="-197.2" font-family="IPAGothic" font-size="11.00">nvarchar[2048]</text>
<polygon fill="none" stroke="black" points="251,-167 251,-189 427,-189 427,-167 251,-167"/>
<text text-anchor="start" x="271" y="-175.2" font-family="IPAGothic" font-size="11.00">個数（NumA）</text>
<polygon fill="none" stroke="black" points="427,-167 427,-189 545,-189 545,-167 427,-167"/>
<text text-anchor="start" x="430" y="-175.2" font-family="IPAGothic" font-size="11.00">decimal[21,4]</text>
<polygon fill="none" stroke="black" points="251,-145 251,-167 427,-167 427,-145 251,-145"/>
<text text-anchor="start" x="271" y="-153.2" font-family="IPAGothic" font-size="11.00">金額（NumB）</text>
<polygon fill="none" stroke="black" points="427,-145 427,-167 545,-167 545,-145 427,-145"/>
<text text-anchor="start" x="430" y="-153.2" font-family="IPAGothic" font-size="11.00">decimal[21,4]</text>
<polygon fill="none" stroke="black" points="251,-123 251,-145 427,-145 427,-123 251,-123"/>
<text text-anchor="start" x="271" y="-131.2" font-family="IPAGothic" font-size="11.00">購入者（Owner）</text>
<polygon fill="none" stroke="black" points="427,-123 427,-145 545,-145 545,-123 427,-123"/>
<text text-anchor="start" x="430" y="-131.2" font-family="IPAGothic" font-size="11.00">int[4]</text>
<polygon fill="none" stroke="black" points="251,-101 251,-123 427,-123 427,-101 251,-101"/>
<text text-anchor="start" x="271" y="-109.2" font-family="IPAGothic" font-size="11.00">備考（Body）</text>
<polygon fill="none" stroke="black" points="427,-101 427,-123 545,-123 545,-101 427,-101"/>
<text text-anchor="start" x="430" y="-109.2" font-family="IPAGothic" font-size="11.00">nvarchar[2147483647]</text>
<polygon fill="none" stroke="black" points="251,-79 251,-101 427,-101 427,-79 251,-79"/>
<text text-anchor="start" x="271" y="-87.2" font-family="IPAGothic" font-size="11.00">添付資料（AttachmentsA）</text>
<polygon fill="none" stroke="black" points="427,-79 427,-101 545,-101 545,-79 427,-79"/>
<text text-anchor="start" x="430" y="-87.2" font-family="IPAGothic" font-size="11.00">nvarchar[2147483647]</text>
<polygon fill="none" stroke="black" points="251,-57 251,-79 427,-79 427,-57 251,-57"/>
<text text-anchor="start" x="271" y="-65.2" font-family="IPAGothic" font-size="11.00">コメント（Comments）</text>
<polygon fill="none" stroke="black" points="427,-57 427,-79 545,-79 545,-57 427,-57"/>
<text text-anchor="start" x="430" y="-65.2" font-family="IPAGothic" font-size="11.00">nvarchar[2147483647]</text>
<polygon fill="#ffffff" stroke="none" points="251,-39 251,-57 332,-57 332,-39 251,-39"/>
<polygon fill="none" stroke="black" points="251,-39 251,-57 332,-57 332,-39 251,-39"/>
<text text-anchor="start" x="254" y="-45.2" font-family="IPAGothic" font-size="11.00">&lt; 1</text>
<polygon fill="#ffffff" stroke="none" points="332,-39 332,-57 427,-57 427,-39 332,-39"/>
<polygon fill="none" stroke="black" points="332,-39 332,-57 427,-57 427,-39 332,-39"/>
<text text-anchor="start" x="391" y="-45.2" font-family="IPAGothic" font-size="11.00">0 rows</text>
<polygon fill="#ffffff" stroke="none" points="427,-39 427,-57 545,-57 545,-39 427,-39"/>
<polygon fill="none" stroke="black" points="427,-39 427,-57 545,-57 545,-39 427,-39"/>
<text text-anchor="start" x="523" y="-45.2" font-family="IPAGothic" font-size="11.00">0 &gt;</text>
<polygon fill="none" stroke="black" stroke-width="2" points="250,-38 250,-322 546,-322 546,-38 250,-38"/>
</a>
</g>
</g>
<!-- 購入台帳（Results_13）&#45;&gt;消耗品管理（Results_12） -->
<g id="edge2" class="edge">
<title>購入台帳（Results_13）:w&#45;&gt;消耗品管理（Results_12）:e</title>
<path fill="none" stroke="black" d="M235.77,-249.37C220.56,-264.61 230.1,-307 201,-307"/>
<polygon fill="black" stroke="black" points="242.52,-246.83 251.27,-247.37 246.26,-245.41 250,-244 250,-244 250,-244 246.26,-245.41 248.73,-240.63 242.52,-246.83 242.52,-246.83"/>
<ellipse fill="none" stroke="black" cx="239.05" cy="-248.13" rx="3.2" ry="3.2"/>
</g>
</g>
</svg>
