<?xml version="1.0" encoding="UTF-8" standalone="no"?>
<!DOCTYPE svg PUBLIC "-//W3C//DTD SVG 1.1//EN"
 "http://www.w3.org/Graphics/SVG/1.1/DTD/svg11.dtd">
<!-- Generated by graphviz version 7.0.4 (20221203.1631)
 -->
<!-- Title: oneDegreeRelationshipsDiagram Pages: 1 -->
<svg width="576pt" height="355pt"
 viewBox="0.00 0.00 576.00 355.00" xmlns="http://www.w3.org/2000/svg" xmlns:xlink="http://www.w3.org/1999/xlink">
<g id="graph0" class="graph" transform="scale(1 1) rotate(0) translate(4 351)">
<title>oneDegreeRelationshipsDiagram</title>
<polygon fill="#ffffff" stroke="none" points="-4,4 -4,-351 572,-351 572,4 -4,4"/>
<text text-anchor="middle" x="72" y="-7.2" font-family="IPAGothic" font-size="11.00">Generated by SchemaSpy</text>
<!-- 売上管理台帳（Results_51） -->
<g id="node1" class="node">
<title>売上管理台帳（Results_51）</title>
<g id="a_node1"><a xlink:href="../../tables/_______Results_51__1810fedc.html" xlink:title="売上管理台帳（Results_51）" target="_top">
<polygon fill="#ffffff" stroke="none" points="355,-219 355,-343 560,-343 560,-219 355,-219"/>
<polygon fill="#f5f5f5" stroke="none" points="355.5,-321 355.5,-343 560.5,-343 560.5,-321 355.5,-321"/>
<polygon fill="none" stroke="black" points="355.5,-321 355.5,-343 560.5,-343 560.5,-321 355.5,-321"/>
<text text-anchor="start" x="356" y="-330.2" font-family="IPAGothic" font-weight="bold" font-size="11.00">売上管理台帳（Results_51）</text>
<text text-anchor="start" x="522.5" y="-329.2" font-family="IPAGothic" font-size="11.00">[table]</text>
<polygon fill="none" stroke="black" points="355.5,-299 355.5,-321 560.5,-321 560.5,-299 355.5,-299"/>
<image xlink:href="../../images/primaryKeys.png" width="11px" height="12px" preserveAspectRatio="xMinYMin meet" x="360.5" y="-316"/>
<text text-anchor="start" x="386.5" y="-307.2" font-family="IPAGothic" font-size="11.00">ID（ResultId）</text>
<polygon fill="none" stroke="black" points="355.5,-277 355.5,-299 560.5,-299 560.5,-277 355.5,-277"/>
<image xlink:href="../../images/foreignKeys.png" width="11px" height="12px" preserveAspectRatio="xMinYMin meet" x="360.5" y="-294"/>
<text text-anchor="start" x="386.5" y="-285.2" font-family="IPAGothic" font-size="11.00">店舗名（ClassA）</text>
<polygon fill="none" stroke="black" points="355.5,-255 355.5,-277 560.5,-277 560.5,-255 355.5,-255"/>
<image xlink:href="../../images/foreignKeys.png" width="11px" height="12px" preserveAspectRatio="xMinYMin meet" x="360.5" y="-272"/>
<text text-anchor="start" x="386.5" y="-263.2" font-family="IPAGothic" font-size="11.00">商品名（ClassB）</text>
<polygon fill="none" stroke="black" points="355.5,-237 355.5,-255 560.5,-255 560.5,-237 355.5,-237"/>
<text text-anchor="start" x="358.5" y="-243.2" font-family="IPAGothic" font-size="11.00">...</text>
<polygon fill="#ffffff" stroke="none" points="355.5,-219 355.5,-237 443.5,-237 443.5,-219 355.5,-219"/>
<polygon fill="none" stroke="black" points="355.5,-219 355.5,-237 443.5,-237 443.5,-219 355.5,-219"/>
<text text-anchor="start" x="358.5" y="-225.2" font-family="IPAGothic" font-size="11.00">&lt; 2</text>
<polygon fill="#ffffff" stroke="none" points="443.5,-219 443.5,-237 514.5,-237 514.5,-219 443.5,-219"/>
<polygon fill="none" stroke="black" points="443.5,-219 443.5,-237 514.5,-237 514.5,-219 443.5,-219"/>
<text text-anchor="start" x="478.5" y="-225.2" font-family="IPAGothic" font-size="11.00">0 rows</text>
<polygon fill="#ffffff" stroke="none" points="514.5,-219 514.5,-237 560.5,-237 560.5,-219 514.5,-219"/>
<polygon fill="none" stroke="black" points="514.5,-219 514.5,-237 560.5,-237 560.5,-219 514.5,-219"/>
<text text-anchor="start" x="549.5" y="-225.2" font-family="IPAGothic" font-size="11.00"> &#160;</text>
</a>
</g>
</g>
<!-- 店舗一覧（Results_49） -->
<g id="node2" class="node">
<title>店舗一覧（Results_49）</title>
<g id="a_node2"><a xlink:href="../../tables/_____Results_49__da4dc4ba.html" xlink:title="店舗一覧（Results_49）" target="_top">
<polygon fill="#ffffff" stroke="none" points="8,-37 8,-323 306,-323 306,-37 8,-37"/>
<polygon fill="#f5f5f5" stroke="none" points="10,-299 10,-321 304,-321 304,-299 10,-299"/>
<polygon fill="none" stroke="black" points="10,-299 10,-321 304,-321 304,-299 10,-299"/>
<text text-anchor="start" x="11" y="-308.2" font-family="IPAGothic" font-weight="bold" font-size="11.00">店舗一覧（Results_49）</text>
<text text-anchor="start" x="266" y="-307.2" font-family="IPAGothic" font-size="11.00">[table]</text>
<polygon fill="none" stroke="black" points="10,-277 10,-299 186,-299 186,-277 10,-277"/>
<image xlink:href="../../images/primaryKeys.png" width="11px" height="12px" preserveAspectRatio="xMinYMin meet" x="15" y="-294"/>
<text text-anchor="start" x="30" y="-285.2" font-family="IPAGothic" font-size="11.00">ID（ResultId）</text>
<polygon fill="none" stroke="black" points="186,-277 186,-299 304,-299 304,-277 186,-277"/>
<text text-anchor="start" x="189" y="-285.2" font-family="IPAGothic" font-size="11.00">int[4]</text>
<polygon fill="none" stroke="black" points="10,-255 10,-277 186,-277 186,-255 10,-255"/>
<text text-anchor="start" x="30" y="-263.2" font-family="IPAGothic" font-size="11.00">バージョン（Ver）</text>
<polygon fill="none" stroke="black" points="186,-255 186,-277 304,-277 304,-255 186,-255"/>
<text text-anchor="start" x="189" y="-263.2" font-family="IPAGothic" font-size="11.00">int[4]</text>
<polygon fill="none" stroke="black" points="10,-233 10,-255 186,-255 186,-233 10,-233"/>
<text text-anchor="start" x="30" y="-241.2" font-family="IPAGothic" font-size="11.00">店舗名（Title）</text>
<polygon fill="none" stroke="black" points="186,-233 186,-255 304,-255 304,-233 186,-233"/>
<text text-anchor="start" x="189" y="-241.2" font-family="IPAGothic" font-size="11.00">nvarchar[2048]</text>
<polygon fill="none" stroke="black" points="10,-211 10,-233 186,-233 186,-211 10,-211"/>
<text text-anchor="start" x="30" y="-219.2" font-family="IPAGothic" font-size="11.00">郵便番号（ClassA）</text>
<polygon fill="none" stroke="black" points="186,-211 186,-233 304,-233 304,-211 186,-211"/>
<text text-anchor="start" x="189" y="-219.2" font-family="IPAGothic" font-size="11.00">nvarchar[2048]</text>
<polygon fill="none" stroke="black" points="10,-189 10,-211 186,-211 186,-189 10,-189"/>
<text text-anchor="start" x="30" y="-197.2" font-family="IPAGothic" font-size="11.00">都道府県（ClassB）</text>
<polygon fill="none" stroke="black" points="186,-189 186,-211 304,-211 304,-189 186,-189"/>
<text text-anchor="start" x="189" y="-197.2" font-family="IPAGothic" font-size="11.00">nvarchar[2048]</text>
<polygon fill="none" stroke="black" points="10,-167 10,-189 186,-189 186,-167 10,-167"/>
<text text-anchor="start" x="30" y="-175.2" font-family="IPAGothic" font-size="11.00">住所（ClassC）</text>
<polygon fill="none" stroke="black" points="186,-167 186,-189 304,-189 304,-167 186,-167"/>
<text text-anchor="start" x="189" y="-175.2" font-family="IPAGothic" font-size="11.00">nvarchar[2048]</text>
<polygon fill="none" stroke="black" points="10,-145 10,-167 186,-167 186,-145 10,-145"/>
<text text-anchor="start" x="30" y="-153.2" font-family="IPAGothic" font-size="11.00">電話番号（ClassD）</text>
<polygon fill="none" stroke="black" points="186,-145 186,-167 304,-167 304,-145 186,-145"/>
<text text-anchor="start" x="189" y="-153.2" font-family="IPAGothic" font-size="11.00">nvarchar[2048]</text>
<polygon fill="none" stroke="black" points="10,-123 10,-145 186,-145 186,-123 10,-123"/>
<text text-anchor="start" x="30" y="-131.2" font-family="IPAGothic" font-size="11.00">責任者（Manager）</text>
<polygon fill="none" stroke="black" points="186,-123 186,-145 304,-145 304,-123 186,-123"/>
<text text-anchor="start" x="189" y="-131.2" font-family="IPAGothic" font-size="11.00">int[4]</text>
<polygon fill="none" stroke="black" points="10,-101 10,-123 186,-123 186,-101 10,-101"/>
<text text-anchor="start" x="30" y="-109.2" font-family="IPAGothic" font-size="11.00">売上合計（NumA）</text>
<polygon fill="none" stroke="black" points="186,-101 186,-123 304,-123 304,-101 186,-101"/>
<text text-anchor="start" x="189" y="-109.2" font-family="IPAGothic" font-size="11.00">decimal[21,4]</text>
<polygon fill="none" stroke="black" points="10,-79 10,-101 186,-101 186,-79 10,-79"/>
<text text-anchor="start" x="30" y="-87.2" font-family="IPAGothic" font-size="11.00">添付資料（AttachmentsA）</text>
<polygon fill="none" stroke="black" points="186,-79 186,-101 304,-101 304,-79 186,-79"/>
<text text-anchor="start" x="189" y="-87.2" font-family="IPAGothic" font-size="11.00">nvarchar[2147483647]</text>
<polygon fill="none" stroke="black" points="10,-57 10,-79 186,-79 186,-57 10,-57"/>
<text text-anchor="start" x="30" y="-65.2" font-family="IPAGothic" font-size="11.00">コメント（Comments）</text>
<polygon fill="none" stroke="black" points="186,-57 186,-79 304,-79 304,-57 186,-57"/>
<text text-anchor="start" x="189" y="-65.2" font-family="IPAGothic" font-size="11.00">nvarchar[2147483647]</text>
<polygon fill="#ffffff" stroke="none" points="10,-39 10,-57 91,-57 91,-39 10,-39"/>
<polygon fill="none" stroke="black" points="10,-39 10,-57 91,-57 91,-39 10,-39"/>
<text text-anchor="start" x="13" y="-45.2" font-family="IPAGothic" font-size="11.00">&lt; 0</text>
<polygon fill="#ffffff" stroke="none" points="91,-39 91,-57 186,-57 186,-39 91,-39"/>
<polygon fill="none" stroke="black" points="91,-39 91,-57 186,-57 186,-39 91,-39"/>
<text text-anchor="start" x="150" y="-45.2" font-family="IPAGothic" font-size="11.00">0 rows</text>
<polygon fill="#ffffff" stroke="none" points="186,-39 186,-57 304,-57 304,-39 186,-39"/>
<polygon fill="none" stroke="black" points="186,-39 186,-57 304,-57 304,-39 186,-39"/>
<text text-anchor="start" x="282" y="-45.2" font-family="IPAGothic" font-size="11.00">1 &gt;</text>
<polygon fill="none" stroke="black" stroke-width="2" points="9,-38 9,-322 305,-322 305,-38 9,-38"/>
</a>
</g>
</g>
<!-- 売上管理台帳（Results_51）&#45;&gt;店舗一覧（Results_49） -->
<g id="edge1" class="edge">
<title>売上管理台帳（Results_51）:w&#45;&gt;店舗一覧（Results_49）:e</title>
<path fill="none" stroke="black" d="M339.12,-288C328.1,-288 320.81,-288 305,-288"/>
<polygon fill="black" stroke="black" points="346.5,-288 354.5,-291.6 350.5,-288 354.5,-288 354.5,-288 354.5,-288 350.5,-288 354.5,-284.4 346.5,-288 346.5,-288"/>
<ellipse fill="none" stroke="black" cx="342.8" cy="-288" rx="3.2" ry="3.2"/>
</g>
</g>
</svg>
