<?xml version="1.0" encoding="UTF-8" standalone="no"?>
<!DOCTYPE svg PUBLIC "-//W3C//DTD SVG 1.1//EN"
 "http://www.w3.org/Graphics/SVG/1.1/DTD/svg11.dtd">
<!-- Generated by graphviz version 7.0.4 (20221203.1631)
 -->
<!-- Title: oneDegreeRelationshipsDiagram Pages: 1 -->
<svg width="322pt" height="269pt"
 viewBox="0.00 0.00 322.00 269.00" xmlns="http://www.w3.org/2000/svg" xmlns:xlink="http://www.w3.org/1999/xlink">
<g id="graph0" class="graph" transform="scale(1 1) rotate(0) translate(4 265)">
<title>oneDegreeRelationshipsDiagram</title>
<polygon fill="#ffffff" stroke="none" points="-4,4 -4,-265 318,-265 318,4 -4,4"/>
<text text-anchor="middle" x="72" y="-7.2" font-family="IPAGothic" font-size="11.00">Generated by SchemaSpy</text>
<!-- シフト表（Results_37） -->
<g id="node1" class="node">
<title>シフト表（Results_37）</title>
<g id="a_node1"><a xlink:href="../../tables/_____Results_37__81db3c52.html" xlink:title="シフト表（Results_37）" target="_top">
<polygon fill="#ffffff" stroke="none" points="8,-37 8,-257 306,-257 306,-37 8,-37"/>
<polygon fill="#f5f5f5" stroke="none" points="10,-233 10,-255 304,-255 304,-233 10,-233"/>
<polygon fill="none" stroke="black" points="10,-233 10,-255 304,-255 304,-233 10,-233"/>
<text text-anchor="start" x="11" y="-242.2" font-family="IPAGothic" font-weight="bold" font-size="11.00">シフト表（Results_37）</text>
<text text-anchor="start" x="266" y="-241.2" font-family="IPAGothic" font-size="11.00">[table]</text>
<polygon fill="none" stroke="black" points="10,-211 10,-233 186,-233 186,-211 10,-211"/>
<image xlink:href="../../images/primaryKeys.png" width="11px" height="12px" preserveAspectRatio="xMinYMin meet" x="15" y="-228"/>
<text text-anchor="start" x="30" y="-219.2" font-family="IPAGothic" font-size="11.00">ID（ResultId）</text>
<polygon fill="none" stroke="black" points="186,-211 186,-233 304,-233 304,-211 186,-211"/>
<text text-anchor="start" x="189" y="-219.2" font-family="IPAGothic" font-size="11.00">int[4]</text>
<polygon fill="none" stroke="black" points="10,-189 10,-211 186,-211 186,-189 10,-189"/>
<text text-anchor="start" x="30" y="-197.2" font-family="IPAGothic" font-size="11.00">バージョン（Ver）</text>
<polygon fill="none" stroke="black" points="186,-189 186,-211 304,-211 304,-189 186,-189"/>
<text text-anchor="start" x="189" y="-197.2" font-family="IPAGothic" font-size="11.00">int[4]</text>
<polygon fill="none" stroke="black" points="10,-167 10,-189 186,-189 186,-167 10,-167"/>
<text text-anchor="start" x="30" y="-175.2" font-family="IPAGothic" font-size="11.00">作業種別（ClassA）</text>
<polygon fill="none" stroke="black" points="186,-167 186,-189 304,-189 304,-167 186,-167"/>
<text text-anchor="start" x="189" y="-175.2" font-family="IPAGothic" font-size="11.00">nvarchar[2048]</text>
<polygon fill="none" stroke="black" points="10,-145 10,-167 186,-167 186,-145 10,-145"/>
<text text-anchor="start" x="30" y="-153.2" font-family="IPAGothic" font-size="11.00">担当者（Owner）</text>
<polygon fill="none" stroke="black" points="186,-145 186,-167 304,-167 304,-145 186,-145"/>
<text text-anchor="start" x="189" y="-153.2" font-family="IPAGothic" font-size="11.00">int[4]</text>
<polygon fill="none" stroke="black" points="10,-123 10,-145 186,-145 186,-123 10,-123"/>
<text text-anchor="start" x="30" y="-131.2" font-family="IPAGothic" font-size="11.00">開始（DateA）</text>
<polygon fill="none" stroke="black" points="186,-123 186,-145 304,-145 304,-123 186,-123"/>
<text text-anchor="start" x="189" y="-131.2" font-family="IPAGothic" font-size="11.00">datetime[16,3]</text>
<polygon fill="none" stroke="black" points="10,-101 10,-123 186,-123 186,-101 10,-101"/>
<text text-anchor="start" x="30" y="-109.2" font-family="IPAGothic" font-size="11.00">終了（DateB）</text>
<polygon fill="none" stroke="black" points="186,-101 186,-123 304,-123 304,-101 186,-101"/>
<text text-anchor="start" x="189" y="-109.2" font-family="IPAGothic" font-size="11.00">datetime[16,3]</text>
<polygon fill="none" stroke="black" points="10,-79 10,-101 186,-101 186,-79 10,-79"/>
<text text-anchor="start" x="30" y="-87.2" font-family="IPAGothic" font-size="11.00">添付資料（AttachmentsA）</text>
<polygon fill="none" stroke="black" points="186,-79 186,-101 304,-101 304,-79 186,-79"/>
<text text-anchor="start" x="189" y="-87.2" font-family="IPAGothic" font-size="11.00">nvarchar[2147483647]</text>
<polygon fill="none" stroke="black" points="10,-57 10,-79 186,-79 186,-57 10,-57"/>
<text text-anchor="start" x="30" y="-65.2" font-family="IPAGothic" font-size="11.00">コメント（Comments）</text>
<polygon fill="none" stroke="black" points="186,-57 186,-79 304,-79 304,-57 186,-57"/>
<text text-anchor="start" x="189" y="-65.2" font-family="IPAGothic" font-size="11.00">nvarchar[2147483647]</text>
<polygon fill="#ffffff" stroke="none" points="10,-39 10,-57 91,-57 91,-39 10,-39"/>
<polygon fill="none" stroke="black" points="10,-39 10,-57 91,-57 91,-39 10,-39"/>
<text text-anchor="start" x="13" y="-45.2" font-family="IPAGothic" font-size="11.00">&lt; 0</text>
<polygon fill="#ffffff" stroke="none" points="91,-39 91,-57 186,-57 186,-39 91,-39"/>
<polygon fill="none" stroke="black" points="91,-39 91,-57 186,-57 186,-39 91,-39"/>
<text text-anchor="start" x="150" y="-45.2" font-family="IPAGothic" font-size="11.00">0 rows</text>
<polygon fill="#ffffff" stroke="none" points="186,-39 186,-57 304,-57 304,-39 186,-39"/>
<polygon fill="none" stroke="black" points="186,-39 186,-57 304,-57 304,-39 186,-39"/>
<text text-anchor="start" x="282" y="-45.2" font-family="IPAGothic" font-size="11.00">0 &gt;</text>
<polygon fill="none" stroke="black" stroke-width="2" points="9,-38 9,-256 305,-256 305,-38 9,-38"/>
</a>
</g>
</g>
</g>
</svg>
