<?xml version="1.0" encoding="UTF-8" standalone="no"?>
<!DOCTYPE svg PUBLIC "-//W3C//DTD SVG 1.1//EN"
 "http://www.w3.org/Graphics/SVG/1.1/DTD/svg11.dtd">
<!-- Generated by graphviz version 7.0.4 (20221203.1631)
 -->
<!-- Title: oneDegreeRelationshipsDiagram Pages: 1 -->
<svg width="551pt" height="357pt"
 viewBox="0.00 0.00 551.00 357.00" xmlns="http://www.w3.org/2000/svg" xmlns:xlink="http://www.w3.org/1999/xlink">
<g id="graph0" class="graph" transform="scale(1 1) rotate(0) translate(4 353)">
<title>oneDegreeRelationshipsDiagram</title>
<polygon fill="#ffffff" stroke="none" points="-4,4 -4,-353 547,-353 547,4 -4,4"/>
<text text-anchor="middle" x="72" y="-7.2" font-family="IPAGothic" font-size="11.00">Generated by SchemaSpy</text>
<!-- 故障管理表（Results_21） -->
<g id="node1" class="node">
<title>故障管理表（Results_21）</title>
<g id="a_node1"><a xlink:href="../../tables/______Results_21__5f49cde5.html" xlink:title="故障管理表（Results_21）" target="_top">
<polygon fill="#ffffff" stroke="none" points="237,-37 237,-345 535,-345 535,-37 237,-37"/>
<polygon fill="#f5f5f5" stroke="none" points="239,-321 239,-343 533,-343 533,-321 239,-321"/>
<polygon fill="none" stroke="black" points="239,-321 239,-343 533,-343 533,-321 239,-321"/>
<text text-anchor="start" x="239.5" y="-330.2" font-family="IPAGothic" font-weight="bold" font-size="11.00">故障管理表（Results_21）</text>
<text text-anchor="start" x="495" y="-329.2" font-family="IPAGothic" font-size="11.00">[table]</text>
<polygon fill="none" stroke="black" points="239,-299 239,-321 415,-321 415,-299 239,-299"/>
<image xlink:href="../../images/primaryKeys.png" width="11px" height="12px" preserveAspectRatio="xMinYMin meet" x="244" y="-316"/>
<text text-anchor="start" x="259" y="-307.2" font-family="IPAGothic" font-size="11.00">ID（ResultId）</text>
<polygon fill="none" stroke="black" points="415,-299 415,-321 533,-321 533,-299 415,-299"/>
<text text-anchor="start" x="418" y="-307.2" font-family="IPAGothic" font-size="11.00">int[4]</text>
<polygon fill="none" stroke="black" points="239,-277 239,-299 415,-299 415,-277 239,-277"/>
<text text-anchor="start" x="259" y="-285.2" font-family="IPAGothic" font-size="11.00">バージョン（Ver）</text>
<polygon fill="none" stroke="black" points="415,-277 415,-299 533,-299 533,-277 415,-277"/>
<text text-anchor="start" x="418" y="-285.2" font-family="IPAGothic" font-size="11.00">int[4]</text>
<polygon fill="none" stroke="black" points="239,-255 239,-277 415,-277 415,-255 239,-255"/>
<image xlink:href="../../images/foreignKeys.png" width="11px" height="12px" preserveAspectRatio="xMinYMin meet" x="244" y="-272"/>
<text text-anchor="start" x="259" y="-263.2" font-family="IPAGothic" font-size="11.00">設備名（ClassA）</text>
<polygon fill="none" stroke="black" points="415,-255 415,-277 533,-277 533,-255 415,-255"/>
<text text-anchor="start" x="418" y="-263.2" font-family="IPAGothic" font-size="11.00">int[4]</text>
<polygon fill="none" stroke="black" points="239,-233 239,-255 415,-255 415,-233 239,-233"/>
<text text-anchor="start" x="259" y="-241.2" font-family="IPAGothic" font-size="11.00">設置場所（ClassB）</text>
<polygon fill="none" stroke="black" points="415,-233 415,-255 533,-255 533,-233 415,-233"/>
<text text-anchor="start" x="418" y="-241.2" font-family="IPAGothic" font-size="11.00">nvarchar[2048]</text>
<polygon fill="none" stroke="black" points="239,-211 239,-233 415,-233 415,-211 239,-211"/>
<text text-anchor="start" x="259" y="-219.2" font-family="IPAGothic" font-size="11.00">発生日時（DateA）</text>
<polygon fill="none" stroke="black" points="415,-211 415,-233 533,-233 533,-211 415,-211"/>
<text text-anchor="start" x="418" y="-219.2" font-family="IPAGothic" font-size="11.00">datetime[16,3]</text>
<polygon fill="none" stroke="black" points="239,-189 239,-211 415,-211 415,-189 239,-189"/>
<text text-anchor="start" x="259" y="-197.2" font-family="IPAGothic" font-size="11.00">復旧日時（DateB）</text>
<polygon fill="none" stroke="black" points="415,-189 415,-211 533,-211 533,-189 415,-189"/>
<text text-anchor="start" x="418" y="-197.2" font-family="IPAGothic" font-size="11.00">datetime[16,3]</text>
<polygon fill="none" stroke="black" points="239,-167 239,-189 415,-189 415,-167 239,-167"/>
<text text-anchor="start" x="259" y="-175.2" font-family="IPAGothic" font-size="11.00">修理担当者（Owner）</text>
<polygon fill="none" stroke="black" points="415,-167 415,-189 533,-189 533,-167 415,-167"/>
<text text-anchor="start" x="418" y="-175.2" font-family="IPAGothic" font-size="11.00">int[4]</text>
<polygon fill="none" stroke="black" points="239,-145 239,-167 415,-167 415,-145 239,-145"/>
<text text-anchor="start" x="259" y="-153.2" font-family="IPAGothic" font-size="11.00">故障内容（Body）</text>
<polygon fill="none" stroke="black" points="415,-145 415,-167 533,-167 533,-145 415,-145"/>
<text text-anchor="start" x="418" y="-153.2" font-family="IPAGothic" font-size="11.00">nvarchar[2147483647]</text>
<polygon fill="none" stroke="black" points="239,-123 239,-145 415,-145 415,-123 239,-123"/>
<text text-anchor="start" x="259" y="-131.2" font-family="IPAGothic" font-size="11.00">故障原因（DescriptionA）</text>
<polygon fill="none" stroke="black" points="415,-123 415,-145 533,-145 533,-123 415,-123"/>
<text text-anchor="start" x="418" y="-131.2" font-family="IPAGothic" font-size="11.00">nvarchar[2147483647]</text>
<polygon fill="none" stroke="black" points="239,-101 239,-123 415,-123 415,-101 239,-101"/>
<text text-anchor="start" x="259" y="-109.2" font-family="IPAGothic" font-size="11.00">修理内容（DescriptionB）</text>
<polygon fill="none" stroke="black" points="415,-101 415,-123 533,-123 533,-101 415,-101"/>
<text text-anchor="start" x="418" y="-109.2" font-family="IPAGothic" font-size="11.00">nvarchar[2147483647]</text>
<polygon fill="none" stroke="black" points="239,-79 239,-101 415,-101 415,-79 239,-79"/>
<text text-anchor="start" x="259" y="-87.2" font-family="IPAGothic" font-size="11.00">添付資料（AttachmentsA）</text>
<polygon fill="none" stroke="black" points="415,-79 415,-101 533,-101 533,-79 415,-79"/>
<text text-anchor="start" x="418" y="-87.2" font-family="IPAGothic" font-size="11.00">nvarchar[2147483647]</text>
<polygon fill="none" stroke="black" points="239,-57 239,-79 415,-79 415,-57 239,-57"/>
<text text-anchor="start" x="259" y="-65.2" font-family="IPAGothic" font-size="11.00">コメント（Comments）</text>
<polygon fill="none" stroke="black" points="415,-57 415,-79 533,-79 533,-57 415,-57"/>
<text text-anchor="start" x="418" y="-65.2" font-family="IPAGothic" font-size="11.00">nvarchar[2147483647]</text>
<polygon fill="#ffffff" stroke="none" points="239,-39 239,-57 320,-57 320,-39 239,-39"/>
<polygon fill="none" stroke="black" points="239,-39 239,-57 320,-57 320,-39 239,-39"/>
<text text-anchor="start" x="242" y="-45.2" font-family="IPAGothic" font-size="11.00">&lt; 1</text>
<polygon fill="#ffffff" stroke="none" points="320,-39 320,-57 415,-57 415,-39 320,-39"/>
<polygon fill="none" stroke="black" points="320,-39 320,-57 415,-57 415,-39 320,-39"/>
<text text-anchor="start" x="379" y="-45.2" font-family="IPAGothic" font-size="11.00">0 rows</text>
<polygon fill="#ffffff" stroke="none" points="415,-39 415,-57 533,-57 533,-39 415,-39"/>
<polygon fill="none" stroke="black" points="415,-39 415,-57 533,-57 533,-39 415,-39"/>
<text text-anchor="start" x="511" y="-45.2" font-family="IPAGothic" font-size="11.00">0 &gt;</text>
<polygon fill="none" stroke="black" stroke-width="2" points="238,-38 238,-344 534,-344 534,-38 238,-38"/>
</a>
</g>
</g>
<!-- 設備一覧（Results_20） -->
<g id="node2" class="node">
<title>設備一覧（Results_20）</title>
<g id="a_node2"><a xlink:href="../../tables/_____Results_20__4cb574cd.html" xlink:title="設備一覧（Results_20）" target="_top">
<polygon fill="#ffffff" stroke="none" points="8,-219 8,-299 188,-299 188,-219 8,-219"/>
<polygon fill="#f5f5f5" stroke="none" points="8,-277 8,-299 188,-299 188,-277 8,-277"/>
<polygon fill="none" stroke="black" points="8,-277 8,-299 188,-299 188,-277 8,-277"/>
<text text-anchor="start" x="9" y="-286.2" font-family="IPAGothic" font-weight="bold" font-size="11.00">設備一覧（Results_20）</text>
<text text-anchor="start" x="150" y="-285.2" font-family="IPAGothic" font-size="11.00">[table]</text>
<polygon fill="none" stroke="black" points="8,-255 8,-277 188,-277 188,-255 8,-255"/>
<image xlink:href="../../images/primaryKeys.png" width="11px" height="12px" preserveAspectRatio="xMinYMin meet" x="13" y="-272"/>
<text text-anchor="start" x="30" y="-263.2" font-family="IPAGothic" font-size="11.00">ID（ResultId）</text>
<polygon fill="none" stroke="black" points="8,-237 8,-255 188,-255 188,-237 8,-237"/>
<text text-anchor="start" x="11" y="-243.2" font-family="IPAGothic" font-size="11.00">...</text>
<polygon fill="#ffffff" stroke="none" points="8,-219 8,-237 73,-237 73,-219 8,-219"/>
<polygon fill="none" stroke="black" points="8,-219 8,-237 73,-237 73,-219 8,-219"/>
<text text-anchor="start" x="11" y="-225.2" font-family="IPAGothic" font-size="11.00"> &#160;</text>
<polygon fill="#ffffff" stroke="none" points="73,-219 73,-237 137,-237 137,-219 73,-219"/>
<polygon fill="none" stroke="black" points="73,-219 73,-237 137,-237 137,-219 73,-219"/>
<text text-anchor="start" x="101" y="-225.2" font-family="IPAGothic" font-size="11.00">0 rows</text>
<polygon fill="#ffffff" stroke="none" points="137,-219 137,-237 188,-237 188,-219 137,-219"/>
<polygon fill="none" stroke="black" points="137,-219 137,-237 188,-237 188,-219 137,-219"/>
<text text-anchor="start" x="166" y="-225.2" font-family="IPAGothic" font-size="11.00">1 &gt;</text>
</a>
</g>
</g>
<!-- 故障管理表（Results_21）&#45;&gt;設備一覧（Results_20） -->
<g id="edge1" class="edge">
<title>故障管理表（Results_21）:w&#45;&gt;設備一覧（Results_20）:e</title>
<path fill="none" stroke="black" d="M222.77,-266C211.87,-266 204.65,-266 189,-266"/>
<polygon fill="black" stroke="black" points="230,-266 238,-269.6 234,-266 238,-266 238,-266 238,-266 234,-266 238,-262.4 230,-266 230,-266"/>
<ellipse fill="none" stroke="black" cx="226.3" cy="-266" rx="3.2" ry="3.2"/>
</g>
</g>
</svg>
