<?xml version="1.0" encoding="UTF-8" standalone="no"?>
<!DOCTYPE svg PUBLIC "-//W3C//DTD SVG 1.1//EN"
 "http://www.w3.org/Graphics/SVG/1.1/DTD/svg11.dtd">
<!-- Generated by graphviz version 7.0.4 (20221203.1631)
 -->
<!-- Title: twoDegreesRelationshipsDiagram Pages: 1 -->
<svg width="589pt" height="414pt"
 viewBox="0.00 0.00 589.00 414.00" xmlns="http://www.w3.org/2000/svg" xmlns:xlink="http://www.w3.org/1999/xlink">
<g id="graph0" class="graph" transform="scale(1 1) rotate(0) translate(4 410)">
<title>twoDegreesRelationshipsDiagram</title>
<polygon fill="#ffffff" stroke="none" points="-4,4 -4,-410 585,-410 585,4 -4,4"/>
<text text-anchor="middle" x="72" y="-7.2" font-family="IPAGothic" font-size="11.00">Generated by SchemaSpy</text>
<!-- レビュー記録（Results_4） -->
<g id="node1" class="node">
<title>レビュー記録（Results_4）</title>
<g id="a_node1"><a xlink:href="../../tables/_______Results_4__36cfdf6e.html" xlink:title="レビュー記録（Results_4）" target="_top">
<polygon fill="#ffffff" stroke="none" points="275,-116 275,-402 573,-402 573,-116 275,-116"/>
<polygon fill="#f5f5f5" stroke="none" points="277,-378 277,-400 571,-400 571,-378 277,-378"/>
<polygon fill="none" stroke="black" points="277,-378 277,-400 571,-400 571,-378 277,-378"/>
<text text-anchor="start" x="278" y="-387.2" font-family="IPAGothic" font-weight="bold" font-size="11.00">レビュー記録（Results_4）</text>
<text text-anchor="start" x="533" y="-386.2" font-family="IPAGothic" font-size="11.00">[table]</text>
<polygon fill="none" stroke="black" points="277,-356 277,-378 453,-378 453,-356 277,-356"/>
<image xlink:href="../../images/primaryKeys.png" width="11px" height="12px" preserveAspectRatio="xMinYMin meet" x="282" y="-373"/>
<text text-anchor="start" x="297" y="-364.2" font-family="IPAGothic" font-size="11.00">ID（ResultId）</text>
<polygon fill="none" stroke="black" points="453,-356 453,-378 571,-378 571,-356 453,-356"/>
<text text-anchor="start" x="456" y="-364.2" font-family="IPAGothic" font-size="11.00">int[4]</text>
<polygon fill="none" stroke="black" points="277,-334 277,-356 453,-356 453,-334 277,-334"/>
<text text-anchor="start" x="297" y="-342.2" font-family="IPAGothic" font-size="11.00">バージョン（Ver）</text>
<polygon fill="none" stroke="black" points="453,-334 453,-356 571,-356 571,-334 453,-334"/>
<text text-anchor="start" x="456" y="-342.2" font-family="IPAGothic" font-size="11.00">int[4]</text>
<polygon fill="none" stroke="black" points="277,-312 277,-334 453,-334 453,-312 277,-312"/>
<text text-anchor="start" x="297" y="-320.2" font-family="IPAGothic" font-size="11.00">タイトル（Title）</text>
<polygon fill="none" stroke="black" points="453,-312 453,-334 571,-334 571,-312 453,-312"/>
<text text-anchor="start" x="456" y="-320.2" font-family="IPAGothic" font-size="11.00">nvarchar[2048]</text>
<polygon fill="none" stroke="black" points="277,-290 277,-312 453,-312 453,-290 277,-290"/>
<text text-anchor="start" x="297" y="-298.2" font-family="IPAGothic" font-size="11.00">内容（Body）</text>
<polygon fill="none" stroke="black" points="453,-290 453,-312 571,-312 571,-290 453,-290"/>
<text text-anchor="start" x="456" y="-298.2" font-family="IPAGothic" font-size="11.00">nvarchar[2147483647]</text>
<polygon fill="none" stroke="black" points="277,-268 277,-290 453,-290 453,-268 277,-268"/>
<text text-anchor="start" x="297" y="-276.2" font-family="IPAGothic" font-size="11.00">状況（Status）</text>
<polygon fill="none" stroke="black" points="453,-268 453,-290 571,-290 571,-268 453,-268"/>
<text text-anchor="start" x="456" y="-276.2" font-family="IPAGothic" font-size="11.00">int[4]</text>
<polygon fill="none" stroke="black" points="277,-246 277,-268 453,-268 453,-246 277,-246"/>
<text text-anchor="start" x="297" y="-254.2" font-family="IPAGothic" font-size="11.00">管理者（Manager）</text>
<polygon fill="none" stroke="black" points="453,-246 453,-268 571,-268 571,-246 453,-246"/>
<text text-anchor="start" x="456" y="-254.2" font-family="IPAGothic" font-size="11.00">int[4]</text>
<polygon fill="none" stroke="black" points="277,-224 277,-246 453,-246 453,-224 277,-224"/>
<text text-anchor="start" x="297" y="-232.2" font-family="IPAGothic" font-size="11.00">担当者（Owner）</text>
<polygon fill="none" stroke="black" points="453,-224 453,-246 571,-246 571,-224 453,-224"/>
<text text-anchor="start" x="456" y="-232.2" font-family="IPAGothic" font-size="11.00">int[4]</text>
<polygon fill="none" stroke="black" points="277,-202 277,-224 453,-224 453,-202 277,-202"/>
<image xlink:href="../../images/foreignKeys.png" width="11px" height="12px" preserveAspectRatio="xMinYMin meet" x="282" y="-219"/>
<text text-anchor="start" x="297" y="-210.2" font-family="IPAGothic" font-size="11.00">WBS（ClassA）</text>
<polygon fill="none" stroke="black" points="453,-202 453,-224 571,-224 571,-202 453,-202"/>
<text text-anchor="start" x="456" y="-210.2" font-family="IPAGothic" font-size="11.00">int[4]</text>
<polygon fill="none" stroke="black" points="277,-180 277,-202 453,-202 453,-180 277,-180"/>
<text text-anchor="start" x="297" y="-188.2" font-family="IPAGothic" font-size="11.00">指摘区分（ClassB）</text>
<polygon fill="none" stroke="black" points="453,-180 453,-202 571,-202 571,-180 453,-180"/>
<text text-anchor="start" x="456" y="-188.2" font-family="IPAGothic" font-size="11.00">nvarchar[2048]</text>
<polygon fill="none" stroke="black" points="277,-158 277,-180 453,-180 453,-158 277,-158"/>
<text text-anchor="start" x="297" y="-166.2" font-family="IPAGothic" font-size="11.00">添付資料（AttachmentsA）</text>
<polygon fill="none" stroke="black" points="453,-158 453,-180 571,-180 571,-158 453,-158"/>
<text text-anchor="start" x="456" y="-166.2" font-family="IPAGothic" font-size="11.00">nvarchar[2147483647]</text>
<polygon fill="none" stroke="black" points="277,-136 277,-158 453,-158 453,-136 277,-136"/>
<text text-anchor="start" x="297" y="-144.2" font-family="IPAGothic" font-size="11.00">コメント（Comments）</text>
<polygon fill="none" stroke="black" points="453,-136 453,-158 571,-158 571,-136 453,-136"/>
<text text-anchor="start" x="456" y="-144.2" font-family="IPAGothic" font-size="11.00">nvarchar[2147483647]</text>
<polygon fill="#ffffff" stroke="none" points="277,-118 277,-136 358,-136 358,-118 277,-118"/>
<polygon fill="none" stroke="black" points="277,-118 277,-136 358,-136 358,-118 277,-118"/>
<text text-anchor="start" x="280" y="-124.2" font-family="IPAGothic" font-size="11.00">&lt; 1</text>
<polygon fill="#ffffff" stroke="none" points="358,-118 358,-136 453,-136 453,-118 358,-118"/>
<polygon fill="none" stroke="black" points="358,-118 358,-136 453,-136 453,-118 358,-118"/>
<text text-anchor="start" x="417" y="-124.2" font-family="IPAGothic" font-size="11.00">0 rows</text>
<polygon fill="#ffffff" stroke="none" points="453,-118 453,-136 571,-136 571,-118 453,-118"/>
<polygon fill="none" stroke="black" points="453,-118 453,-136 571,-136 571,-118 453,-118"/>
<text text-anchor="start" x="549" y="-124.2" font-family="IPAGothic" font-size="11.00">0 &gt;</text>
<polygon fill="none" stroke="black" stroke-width="2" points="276,-117 276,-401 572,-401 572,-117 276,-117"/>
</a>
</g>
</g>
<!-- WBS（Issues_2） -->
<g id="node2" class="node">
<title>WBS（Issues_2）</title>
<g id="a_node2"><a xlink:href="../../tables/WBS_Issues_2__9cf79b7c.html" xlink:title="WBS（Issues_2）" target="_top">
<polygon fill="#ffffff" stroke="none" points="8,-91 8,-171 226,-171 226,-91 8,-91"/>
<polygon fill="#f5f5f5" stroke="none" points="8,-149 8,-171 226,-171 226,-149 8,-149"/>
<polygon fill="none" stroke="black" points="8,-149 8,-171 226,-171 226,-149 8,-149"/>
<text text-anchor="start" x="10.5" y="-158.2" font-family="IPAGothic" font-weight="bold" font-size="11.00">WBS（Issues_2）</text>
<text text-anchor="start" x="188" y="-157.2" font-family="IPAGothic" font-size="11.00">[table]</text>
<polygon fill="none" stroke="black" points="8,-127 8,-149 226,-149 226,-127 8,-127"/>
<image xlink:href="../../images/primaryKeys.png" width="11px" height="12px" preserveAspectRatio="xMinYMin meet" x="13" y="-144"/>
<text text-anchor="start" x="28" y="-135.2" font-family="IPAGothic" font-size="11.00">ID（IssueId）</text>
<polygon fill="none" stroke="black" points="8,-109 8,-127 226,-127 226,-109 8,-109"/>
<text text-anchor="start" x="11" y="-115.2" font-family="IPAGothic" font-size="11.00">...</text>
<polygon fill="#ffffff" stroke="none" points="8,-91 8,-109 92,-109 92,-91 8,-91"/>
<polygon fill="none" stroke="black" points="8,-91 8,-109 92,-109 92,-91 8,-91"/>
<text text-anchor="start" x="11" y="-97.2" font-family="IPAGothic" font-size="11.00"> &#160;</text>
<polygon fill="#ffffff" stroke="none" points="92,-91 92,-109 166,-109 166,-91 92,-91"/>
<polygon fill="none" stroke="black" points="92,-91 92,-109 166,-109 166,-91 92,-91"/>
<text text-anchor="start" x="130" y="-97.2" font-family="IPAGothic" font-size="11.00">0 rows</text>
<polygon fill="#ffffff" stroke="none" points="166,-91 166,-109 226,-109 226,-91 166,-91"/>
<polygon fill="none" stroke="black" points="166,-91 166,-109 226,-109 226,-91 166,-91"/>
<text text-anchor="start" x="204" y="-97.2" font-family="IPAGothic" font-size="11.00">2 &gt;</text>
</a>
</g>
</g>
<!-- レビュー記録（Results_4）&#45;&gt;WBS（Issues_2） -->
<g id="edge1" class="edge">
<title>レビュー記録（Results_4）:w&#45;&gt;WBS（Issues_2）:e</title>
<path fill="none" stroke="black" d="M261.96,-208.08C244.04,-191.39 260.6,-138 227,-138"/>
<polygon fill="black" stroke="black" points="268.45,-210.35 274.81,-216.4 272.23,-211.68 276,-213 276,-213 276,-213 272.23,-211.68 277.19,-209.6 268.45,-210.35 268.45,-210.35"/>
<ellipse fill="none" stroke="black" cx="264.96" cy="-209.13" rx="3.2" ry="3.2"/>
</g>
<!-- 課題管理（Issues_3） -->
<g id="node3" class="node">
<title>課題管理（Issues_3）</title>
<g id="a_node3"><a xlink:href="../../tables/_____Issues_3__d1af85d2.html" xlink:title="課題管理（Issues_3）" target="_top">
<polygon fill="#ffffff" stroke="none" points="340.5,-37 340.5,-95 507.5,-95 507.5,-37 340.5,-37"/>
<polygon fill="#f5f5f5" stroke="none" points="341,-73 341,-95 508,-95 508,-73 341,-73"/>
<polygon fill="none" stroke="black" points="341,-73 341,-95 508,-95 508,-73 341,-73"/>
<text text-anchor="start" x="341.5" y="-82.2" font-family="IPAGothic" font-weight="bold" font-size="11.00">課題管理（Issues_3）</text>
<text text-anchor="start" x="470" y="-81.2" font-family="IPAGothic" font-size="11.00">[table]</text>
<polygon fill="none" stroke="black" points="341,-55 341,-73 508,-73 508,-55 341,-55"/>
<text text-anchor="start" x="344" y="-61.2" font-family="IPAGothic" font-size="11.00">...</text>
<polygon fill="#ffffff" stroke="none" points="341,-37 341,-55 410,-55 410,-37 341,-37"/>
<polygon fill="none" stroke="black" points="341,-37 341,-55 410,-55 410,-37 341,-37"/>
<text text-anchor="start" x="344" y="-43.2" font-family="IPAGothic" font-size="11.00">&lt; 1</text>
<polygon fill="#ffffff" stroke="none" points="410,-37 410,-55 471,-55 471,-37 410,-37"/>
<polygon fill="none" stroke="black" points="410,-37 410,-55 471,-55 471,-37 410,-37"/>
<text text-anchor="start" x="435" y="-43.2" font-family="IPAGothic" font-size="11.00">0 rows</text>
<polygon fill="#ffffff" stroke="none" points="471,-37 471,-55 508,-55 508,-37 471,-37"/>
<polygon fill="none" stroke="black" points="471,-37 471,-55 508,-55 508,-37 471,-37"/>
<text text-anchor="start" x="497" y="-43.2" font-family="IPAGothic" font-size="11.00"> &#160;</text>
</a>
</g>
</g>
<!-- 課題管理（Issues_3）&#45;&gt;WBS（Issues_2） -->
<g id="edge2" class="edge">
<title>課題管理（Issues_3）:w&#45;&gt;WBS（Issues_2）:e</title>
<path fill="none" stroke="black" d="M324.97,-65.38C300.54,-70.38 293.22,-88.13 267,-106 248.19,-118.83 249.77,-138 227,-138"/>
<polygon fill="black" stroke="black" points="332.03,-64.73 340.33,-67.58 336.02,-64.37 340,-64 340,-64 340,-64 336.02,-64.37 339.67,-60.42 332.03,-64.73 332.03,-64.73"/>
<ellipse fill="none" stroke="black" cx="328.35" cy="-65.07" rx="3.2" ry="3.2"/>
</g>
</g>
</svg>
