<?xml version="1.0" encoding="UTF-8" standalone="no"?>
<!DOCTYPE svg PUBLIC "-//W3C//DTD SVG 1.1//EN"
 "http://www.w3.org/Graphics/SVG/1.1/DTD/svg11.dtd">
<!-- Generated by graphviz version 7.0.4 (20221203.1631)
 -->
<!-- Title: oneDegreeRelationshipsDiagram Pages: 1 -->
<svg width="322pt" height="379pt"
 viewBox="0.00 0.00 322.00 379.00" xmlns="http://www.w3.org/2000/svg" xmlns:xlink="http://www.w3.org/1999/xlink">
<g id="graph0" class="graph" transform="scale(1 1) rotate(0) translate(4 375)">
<title>oneDegreeRelationshipsDiagram</title>
<polygon fill="#ffffff" stroke="none" points="-4,4 -4,-375 318,-375 318,4 -4,4"/>
<text text-anchor="middle" x="72" y="-7.2" font-family="IPAGothic" font-size="11.00">Generated by SchemaSpy</text>
<!-- 書籍管理（Results_53） -->
<g id="node1" class="node">
<title>書籍管理（Results_53）</title>
<g id="a_node1"><a xlink:href="../../tables/_____Results_53__fa49c8d4.html" xlink:title="書籍管理（Results_53）" target="_top">
<polygon fill="#ffffff" stroke="none" points="8,-37 8,-367 306,-367 306,-37 8,-37"/>
<polygon fill="#f5f5f5" stroke="none" points="10,-343 10,-365 304,-365 304,-343 10,-343"/>
<polygon fill="none" stroke="black" points="10,-343 10,-365 304,-365 304,-343 10,-343"/>
<text text-anchor="start" x="11" y="-352.2" font-family="IPAGothic" font-weight="bold" font-size="11.00">書籍管理（Results_53）</text>
<text text-anchor="start" x="266" y="-351.2" font-family="IPAGothic" font-size="11.00">[table]</text>
<polygon fill="none" stroke="black" points="10,-321 10,-343 186,-343 186,-321 10,-321"/>
<image xlink:href="../../images/primaryKeys.png" width="11px" height="12px" preserveAspectRatio="xMinYMin meet" x="15" y="-338"/>
<text text-anchor="start" x="30" y="-329.2" font-family="IPAGothic" font-size="11.00">ID（ResultId）</text>
<polygon fill="none" stroke="black" points="186,-321 186,-343 304,-343 304,-321 186,-321"/>
<text text-anchor="start" x="189" y="-329.2" font-family="IPAGothic" font-size="11.00">int[4]</text>
<polygon fill="none" stroke="black" points="10,-299 10,-321 186,-321 186,-299 10,-299"/>
<text text-anchor="start" x="30" y="-307.2" font-family="IPAGothic" font-size="11.00">バージョン（Ver）</text>
<polygon fill="none" stroke="black" points="186,-299 186,-321 304,-321 304,-299 186,-299"/>
<text text-anchor="start" x="189" y="-307.2" font-family="IPAGothic" font-size="11.00">int[4]</text>
<polygon fill="none" stroke="black" points="10,-277 10,-299 186,-299 186,-277 10,-277"/>
<text text-anchor="start" x="30" y="-285.2" font-family="IPAGothic" font-size="11.00">ISBN（ClassA）</text>
<polygon fill="none" stroke="black" points="186,-277 186,-299 304,-299 304,-277 186,-277"/>
<text text-anchor="start" x="189" y="-285.2" font-family="IPAGothic" font-size="11.00">nvarchar[2048]</text>
<polygon fill="none" stroke="black" points="10,-255 10,-277 186,-277 186,-255 10,-255"/>
<text text-anchor="start" x="30" y="-263.2" font-family="IPAGothic" font-size="11.00">タイトル（Title）</text>
<polygon fill="none" stroke="black" points="186,-255 186,-277 304,-277 304,-255 186,-255"/>
<text text-anchor="start" x="189" y="-263.2" font-family="IPAGothic" font-size="11.00">nvarchar[2048]</text>
<polygon fill="none" stroke="black" points="10,-233 10,-255 186,-255 186,-233 10,-233"/>
<text text-anchor="start" x="30" y="-241.2" font-family="IPAGothic" font-size="11.00">著者（ClassB）</text>
<polygon fill="none" stroke="black" points="186,-233 186,-255 304,-255 304,-233 186,-233"/>
<text text-anchor="start" x="189" y="-241.2" font-family="IPAGothic" font-size="11.00">nvarchar[2048]</text>
<polygon fill="none" stroke="black" points="10,-211 10,-233 186,-233 186,-211 10,-211"/>
<text text-anchor="start" x="30" y="-219.2" font-family="IPAGothic" font-size="11.00">出版社（ClassC）</text>
<polygon fill="none" stroke="black" points="186,-211 186,-233 304,-233 304,-211 186,-211"/>
<text text-anchor="start" x="189" y="-219.2" font-family="IPAGothic" font-size="11.00">nvarchar[2048]</text>
<polygon fill="none" stroke="black" points="10,-189 10,-211 186,-211 186,-189 10,-189"/>
<text text-anchor="start" x="30" y="-197.2" font-family="IPAGothic" font-size="11.00">種類（ClassD）</text>
<polygon fill="none" stroke="black" points="186,-189 186,-211 304,-211 304,-189 186,-189"/>
<text text-anchor="start" x="189" y="-197.2" font-family="IPAGothic" font-size="11.00">nvarchar[2048]</text>
<polygon fill="none" stroke="black" points="10,-167 10,-189 186,-189 186,-167 10,-167"/>
<text text-anchor="start" x="30" y="-175.2" font-family="IPAGothic" font-size="11.00">購入日（DateA）</text>
<polygon fill="none" stroke="black" points="186,-167 186,-189 304,-189 304,-167 186,-167"/>
<text text-anchor="start" x="189" y="-175.2" font-family="IPAGothic" font-size="11.00">datetime[16,3]</text>
<polygon fill="none" stroke="black" points="10,-145 10,-167 186,-167 186,-145 10,-145"/>
<text text-anchor="start" x="30" y="-153.2" font-family="IPAGothic" font-size="11.00">値段（NumA）</text>
<polygon fill="none" stroke="black" points="186,-145 186,-167 304,-167 304,-145 186,-145"/>
<text text-anchor="start" x="189" y="-153.2" font-family="IPAGothic" font-size="11.00">decimal[21,4]</text>
<polygon fill="none" stroke="black" points="10,-123 10,-145 186,-145 186,-123 10,-123"/>
<text text-anchor="start" x="30" y="-131.2" font-family="IPAGothic" font-size="11.00">既読（CheckA）</text>
<polygon fill="none" stroke="black" points="186,-123 186,-145 304,-145 304,-123 186,-123"/>
<text text-anchor="start" x="189" y="-131.2" font-family="IPAGothic" font-size="11.00">bit[1]</text>
<polygon fill="none" stroke="black" points="10,-101 10,-123 186,-123 186,-101 10,-101"/>
<text text-anchor="start" x="30" y="-109.2" font-family="IPAGothic" font-size="11.00">感想（Body）</text>
<polygon fill="none" stroke="black" points="186,-101 186,-123 304,-123 304,-101 186,-101"/>
<text text-anchor="start" x="189" y="-109.2" font-family="IPAGothic" font-size="11.00">nvarchar[2147483647]</text>
<polygon fill="none" stroke="black" points="10,-79 10,-101 186,-101 186,-79 10,-79"/>
<text text-anchor="start" x="30" y="-87.2" font-family="IPAGothic" font-size="11.00">添付資料（AttachmentsA）</text>
<polygon fill="none" stroke="black" points="186,-79 186,-101 304,-101 304,-79 186,-79"/>
<text text-anchor="start" x="189" y="-87.2" font-family="IPAGothic" font-size="11.00">nvarchar[2147483647]</text>
<polygon fill="none" stroke="black" points="10,-57 10,-79 186,-79 186,-57 10,-57"/>
<text text-anchor="start" x="30" y="-65.2" font-family="IPAGothic" font-size="11.00">コメント（Comments）</text>
<polygon fill="none" stroke="black" points="186,-57 186,-79 304,-79 304,-57 186,-57"/>
<text text-anchor="start" x="189" y="-65.2" font-family="IPAGothic" font-size="11.00">nvarchar[2147483647]</text>
<polygon fill="#ffffff" stroke="none" points="10,-39 10,-57 91,-57 91,-39 10,-39"/>
<polygon fill="none" stroke="black" points="10,-39 10,-57 91,-57 91,-39 10,-39"/>
<text text-anchor="start" x="13" y="-45.2" font-family="IPAGothic" font-size="11.00">&lt; 0</text>
<polygon fill="#ffffff" stroke="none" points="91,-39 91,-57 186,-57 186,-39 91,-39"/>
<polygon fill="none" stroke="black" points="91,-39 91,-57 186,-57 186,-39 91,-39"/>
<text text-anchor="start" x="150" y="-45.2" font-family="IPAGothic" font-size="11.00">0 rows</text>
<polygon fill="#ffffff" stroke="none" points="186,-39 186,-57 304,-57 304,-39 186,-39"/>
<polygon fill="none" stroke="black" points="186,-39 186,-57 304,-57 304,-39 186,-39"/>
<text text-anchor="start" x="282" y="-45.2" font-family="IPAGothic" font-size="11.00">0 &gt;</text>
<polygon fill="none" stroke="black" stroke-width="2" points="9,-38 9,-366 305,-366 305,-38 9,-38"/>
</a>
</g>
</g>
</g>
</svg>
