<?xml version="1.0" encoding="UTF-8" standalone="no"?>
<!DOCTYPE svg PUBLIC "-//W3C//DTD SVG 1.1//EN"
 "http://www.w3.org/Graphics/SVG/1.1/DTD/svg11.dtd">
<!-- Generated by graphviz version 7.0.4 (20221203.1631)
 -->
<!-- Title: oneDegreeRelationshipsDiagram Pages: 1 -->
<svg width="353pt" height="357pt"
 viewBox="0.00 0.00 353.00 357.00" xmlns="http://www.w3.org/2000/svg" xmlns:xlink="http://www.w3.org/1999/xlink">
<g id="graph0" class="graph" transform="scale(1 1) rotate(0) translate(4 353)">
<title>oneDegreeRelationshipsDiagram</title>
<polygon fill="#ffffff" stroke="none" points="-4,4 -4,-353 349,-353 349,4 -4,4"/>
<text text-anchor="middle" x="72" y="-7.2" font-family="IPAGothic" font-size="11.00">Generated by SchemaSpy</text>
<!-- クレーム管理（Results_39） -->
<g id="node1" class="node">
<title>クレーム管理（Results_39）</title>
<g id="a_node1"><a xlink:href="../../tables/_______Results_39__218f22f8.html" xlink:title="クレーム管理（Results_39）" target="_top">
<polygon fill="#ffffff" stroke="none" points="8,-37 8,-345 337,-345 337,-37 8,-37"/>
<polygon fill="#f5f5f5" stroke="none" points="10.5,-321 10.5,-343 335.5,-343 335.5,-321 10.5,-321"/>
<polygon fill="none" stroke="black" points="10.5,-321 10.5,-343 335.5,-343 335.5,-321 10.5,-321"/>
<text text-anchor="start" x="11" y="-330.2" font-family="IPAGothic" font-weight="bold" font-size="11.00">クレーム管理（Results_39）</text>
<text text-anchor="start" x="297.5" y="-329.2" font-family="IPAGothic" font-size="11.00">[table]</text>
<polygon fill="none" stroke="black" points="10.5,-299 10.5,-321 217.5,-321 217.5,-299 10.5,-299"/>
<image xlink:href="../../images/primaryKeys.png" width="11px" height="12px" preserveAspectRatio="xMinYMin meet" x="15.5" y="-316"/>
<text text-anchor="start" x="30.5" y="-307.2" font-family="IPAGothic" font-size="11.00">ID（ResultId）</text>
<polygon fill="none" stroke="black" points="217.5,-299 217.5,-321 335.5,-321 335.5,-299 217.5,-299"/>
<text text-anchor="start" x="220.5" y="-307.2" font-family="IPAGothic" font-size="11.00">int[4]</text>
<polygon fill="none" stroke="black" points="10.5,-277 10.5,-299 217.5,-299 217.5,-277 10.5,-277"/>
<text text-anchor="start" x="30.5" y="-285.2" font-family="IPAGothic" font-size="11.00">バージョン（Ver）</text>
<polygon fill="none" stroke="black" points="217.5,-277 217.5,-299 335.5,-299 335.5,-277 217.5,-277"/>
<text text-anchor="start" x="220.5" y="-285.2" font-family="IPAGothic" font-size="11.00">int[4]</text>
<polygon fill="none" stroke="black" points="10.5,-255 10.5,-277 217.5,-277 217.5,-255 10.5,-255"/>
<text text-anchor="start" x="30.5" y="-263.2" font-family="IPAGothic" font-size="11.00">お客様氏名（ClassA）</text>
<polygon fill="none" stroke="black" points="217.5,-255 217.5,-277 335.5,-277 335.5,-255 217.5,-255"/>
<text text-anchor="start" x="220.5" y="-263.2" font-family="IPAGothic" font-size="11.00">nvarchar[2048]</text>
<polygon fill="none" stroke="black" points="10.5,-233 10.5,-255 217.5,-255 217.5,-233 10.5,-233"/>
<text text-anchor="start" x="30.5" y="-241.2" font-family="IPAGothic" font-size="11.00">発生日時（DateA）</text>
<polygon fill="none" stroke="black" points="217.5,-233 217.5,-255 335.5,-255 335.5,-233 217.5,-233"/>
<text text-anchor="start" x="220.5" y="-241.2" font-family="IPAGothic" font-size="11.00">datetime[16,3]</text>
<polygon fill="none" stroke="black" points="10.5,-211 10.5,-233 217.5,-233 217.5,-211 10.5,-211"/>
<text text-anchor="start" x="30.5" y="-219.2" font-family="IPAGothic" font-size="11.00">タイトル（Title）</text>
<polygon fill="none" stroke="black" points="217.5,-211 217.5,-233 335.5,-233 335.5,-211 217.5,-211"/>
<text text-anchor="start" x="220.5" y="-219.2" font-family="IPAGothic" font-size="11.00">nvarchar[2048]</text>
<polygon fill="none" stroke="black" points="10.5,-189 10.5,-211 217.5,-211 217.5,-189 10.5,-189"/>
<text text-anchor="start" x="30.5" y="-197.2" font-family="IPAGothic" font-size="11.00">状況（Status）</text>
<polygon fill="none" stroke="black" points="217.5,-189 217.5,-211 335.5,-211 335.5,-189 217.5,-189"/>
<text text-anchor="start" x="220.5" y="-197.2" font-family="IPAGothic" font-size="11.00">int[4]</text>
<polygon fill="none" stroke="black" points="10.5,-167 10.5,-189 217.5,-189 217.5,-167 10.5,-167"/>
<text text-anchor="start" x="30.5" y="-175.2" font-family="IPAGothic" font-size="11.00">対応者（Owner）</text>
<polygon fill="none" stroke="black" points="217.5,-167 217.5,-189 335.5,-189 335.5,-167 217.5,-167"/>
<text text-anchor="start" x="220.5" y="-175.2" font-family="IPAGothic" font-size="11.00">int[4]</text>
<polygon fill="none" stroke="black" points="10.5,-145 10.5,-167 217.5,-167 217.5,-145 10.5,-145"/>
<text text-anchor="start" x="30.5" y="-153.2" font-family="IPAGothic" font-size="11.00">種別（ClassB）</text>
<polygon fill="none" stroke="black" points="217.5,-145 217.5,-167 335.5,-167 335.5,-145 217.5,-145"/>
<text text-anchor="start" x="220.5" y="-153.2" font-family="IPAGothic" font-size="11.00">nvarchar[2048]</text>
<polygon fill="none" stroke="black" points="10.5,-123 10.5,-145 217.5,-145 217.5,-123 10.5,-123"/>
<text text-anchor="start" x="30.5" y="-131.2" font-family="IPAGothic" font-size="11.00">クレーム内容（Body）</text>
<polygon fill="none" stroke="black" points="217.5,-123 217.5,-145 335.5,-145 335.5,-123 217.5,-123"/>
<text text-anchor="start" x="220.5" y="-131.2" font-family="IPAGothic" font-size="11.00">nvarchar[2147483647]</text>
<polygon fill="none" stroke="black" points="10.5,-101 10.5,-123 217.5,-123 217.5,-101 10.5,-101"/>
<text text-anchor="start" x="30.5" y="-109.2" font-family="IPAGothic" font-size="11.00">対応・処置内容（DescriptionA）</text>
<polygon fill="none" stroke="black" points="217.5,-101 217.5,-123 335.5,-123 335.5,-101 217.5,-101"/>
<text text-anchor="start" x="220.5" y="-109.2" font-family="IPAGothic" font-size="11.00">nvarchar[2147483647]</text>
<polygon fill="none" stroke="black" points="10.5,-79 10.5,-101 217.5,-101 217.5,-79 10.5,-79"/>
<text text-anchor="start" x="30.5" y="-87.2" font-family="IPAGothic" font-size="11.00">添付資料（AttachmentsA）</text>
<polygon fill="none" stroke="black" points="217.5,-79 217.5,-101 335.5,-101 335.5,-79 217.5,-79"/>
<text text-anchor="start" x="220.5" y="-87.2" font-family="IPAGothic" font-size="11.00">nvarchar[2147483647]</text>
<polygon fill="none" stroke="black" points="10.5,-57 10.5,-79 217.5,-79 217.5,-57 10.5,-57"/>
<text text-anchor="start" x="30.5" y="-65.2" font-family="IPAGothic" font-size="11.00">コメント（Comments）</text>
<polygon fill="none" stroke="black" points="217.5,-57 217.5,-79 335.5,-79 335.5,-57 217.5,-57"/>
<text text-anchor="start" x="220.5" y="-65.2" font-family="IPAGothic" font-size="11.00">nvarchar[2147483647]</text>
<polygon fill="#ffffff" stroke="none" points="10.5,-39 10.5,-57 106.5,-57 106.5,-39 10.5,-39"/>
<polygon fill="none" stroke="black" points="10.5,-39 10.5,-57 106.5,-57 106.5,-39 10.5,-39"/>
<text text-anchor="start" x="13.5" y="-45.2" font-family="IPAGothic" font-size="11.00">&lt; 0</text>
<polygon fill="#ffffff" stroke="none" points="106.5,-39 106.5,-57 217.5,-57 217.5,-39 106.5,-39"/>
<polygon fill="none" stroke="black" points="106.5,-39 106.5,-57 217.5,-57 217.5,-39 106.5,-39"/>
<text text-anchor="start" x="181.5" y="-45.2" font-family="IPAGothic" font-size="11.00">0 rows</text>
<polygon fill="#ffffff" stroke="none" points="217.5,-39 217.5,-57 335.5,-57 335.5,-39 217.5,-39"/>
<polygon fill="none" stroke="black" points="217.5,-39 217.5,-57 335.5,-57 335.5,-39 217.5,-39"/>
<text text-anchor="start" x="313.5" y="-45.2" font-family="IPAGothic" font-size="11.00">0 &gt;</text>
<polygon fill="none" stroke="black" stroke-width="2" points="9,-38 9,-344 336,-344 336,-38 9,-38"/>
</a>
</g>
</g>
</g>
</svg>
