<?xml version="1.0" encoding="UTF-8" standalone="no"?>
<!DOCTYPE svg PUBLIC "-//W3C//DTD SVG 1.1//EN"
 "http://www.w3.org/Graphics/SVG/1.1/DTD/svg11.dtd">
<!-- Generated by graphviz version 7.0.4 (20221203.1631)
 -->
<!-- Title: twoDegreesRelationshipsDiagram Pages: 1 -->
<svg width="576pt" height="414pt"
 viewBox="0.00 0.00 576.00 414.00" xmlns="http://www.w3.org/2000/svg" xmlns:xlink="http://www.w3.org/1999/xlink">
<g id="graph0" class="graph" transform="scale(1 1) rotate(0) translate(4 410)">
<title>twoDegreesRelationshipsDiagram</title>
<polygon fill="#ffffff" stroke="none" points="-4,4 -4,-410 572,-410 572,4 -4,4"/>
<text text-anchor="middle" x="72" y="-7.2" font-family="IPAGothic" font-size="11.00">Generated by SchemaSpy</text>
<!-- 売上管理台帳（Results_51） -->
<g id="node1" class="node">
<title>売上管理台帳（Results_51）</title>
<g id="a_node1"><a xlink:href="../../tables/_______Results_51__1810fedc.html" xlink:title="売上管理台帳（Results_51）" target="_top">
<polygon fill="#ffffff" stroke="none" points="355,-157 355,-281 560,-281 560,-157 355,-157"/>
<polygon fill="#f5f5f5" stroke="none" points="355.5,-259 355.5,-281 560.5,-281 560.5,-259 355.5,-259"/>
<polygon fill="none" stroke="black" points="355.5,-259 355.5,-281 560.5,-281 560.5,-259 355.5,-259"/>
<text text-anchor="start" x="356" y="-268.2" font-family="IPAGothic" font-weight="bold" font-size="11.00">売上管理台帳（Results_51）</text>
<text text-anchor="start" x="522.5" y="-267.2" font-family="IPAGothic" font-size="11.00">[table]</text>
<polygon fill="none" stroke="black" points="355.5,-237 355.5,-259 560.5,-259 560.5,-237 355.5,-237"/>
<image xlink:href="../../images/primaryKeys.png" width="11px" height="12px" preserveAspectRatio="xMinYMin meet" x="360.5" y="-254"/>
<text text-anchor="start" x="386.5" y="-245.2" font-family="IPAGothic" font-size="11.00">ID（ResultId）</text>
<polygon fill="none" stroke="black" points="355.5,-215 355.5,-237 560.5,-237 560.5,-215 355.5,-215"/>
<image xlink:href="../../images/foreignKeys.png" width="11px" height="12px" preserveAspectRatio="xMinYMin meet" x="360.5" y="-232"/>
<text text-anchor="start" x="386.5" y="-223.2" font-family="IPAGothic" font-size="11.00">店舗名（ClassA）</text>
<polygon fill="none" stroke="black" points="355.5,-193 355.5,-215 560.5,-215 560.5,-193 355.5,-193"/>
<image xlink:href="../../images/foreignKeys.png" width="11px" height="12px" preserveAspectRatio="xMinYMin meet" x="360.5" y="-210"/>
<text text-anchor="start" x="386.5" y="-201.2" font-family="IPAGothic" font-size="11.00">商品名（ClassB）</text>
<polygon fill="none" stroke="black" points="355.5,-175 355.5,-193 560.5,-193 560.5,-175 355.5,-175"/>
<text text-anchor="start" x="358.5" y="-181.2" font-family="IPAGothic" font-size="11.00">...</text>
<polygon fill="#ffffff" stroke="none" points="355.5,-157 355.5,-175 443.5,-175 443.5,-157 355.5,-157"/>
<polygon fill="none" stroke="black" points="355.5,-157 355.5,-175 443.5,-175 443.5,-157 355.5,-157"/>
<text text-anchor="start" x="358.5" y="-163.2" font-family="IPAGothic" font-size="11.00">&lt; 2</text>
<polygon fill="#ffffff" stroke="none" points="443.5,-157 443.5,-175 514.5,-175 514.5,-157 443.5,-157"/>
<polygon fill="none" stroke="black" points="443.5,-157 443.5,-175 514.5,-175 514.5,-157 443.5,-157"/>
<text text-anchor="start" x="478.5" y="-163.2" font-family="IPAGothic" font-size="11.00">0 rows</text>
<polygon fill="#ffffff" stroke="none" points="514.5,-157 514.5,-175 560.5,-175 560.5,-157 514.5,-157"/>
<polygon fill="none" stroke="black" points="514.5,-157 514.5,-175 560.5,-175 560.5,-157 514.5,-157"/>
<text text-anchor="start" x="549.5" y="-163.2" font-family="IPAGothic" font-size="11.00"> &#160;</text>
</a>
</g>
</g>
<!-- 商品一覧（Results_50） -->
<g id="node2" class="node">
<title>商品一覧（Results_50）</title>
<g id="a_node2"><a xlink:href="../../tables/_____Results_50__98f69dff.html" xlink:title="商品一覧（Results_50）" target="_top">
<polygon fill="#ffffff" stroke="none" points="67,-37 67,-95 247,-95 247,-37 67,-37"/>
<polygon fill="#f5f5f5" stroke="none" points="67,-73 67,-95 247,-95 247,-73 67,-73"/>
<polygon fill="none" stroke="black" points="67,-73 67,-95 247,-95 247,-73 67,-73"/>
<text text-anchor="start" x="68" y="-82.2" font-family="IPAGothic" font-weight="bold" font-size="11.00">商品一覧（Results_50）</text>
<text text-anchor="start" x="209" y="-81.2" font-family="IPAGothic" font-size="11.00">[table]</text>
<polygon fill="none" stroke="black" points="67,-55 67,-73 247,-73 247,-55 67,-55"/>
<text text-anchor="start" x="70" y="-61.2" font-family="IPAGothic" font-size="11.00">...</text>
<polygon fill="#ffffff" stroke="none" points="67,-37 67,-55 132,-55 132,-37 67,-37"/>
<polygon fill="none" stroke="black" points="67,-37 67,-55 132,-55 132,-37 67,-37"/>
<text text-anchor="start" x="70" y="-43.2" font-family="IPAGothic" font-size="11.00"> &#160;</text>
<polygon fill="#ffffff" stroke="none" points="132,-37 132,-55 196,-55 196,-37 132,-37"/>
<polygon fill="none" stroke="black" points="132,-37 132,-55 196,-55 196,-37 132,-37"/>
<text text-anchor="start" x="160" y="-43.2" font-family="IPAGothic" font-size="11.00">0 rows</text>
<polygon fill="#ffffff" stroke="none" points="196,-37 196,-55 247,-55 247,-37 196,-37"/>
<polygon fill="none" stroke="black" points="196,-37 196,-55 247,-55 247,-37 196,-37"/>
<text text-anchor="start" x="225" y="-43.2" font-family="IPAGothic" font-size="11.00">1 &gt;</text>
</a>
</g>
</g>
<!-- 売上管理台帳（Results_51）&#45;&gt;商品一覧（Results_50） -->
<g id="edge1" class="edge">
<title>売上管理台帳（Results_51）:w&#45;&gt;商品一覧（Results_50）:e</title>
<path fill="none" stroke="black" d="M339.71,-200.89C315.77,-187.81 340.61,-136.49 314,-105 291.71,-78.62 282.53,-64 248,-64"/>
<polygon fill="black" stroke="black" points="346.67,-202.35 353.76,-207.52 350.59,-203.18 354.5,-204 354.5,-204 354.5,-204 350.59,-203.18 355.24,-200.48 346.67,-202.35 346.67,-202.35"/>
<ellipse fill="none" stroke="black" cx="343.05" cy="-201.59" rx="3.2" ry="3.2"/>
</g>
<!-- 店舗一覧（Results_49） -->
<g id="node3" class="node">
<title>店舗一覧（Results_49）</title>
<g id="a_node3"><a xlink:href="../../tables/_____Results_49__da4dc4ba.html" xlink:title="店舗一覧（Results_49）" target="_top">
<polygon fill="#ffffff" stroke="none" points="8,-116 8,-402 306,-402 306,-116 8,-116"/>
<polygon fill="#f5f5f5" stroke="none" points="10,-378 10,-400 304,-400 304,-378 10,-378"/>
<polygon fill="none" stroke="black" points="10,-378 10,-400 304,-400 304,-378 10,-378"/>
<text text-anchor="start" x="11" y="-387.2" font-family="IPAGothic" font-weight="bold" font-size="11.00">店舗一覧（Results_49）</text>
<text text-anchor="start" x="266" y="-386.2" font-family="IPAGothic" font-size="11.00">[table]</text>
<polygon fill="none" stroke="black" points="10,-356 10,-378 186,-378 186,-356 10,-356"/>
<image xlink:href="../../images/primaryKeys.png" width="11px" height="12px" preserveAspectRatio="xMinYMin meet" x="15" y="-373"/>
<text text-anchor="start" x="30" y="-364.2" font-family="IPAGothic" font-size="11.00">ID（ResultId）</text>
<polygon fill="none" stroke="black" points="186,-356 186,-378 304,-378 304,-356 186,-356"/>
<text text-anchor="start" x="189" y="-364.2" font-family="IPAGothic" font-size="11.00">int[4]</text>
<polygon fill="none" stroke="black" points="10,-334 10,-356 186,-356 186,-334 10,-334"/>
<text text-anchor="start" x="30" y="-342.2" font-family="IPAGothic" font-size="11.00">バージョン（Ver）</text>
<polygon fill="none" stroke="black" points="186,-334 186,-356 304,-356 304,-334 186,-334"/>
<text text-anchor="start" x="189" y="-342.2" font-family="IPAGothic" font-size="11.00">int[4]</text>
<polygon fill="none" stroke="black" points="10,-312 10,-334 186,-334 186,-312 10,-312"/>
<text text-anchor="start" x="30" y="-320.2" font-family="IPAGothic" font-size="11.00">店舗名（Title）</text>
<polygon fill="none" stroke="black" points="186,-312 186,-334 304,-334 304,-312 186,-312"/>
<text text-anchor="start" x="189" y="-320.2" font-family="IPAGothic" font-size="11.00">nvarchar[2048]</text>
<polygon fill="none" stroke="black" points="10,-290 10,-312 186,-312 186,-290 10,-290"/>
<text text-anchor="start" x="30" y="-298.2" font-family="IPAGothic" font-size="11.00">郵便番号（ClassA）</text>
<polygon fill="none" stroke="black" points="186,-290 186,-312 304,-312 304,-290 186,-290"/>
<text text-anchor="start" x="189" y="-298.2" font-family="IPAGothic" font-size="11.00">nvarchar[2048]</text>
<polygon fill="none" stroke="black" points="10,-268 10,-290 186,-290 186,-268 10,-268"/>
<text text-anchor="start" x="30" y="-276.2" font-family="IPAGothic" font-size="11.00">都道府県（ClassB）</text>
<polygon fill="none" stroke="black" points="186,-268 186,-290 304,-290 304,-268 186,-268"/>
<text text-anchor="start" x="189" y="-276.2" font-family="IPAGothic" font-size="11.00">nvarchar[2048]</text>
<polygon fill="none" stroke="black" points="10,-246 10,-268 186,-268 186,-246 10,-246"/>
<text text-anchor="start" x="30" y="-254.2" font-family="IPAGothic" font-size="11.00">住所（ClassC）</text>
<polygon fill="none" stroke="black" points="186,-246 186,-268 304,-268 304,-246 186,-246"/>
<text text-anchor="start" x="189" y="-254.2" font-family="IPAGothic" font-size="11.00">nvarchar[2048]</text>
<polygon fill="none" stroke="black" points="10,-224 10,-246 186,-246 186,-224 10,-224"/>
<text text-anchor="start" x="30" y="-232.2" font-family="IPAGothic" font-size="11.00">電話番号（ClassD）</text>
<polygon fill="none" stroke="black" points="186,-224 186,-246 304,-246 304,-224 186,-224"/>
<text text-anchor="start" x="189" y="-232.2" font-family="IPAGothic" font-size="11.00">nvarchar[2048]</text>
<polygon fill="none" stroke="black" points="10,-202 10,-224 186,-224 186,-202 10,-202"/>
<text text-anchor="start" x="30" y="-210.2" font-family="IPAGothic" font-size="11.00">責任者（Manager）</text>
<polygon fill="none" stroke="black" points="186,-202 186,-224 304,-224 304,-202 186,-202"/>
<text text-anchor="start" x="189" y="-210.2" font-family="IPAGothic" font-size="11.00">int[4]</text>
<polygon fill="none" stroke="black" points="10,-180 10,-202 186,-202 186,-180 10,-180"/>
<text text-anchor="start" x="30" y="-188.2" font-family="IPAGothic" font-size="11.00">売上合計（NumA）</text>
<polygon fill="none" stroke="black" points="186,-180 186,-202 304,-202 304,-180 186,-180"/>
<text text-anchor="start" x="189" y="-188.2" font-family="IPAGothic" font-size="11.00">decimal[21,4]</text>
<polygon fill="none" stroke="black" points="10,-158 10,-180 186,-180 186,-158 10,-158"/>
<text text-anchor="start" x="30" y="-166.2" font-family="IPAGothic" font-size="11.00">添付資料（AttachmentsA）</text>
<polygon fill="none" stroke="black" points="186,-158 186,-180 304,-180 304,-158 186,-158"/>
<text text-anchor="start" x="189" y="-166.2" font-family="IPAGothic" font-size="11.00">nvarchar[2147483647]</text>
<polygon fill="none" stroke="black" points="10,-136 10,-158 186,-158 186,-136 10,-136"/>
<text text-anchor="start" x="30" y="-144.2" font-family="IPAGothic" font-size="11.00">コメント（Comments）</text>
<polygon fill="none" stroke="black" points="186,-136 186,-158 304,-158 304,-136 186,-136"/>
<text text-anchor="start" x="189" y="-144.2" font-family="IPAGothic" font-size="11.00">nvarchar[2147483647]</text>
<polygon fill="#ffffff" stroke="none" points="10,-118 10,-136 91,-136 91,-118 10,-118"/>
<polygon fill="none" stroke="black" points="10,-118 10,-136 91,-136 91,-118 10,-118"/>
<text text-anchor="start" x="13" y="-124.2" font-family="IPAGothic" font-size="11.00">&lt; 0</text>
<polygon fill="#ffffff" stroke="none" points="91,-118 91,-136 186,-136 186,-118 91,-118"/>
<polygon fill="none" stroke="black" points="91,-118 91,-136 186,-136 186,-118 91,-118"/>
<text text-anchor="start" x="150" y="-124.2" font-family="IPAGothic" font-size="11.00">0 rows</text>
<polygon fill="#ffffff" stroke="none" points="186,-118 186,-136 304,-136 304,-118 186,-118"/>
<polygon fill="none" stroke="black" points="186,-118 186,-136 304,-136 304,-118 186,-118"/>
<text text-anchor="start" x="282" y="-124.2" font-family="IPAGothic" font-size="11.00">1 &gt;</text>
<polygon fill="none" stroke="black" stroke-width="2" points="9,-117 9,-401 305,-401 305,-117 9,-117"/>
</a>
</g>
</g>
<!-- 売上管理台帳（Results_51）&#45;&gt;店舗一覧（Results_49） -->
<g id="edge2" class="edge">
<title>売上管理台帳（Results_51）:w&#45;&gt;店舗一覧（Results_49）:e</title>
<path fill="none" stroke="black" d="M339.52,-229.49C302.39,-251.2 365.19,-367 305,-367"/>
<polygon fill="black" stroke="black" points="346.71,-227.81 355.32,-229.51 350.6,-226.91 354.5,-226 354.5,-226 354.5,-226 350.6,-226.91 353.68,-222.49 346.71,-227.81 346.71,-227.81"/>
<ellipse fill="none" stroke="black" cx="343.1" cy="-228.65" rx="3.2" ry="3.2"/>
</g>
</g>
</svg>
