<?xml version="1.0" encoding="UTF-8" standalone="no"?>
<!DOCTYPE svg PUBLIC "-//W3C//DTD SVG 1.1//EN"
 "http://www.w3.org/Graphics/SVG/1.1/DTD/svg11.dtd">
<!-- Generated by graphviz version 7.0.4 (20221203.1631)
 -->
<!-- Title: oneDegreeRelationshipsDiagram Pages: 1 -->
<svg width="558pt" height="335pt"
 viewBox="0.00 0.00 558.00 335.00" xmlns="http://www.w3.org/2000/svg" xmlns:xlink="http://www.w3.org/1999/xlink">
<g id="graph0" class="graph" transform="scale(1 1) rotate(0) translate(4 331)">
<title>oneDegreeRelationshipsDiagram</title>
<polygon fill="#ffffff" stroke="none" points="-4,4 -4,-331 554,-331 554,4 -4,4"/>
<text text-anchor="middle" x="72" y="-7.2" font-family="IPAGothic" font-size="11.00">Generated by SchemaSpy</text>
<!-- 売上管理台帳（Results_51） -->
<g id="node1" class="node">
<title>売上管理台帳（Results_51）</title>
<g id="a_node1"><a xlink:href="../../tables/_______Results_51__1810fedc.html" xlink:title="売上管理台帳（Results_51）" target="_top">
<polygon fill="#ffffff" stroke="none" points="237,-37 237,-323 542,-323 542,-37 237,-37"/>
<polygon fill="#f5f5f5" stroke="none" points="239.5,-299 239.5,-321 540.5,-321 540.5,-299 239.5,-299"/>
<polygon fill="none" stroke="black" points="239.5,-299 239.5,-321 540.5,-321 540.5,-299 239.5,-299"/>
<text text-anchor="start" x="240" y="-308.2" font-family="IPAGothic" font-weight="bold" font-size="11.00">売上管理台帳（Results_51）</text>
<text text-anchor="start" x="502.5" y="-307.2" font-family="IPAGothic" font-size="11.00">[table]</text>
<polygon fill="none" stroke="black" points="239.5,-277 239.5,-299 422.5,-299 422.5,-277 239.5,-277"/>
<image xlink:href="../../images/primaryKeys.png" width="11px" height="12px" preserveAspectRatio="xMinYMin meet" x="244.5" y="-294"/>
<text text-anchor="start" x="259.5" y="-285.2" font-family="IPAGothic" font-size="11.00">ID（ResultId）</text>
<polygon fill="none" stroke="black" points="422.5,-277 422.5,-299 540.5,-299 540.5,-277 422.5,-277"/>
<text text-anchor="start" x="425.5" y="-285.2" font-family="IPAGothic" font-size="11.00">int[4]</text>
<polygon fill="none" stroke="black" points="239.5,-255 239.5,-277 422.5,-277 422.5,-255 239.5,-255"/>
<text text-anchor="start" x="259.5" y="-263.2" font-family="IPAGothic" font-size="11.00">バージョン（Ver）</text>
<polygon fill="none" stroke="black" points="422.5,-255 422.5,-277 540.5,-277 540.5,-255 422.5,-255"/>
<text text-anchor="start" x="425.5" y="-263.2" font-family="IPAGothic" font-size="11.00">int[4]</text>
<polygon fill="none" stroke="black" points="239.5,-233 239.5,-255 422.5,-255 422.5,-233 239.5,-233"/>
<text text-anchor="start" x="259.5" y="-241.2" font-family="IPAGothic" font-size="11.00">日付（DateA）</text>
<polygon fill="none" stroke="black" points="422.5,-233 422.5,-255 540.5,-255 540.5,-233 422.5,-233"/>
<text text-anchor="start" x="425.5" y="-241.2" font-family="IPAGothic" font-size="11.00">datetime[16,3]</text>
<polygon fill="none" stroke="black" points="239.5,-211 239.5,-233 422.5,-233 422.5,-211 239.5,-211"/>
<image xlink:href="../../images/foreignKeys.png" width="11px" height="12px" preserveAspectRatio="xMinYMin meet" x="244.5" y="-228"/>
<text text-anchor="start" x="259.5" y="-219.2" font-family="IPAGothic" font-size="11.00">店舗名（ClassA）</text>
<polygon fill="none" stroke="black" points="422.5,-211 422.5,-233 540.5,-233 540.5,-211 422.5,-211"/>
<text text-anchor="start" x="425.5" y="-219.2" font-family="IPAGothic" font-size="11.00">int[4]</text>
<polygon fill="none" stroke="black" points="239.5,-189 239.5,-211 422.5,-211 422.5,-189 239.5,-189"/>
<image xlink:href="../../images/foreignKeys.png" width="11px" height="12px" preserveAspectRatio="xMinYMin meet" x="244.5" y="-206"/>
<text text-anchor="start" x="259.5" y="-197.2" font-family="IPAGothic" font-size="11.00">商品名（ClassB）</text>
<polygon fill="none" stroke="black" points="422.5,-189 422.5,-211 540.5,-211 540.5,-189 422.5,-189"/>
<text text-anchor="start" x="425.5" y="-197.2" font-family="IPAGothic" font-size="11.00">int[4]</text>
<polygon fill="none" stroke="black" points="239.5,-167 239.5,-189 422.5,-189 422.5,-167 239.5,-167"/>
<text text-anchor="start" x="259.5" y="-175.2" font-family="IPAGothic" font-size="11.00">単価（NumA）</text>
<polygon fill="none" stroke="black" points="422.5,-167 422.5,-189 540.5,-189 540.5,-167 422.5,-167"/>
<text text-anchor="start" x="425.5" y="-175.2" font-family="IPAGothic" font-size="11.00">decimal[21,4]</text>
<polygon fill="none" stroke="black" points="239.5,-145 239.5,-167 422.5,-167 422.5,-145 239.5,-145"/>
<text text-anchor="start" x="259.5" y="-153.2" font-family="IPAGothic" font-size="11.00">個数（NumB）</text>
<polygon fill="none" stroke="black" points="422.5,-145 422.5,-167 540.5,-167 540.5,-145 422.5,-145"/>
<text text-anchor="start" x="425.5" y="-153.2" font-family="IPAGothic" font-size="11.00">decimal[21,4]</text>
<polygon fill="none" stroke="black" points="239.5,-123 239.5,-145 422.5,-145 422.5,-123 239.5,-123"/>
<text text-anchor="start" x="259.5" y="-131.2" font-family="IPAGothic" font-size="11.00">金額（NumC）</text>
<polygon fill="none" stroke="black" points="422.5,-123 422.5,-145 540.5,-145 540.5,-123 422.5,-123"/>
<text text-anchor="start" x="425.5" y="-131.2" font-family="IPAGothic" font-size="11.00">decimal[21,4]</text>
<polygon fill="none" stroke="black" points="239.5,-101 239.5,-123 422.5,-123 422.5,-101 239.5,-101"/>
<text text-anchor="start" x="259.5" y="-109.2" font-family="IPAGothic" font-size="11.00">担当者（Owner）</text>
<polygon fill="none" stroke="black" points="422.5,-101 422.5,-123 540.5,-123 540.5,-101 422.5,-101"/>
<text text-anchor="start" x="425.5" y="-109.2" font-family="IPAGothic" font-size="11.00">int[4]</text>
<polygon fill="none" stroke="black" points="239.5,-79 239.5,-101 422.5,-101 422.5,-79 239.5,-79"/>
<text text-anchor="start" x="259.5" y="-87.2" font-family="IPAGothic" font-size="11.00">添付資料（AttachmentsA）</text>
<polygon fill="none" stroke="black" points="422.5,-79 422.5,-101 540.5,-101 540.5,-79 422.5,-79"/>
<text text-anchor="start" x="425.5" y="-87.2" font-family="IPAGothic" font-size="11.00">nvarchar[2147483647]</text>
<polygon fill="none" stroke="black" points="239.5,-57 239.5,-79 422.5,-79 422.5,-57 239.5,-57"/>
<text text-anchor="start" x="259.5" y="-65.2" font-family="IPAGothic" font-size="11.00">コメント（Comments）</text>
<polygon fill="none" stroke="black" points="422.5,-57 422.5,-79 540.5,-79 540.5,-57 422.5,-57"/>
<text text-anchor="start" x="425.5" y="-65.2" font-family="IPAGothic" font-size="11.00">nvarchar[2147483647]</text>
<polygon fill="#ffffff" stroke="none" points="239.5,-39 239.5,-57 323.5,-57 323.5,-39 239.5,-39"/>
<polygon fill="none" stroke="black" points="239.5,-39 239.5,-57 323.5,-57 323.5,-39 239.5,-39"/>
<text text-anchor="start" x="242.5" y="-45.2" font-family="IPAGothic" font-size="11.00">&lt; 2</text>
<polygon fill="#ffffff" stroke="none" points="323.5,-39 323.5,-57 422.5,-57 422.5,-39 323.5,-39"/>
<polygon fill="none" stroke="black" points="323.5,-39 323.5,-57 422.5,-57 422.5,-39 323.5,-39"/>
<text text-anchor="start" x="386.5" y="-45.2" font-family="IPAGothic" font-size="11.00">0 rows</text>
<polygon fill="#ffffff" stroke="none" points="422.5,-39 422.5,-57 540.5,-57 540.5,-39 422.5,-39"/>
<polygon fill="none" stroke="black" points="422.5,-39 422.5,-57 540.5,-57 540.5,-39 422.5,-39"/>
<text text-anchor="start" x="518.5" y="-45.2" font-family="IPAGothic" font-size="11.00">0 &gt;</text>
<polygon fill="none" stroke="black" stroke-width="2" points="238,-38 238,-322 541,-322 541,-38 238,-38"/>
</a>
</g>
</g>
<!-- 商品一覧（Results_50） -->
<g id="node2" class="node">
<title>商品一覧（Results_50）</title>
<g id="a_node2"><a xlink:href="../../tables/_____Results_50__98f69dff.html" xlink:title="商品一覧（Results_50）" target="_top">
<polygon fill="#ffffff" stroke="none" points="8,-114 8,-194 188,-194 188,-114 8,-114"/>
<polygon fill="#f5f5f5" stroke="none" points="8,-172 8,-194 188,-194 188,-172 8,-172"/>
<polygon fill="none" stroke="black" points="8,-172 8,-194 188,-194 188,-172 8,-172"/>
<text text-anchor="start" x="9" y="-181.2" font-family="IPAGothic" font-weight="bold" font-size="11.00">商品一覧（Results_50）</text>
<text text-anchor="start" x="150" y="-180.2" font-family="IPAGothic" font-size="11.00">[table]</text>
<polygon fill="none" stroke="black" points="8,-150 8,-172 188,-172 188,-150 8,-150"/>
<image xlink:href="../../images/primaryKeys.png" width="11px" height="12px" preserveAspectRatio="xMinYMin meet" x="13" y="-167"/>
<text text-anchor="start" x="30" y="-158.2" font-family="IPAGothic" font-size="11.00">ID（ResultId）</text>
<polygon fill="none" stroke="black" points="8,-132 8,-150 188,-150 188,-132 8,-132"/>
<text text-anchor="start" x="11" y="-138.2" font-family="IPAGothic" font-size="11.00">...</text>
<polygon fill="#ffffff" stroke="none" points="8,-114 8,-132 73,-132 73,-114 8,-114"/>
<polygon fill="none" stroke="black" points="8,-114 8,-132 73,-132 73,-114 8,-114"/>
<text text-anchor="start" x="11" y="-120.2" font-family="IPAGothic" font-size="11.00"> &#160;</text>
<polygon fill="#ffffff" stroke="none" points="73,-114 73,-132 137,-132 137,-114 73,-114"/>
<polygon fill="none" stroke="black" points="73,-114 73,-132 137,-132 137,-114 73,-114"/>
<text text-anchor="start" x="101" y="-120.2" font-family="IPAGothic" font-size="11.00">0 rows</text>
<polygon fill="#ffffff" stroke="none" points="137,-114 137,-132 188,-132 188,-114 137,-114"/>
<polygon fill="none" stroke="black" points="137,-114 137,-132 188,-132 188,-114 137,-114"/>
<text text-anchor="start" x="166" y="-120.2" font-family="IPAGothic" font-size="11.00">1 &gt;</text>
</a>
</g>
</g>
<!-- 売上管理台帳（Results_51）&#45;&gt;商品一覧（Results_50） -->
<g id="edge1" class="edge">
<title>売上管理台帳（Results_51）:w&#45;&gt;商品一覧（Results_50）:e</title>
<path fill="none" stroke="black" d="M223.98,-194.9C211.67,-184.33 210.66,-161 189,-161"/>
<polygon fill="black" stroke="black" points="230.95,-197.35 237.31,-203.4 234.73,-198.68 238.5,-200 238.5,-200 238.5,-200 234.73,-198.68 239.69,-196.6 230.95,-197.35 230.95,-197.35"/>
<ellipse fill="none" stroke="black" cx="227.46" cy="-196.12" rx="3.2" ry="3.2"/>
</g>
<!-- 店舗一覧（Results_49） -->
<g id="node3" class="node">
<title>店舗一覧（Results_49）</title>
<g id="a_node3"><a xlink:href="../../tables/_____Results_49__da4dc4ba.html" xlink:title="店舗一覧（Results_49）" target="_top">
<polygon fill="#ffffff" stroke="none" points="8,-215 8,-295 188,-295 188,-215 8,-215"/>
<polygon fill="#f5f5f5" stroke="none" points="8,-273 8,-295 188,-295 188,-273 8,-273"/>
<polygon fill="none" stroke="black" points="8,-273 8,-295 188,-295 188,-273 8,-273"/>
<text text-anchor="start" x="9" y="-282.2" font-family="IPAGothic" font-weight="bold" font-size="11.00">店舗一覧（Results_49）</text>
<text text-anchor="start" x="150" y="-281.2" font-family="IPAGothic" font-size="11.00">[table]</text>
<polygon fill="none" stroke="black" points="8,-251 8,-273 188,-273 188,-251 8,-251"/>
<image xlink:href="../../images/primaryKeys.png" width="11px" height="12px" preserveAspectRatio="xMinYMin meet" x="13" y="-268"/>
<text text-anchor="start" x="30" y="-259.2" font-family="IPAGothic" font-size="11.00">ID（ResultId）</text>
<polygon fill="none" stroke="black" points="8,-233 8,-251 188,-251 188,-233 8,-233"/>
<text text-anchor="start" x="11" y="-239.2" font-family="IPAGothic" font-size="11.00">...</text>
<polygon fill="#ffffff" stroke="none" points="8,-215 8,-233 73,-233 73,-215 8,-215"/>
<polygon fill="none" stroke="black" points="8,-215 8,-233 73,-233 73,-215 8,-215"/>
<text text-anchor="start" x="11" y="-221.2" font-family="IPAGothic" font-size="11.00"> &#160;</text>
<polygon fill="#ffffff" stroke="none" points="73,-215 73,-233 137,-233 137,-215 73,-215"/>
<polygon fill="none" stroke="black" points="73,-215 73,-233 137,-233 137,-215 73,-215"/>
<text text-anchor="start" x="101" y="-221.2" font-family="IPAGothic" font-size="11.00">0 rows</text>
<polygon fill="#ffffff" stroke="none" points="137,-215 137,-233 188,-233 188,-215 137,-215"/>
<polygon fill="none" stroke="black" points="137,-215 137,-233 188,-233 188,-215 137,-215"/>
<text text-anchor="start" x="166" y="-221.2" font-family="IPAGothic" font-size="11.00">1 &gt;</text>
</a>
</g>
</g>
<!-- 売上管理台帳（Results_51）&#45;&gt;店舗一覧（Results_49） -->
<g id="edge2" class="edge">
<title>売上管理台帳（Results_51）:w&#45;&gt;店舗一覧（Results_49）:e</title>
<path fill="none" stroke="black" d="M224.27,-226.9C211.62,-237.59 211.1,-262 189,-262"/>
<polygon fill="black" stroke="black" points="230.94,-224.61 239.67,-225.4 234.72,-223.3 238.5,-222 238.5,-222 238.5,-222 234.72,-223.3 237.33,-218.6 230.94,-224.61 230.94,-224.61"/>
<ellipse fill="none" stroke="black" cx="227.44" cy="-225.81" rx="3.2" ry="3.2"/>
</g>
</g>
</svg>
