<?xml version="1.0" encoding="UTF-8" standalone="no"?>
<!DOCTYPE svg PUBLIC "-//W3C//DTD SVG 1.1//EN"
 "http://www.w3.org/Graphics/SVG/1.1/DTD/svg11.dtd">
<!-- Generated by graphviz version 7.0.4 (20221203.1631)
 -->
<!-- Title: twoDegreesRelationshipsDiagram Pages: 1 -->
<svg width="563pt" height="392pt"
 viewBox="0.00 0.00 563.00 392.00" xmlns="http://www.w3.org/2000/svg" xmlns:xlink="http://www.w3.org/1999/xlink">
<g id="graph0" class="graph" transform="scale(1 1) rotate(0) translate(4 388)">
<title>twoDegreesRelationshipsDiagram</title>
<polygon fill="#ffffff" stroke="none" points="-4,4 -4,-388 559,-388 559,4 -4,4"/>
<text text-anchor="middle" x="72" y="-7.2" font-family="IPAGothic" font-size="11.00">Generated by SchemaSpy</text>
<!-- 利用台帳（Results_14） -->
<g id="node1" class="node">
<title>利用台帳（Results_14）</title>
<g id="a_node1"><a xlink:href="../../tables/_____Results_14__e9cd32f7.html" xlink:title="利用台帳（Results_14）" target="_top">
<polygon fill="#ffffff" stroke="none" points="249,-116 249,-380 547,-380 547,-116 249,-116"/>
<polygon fill="#f5f5f5" stroke="none" points="251,-356 251,-378 545,-378 545,-356 251,-356"/>
<polygon fill="none" stroke="black" points="251,-356 251,-378 545,-378 545,-356 251,-356"/>
<text text-anchor="start" x="252" y="-365.2" font-family="IPAGothic" font-weight="bold" font-size="11.00">利用台帳（Results_14）</text>
<text text-anchor="start" x="507" y="-364.2" font-family="IPAGothic" font-size="11.00">[table]</text>
<polygon fill="none" stroke="black" points="251,-334 251,-356 427,-356 427,-334 251,-334"/>
<image xlink:href="../../images/primaryKeys.png" width="11px" height="12px" preserveAspectRatio="xMinYMin meet" x="256" y="-351"/>
<text text-anchor="start" x="271" y="-342.2" font-family="IPAGothic" font-size="11.00">ID（ResultId）</text>
<polygon fill="none" stroke="black" points="427,-334 427,-356 545,-356 545,-334 427,-334"/>
<text text-anchor="start" x="430" y="-342.2" font-family="IPAGothic" font-size="11.00">int[4]</text>
<polygon fill="none" stroke="black" points="251,-312 251,-334 427,-334 427,-312 251,-312"/>
<text text-anchor="start" x="271" y="-320.2" font-family="IPAGothic" font-size="11.00">バージョン（Ver）</text>
<polygon fill="none" stroke="black" points="427,-312 427,-334 545,-334 545,-312 427,-312"/>
<text text-anchor="start" x="430" y="-320.2" font-family="IPAGothic" font-size="11.00">int[4]</text>
<polygon fill="none" stroke="black" points="251,-290 251,-312 427,-312 427,-290 251,-290"/>
<image xlink:href="../../images/foreignKeys.png" width="11px" height="12px" preserveAspectRatio="xMinYMin meet" x="256" y="-307"/>
<text text-anchor="start" x="271" y="-298.2" font-family="IPAGothic" font-size="11.00">商品分類（ClassA）</text>
<polygon fill="none" stroke="black" points="427,-290 427,-312 545,-312 545,-290 427,-290"/>
<text text-anchor="start" x="430" y="-298.2" font-family="IPAGothic" font-size="11.00">int[4]</text>
<polygon fill="none" stroke="black" points="251,-268 251,-290 427,-290 427,-268 251,-268"/>
<text text-anchor="start" x="271" y="-276.2" font-family="IPAGothic" font-size="11.00">利用日（DateA）</text>
<polygon fill="none" stroke="black" points="427,-268 427,-290 545,-290 545,-268 427,-268"/>
<text text-anchor="start" x="430" y="-276.2" font-family="IPAGothic" font-size="11.00">datetime[16,3]</text>
<polygon fill="none" stroke="black" points="251,-246 251,-268 427,-268 427,-246 251,-246"/>
<text text-anchor="start" x="271" y="-254.2" font-family="IPAGothic" font-size="11.00">所属（ClassB）</text>
<polygon fill="none" stroke="black" points="427,-246 427,-268 545,-268 545,-246 427,-246"/>
<text text-anchor="start" x="430" y="-254.2" font-family="IPAGothic" font-size="11.00">nvarchar[2048]</text>
<polygon fill="none" stroke="black" points="251,-224 251,-246 427,-246 427,-224 251,-224"/>
<text text-anchor="start" x="271" y="-232.2" font-family="IPAGothic" font-size="11.00">個数（NumA）</text>
<polygon fill="none" stroke="black" points="427,-224 427,-246 545,-246 545,-224 427,-224"/>
<text text-anchor="start" x="430" y="-232.2" font-family="IPAGothic" font-size="11.00">decimal[21,4]</text>
<polygon fill="none" stroke="black" points="251,-202 251,-224 427,-224 427,-202 251,-202"/>
<text text-anchor="start" x="271" y="-210.2" font-family="IPAGothic" font-size="11.00">利用者（Owner）</text>
<polygon fill="none" stroke="black" points="427,-202 427,-224 545,-224 545,-202 427,-202"/>
<text text-anchor="start" x="430" y="-210.2" font-family="IPAGothic" font-size="11.00">int[4]</text>
<polygon fill="none" stroke="black" points="251,-180 251,-202 427,-202 427,-180 251,-180"/>
<text text-anchor="start" x="271" y="-188.2" font-family="IPAGothic" font-size="11.00">備考（Body）</text>
<polygon fill="none" stroke="black" points="427,-180 427,-202 545,-202 545,-180 427,-180"/>
<text text-anchor="start" x="430" y="-188.2" font-family="IPAGothic" font-size="11.00">nvarchar[2147483647]</text>
<polygon fill="none" stroke="black" points="251,-158 251,-180 427,-180 427,-158 251,-158"/>
<text text-anchor="start" x="271" y="-166.2" font-family="IPAGothic" font-size="11.00">添付資料（AttachmentsA）</text>
<polygon fill="none" stroke="black" points="427,-158 427,-180 545,-180 545,-158 427,-158"/>
<text text-anchor="start" x="430" y="-166.2" font-family="IPAGothic" font-size="11.00">nvarchar[2147483647]</text>
<polygon fill="none" stroke="black" points="251,-136 251,-158 427,-158 427,-136 251,-136"/>
<text text-anchor="start" x="271" y="-144.2" font-family="IPAGothic" font-size="11.00">コメント（Comments）</text>
<polygon fill="none" stroke="black" points="427,-136 427,-158 545,-158 545,-136 427,-136"/>
<text text-anchor="start" x="430" y="-144.2" font-family="IPAGothic" font-size="11.00">nvarchar[2147483647]</text>
<polygon fill="#ffffff" stroke="none" points="251,-118 251,-136 332,-136 332,-118 251,-118"/>
<polygon fill="none" stroke="black" points="251,-118 251,-136 332,-136 332,-118 251,-118"/>
<text text-anchor="start" x="254" y="-124.2" font-family="IPAGothic" font-size="11.00">&lt; 1</text>
<polygon fill="#ffffff" stroke="none" points="332,-118 332,-136 427,-136 427,-118 332,-118"/>
<polygon fill="none" stroke="black" points="332,-118 332,-136 427,-136 427,-118 332,-118"/>
<text text-anchor="start" x="391" y="-124.2" font-family="IPAGothic" font-size="11.00">0 rows</text>
<polygon fill="#ffffff" stroke="none" points="427,-118 427,-136 545,-136 545,-118 427,-118"/>
<polygon fill="none" stroke="black" points="427,-118 427,-136 545,-136 545,-118 427,-118"/>
<text text-anchor="start" x="523" y="-124.2" font-family="IPAGothic" font-size="11.00">0 &gt;</text>
<polygon fill="none" stroke="black" stroke-width="2" points="250,-117 250,-379 546,-379 546,-117 250,-117"/>
</a>
</g>
</g>
<!-- 消耗品管理（Results_12） -->
<g id="node2" class="node">
<title>消耗品管理（Results_12）</title>
<g id="a_node2"><a xlink:href="../../tables/______Results_12__2634b9ae.html" xlink:title="消耗品管理（Results_12）" target="_top">
<polygon fill="#ffffff" stroke="none" points="8,-135 8,-215 200,-215 200,-135 8,-135"/>
<polygon fill="#f5f5f5" stroke="none" points="8,-193 8,-215 200,-215 200,-193 8,-193"/>
<polygon fill="none" stroke="black" points="8,-193 8,-215 200,-215 200,-193 8,-193"/>
<text text-anchor="start" x="8.5" y="-202.2" font-family="IPAGothic" font-weight="bold" font-size="11.00">消耗品管理（Results_12）</text>
<text text-anchor="start" x="162" y="-201.2" font-family="IPAGothic" font-size="11.00">[table]</text>
<polygon fill="none" stroke="black" points="8,-171 8,-193 200,-193 200,-171 8,-171"/>
<image xlink:href="../../images/primaryKeys.png" width="11px" height="12px" preserveAspectRatio="xMinYMin meet" x="13" y="-188"/>
<text text-anchor="start" x="36" y="-179.2" font-family="IPAGothic" font-size="11.00">ID（ResultId）</text>
<polygon fill="none" stroke="black" points="8,-153 8,-171 200,-171 200,-153 8,-153"/>
<text text-anchor="start" x="11" y="-159.2" font-family="IPAGothic" font-size="11.00">...</text>
<polygon fill="#ffffff" stroke="none" points="8,-135 8,-153 79,-153 79,-135 8,-135"/>
<polygon fill="none" stroke="black" points="8,-135 8,-153 79,-153 79,-135 8,-135"/>
<text text-anchor="start" x="11" y="-141.2" font-family="IPAGothic" font-size="11.00"> &#160;</text>
<polygon fill="#ffffff" stroke="none" points="79,-135 79,-153 146,-153 146,-135 79,-135"/>
<polygon fill="none" stroke="black" points="79,-135 79,-153 146,-153 146,-135 79,-135"/>
<text text-anchor="start" x="110" y="-141.2" font-family="IPAGothic" font-size="11.00">0 rows</text>
<polygon fill="#ffffff" stroke="none" points="146,-135 146,-153 200,-153 200,-135 146,-135"/>
<polygon fill="none" stroke="black" points="146,-135 146,-153 200,-153 200,-135 146,-135"/>
<text text-anchor="start" x="178" y="-141.2" font-family="IPAGothic" font-size="11.00">2 &gt;</text>
</a>
</g>
</g>
<!-- 利用台帳（Results_14）&#45;&gt;消耗品管理（Results_12） -->
<g id="edge1" class="edge">
<title>利用台帳（Results_14）:w&#45;&gt;消耗品管理（Results_12）:e</title>
<path fill="none" stroke="black" d="M235.31,-297.04C205.64,-276.39 251.94,-182 201,-182"/>
<polygon fill="black" stroke="black" points="242.28,-298.92 249.06,-304.48 246.14,-299.96 250,-301 250,-301 250,-301 246.14,-299.96 250.94,-297.52 242.28,-298.92 242.28,-298.92"/>
<ellipse fill="none" stroke="black" cx="238.7" cy="-297.95" rx="3.2" ry="3.2"/>
</g>
<!-- 購入台帳（Results_13） -->
<g id="node3" class="node">
<title>購入台帳（Results_13）</title>
<g id="a_node3"><a xlink:href="../../tables/_____Results_13__6fa2c522.html" xlink:title="購入台帳（Results_13）" target="_top">
<polygon fill="#ffffff" stroke="none" points="308,-37 308,-95 488,-95 488,-37 308,-37"/>
<polygon fill="#f5f5f5" stroke="none" points="308,-73 308,-95 488,-95 488,-73 308,-73"/>
<polygon fill="none" stroke="black" points="308,-73 308,-95 488,-95 488,-73 308,-73"/>
<text text-anchor="start" x="309" y="-82.2" font-family="IPAGothic" font-weight="bold" font-size="11.00">購入台帳（Results_13）</text>
<text text-anchor="start" x="450" y="-81.2" font-family="IPAGothic" font-size="11.00">[table]</text>
<polygon fill="none" stroke="black" points="308,-55 308,-73 488,-73 488,-55 308,-55"/>
<text text-anchor="start" x="311" y="-61.2" font-family="IPAGothic" font-size="11.00">...</text>
<polygon fill="#ffffff" stroke="none" points="308,-37 308,-55 384,-55 384,-37 308,-37"/>
<polygon fill="none" stroke="black" points="308,-37 308,-55 384,-55 384,-37 308,-37"/>
<text text-anchor="start" x="311" y="-43.2" font-family="IPAGothic" font-size="11.00">&lt; 1</text>
<polygon fill="#ffffff" stroke="none" points="384,-37 384,-55 448,-55 448,-37 384,-37"/>
<polygon fill="none" stroke="black" points="384,-37 384,-55 448,-55 448,-37 384,-37"/>
<text text-anchor="start" x="412" y="-43.2" font-family="IPAGothic" font-size="11.00">0 rows</text>
<polygon fill="#ffffff" stroke="none" points="448,-37 448,-55 488,-55 488,-37 448,-37"/>
<polygon fill="none" stroke="black" points="448,-37 448,-55 488,-55 488,-37 448,-37"/>
<text text-anchor="start" x="477" y="-43.2" font-family="IPAGothic" font-size="11.00"> &#160;</text>
</a>
</g>
</g>
<!-- 購入台帳（Results_13）&#45;&gt;消耗品管理（Results_12） -->
<g id="edge2" class="edge">
<title>購入台帳（Results_13）:w&#45;&gt;消耗品管理（Results_12）:e</title>
<path fill="none" stroke="black" d="M291.89,-65.29C269.28,-69.64 260.69,-84.62 241,-106 215.14,-134.08 239.17,-182 201,-182"/>
<polygon fill="black" stroke="black" points="299.03,-64.68 307.31,-67.59 303.01,-64.34 307,-64 307,-64 307,-64 303.01,-64.34 306.69,-60.41 299.03,-64.68 299.03,-64.68"/>
<ellipse fill="none" stroke="black" cx="295.34" cy="-65" rx="3.2" ry="3.2"/>
</g>
</g>
</svg>
