<?xml version="1.0" encoding="UTF-8" standalone="no"?>
<!DOCTYPE svg PUBLIC "-//W3C//DTD SVG 1.1//EN"
 "http://www.w3.org/Graphics/SVG/1.1/DTD/svg11.dtd">
<!-- Generated by graphviz version 7.0.4 (20221203.1631)
 -->
<!-- Title: oneDegreeRelationshipsDiagram Pages: 1 -->
<svg width="563pt" height="355pt"
 viewBox="0.00 0.00 563.00 355.00" xmlns="http://www.w3.org/2000/svg" xmlns:xlink="http://www.w3.org/1999/xlink">
<g id="graph0" class="graph" transform="scale(1 1) rotate(0) translate(4 351)">
<title>oneDegreeRelationshipsDiagram</title>
<polygon fill="#ffffff" stroke="none" points="-4,4 -4,-351 559,-351 559,4 -4,4"/>
<text text-anchor="middle" x="72" y="-7.2" font-family="IPAGothic" font-size="11.00">Generated by SchemaSpy</text>
<!-- 故障管理表（Results_21） -->
<g id="node1" class="node">
<title>故障管理表（Results_21）</title>
<g id="a_node1"><a xlink:href="../../tables/______Results_21__5f49cde5.html" xlink:title="故障管理表（Results_21）" target="_top">
<polygon fill="#ffffff" stroke="none" points="355,-241 355,-343 547,-343 547,-241 355,-241"/>
<polygon fill="#f5f5f5" stroke="none" points="355,-321 355,-343 547,-343 547,-321 355,-321"/>
<polygon fill="none" stroke="black" points="355,-321 355,-343 547,-343 547,-321 355,-321"/>
<text text-anchor="start" x="355.5" y="-330.2" font-family="IPAGothic" font-weight="bold" font-size="11.00">故障管理表（Results_21）</text>
<text text-anchor="start" x="509" y="-329.2" font-family="IPAGothic" font-size="11.00">[table]</text>
<polygon fill="none" stroke="black" points="355,-299 355,-321 547,-321 547,-299 355,-299"/>
<image xlink:href="../../images/primaryKeys.png" width="11px" height="12px" preserveAspectRatio="xMinYMin meet" x="360" y="-316"/>
<text text-anchor="start" x="383" y="-307.2" font-family="IPAGothic" font-size="11.00">ID（ResultId）</text>
<polygon fill="none" stroke="black" points="355,-277 355,-299 547,-299 547,-277 355,-277"/>
<image xlink:href="../../images/foreignKeys.png" width="11px" height="12px" preserveAspectRatio="xMinYMin meet" x="360" y="-294"/>
<text text-anchor="start" x="383" y="-285.2" font-family="IPAGothic" font-size="11.00">設備名（ClassA）</text>
<polygon fill="none" stroke="black" points="355,-259 355,-277 547,-277 547,-259 355,-259"/>
<text text-anchor="start" x="358" y="-265.2" font-family="IPAGothic" font-size="11.00">...</text>
<polygon fill="#ffffff" stroke="none" points="355,-241 355,-259 437,-259 437,-241 355,-241"/>
<polygon fill="none" stroke="black" points="355,-241 355,-259 437,-259 437,-241 355,-241"/>
<text text-anchor="start" x="358" y="-247.2" font-family="IPAGothic" font-size="11.00">&lt; 1</text>
<polygon fill="#ffffff" stroke="none" points="437,-241 437,-259 504,-259 504,-241 437,-241"/>
<polygon fill="none" stroke="black" points="437,-241 437,-259 504,-259 504,-241 437,-241"/>
<text text-anchor="start" x="468" y="-247.2" font-family="IPAGothic" font-size="11.00">0 rows</text>
<polygon fill="#ffffff" stroke="none" points="504,-241 504,-259 547,-259 547,-241 504,-241"/>
<polygon fill="none" stroke="black" points="504,-241 504,-259 547,-259 547,-241 504,-241"/>
<text text-anchor="start" x="536" y="-247.2" font-family="IPAGothic" font-size="11.00"> &#160;</text>
</a>
</g>
</g>
<!-- 設備一覧（Results_20） -->
<g id="node2" class="node">
<title>設備一覧（Results_20）</title>
<g id="a_node2"><a xlink:href="../../tables/_____Results_20__4cb574cd.html" xlink:title="設備一覧（Results_20）" target="_top">
<polygon fill="#ffffff" stroke="none" points="8,-37 8,-323 306,-323 306,-37 8,-37"/>
<polygon fill="#f5f5f5" stroke="none" points="10,-299 10,-321 304,-321 304,-299 10,-299"/>
<polygon fill="none" stroke="black" points="10,-299 10,-321 304,-321 304,-299 10,-299"/>
<text text-anchor="start" x="11" y="-308.2" font-family="IPAGothic" font-weight="bold" font-size="11.00">設備一覧（Results_20）</text>
<text text-anchor="start" x="266" y="-307.2" font-family="IPAGothic" font-size="11.00">[table]</text>
<polygon fill="none" stroke="black" points="10,-277 10,-299 186,-299 186,-277 10,-277"/>
<image xlink:href="../../images/primaryKeys.png" width="11px" height="12px" preserveAspectRatio="xMinYMin meet" x="15" y="-294"/>
<text text-anchor="start" x="30" y="-285.2" font-family="IPAGothic" font-size="11.00">ID（ResultId）</text>
<polygon fill="none" stroke="black" points="186,-277 186,-299 304,-299 304,-277 186,-277"/>
<text text-anchor="start" x="189" y="-285.2" font-family="IPAGothic" font-size="11.00">int[4]</text>
<polygon fill="none" stroke="black" points="10,-255 10,-277 186,-277 186,-255 10,-255"/>
<text text-anchor="start" x="30" y="-263.2" font-family="IPAGothic" font-size="11.00">バージョン（Ver）</text>
<polygon fill="none" stroke="black" points="186,-255 186,-277 304,-277 304,-255 186,-255"/>
<text text-anchor="start" x="189" y="-263.2" font-family="IPAGothic" font-size="11.00">int[4]</text>
<polygon fill="none" stroke="black" points="10,-233 10,-255 186,-255 186,-233 10,-233"/>
<text text-anchor="start" x="30" y="-241.2" font-family="IPAGothic" font-size="11.00">種別（ClassC）</text>
<polygon fill="none" stroke="black" points="186,-233 186,-255 304,-255 304,-233 186,-233"/>
<text text-anchor="start" x="189" y="-241.2" font-family="IPAGothic" font-size="11.00">nvarchar[2048]</text>
<polygon fill="none" stroke="black" points="10,-211 10,-233 186,-233 186,-211 10,-211"/>
<text text-anchor="start" x="30" y="-219.2" font-family="IPAGothic" font-size="11.00">設備名（Title）</text>
<polygon fill="none" stroke="black" points="186,-211 186,-233 304,-233 304,-211 186,-211"/>
<text text-anchor="start" x="189" y="-219.2" font-family="IPAGothic" font-size="11.00">nvarchar[2048]</text>
<polygon fill="none" stroke="black" points="10,-189 10,-211 186,-211 186,-189 10,-189"/>
<text text-anchor="start" x="30" y="-197.2" font-family="IPAGothic" font-size="11.00">所属（ClassA）</text>
<polygon fill="none" stroke="black" points="186,-189 186,-211 304,-211 304,-189 186,-189"/>
<text text-anchor="start" x="189" y="-197.2" font-family="IPAGothic" font-size="11.00">nvarchar[2048]</text>
<polygon fill="none" stroke="black" points="10,-167 10,-189 186,-189 186,-167 10,-167"/>
<text text-anchor="start" x="30" y="-175.2" font-family="IPAGothic" font-size="11.00">設備管理者（Manager）</text>
<polygon fill="none" stroke="black" points="186,-167 186,-189 304,-189 304,-167 186,-167"/>
<text text-anchor="start" x="189" y="-175.2" font-family="IPAGothic" font-size="11.00">int[4]</text>
<polygon fill="none" stroke="black" points="10,-145 10,-167 186,-167 186,-145 10,-145"/>
<text text-anchor="start" x="30" y="-153.2" font-family="IPAGothic" font-size="11.00">連絡先（ClassB）</text>
<polygon fill="none" stroke="black" points="186,-145 186,-167 304,-167 304,-145 186,-145"/>
<text text-anchor="start" x="189" y="-153.2" font-family="IPAGothic" font-size="11.00">nvarchar[2048]</text>
<polygon fill="none" stroke="black" points="10,-123 10,-145 186,-145 186,-123 10,-123"/>
<text text-anchor="start" x="30" y="-131.2" font-family="IPAGothic" font-size="11.00">故障回数（NumA）</text>
<polygon fill="none" stroke="black" points="186,-123 186,-145 304,-145 304,-123 186,-123"/>
<text text-anchor="start" x="189" y="-131.2" font-family="IPAGothic" font-size="11.00">decimal[21,4]</text>
<polygon fill="none" stroke="black" points="10,-101 10,-123 186,-123 186,-101 10,-101"/>
<text text-anchor="start" x="30" y="-109.2" font-family="IPAGothic" font-size="11.00">備考（Body）</text>
<polygon fill="none" stroke="black" points="186,-101 186,-123 304,-123 304,-101 186,-101"/>
<text text-anchor="start" x="189" y="-109.2" font-family="IPAGothic" font-size="11.00">nvarchar[2147483647]</text>
<polygon fill="none" stroke="black" points="10,-79 10,-101 186,-101 186,-79 10,-79"/>
<text text-anchor="start" x="30" y="-87.2" font-family="IPAGothic" font-size="11.00">添付資料（AttachmentsA）</text>
<polygon fill="none" stroke="black" points="186,-79 186,-101 304,-101 304,-79 186,-79"/>
<text text-anchor="start" x="189" y="-87.2" font-family="IPAGothic" font-size="11.00">nvarchar[2147483647]</text>
<polygon fill="none" stroke="black" points="10,-57 10,-79 186,-79 186,-57 10,-57"/>
<text text-anchor="start" x="30" y="-65.2" font-family="IPAGothic" font-size="11.00">コメント（Comments）</text>
<polygon fill="none" stroke="black" points="186,-57 186,-79 304,-79 304,-57 186,-57"/>
<text text-anchor="start" x="189" y="-65.2" font-family="IPAGothic" font-size="11.00">nvarchar[2147483647]</text>
<polygon fill="#ffffff" stroke="none" points="10,-39 10,-57 91,-57 91,-39 10,-39"/>
<polygon fill="none" stroke="black" points="10,-39 10,-57 91,-57 91,-39 10,-39"/>
<text text-anchor="start" x="13" y="-45.2" font-family="IPAGothic" font-size="11.00">&lt; 0</text>
<polygon fill="#ffffff" stroke="none" points="91,-39 91,-57 186,-57 186,-39 91,-39"/>
<polygon fill="none" stroke="black" points="91,-39 91,-57 186,-57 186,-39 91,-39"/>
<text text-anchor="start" x="150" y="-45.2" font-family="IPAGothic" font-size="11.00">0 rows</text>
<polygon fill="#ffffff" stroke="none" points="186,-39 186,-57 304,-57 304,-39 186,-39"/>
<polygon fill="none" stroke="black" points="186,-39 186,-57 304,-57 304,-39 186,-39"/>
<text text-anchor="start" x="282" y="-45.2" font-family="IPAGothic" font-size="11.00">1 &gt;</text>
<polygon fill="none" stroke="black" stroke-width="2" points="9,-38 9,-322 305,-322 305,-38 9,-38"/>
</a>
</g>
</g>
<!-- 故障管理表（Results_21）&#45;&gt;設備一覧（Results_20） -->
<g id="edge1" class="edge">
<title>故障管理表（Results_21）:w&#45;&gt;設備一覧（Results_20）:e</title>
<path fill="none" stroke="black" d="M338.77,-288C327.87,-288 320.65,-288 305,-288"/>
<polygon fill="black" stroke="black" points="346,-288 354,-291.6 350,-288 354,-288 354,-288 354,-288 350,-288 354,-284.4 346,-288 346,-288"/>
<ellipse fill="none" stroke="black" cx="342.3" cy="-288" rx="3.2" ry="3.2"/>
</g>
</g>
</svg>
