<?xml version="1.0" encoding="UTF-8" standalone="no"?>
<!DOCTYPE svg PUBLIC "-//W3C//DTD SVG 1.1//EN"
 "http://www.w3.org/Graphics/SVG/1.1/DTD/svg11.dtd">
<!-- Generated by graphviz version 7.0.4 (20221203.1631)
 -->
<!-- Title: oneDegreeRelationshipsDiagram Pages: 1 -->
<svg width="680pt" height="335pt"
 viewBox="0.00 0.00 680.00 335.00" xmlns="http://www.w3.org/2000/svg" xmlns:xlink="http://www.w3.org/1999/xlink">
<g id="graph0" class="graph" transform="scale(1 1) rotate(0) translate(4 331)">
<title>oneDegreeRelationshipsDiagram</title>
<polygon fill="#ffffff" stroke="none" points="-4,4 -4,-331 676,-331 676,4 -4,4"/>
<text text-anchor="middle" x="72" y="-7.2" font-family="IPAGothic" font-size="11.00">Generated by SchemaSpy</text>
<!-- 担当者入力（Results_42） -->
<g id="node1" class="node">
<title>担当者入力（Results_42）</title>
<g id="a_node1"><a xlink:href="../../tables/______Results_42__f4325587.html" xlink:title="担当者入力（Results_42）" target="_top">
<polygon fill="#ffffff" stroke="none" points="324,-37 324,-323 664,-323 664,-37 324,-37"/>
<polygon fill="#f5f5f5" stroke="none" points="326,-299 326,-321 662,-321 662,-299 326,-299"/>
<polygon fill="none" stroke="black" points="326,-299 326,-321 662,-321 662,-299 326,-299"/>
<text text-anchor="start" x="326.5" y="-308.2" font-family="IPAGothic" font-weight="bold" font-size="11.00">担当者入力（Results_42）</text>
<text text-anchor="start" x="624" y="-307.2" font-family="IPAGothic" font-size="11.00">[table]</text>
<polygon fill="none" stroke="black" points="326,-277 326,-299 544,-299 544,-277 326,-277"/>
<image xlink:href="../../images/primaryKeys.png" width="11px" height="12px" preserveAspectRatio="xMinYMin meet" x="331" y="-294"/>
<text text-anchor="start" x="346" y="-285.2" font-family="IPAGothic" font-size="11.00">ID（ResultId）</text>
<polygon fill="none" stroke="black" points="544,-277 544,-299 662,-299 662,-277 544,-277"/>
<text text-anchor="start" x="547" y="-285.2" font-family="IPAGothic" font-size="11.00">int[4]</text>
<polygon fill="none" stroke="black" points="326,-255 326,-277 544,-277 544,-255 326,-255"/>
<text text-anchor="start" x="346" y="-263.2" font-family="IPAGothic" font-size="11.00">バージョン（Ver）</text>
<polygon fill="none" stroke="black" points="544,-255 544,-277 662,-277 662,-255 544,-255"/>
<text text-anchor="start" x="547" y="-263.2" font-family="IPAGothic" font-size="11.00">int[4]</text>
<polygon fill="none" stroke="black" points="326,-233 326,-255 544,-255 544,-233 326,-233"/>
<image xlink:href="../../images/foreignKeys.png" width="11px" height="12px" preserveAspectRatio="xMinYMin meet" x="331" y="-250"/>
<text text-anchor="start" x="346" y="-241.2" font-family="IPAGothic" font-size="11.00">対象月（ClassA）</text>
<polygon fill="none" stroke="black" points="544,-233 544,-255 662,-255 662,-233 544,-233"/>
<text text-anchor="start" x="547" y="-241.2" font-family="IPAGothic" font-size="11.00">int[4]</text>
<polygon fill="none" stroke="black" points="326,-211 326,-233 544,-233 544,-211 326,-211"/>
<text text-anchor="start" x="346" y="-219.2" font-family="IPAGothic" font-size="11.00">担当者（Owner）</text>
<polygon fill="none" stroke="black" points="544,-211 544,-233 662,-233 662,-211 544,-211"/>
<text text-anchor="start" x="547" y="-219.2" font-family="IPAGothic" font-size="11.00">int[4]</text>
<polygon fill="none" stroke="black" points="326,-189 326,-211 544,-211 544,-189 326,-189"/>
<text text-anchor="start" x="346" y="-197.2" font-family="IPAGothic" font-size="11.00">チェック日（DateA）</text>
<polygon fill="none" stroke="black" points="544,-189 544,-211 662,-211 662,-189 544,-189"/>
<text text-anchor="start" x="547" y="-197.2" font-family="IPAGothic" font-size="11.00">datetime[16,3]</text>
<polygon fill="none" stroke="black" points="326,-167 326,-189 544,-189 544,-167 326,-167"/>
<text text-anchor="start" x="346" y="-175.2" font-family="IPAGothic" font-size="11.00">社員証の有無（CheckA）</text>
<polygon fill="none" stroke="black" points="544,-167 544,-189 662,-189 662,-167 544,-167"/>
<text text-anchor="start" x="547" y="-175.2" font-family="IPAGothic" font-size="11.00">bit[1]</text>
<polygon fill="none" stroke="black" points="326,-145 326,-167 544,-167 544,-145 326,-145"/>
<text text-anchor="start" x="346" y="-153.2" font-family="IPAGothic" font-size="11.00">顧客預りカードの有無（CheckB）</text>
<polygon fill="none" stroke="black" points="544,-145 544,-167 662,-167 662,-145 544,-145"/>
<text text-anchor="start" x="547" y="-153.2" font-family="IPAGothic" font-size="11.00">bit[1]</text>
<polygon fill="none" stroke="black" points="326,-123 326,-145 544,-145 544,-123 326,-123"/>
<text text-anchor="start" x="346" y="-131.2" font-family="IPAGothic" font-size="11.00">社給携帯の有無（CheckC）</text>
<polygon fill="none" stroke="black" points="544,-123 544,-145 662,-145 662,-123 544,-123"/>
<text text-anchor="start" x="547" y="-131.2" font-family="IPAGothic" font-size="11.00">bit[1]</text>
<polygon fill="none" stroke="black" points="326,-101 326,-123 544,-123 544,-101 326,-101"/>
<text text-anchor="start" x="346" y="-109.2" font-family="IPAGothic" font-size="11.00">PCのセキュリティ対策（CheckD）</text>
<polygon fill="none" stroke="black" points="544,-101 544,-123 662,-123 662,-101 544,-101"/>
<text text-anchor="start" x="547" y="-109.2" font-family="IPAGothic" font-size="11.00">bit[1]</text>
<polygon fill="none" stroke="black" points="326,-79 326,-101 544,-101 544,-79 326,-79"/>
<text text-anchor="start" x="346" y="-87.2" font-family="IPAGothic" font-size="11.00">添付資料（AttachmentsA）</text>
<polygon fill="none" stroke="black" points="544,-79 544,-101 662,-101 662,-79 544,-79"/>
<text text-anchor="start" x="547" y="-87.2" font-family="IPAGothic" font-size="11.00">nvarchar[2147483647]</text>
<polygon fill="none" stroke="black" points="326,-57 326,-79 544,-79 544,-57 326,-57"/>
<text text-anchor="start" x="346" y="-65.2" font-family="IPAGothic" font-size="11.00">コメント（Comments）</text>
<polygon fill="none" stroke="black" points="544,-57 544,-79 662,-79 662,-57 544,-57"/>
<text text-anchor="start" x="547" y="-65.2" font-family="IPAGothic" font-size="11.00">nvarchar[2147483647]</text>
<polygon fill="#ffffff" stroke="none" points="326,-39 326,-57 428,-57 428,-39 326,-39"/>
<polygon fill="none" stroke="black" points="326,-39 326,-57 428,-57 428,-39 326,-39"/>
<text text-anchor="start" x="329" y="-45.2" font-family="IPAGothic" font-size="11.00">&lt; 1</text>
<polygon fill="#ffffff" stroke="none" points="428,-39 428,-57 544,-57 544,-39 428,-39"/>
<polygon fill="none" stroke="black" points="428,-39 428,-57 544,-57 544,-39 428,-39"/>
<text text-anchor="start" x="508" y="-45.2" font-family="IPAGothic" font-size="11.00">0 rows</text>
<polygon fill="#ffffff" stroke="none" points="544,-39 544,-57 662,-57 662,-39 544,-39"/>
<polygon fill="none" stroke="black" points="544,-39 544,-57 662,-57 662,-39 544,-39"/>
<text text-anchor="start" x="640" y="-45.2" font-family="IPAGothic" font-size="11.00">0 &gt;</text>
<polygon fill="none" stroke="black" stroke-width="2" points="325,-38 325,-322 663,-322 663,-38 325,-38"/>
</a>
</g>
</g>
<!-- セキュリティチェック表（Results_41） -->
<g id="node2" class="node">
<title>セキュリティチェック表（Results_41）</title>
<g id="a_node2"><a xlink:href="../../tables/____________Results_41__b90bfb3d.html" xlink:title="セキュリティチェック表（Results_41）" target="_top">
<polygon fill="#ffffff" stroke="none" points="8,-197 8,-277 275,-277 275,-197 8,-197"/>
<polygon fill="#f5f5f5" stroke="none" points="8.5,-255 8.5,-277 275.5,-277 275.5,-255 8.5,-255"/>
<polygon fill="none" stroke="black" points="8.5,-255 8.5,-277 275.5,-277 275.5,-255 8.5,-255"/>
<text text-anchor="start" x="8" y="-264.2" font-family="IPAGothic" font-weight="bold" font-size="11.00">セキュリティチェック表（Results_41）</text>
<text text-anchor="start" x="237.5" y="-263.2" font-family="IPAGothic" font-size="11.00">[table]</text>
<polygon fill="none" stroke="black" points="8.5,-233 8.5,-255 275.5,-255 275.5,-233 8.5,-233"/>
<image xlink:href="../../images/primaryKeys.png" width="11px" height="12px" preserveAspectRatio="xMinYMin meet" x="13.5" y="-250"/>
<text text-anchor="start" x="39.5" y="-241.2" font-family="IPAGothic" font-size="11.00">ID（ResultId）</text>
<polygon fill="none" stroke="black" points="8.5,-215 8.5,-233 275.5,-233 275.5,-215 8.5,-215"/>
<text text-anchor="start" x="11.5" y="-221.2" font-family="IPAGothic" font-size="11.00">...</text>
<polygon fill="#ffffff" stroke="none" points="8.5,-197 8.5,-215 116.5,-215 116.5,-197 8.5,-197"/>
<polygon fill="none" stroke="black" points="8.5,-197 8.5,-215 116.5,-215 116.5,-197 8.5,-197"/>
<text text-anchor="start" x="11.5" y="-203.2" font-family="IPAGothic" font-size="11.00"> &#160;</text>
<polygon fill="#ffffff" stroke="none" points="116.5,-197 116.5,-215 202.5,-215 202.5,-197 116.5,-197"/>
<polygon fill="none" stroke="black" points="116.5,-197 116.5,-215 202.5,-215 202.5,-197 116.5,-197"/>
<text text-anchor="start" x="166.5" y="-203.2" font-family="IPAGothic" font-size="11.00">0 rows</text>
<polygon fill="#ffffff" stroke="none" points="202.5,-197 202.5,-215 275.5,-215 275.5,-197 202.5,-197"/>
<polygon fill="none" stroke="black" points="202.5,-197 202.5,-215 275.5,-215 275.5,-197 202.5,-197"/>
<text text-anchor="start" x="253.5" y="-203.2" font-family="IPAGothic" font-size="11.00">1 &gt;</text>
</a>
</g>
</g>
<!-- 担当者入力（Results_42）&#45;&gt;セキュリティチェック表（Results_41） -->
<g id="edge1" class="edge">
<title>担当者入力（Results_42）:w&#45;&gt;セキュリティチェック表（Results_41）:e</title>
<path fill="none" stroke="black" d="M309.93,-244C299.13,-244 291.99,-244 276.5,-244"/>
<polygon fill="black" stroke="black" points="317,-244 325,-247.6 321,-244 325,-244 325,-244 325,-244 321,-244 325,-240.4 317,-244 317,-244"/>
<ellipse fill="none" stroke="black" cx="313.3" cy="-244" rx="3.2" ry="3.2"/>
</g>
</g>
</svg>
