<?xml version="1.0" encoding="UTF-8" standalone="no"?>
<!DOCTYPE svg PUBLIC "-//W3C//DTD SVG 1.1//EN"
 "http://www.w3.org/Graphics/SVG/1.1/DTD/svg11.dtd">
<!-- Generated by graphviz version 7.0.4 (20221203.1631)
 -->
<!-- Title: oneDegreeRelationshipsDiagram Pages: 1 -->
<svg width="589pt" height="335pt"
 viewBox="0.00 0.00 589.00 335.00" xmlns="http://www.w3.org/2000/svg" xmlns:xlink="http://www.w3.org/1999/xlink">
<g id="graph0" class="graph" transform="scale(1 1) rotate(0) translate(4 331)">
<title>oneDegreeRelationshipsDiagram</title>
<polygon fill="#ffffff" stroke="none" points="-4,4 -4,-331 585,-331 585,4 -4,4"/>
<text text-anchor="middle" x="72" y="-7.2" font-family="IPAGothic" font-size="11.00">Generated by SchemaSpy</text>
<!-- レビュー記録（Results_4） -->
<g id="node1" class="node">
<title>レビュー記録（Results_4）</title>
<g id="a_node1"><a xlink:href="../../tables/_______Results_4__36cfdf6e.html" xlink:title="レビュー記録（Results_4）" target="_top">
<polygon fill="#ffffff" stroke="none" points="275,-37 275,-323 573,-323 573,-37 275,-37"/>
<polygon fill="#f5f5f5" stroke="none" points="277,-299 277,-321 571,-321 571,-299 277,-299"/>
<polygon fill="none" stroke="black" points="277,-299 277,-321 571,-321 571,-299 277,-299"/>
<text text-anchor="start" x="278" y="-308.2" font-family="IPAGothic" font-weight="bold" font-size="11.00">レビュー記録（Results_4）</text>
<text text-anchor="start" x="533" y="-307.2" font-family="IPAGothic" font-size="11.00">[table]</text>
<polygon fill="none" stroke="black" points="277,-277 277,-299 453,-299 453,-277 277,-277"/>
<image xlink:href="../../images/primaryKeys.png" width="11px" height="12px" preserveAspectRatio="xMinYMin meet" x="282" y="-294"/>
<text text-anchor="start" x="297" y="-285.2" font-family="IPAGothic" font-size="11.00">ID（ResultId）</text>
<polygon fill="none" stroke="black" points="453,-277 453,-299 571,-299 571,-277 453,-277"/>
<text text-anchor="start" x="456" y="-285.2" font-family="IPAGothic" font-size="11.00">int[4]</text>
<polygon fill="none" stroke="black" points="277,-255 277,-277 453,-277 453,-255 277,-255"/>
<text text-anchor="start" x="297" y="-263.2" font-family="IPAGothic" font-size="11.00">バージョン（Ver）</text>
<polygon fill="none" stroke="black" points="453,-255 453,-277 571,-277 571,-255 453,-255"/>
<text text-anchor="start" x="456" y="-263.2" font-family="IPAGothic" font-size="11.00">int[4]</text>
<polygon fill="none" stroke="black" points="277,-233 277,-255 453,-255 453,-233 277,-233"/>
<text text-anchor="start" x="297" y="-241.2" font-family="IPAGothic" font-size="11.00">タイトル（Title）</text>
<polygon fill="none" stroke="black" points="453,-233 453,-255 571,-255 571,-233 453,-233"/>
<text text-anchor="start" x="456" y="-241.2" font-family="IPAGothic" font-size="11.00">nvarchar[2048]</text>
<polygon fill="none" stroke="black" points="277,-211 277,-233 453,-233 453,-211 277,-211"/>
<text text-anchor="start" x="297" y="-219.2" font-family="IPAGothic" font-size="11.00">内容（Body）</text>
<polygon fill="none" stroke="black" points="453,-211 453,-233 571,-233 571,-211 453,-211"/>
<text text-anchor="start" x="456" y="-219.2" font-family="IPAGothic" font-size="11.00">nvarchar[2147483647]</text>
<polygon fill="none" stroke="black" points="277,-189 277,-211 453,-211 453,-189 277,-189"/>
<text text-anchor="start" x="297" y="-197.2" font-family="IPAGothic" font-size="11.00">状況（Status）</text>
<polygon fill="none" stroke="black" points="453,-189 453,-211 571,-211 571,-189 453,-189"/>
<text text-anchor="start" x="456" y="-197.2" font-family="IPAGothic" font-size="11.00">int[4]</text>
<polygon fill="none" stroke="black" points="277,-167 277,-189 453,-189 453,-167 277,-167"/>
<text text-anchor="start" x="297" y="-175.2" font-family="IPAGothic" font-size="11.00">管理者（Manager）</text>
<polygon fill="none" stroke="black" points="453,-167 453,-189 571,-189 571,-167 453,-167"/>
<text text-anchor="start" x="456" y="-175.2" font-family="IPAGothic" font-size="11.00">int[4]</text>
<polygon fill="none" stroke="black" points="277,-145 277,-167 453,-167 453,-145 277,-145"/>
<text text-anchor="start" x="297" y="-153.2" font-family="IPAGothic" font-size="11.00">担当者（Owner）</text>
<polygon fill="none" stroke="black" points="453,-145 453,-167 571,-167 571,-145 453,-145"/>
<text text-anchor="start" x="456" y="-153.2" font-family="IPAGothic" font-size="11.00">int[4]</text>
<polygon fill="none" stroke="black" points="277,-123 277,-145 453,-145 453,-123 277,-123"/>
<image xlink:href="../../images/foreignKeys.png" width="11px" height="12px" preserveAspectRatio="xMinYMin meet" x="282" y="-140"/>
<text text-anchor="start" x="297" y="-131.2" font-family="IPAGothic" font-size="11.00">WBS（ClassA）</text>
<polygon fill="none" stroke="black" points="453,-123 453,-145 571,-145 571,-123 453,-123"/>
<text text-anchor="start" x="456" y="-131.2" font-family="IPAGothic" font-size="11.00">int[4]</text>
<polygon fill="none" stroke="black" points="277,-101 277,-123 453,-123 453,-101 277,-101"/>
<text text-anchor="start" x="297" y="-109.2" font-family="IPAGothic" font-size="11.00">指摘区分（ClassB）</text>
<polygon fill="none" stroke="black" points="453,-101 453,-123 571,-123 571,-101 453,-101"/>
<text text-anchor="start" x="456" y="-109.2" font-family="IPAGothic" font-size="11.00">nvarchar[2048]</text>
<polygon fill="none" stroke="black" points="277,-79 277,-101 453,-101 453,-79 277,-79"/>
<text text-anchor="start" x="297" y="-87.2" font-family="IPAGothic" font-size="11.00">添付資料（AttachmentsA）</text>
<polygon fill="none" stroke="black" points="453,-79 453,-101 571,-101 571,-79 453,-79"/>
<text text-anchor="start" x="456" y="-87.2" font-family="IPAGothic" font-size="11.00">nvarchar[2147483647]</text>
<polygon fill="none" stroke="black" points="277,-57 277,-79 453,-79 453,-57 277,-57"/>
<text text-anchor="start" x="297" y="-65.2" font-family="IPAGothic" font-size="11.00">コメント（Comments）</text>
<polygon fill="none" stroke="black" points="453,-57 453,-79 571,-79 571,-57 453,-57"/>
<text text-anchor="start" x="456" y="-65.2" font-family="IPAGothic" font-size="11.00">nvarchar[2147483647]</text>
<polygon fill="#ffffff" stroke="none" points="277,-39 277,-57 358,-57 358,-39 277,-39"/>
<polygon fill="none" stroke="black" points="277,-39 277,-57 358,-57 358,-39 277,-39"/>
<text text-anchor="start" x="280" y="-45.2" font-family="IPAGothic" font-size="11.00">&lt; 1</text>
<polygon fill="#ffffff" stroke="none" points="358,-39 358,-57 453,-57 453,-39 358,-39"/>
<polygon fill="none" stroke="black" points="358,-39 358,-57 453,-57 453,-39 358,-39"/>
<text text-anchor="start" x="417" y="-45.2" font-family="IPAGothic" font-size="11.00">0 rows</text>
<polygon fill="#ffffff" stroke="none" points="453,-39 453,-57 571,-57 571,-39 453,-39"/>
<polygon fill="none" stroke="black" points="453,-39 453,-57 571,-57 571,-39 453,-39"/>
<text text-anchor="start" x="549" y="-45.2" font-family="IPAGothic" font-size="11.00">0 &gt;</text>
<polygon fill="none" stroke="black" stroke-width="2" points="276,-38 276,-322 572,-322 572,-38 276,-38"/>
</a>
</g>
</g>
<!-- WBS（Issues_2） -->
<g id="node2" class="node">
<title>WBS（Issues_2）</title>
<g id="a_node2"><a xlink:href="../../tables/WBS_Issues_2__9cf79b7c.html" xlink:title="WBS（Issues_2）" target="_top">
<polygon fill="#ffffff" stroke="none" points="8,-87 8,-167 226,-167 226,-87 8,-87"/>
<polygon fill="#f5f5f5" stroke="none" points="8,-145 8,-167 226,-167 226,-145 8,-145"/>
<polygon fill="none" stroke="black" points="8,-145 8,-167 226,-167 226,-145 8,-145"/>
<text text-anchor="start" x="10.5" y="-154.2" font-family="IPAGothic" font-weight="bold" font-size="11.00">WBS（Issues_2）</text>
<text text-anchor="start" x="188" y="-153.2" font-family="IPAGothic" font-size="11.00">[table]</text>
<polygon fill="none" stroke="black" points="8,-123 8,-145 226,-145 226,-123 8,-123"/>
<image xlink:href="../../images/primaryKeys.png" width="11px" height="12px" preserveAspectRatio="xMinYMin meet" x="13" y="-140"/>
<text text-anchor="start" x="28" y="-131.2" font-family="IPAGothic" font-size="11.00">ID（IssueId）</text>
<polygon fill="none" stroke="black" points="8,-105 8,-123 226,-123 226,-105 8,-105"/>
<text text-anchor="start" x="11" y="-111.2" font-family="IPAGothic" font-size="11.00">...</text>
<polygon fill="#ffffff" stroke="none" points="8,-87 8,-105 92,-105 92,-87 8,-87"/>
<polygon fill="none" stroke="black" points="8,-87 8,-105 92,-105 92,-87 8,-87"/>
<text text-anchor="start" x="11" y="-93.2" font-family="IPAGothic" font-size="11.00"> &#160;</text>
<polygon fill="#ffffff" stroke="none" points="92,-87 92,-105 166,-105 166,-87 92,-87"/>
<polygon fill="none" stroke="black" points="92,-87 92,-105 166,-105 166,-87 92,-87"/>
<text text-anchor="start" x="130" y="-93.2" font-family="IPAGothic" font-size="11.00">0 rows</text>
<polygon fill="#ffffff" stroke="none" points="166,-87 166,-105 226,-105 226,-87 166,-87"/>
<polygon fill="none" stroke="black" points="166,-87 166,-105 226,-105 226,-87 166,-87"/>
<text text-anchor="start" x="204" y="-93.2" font-family="IPAGothic" font-size="11.00">2 &gt;</text>
</a>
</g>
</g>
<!-- レビュー記録（Results_4）&#45;&gt;WBS（Issues_2） -->
<g id="edge1" class="edge">
<title>レビュー記録（Results_4）:w&#45;&gt;WBS（Issues_2）:e</title>
<path fill="none" stroke="black" d="M260.77,-134C249.87,-134 242.65,-134 227,-134"/>
<polygon fill="black" stroke="black" points="268,-134 276,-137.6 272,-134 276,-134 276,-134 276,-134 272,-134 276,-130.4 268,-134 268,-134"/>
<ellipse fill="none" stroke="black" cx="264.3" cy="-134" rx="3.2" ry="3.2"/>
</g>
</g>
</svg>
