<?xml version="1.0" encoding="UTF-8" standalone="no"?>
<!DOCTYPE svg PUBLIC "-//W3C//DTD SVG 1.1//EN"
 "http://www.w3.org/Graphics/SVG/1.1/DTD/svg11.dtd">
<!-- Generated by graphviz version 7.0.4 (20221203.1631)
 -->
<!-- Title: oneDegreeRelationshipsDiagram Pages: 1 -->
<svg width="377pt" height="423pt"
 viewBox="0.00 0.00 377.00 423.00" xmlns="http://www.w3.org/2000/svg" xmlns:xlink="http://www.w3.org/1999/xlink">
<g id="graph0" class="graph" transform="scale(1 1) rotate(0) translate(4 419)">
<title>oneDegreeRelationshipsDiagram</title>
<polygon fill="#ffffff" stroke="none" points="-4,4 -4,-419 373,-419 373,4 -4,4"/>
<text text-anchor="middle" x="72" y="-7.2" font-family="IPAGothic" font-size="11.00">Generated by SchemaSpy</text>
<!-- 介護ヒヤリハット集（Results_30） -->
<g id="node1" class="node">
<title>介護ヒヤリハット集（Results_30）</title>
<g id="a_node1"><a xlink:href="../../tables/__________Results_30__e19ae879.html" xlink:title="介護ヒヤリハット集（Results_30）" target="_top">
<polygon fill="#ffffff" stroke="none" points="8,-37 8,-411 361,-411 361,-37 8,-37"/>
<polygon fill="#f5f5f5" stroke="none" points="10.5,-387 10.5,-409 359.5,-409 359.5,-387 10.5,-387"/>
<polygon fill="none" stroke="black" points="10.5,-387 10.5,-409 359.5,-409 359.5,-387 10.5,-387"/>
<text text-anchor="start" x="10.5" y="-396.2" font-family="IPAGothic" font-weight="bold" font-size="11.00">介護ヒヤリハット集（Results_30）</text>
<text text-anchor="start" x="321.5" y="-395.2" font-family="IPAGothic" font-size="11.00">[table]</text>
<polygon fill="none" stroke="black" points="10.5,-365 10.5,-387 241.5,-387 241.5,-365 10.5,-365"/>
<image xlink:href="../../images/primaryKeys.png" width="11px" height="12px" preserveAspectRatio="xMinYMin meet" x="15.5" y="-382"/>
<text text-anchor="start" x="30.5" y="-373.2" font-family="IPAGothic" font-size="11.00">ID（ResultId）</text>
<polygon fill="none" stroke="black" points="241.5,-365 241.5,-387 359.5,-387 359.5,-365 241.5,-365"/>
<text text-anchor="start" x="244.5" y="-373.2" font-family="IPAGothic" font-size="11.00">int[4]</text>
<polygon fill="none" stroke="black" points="10.5,-343 10.5,-365 241.5,-365 241.5,-343 10.5,-343"/>
<text text-anchor="start" x="30.5" y="-351.2" font-family="IPAGothic" font-size="11.00">バージョン（Ver）</text>
<polygon fill="none" stroke="black" points="241.5,-343 241.5,-365 359.5,-365 359.5,-343 241.5,-343"/>
<text text-anchor="start" x="244.5" y="-351.2" font-family="IPAGothic" font-size="11.00">int[4]</text>
<polygon fill="none" stroke="black" points="10.5,-321 10.5,-343 241.5,-343 241.5,-321 10.5,-321"/>
<text text-anchor="start" x="30.5" y="-329.2" font-family="IPAGothic" font-size="11.00">件名（Title）</text>
<polygon fill="none" stroke="black" points="241.5,-321 241.5,-343 359.5,-343 359.5,-321 241.5,-321"/>
<text text-anchor="start" x="244.5" y="-329.2" font-family="IPAGothic" font-size="11.00">nvarchar[2048]</text>
<polygon fill="none" stroke="black" points="10.5,-299 10.5,-321 241.5,-321 241.5,-299 10.5,-299"/>
<text text-anchor="start" x="30.5" y="-307.2" font-family="IPAGothic" font-size="11.00">作成日（DateB）</text>
<polygon fill="none" stroke="black" points="241.5,-299 241.5,-321 359.5,-321 359.5,-299 241.5,-299"/>
<text text-anchor="start" x="244.5" y="-307.2" font-family="IPAGothic" font-size="11.00">datetime[16,3]</text>
<polygon fill="none" stroke="black" points="10.5,-277 10.5,-299 241.5,-299 241.5,-277 10.5,-277"/>
<text text-anchor="start" x="30.5" y="-285.2" font-family="IPAGothic" font-size="11.00">作成者（Owner）</text>
<polygon fill="none" stroke="black" points="241.5,-277 241.5,-299 359.5,-299 359.5,-277 241.5,-277"/>
<text text-anchor="start" x="244.5" y="-285.2" font-family="IPAGothic" font-size="11.00">int[4]</text>
<polygon fill="none" stroke="black" points="10.5,-255 10.5,-277 241.5,-277 241.5,-255 10.5,-255"/>
<text text-anchor="start" x="30.5" y="-263.2" font-family="IPAGothic" font-size="11.00">承認者（Manager）</text>
<polygon fill="none" stroke="black" points="241.5,-255 241.5,-277 359.5,-277 359.5,-255 241.5,-255"/>
<text text-anchor="start" x="244.5" y="-263.2" font-family="IPAGothic" font-size="11.00">int[4]</text>
<polygon fill="none" stroke="black" points="10.5,-233 10.5,-255 241.5,-255 241.5,-233 10.5,-233"/>
<text text-anchor="start" x="30.5" y="-241.2" font-family="IPAGothic" font-size="11.00">状況（Status）</text>
<polygon fill="none" stroke="black" points="241.5,-233 241.5,-255 359.5,-255 359.5,-233 241.5,-233"/>
<text text-anchor="start" x="244.5" y="-241.2" font-family="IPAGothic" font-size="11.00">int[4]</text>
<polygon fill="none" stroke="black" points="10.5,-211 10.5,-233 241.5,-233 241.5,-211 10.5,-211"/>
<text text-anchor="start" x="30.5" y="-219.2" font-family="IPAGothic" font-size="11.00">利用者名（ClassA）</text>
<polygon fill="none" stroke="black" points="241.5,-211 241.5,-233 359.5,-233 359.5,-211 241.5,-211"/>
<text text-anchor="start" x="244.5" y="-219.2" font-family="IPAGothic" font-size="11.00">nvarchar[2048]</text>
<polygon fill="none" stroke="black" points="10.5,-189 10.5,-211 241.5,-211 241.5,-189 10.5,-189"/>
<text text-anchor="start" x="30.5" y="-197.2" font-family="IPAGothic" font-size="11.00">発生日時（DateA）</text>
<polygon fill="none" stroke="black" points="241.5,-189 241.5,-211 359.5,-211 359.5,-189 241.5,-189"/>
<text text-anchor="start" x="244.5" y="-197.2" font-family="IPAGothic" font-size="11.00">datetime[16,3]</text>
<polygon fill="none" stroke="black" points="10.5,-167 10.5,-189 241.5,-189 241.5,-167 10.5,-167"/>
<text text-anchor="start" x="30.5" y="-175.2" font-family="IPAGothic" font-size="11.00">発生場所（ClassD）</text>
<polygon fill="none" stroke="black" points="241.5,-167 241.5,-189 359.5,-189 359.5,-167 241.5,-167"/>
<text text-anchor="start" x="244.5" y="-175.2" font-family="IPAGothic" font-size="11.00">nvarchar[2048]</text>
<polygon fill="none" stroke="black" points="10.5,-145 10.5,-167 241.5,-167 241.5,-145 10.5,-145"/>
<text text-anchor="start" x="30.5" y="-153.2" font-family="IPAGothic" font-size="11.00">種別（ClassB）</text>
<polygon fill="none" stroke="black" points="241.5,-145 241.5,-167 359.5,-167 359.5,-145 241.5,-145"/>
<text text-anchor="start" x="244.5" y="-153.2" font-family="IPAGothic" font-size="11.00">nvarchar[2048]</text>
<polygon fill="none" stroke="black" points="10.5,-123 10.5,-145 241.5,-145 241.5,-123 10.5,-123"/>
<text text-anchor="start" x="30.5" y="-131.2" font-family="IPAGothic" font-size="11.00">内容（Body）</text>
<polygon fill="none" stroke="black" points="241.5,-123 241.5,-145 359.5,-145 359.5,-123 241.5,-123"/>
<text text-anchor="start" x="244.5" y="-131.2" font-family="IPAGothic" font-size="11.00">nvarchar[2147483647]</text>
<polygon fill="none" stroke="black" points="10.5,-101 10.5,-123 241.5,-123 241.5,-101 10.5,-101"/>
<text text-anchor="start" x="30.5" y="-109.2" font-family="IPAGothic" font-size="11.00">発生原因・解決方法（DescriptionA）</text>
<polygon fill="none" stroke="black" points="241.5,-101 241.5,-123 359.5,-123 359.5,-101 241.5,-101"/>
<text text-anchor="start" x="244.5" y="-109.2" font-family="IPAGothic" font-size="11.00">nvarchar[2147483647]</text>
<polygon fill="none" stroke="black" points="10.5,-79 10.5,-101 241.5,-101 241.5,-79 10.5,-79"/>
<text text-anchor="start" x="30.5" y="-87.2" font-family="IPAGothic" font-size="11.00">添付資料（AttachmentsA）</text>
<polygon fill="none" stroke="black" points="241.5,-79 241.5,-101 359.5,-101 359.5,-79 241.5,-79"/>
<text text-anchor="start" x="244.5" y="-87.2" font-family="IPAGothic" font-size="11.00">nvarchar[2147483647]</text>
<polygon fill="none" stroke="black" points="10.5,-57 10.5,-79 241.5,-79 241.5,-57 10.5,-57"/>
<text text-anchor="start" x="30.5" y="-65.2" font-family="IPAGothic" font-size="11.00">コメント（Comments）</text>
<polygon fill="none" stroke="black" points="241.5,-57 241.5,-79 359.5,-79 359.5,-57 241.5,-57"/>
<text text-anchor="start" x="244.5" y="-65.2" font-family="IPAGothic" font-size="11.00">nvarchar[2147483647]</text>
<polygon fill="#ffffff" stroke="none" points="10.5,-39 10.5,-57 118.5,-57 118.5,-39 10.5,-39"/>
<polygon fill="none" stroke="black" points="10.5,-39 10.5,-57 118.5,-57 118.5,-39 10.5,-39"/>
<text text-anchor="start" x="13.5" y="-45.2" font-family="IPAGothic" font-size="11.00">&lt; 0</text>
<polygon fill="#ffffff" stroke="none" points="118.5,-39 118.5,-57 241.5,-57 241.5,-39 118.5,-39"/>
<polygon fill="none" stroke="black" points="118.5,-39 118.5,-57 241.5,-57 241.5,-39 118.5,-39"/>
<text text-anchor="start" x="205.5" y="-45.2" font-family="IPAGothic" font-size="11.00">0 rows</text>
<polygon fill="#ffffff" stroke="none" points="241.5,-39 241.5,-57 359.5,-57 359.5,-39 241.5,-39"/>
<polygon fill="none" stroke="black" points="241.5,-39 241.5,-57 359.5,-57 359.5,-39 241.5,-39"/>
<text text-anchor="start" x="337.5" y="-45.2" font-family="IPAGothic" font-size="11.00">0 &gt;</text>
<polygon fill="none" stroke="black" stroke-width="2" points="9,-38 9,-410 360,-410 360,-38 9,-38"/>
</a>
</g>
</g>
</g>
</svg>
