<?xml version="1.0" encoding="UTF-8" standalone="no"?>
<!DOCTYPE svg PUBLIC "-//W3C//DTD SVG 1.1//EN"
 "http://www.w3.org/Graphics/SVG/1.1/DTD/svg11.dtd">
<!-- Generated by graphviz version 7.0.4 (20221203.1631)
 -->
<!-- Title: oneDegreeRelationshipsDiagram Pages: 1 -->
<svg width="353pt" height="643pt"
 viewBox="0.00 0.00 353.00 643.00" xmlns="http://www.w3.org/2000/svg" xmlns:xlink="http://www.w3.org/1999/xlink">
<g id="graph0" class="graph" transform="scale(1 1) rotate(0) translate(4 639)">
<title>oneDegreeRelationshipsDiagram</title>
<polygon fill="#ffffff" stroke="none" points="-4,4 -4,-639 349,-639 349,4 -4,4"/>
<text text-anchor="middle" x="72" y="-7.2" font-family="IPAGothic" font-size="11.00">Generated by SchemaSpy</text>
<!-- 稟議申請（Results_57） -->
<g id="node1" class="node">
<title>稟議申請（Results_57）</title>
<g id="a_node1"><a xlink:href="../../tables/_____Results_57__dc90341f.html" xlink:title="稟議申請（Results_57）" target="_top">
<polygon fill="#ffffff" stroke="none" points="8,-37 8,-631 337,-631 337,-37 8,-37"/>
<polygon fill="#f5f5f5" stroke="none" points="10.5,-607 10.5,-629 335.5,-629 335.5,-607 10.5,-607"/>
<polygon fill="none" stroke="black" points="10.5,-607 10.5,-629 335.5,-629 335.5,-607 10.5,-607"/>
<text text-anchor="start" x="11.5" y="-616.2" font-family="IPAGothic" font-weight="bold" font-size="11.00">稟議申請（Results_57）</text>
<text text-anchor="start" x="297.5" y="-615.2" font-family="IPAGothic" font-size="11.00">[table]</text>
<polygon fill="none" stroke="black" points="10.5,-585 10.5,-607 217.5,-607 217.5,-585 10.5,-585"/>
<image xlink:href="../../images/primaryKeys.png" width="11px" height="12px" preserveAspectRatio="xMinYMin meet" x="15.5" y="-602"/>
<text text-anchor="start" x="30.5" y="-593.2" font-family="IPAGothic" font-size="11.00">ID（ResultId）</text>
<polygon fill="none" stroke="black" points="217.5,-585 217.5,-607 335.5,-607 335.5,-585 217.5,-585"/>
<text text-anchor="start" x="220.5" y="-593.2" font-family="IPAGothic" font-size="11.00">int[4]</text>
<polygon fill="none" stroke="black" points="10.5,-563 10.5,-585 217.5,-585 217.5,-563 10.5,-563"/>
<text text-anchor="start" x="30.5" y="-571.2" font-family="IPAGothic" font-size="11.00">承認段階（Status）</text>
<polygon fill="none" stroke="black" points="217.5,-563 217.5,-585 335.5,-585 335.5,-563 217.5,-563"/>
<text text-anchor="start" x="220.5" y="-571.2" font-family="IPAGothic" font-size="11.00">int[4]</text>
<polygon fill="none" stroke="black" points="10.5,-541 10.5,-563 217.5,-563 217.5,-541 10.5,-541"/>
<text text-anchor="start" x="30.5" y="-549.2" font-family="IPAGothic" font-size="11.00">回答者（Manager）</text>
<polygon fill="none" stroke="black" points="217.5,-541 217.5,-563 335.5,-563 335.5,-541 217.5,-541"/>
<text text-anchor="start" x="220.5" y="-549.2" font-family="IPAGothic" font-size="11.00">int[4]</text>
<polygon fill="none" stroke="black" points="10.5,-519 10.5,-541 217.5,-541 217.5,-519 10.5,-519"/>
<text text-anchor="start" x="30.5" y="-527.2" font-family="IPAGothic" font-size="11.00">回答（DescriptionE）</text>
<polygon fill="none" stroke="black" points="217.5,-519 217.5,-541 335.5,-541 335.5,-519 217.5,-519"/>
<text text-anchor="start" x="220.5" y="-527.2" font-family="IPAGothic" font-size="11.00">nvarchar[2147483647]</text>
<polygon fill="none" stroke="black" points="10.5,-497 10.5,-519 217.5,-519 217.5,-497 10.5,-497"/>
<text text-anchor="start" x="30.5" y="-505.2" font-family="IPAGothic" font-size="11.00">回送元（ClassE）</text>
<polygon fill="none" stroke="black" points="217.5,-497 217.5,-519 335.5,-519 335.5,-497 217.5,-497"/>
<text text-anchor="start" x="220.5" y="-505.2" font-family="IPAGothic" font-size="11.00">nvarchar[2048]</text>
<polygon fill="none" stroke="black" points="10.5,-475 10.5,-497 217.5,-497 217.5,-475 10.5,-475"/>
<text text-anchor="start" x="30.5" y="-483.2" font-family="IPAGothic" font-size="11.00">回送元コメント（DescriptionH）</text>
<polygon fill="none" stroke="black" points="217.5,-475 217.5,-497 335.5,-497 335.5,-475 217.5,-475"/>
<text text-anchor="start" x="220.5" y="-483.2" font-family="IPAGothic" font-size="11.00">nvarchar[2147483647]</text>
<polygon fill="none" stroke="black" points="10.5,-453 10.5,-475 217.5,-475 217.5,-453 10.5,-453"/>
<text text-anchor="start" x="30.5" y="-461.2" font-family="IPAGothic" font-size="11.00">申請者（Owner）</text>
<polygon fill="none" stroke="black" points="217.5,-453 217.5,-475 335.5,-475 335.5,-453 217.5,-453"/>
<text text-anchor="start" x="220.5" y="-461.2" font-family="IPAGothic" font-size="11.00">int[4]</text>
<polygon fill="none" stroke="black" points="10.5,-431 10.5,-453 217.5,-453 217.5,-431 10.5,-431"/>
<text text-anchor="start" x="30.5" y="-439.2" font-family="IPAGothic" font-size="11.00">申請部門（ClassA）</text>
<polygon fill="none" stroke="black" points="217.5,-431 217.5,-453 335.5,-453 335.5,-431 217.5,-431"/>
<text text-anchor="start" x="220.5" y="-439.2" font-family="IPAGothic" font-size="11.00">nvarchar[2048]</text>
<polygon fill="none" stroke="black" points="10.5,-409 10.5,-431 217.5,-431 217.5,-409 10.5,-409"/>
<text text-anchor="start" x="30.5" y="-417.2" font-family="IPAGothic" font-size="11.00">申請日（DateA）</text>
<polygon fill="none" stroke="black" points="217.5,-409 217.5,-431 335.5,-431 335.5,-409 217.5,-409"/>
<text text-anchor="start" x="220.5" y="-417.2" font-family="IPAGothic" font-size="11.00">datetime[16,3]</text>
<polygon fill="none" stroke="black" points="10.5,-387 10.5,-409 217.5,-409 217.5,-387 10.5,-387"/>
<text text-anchor="start" x="30.5" y="-395.2" font-family="IPAGothic" font-size="11.00">件名（Title）</text>
<polygon fill="none" stroke="black" points="217.5,-387 217.5,-409 335.5,-409 335.5,-387 217.5,-387"/>
<text text-anchor="start" x="220.5" y="-395.2" font-family="IPAGothic" font-size="11.00">nvarchar[2048]</text>
<polygon fill="none" stroke="black" points="10.5,-365 10.5,-387 217.5,-387 217.5,-365 10.5,-365"/>
<text text-anchor="start" x="30.5" y="-373.2" font-family="IPAGothic" font-size="11.00">金額（NumA）</text>
<polygon fill="none" stroke="black" points="217.5,-365 217.5,-387 335.5,-387 335.5,-365 217.5,-365"/>
<text text-anchor="start" x="220.5" y="-373.2" font-family="IPAGothic" font-size="11.00">decimal[21,4]</text>
<polygon fill="none" stroke="black" points="10.5,-343 10.5,-365 217.5,-365 217.5,-343 10.5,-343"/>
<text text-anchor="start" x="30.5" y="-351.2" font-family="IPAGothic" font-size="11.00">内訳（Body）</text>
<polygon fill="none" stroke="black" points="217.5,-343 217.5,-365 335.5,-365 335.5,-343 217.5,-343"/>
<text text-anchor="start" x="220.5" y="-351.2" font-family="IPAGothic" font-size="11.00">nvarchar[2147483647]</text>
<polygon fill="none" stroke="black" points="10.5,-321 10.5,-343 217.5,-343 217.5,-321 10.5,-321"/>
<text text-anchor="start" x="30.5" y="-329.2" font-family="IPAGothic" font-size="11.00">起案理由（DescriptionA）</text>
<polygon fill="none" stroke="black" points="217.5,-321 217.5,-343 335.5,-343 335.5,-321 217.5,-321"/>
<text text-anchor="start" x="220.5" y="-329.2" font-family="IPAGothic" font-size="11.00">nvarchar[2147483647]</text>
<polygon fill="none" stroke="black" points="10.5,-299 10.5,-321 217.5,-321 217.5,-299 10.5,-299"/>
<text text-anchor="start" x="30.5" y="-307.2" font-family="IPAGothic" font-size="11.00">証憑（AttachmentsA）</text>
<polygon fill="none" stroke="black" points="217.5,-299 217.5,-321 335.5,-321 335.5,-299 217.5,-299"/>
<text text-anchor="start" x="220.5" y="-307.2" font-family="IPAGothic" font-size="11.00">nvarchar[2147483647]</text>
<polygon fill="none" stroke="black" points="10.5,-277 10.5,-299 217.5,-299 217.5,-277 10.5,-277"/>
<text text-anchor="start" x="30.5" y="-285.2" font-family="IPAGothic" font-size="11.00">担当課長（ClassB）</text>
<polygon fill="none" stroke="black" points="217.5,-277 217.5,-299 335.5,-299 335.5,-277 217.5,-277"/>
<text text-anchor="start" x="220.5" y="-285.2" font-family="IPAGothic" font-size="11.00">nvarchar[2048]</text>
<polygon fill="none" stroke="black" points="10.5,-255 10.5,-277 217.5,-277 217.5,-255 10.5,-255"/>
<text text-anchor="start" x="30.5" y="-263.2" font-family="IPAGothic" font-size="11.00">課長承認日（DateB）</text>
<polygon fill="none" stroke="black" points="217.5,-255 217.5,-277 335.5,-277 335.5,-255 217.5,-255"/>
<text text-anchor="start" x="220.5" y="-263.2" font-family="IPAGothic" font-size="11.00">datetime[16,3]</text>
<polygon fill="none" stroke="black" points="10.5,-233 10.5,-255 217.5,-255 217.5,-233 10.5,-233"/>
<text text-anchor="start" x="30.5" y="-241.2" font-family="IPAGothic" font-size="11.00">課長コメント（DescriptionB）</text>
<polygon fill="none" stroke="black" points="217.5,-233 217.5,-255 335.5,-255 335.5,-233 217.5,-233"/>
<text text-anchor="start" x="220.5" y="-241.2" font-family="IPAGothic" font-size="11.00">nvarchar[2147483647]</text>
<polygon fill="none" stroke="black" points="10.5,-211 10.5,-233 217.5,-233 217.5,-211 10.5,-211"/>
<text text-anchor="start" x="30.5" y="-219.2" font-family="IPAGothic" font-size="11.00">担当部長（ClassC）</text>
<polygon fill="none" stroke="black" points="217.5,-211 217.5,-233 335.5,-233 335.5,-211 217.5,-211"/>
<text text-anchor="start" x="220.5" y="-219.2" font-family="IPAGothic" font-size="11.00">nvarchar[2048]</text>
<polygon fill="none" stroke="black" points="10.5,-189 10.5,-211 217.5,-211 217.5,-189 10.5,-189"/>
<text text-anchor="start" x="30.5" y="-197.2" font-family="IPAGothic" font-size="11.00">部長承認日（DateC）</text>
<polygon fill="none" stroke="black" points="217.5,-189 217.5,-211 335.5,-211 335.5,-189 217.5,-189"/>
<text text-anchor="start" x="220.5" y="-197.2" font-family="IPAGothic" font-size="11.00">datetime[16,3]</text>
<polygon fill="none" stroke="black" points="10.5,-167 10.5,-189 217.5,-189 217.5,-167 10.5,-167"/>
<text text-anchor="start" x="30.5" y="-175.2" font-family="IPAGothic" font-size="11.00">部長コメント（DescriptionC）</text>
<polygon fill="none" stroke="black" points="217.5,-167 217.5,-189 335.5,-189 335.5,-167 217.5,-167"/>
<text text-anchor="start" x="220.5" y="-175.2" font-family="IPAGothic" font-size="11.00">nvarchar[2147483647]</text>
<polygon fill="none" stroke="black" points="10.5,-145 10.5,-167 217.5,-167 217.5,-145 10.5,-145"/>
<text text-anchor="start" x="30.5" y="-153.2" font-family="IPAGothic" font-size="11.00">担当役員（ClassD）</text>
<polygon fill="none" stroke="black" points="217.5,-145 217.5,-167 335.5,-167 335.5,-145 217.5,-145"/>
<text text-anchor="start" x="220.5" y="-153.2" font-family="IPAGothic" font-size="11.00">nvarchar[2048]</text>
<polygon fill="none" stroke="black" points="10.5,-123 10.5,-145 217.5,-145 217.5,-123 10.5,-123"/>
<text text-anchor="start" x="30.5" y="-131.2" font-family="IPAGothic" font-size="11.00">役員承認日（DateD）</text>
<polygon fill="none" stroke="black" points="217.5,-123 217.5,-145 335.5,-145 335.5,-123 217.5,-123"/>
<text text-anchor="start" x="220.5" y="-131.2" font-family="IPAGothic" font-size="11.00">datetime[16,3]</text>
<polygon fill="none" stroke="black" points="10.5,-101 10.5,-123 217.5,-123 217.5,-101 10.5,-101"/>
<text text-anchor="start" x="30.5" y="-109.2" font-family="IPAGothic" font-size="11.00">役員コメント（DescriptionD）</text>
<polygon fill="none" stroke="black" points="217.5,-101 217.5,-123 335.5,-123 335.5,-101 217.5,-101"/>
<text text-anchor="start" x="220.5" y="-109.2" font-family="IPAGothic" font-size="11.00">nvarchar[2147483647]</text>
<polygon fill="none" stroke="black" points="10.5,-79 10.5,-101 217.5,-101 217.5,-79 10.5,-79"/>
<text text-anchor="start" x="30.5" y="-87.2" font-family="IPAGothic" font-size="11.00">経理担当（ClassF）</text>
<polygon fill="none" stroke="black" points="217.5,-79 217.5,-101 335.5,-101 335.5,-79 217.5,-79"/>
<text text-anchor="start" x="220.5" y="-87.2" font-family="IPAGothic" font-size="11.00">nvarchar[2048]</text>
<polygon fill="none" stroke="black" points="10.5,-57 10.5,-79 217.5,-79 217.5,-57 10.5,-57"/>
<text text-anchor="start" x="30.5" y="-65.2" font-family="IPAGothic" font-size="11.00">経理処理日（DateE）</text>
<polygon fill="none" stroke="black" points="217.5,-57 217.5,-79 335.5,-79 335.5,-57 217.5,-57"/>
<text text-anchor="start" x="220.5" y="-65.2" font-family="IPAGothic" font-size="11.00">datetime[16,3]</text>
<polygon fill="#ffffff" stroke="none" points="10.5,-39 10.5,-57 106.5,-57 106.5,-39 10.5,-39"/>
<polygon fill="none" stroke="black" points="10.5,-39 10.5,-57 106.5,-57 106.5,-39 10.5,-39"/>
<text text-anchor="start" x="13.5" y="-45.2" font-family="IPAGothic" font-size="11.00">&lt; 0</text>
<polygon fill="#ffffff" stroke="none" points="106.5,-39 106.5,-57 217.5,-57 217.5,-39 106.5,-39"/>
<polygon fill="none" stroke="black" points="106.5,-39 106.5,-57 217.5,-57 217.5,-39 106.5,-39"/>
<text text-anchor="start" x="181.5" y="-45.2" font-family="IPAGothic" font-size="11.00">0 rows</text>
<polygon fill="#ffffff" stroke="none" points="217.5,-39 217.5,-57 335.5,-57 335.5,-39 217.5,-39"/>
<polygon fill="none" stroke="black" points="217.5,-39 217.5,-57 335.5,-57 335.5,-39 217.5,-39"/>
<text text-anchor="start" x="313.5" y="-45.2" font-family="IPAGothic" font-size="11.00">0 &gt;</text>
<polygon fill="none" stroke="black" stroke-width="2" points="9,-38 9,-630 336,-630 336,-38 9,-38"/>
</a>
</g>
</g>
</g>
</svg>
