<?xml version="1.0" encoding="UTF-8" standalone="no"?>
<!DOCTYPE svg PUBLIC "-//W3C//DTD SVG 1.1//EN"
 "http://www.w3.org/Graphics/SVG/1.1/DTD/svg11.dtd">
<!-- Generated by graphviz version 7.0.4 (20221203.1631)
 -->
<!-- Title: oneDegreeRelationshipsDiagram Pages: 1 -->
<svg width="807pt" height="487pt"
 viewBox="0.00 0.00 807.00 487.00" xmlns="http://www.w3.org/2000/svg" xmlns:xlink="http://www.w3.org/1999/xlink">
<g id="graph0" class="graph" transform="scale(1 1) rotate(0) translate(4 483)">
<title>oneDegreeRelationshipsDiagram</title>
<polygon fill="#ffffff" stroke="none" points="-4,4 -4,-483 803,-483 803,4 -4,4"/>
<text text-anchor="middle" x="72" y="-7.2" font-family="IPAGothic" font-size="11.00">Generated by SchemaSpy</text>
<!-- 仕入（Results_8） -->
<g id="node1" class="node">
<title>仕入（Results_8）</title>
<g id="a_node1"><a xlink:href="../../tables/___Results_8__6767d8b2.html" xlink:title="仕入（Results_8）" target="_top">
<polygon fill="#ffffff" stroke="none" points="615,-373 615,-475 791,-475 791,-373 615,-373"/>
<polygon fill="#f5f5f5" stroke="none" points="615,-453 615,-475 791,-475 791,-453 615,-453"/>
<polygon fill="none" stroke="black" points="615,-453 615,-475 791,-475 791,-453 615,-453"/>
<text text-anchor="start" x="617" y="-462.2" font-family="IPAGothic" font-weight="bold" font-size="11.00">仕入（Results_8）</text>
<text text-anchor="start" x="753" y="-461.2" font-family="IPAGothic" font-size="11.00">[table]</text>
<polygon fill="none" stroke="black" points="615,-431 615,-453 791,-453 791,-431 615,-431"/>
<image xlink:href="../../images/primaryKeys.png" width="11px" height="12px" preserveAspectRatio="xMinYMin meet" x="620" y="-448"/>
<text text-anchor="start" x="635" y="-439.2" font-family="IPAGothic" font-size="11.00">ID（ResultId）</text>
<polygon fill="none" stroke="black" points="615,-409 615,-431 791,-431 791,-409 615,-409"/>
<image xlink:href="../../images/foreignKeys.png" width="11px" height="12px" preserveAspectRatio="xMinYMin meet" x="620" y="-426"/>
<text text-anchor="start" x="635" y="-417.2" font-family="IPAGothic" font-size="11.00">商談（ClassA）</text>
<polygon fill="none" stroke="black" points="615,-391 615,-409 791,-409 791,-391 615,-391"/>
<text text-anchor="start" x="618" y="-397.2" font-family="IPAGothic" font-size="11.00">...</text>
<polygon fill="#ffffff" stroke="none" points="615,-373 615,-391 689,-391 689,-373 615,-373"/>
<polygon fill="none" stroke="black" points="615,-373 615,-391 689,-391 689,-373 615,-373"/>
<text text-anchor="start" x="618" y="-379.2" font-family="IPAGothic" font-size="11.00">&lt; 1</text>
<polygon fill="#ffffff" stroke="none" points="689,-373 689,-391 752,-391 752,-373 689,-373"/>
<polygon fill="none" stroke="black" points="689,-373 689,-391 752,-391 752,-373 689,-373"/>
<text text-anchor="start" x="716" y="-379.2" font-family="IPAGothic" font-size="11.00">0 rows</text>
<polygon fill="#ffffff" stroke="none" points="752,-373 752,-391 791,-391 791,-373 752,-373"/>
<polygon fill="none" stroke="black" points="752,-373 752,-391 791,-391 791,-373 752,-373"/>
<text text-anchor="start" x="780" y="-379.2" font-family="IPAGothic" font-size="11.00"> &#160;</text>
</a>
</g>
</g>
<!-- 商談（Issues_7） -->
<g id="node2" class="node">
<title>商談（Issues_7）</title>
<g id="a_node2"><a xlink:href="../../tables/___Issues_7__691c9030.html" xlink:title="商談（Issues_7）" target="_top">
<polygon fill="#ffffff" stroke="none" points="243,-37 243,-455 566,-455 566,-37 243,-37"/>
<polygon fill="#f5f5f5" stroke="none" points="245.5,-431 245.5,-453 564.5,-453 564.5,-431 245.5,-431"/>
<polygon fill="none" stroke="black" points="245.5,-431 245.5,-453 564.5,-453 564.5,-431 245.5,-431"/>
<text text-anchor="start" x="247" y="-440.2" font-family="IPAGothic" font-weight="bold" font-size="11.00">商談（Issues_7）</text>
<text text-anchor="start" x="526.5" y="-439.2" font-family="IPAGothic" font-size="11.00">[table]</text>
<polygon fill="none" stroke="black" points="245.5,-409 245.5,-431 446.5,-431 446.5,-409 245.5,-409"/>
<image xlink:href="../../images/primaryKeys.png" width="11px" height="12px" preserveAspectRatio="xMinYMin meet" x="250.5" y="-426"/>
<text text-anchor="start" x="265.5" y="-417.2" font-family="IPAGothic" font-size="11.00">ID（IssueId）</text>
<polygon fill="none" stroke="black" points="446.5,-409 446.5,-431 564.5,-431 564.5,-409 446.5,-409"/>
<text text-anchor="start" x="449.5" y="-417.2" font-family="IPAGothic" font-size="11.00">int[4]</text>
<polygon fill="none" stroke="black" points="245.5,-387 245.5,-409 446.5,-409 446.5,-387 245.5,-387"/>
<text text-anchor="start" x="265.5" y="-395.2" font-family="IPAGothic" font-size="11.00">バージョン（Ver）</text>
<polygon fill="none" stroke="black" points="446.5,-387 446.5,-409 564.5,-409 564.5,-387 446.5,-387"/>
<text text-anchor="start" x="449.5" y="-395.2" font-family="IPAGothic" font-size="11.00">int[4]</text>
<polygon fill="none" stroke="black" points="245.5,-365 245.5,-387 446.5,-387 446.5,-365 245.5,-365"/>
<image xlink:href="../../images/foreignKeys.png" width="11px" height="12px" preserveAspectRatio="xMinYMin meet" x="250.5" y="-382"/>
<text text-anchor="start" x="265.5" y="-373.2" font-family="IPAGothic" font-size="11.00">顧客（ClassA）</text>
<polygon fill="none" stroke="black" points="446.5,-365 446.5,-387 564.5,-387 564.5,-365 446.5,-365"/>
<text text-anchor="start" x="449.5" y="-373.2" font-family="IPAGothic" font-size="11.00">int[4]</text>
<polygon fill="none" stroke="black" points="245.5,-343 245.5,-365 446.5,-365 446.5,-343 245.5,-343"/>
<text text-anchor="start" x="265.5" y="-351.2" font-family="IPAGothic" font-size="11.00">件名（Title）</text>
<polygon fill="none" stroke="black" points="446.5,-343 446.5,-365 564.5,-365 564.5,-343 446.5,-343"/>
<text text-anchor="start" x="449.5" y="-351.2" font-family="IPAGothic" font-size="11.00">nvarchar[2048]</text>
<polygon fill="none" stroke="black" points="245.5,-321 245.5,-343 446.5,-343 446.5,-321 245.5,-321"/>
<text text-anchor="start" x="265.5" y="-329.2" font-family="IPAGothic" font-size="11.00">内容（Body）</text>
<polygon fill="none" stroke="black" points="446.5,-321 446.5,-343 564.5,-343 564.5,-321 446.5,-321"/>
<text text-anchor="start" x="449.5" y="-329.2" font-family="IPAGothic" font-size="11.00">nvarchar[2147483647]</text>
<polygon fill="none" stroke="black" points="245.5,-299 245.5,-321 446.5,-321 446.5,-299 245.5,-299"/>
<text text-anchor="start" x="265.5" y="-307.2" font-family="IPAGothic" font-size="11.00">商品区分（ClassB）</text>
<polygon fill="none" stroke="black" points="446.5,-299 446.5,-321 564.5,-321 564.5,-299 446.5,-299"/>
<text text-anchor="start" x="449.5" y="-307.2" font-family="IPAGothic" font-size="11.00">nvarchar[2048]</text>
<polygon fill="none" stroke="black" points="245.5,-277 245.5,-299 446.5,-299 446.5,-277 245.5,-277"/>
<text text-anchor="start" x="265.5" y="-285.2" font-family="IPAGothic" font-size="11.00">確度（ClassC）</text>
<polygon fill="none" stroke="black" points="446.5,-277 446.5,-299 564.5,-299 564.5,-277 446.5,-277"/>
<text text-anchor="start" x="449.5" y="-285.2" font-family="IPAGothic" font-size="11.00">nvarchar[2048]</text>
<polygon fill="none" stroke="black" points="245.5,-255 245.5,-277 446.5,-277 446.5,-255 245.5,-255"/>
<text text-anchor="start" x="265.5" y="-263.2" font-family="IPAGothic" font-size="11.00">受注予定日（CompletionTime）</text>
<polygon fill="none" stroke="black" points="446.5,-255 446.5,-277 564.5,-277 564.5,-255 446.5,-255"/>
<text text-anchor="start" x="449.5" y="-263.2" font-family="IPAGothic" font-size="11.00">datetime[16,3]</text>
<polygon fill="none" stroke="black" points="245.5,-233 245.5,-255 446.5,-255 446.5,-233 245.5,-233"/>
<text text-anchor="start" x="265.5" y="-241.2" font-family="IPAGothic" font-size="11.00">売上（NumA）</text>
<polygon fill="none" stroke="black" points="446.5,-233 446.5,-255 564.5,-255 564.5,-233 446.5,-233"/>
<text text-anchor="start" x="449.5" y="-241.2" font-family="IPAGothic" font-size="11.00">decimal[21,4]</text>
<polygon fill="none" stroke="black" points="245.5,-211 245.5,-233 446.5,-233 446.5,-211 245.5,-211"/>
<text text-anchor="start" x="265.5" y="-219.2" font-family="IPAGothic" font-size="11.00">仕入合計（NumB）</text>
<polygon fill="none" stroke="black" points="446.5,-211 446.5,-233 564.5,-233 564.5,-211 446.5,-211"/>
<text text-anchor="start" x="449.5" y="-219.2" font-family="IPAGothic" font-size="11.00">decimal[21,4]</text>
<polygon fill="none" stroke="black" points="245.5,-189 245.5,-211 446.5,-211 446.5,-189 245.5,-189"/>
<text text-anchor="start" x="265.5" y="-197.2" font-family="IPAGothic" font-size="11.00">粗利（NumC）</text>
<polygon fill="none" stroke="black" points="446.5,-189 446.5,-211 564.5,-211 564.5,-189 446.5,-189"/>
<text text-anchor="start" x="449.5" y="-197.2" font-family="IPAGothic" font-size="11.00">decimal[21,4]</text>
<polygon fill="none" stroke="black" points="245.5,-167 245.5,-189 446.5,-189 446.5,-167 245.5,-167"/>
<text text-anchor="start" x="265.5" y="-175.2" font-family="IPAGothic" font-size="11.00">粗利率（NumD）</text>
<polygon fill="none" stroke="black" points="446.5,-167 446.5,-189 564.5,-189 564.5,-167 446.5,-167"/>
<text text-anchor="start" x="449.5" y="-175.2" font-family="IPAGothic" font-size="11.00">decimal[21,4]</text>
<polygon fill="none" stroke="black" points="245.5,-145 245.5,-167 446.5,-167 446.5,-145 245.5,-145"/>
<text text-anchor="start" x="265.5" y="-153.2" font-family="IPAGothic" font-size="11.00">状況（Status）</text>
<polygon fill="none" stroke="black" points="446.5,-145 446.5,-167 564.5,-167 564.5,-145 446.5,-145"/>
<text text-anchor="start" x="449.5" y="-153.2" font-family="IPAGothic" font-size="11.00">int[4]</text>
<polygon fill="none" stroke="black" points="245.5,-123 245.5,-145 446.5,-145 446.5,-123 245.5,-123"/>
<text text-anchor="start" x="265.5" y="-131.2" font-family="IPAGothic" font-size="11.00">管理者（Manager）</text>
<polygon fill="none" stroke="black" points="446.5,-123 446.5,-145 564.5,-145 564.5,-123 446.5,-123"/>
<text text-anchor="start" x="449.5" y="-131.2" font-family="IPAGothic" font-size="11.00">int[4]</text>
<polygon fill="none" stroke="black" points="245.5,-101 245.5,-123 446.5,-123 446.5,-101 245.5,-101"/>
<text text-anchor="start" x="265.5" y="-109.2" font-family="IPAGothic" font-size="11.00">担当者（Owner）</text>
<polygon fill="none" stroke="black" points="446.5,-101 446.5,-123 564.5,-123 564.5,-101 446.5,-101"/>
<text text-anchor="start" x="449.5" y="-109.2" font-family="IPAGothic" font-size="11.00">int[4]</text>
<polygon fill="none" stroke="black" points="245.5,-79 245.5,-101 446.5,-101 446.5,-79 245.5,-79"/>
<text text-anchor="start" x="265.5" y="-87.2" font-family="IPAGothic" font-size="11.00">添付資料（AttachmentsA）</text>
<polygon fill="none" stroke="black" points="446.5,-79 446.5,-101 564.5,-101 564.5,-79 446.5,-79"/>
<text text-anchor="start" x="449.5" y="-87.2" font-family="IPAGothic" font-size="11.00">nvarchar[2147483647]</text>
<polygon fill="none" stroke="black" points="245.5,-57 245.5,-79 446.5,-79 446.5,-57 245.5,-57"/>
<text text-anchor="start" x="265.5" y="-65.2" font-family="IPAGothic" font-size="11.00">コメント（Comments）</text>
<polygon fill="none" stroke="black" points="446.5,-57 446.5,-79 564.5,-79 564.5,-57 446.5,-57"/>
<text text-anchor="start" x="449.5" y="-65.2" font-family="IPAGothic" font-size="11.00">nvarchar[2147483647]</text>
<polygon fill="#ffffff" stroke="none" points="245.5,-39 245.5,-57 338.5,-57 338.5,-39 245.5,-39"/>
<polygon fill="none" stroke="black" points="245.5,-39 245.5,-57 338.5,-57 338.5,-39 245.5,-39"/>
<text text-anchor="start" x="248.5" y="-45.2" font-family="IPAGothic" font-size="11.00">&lt; 1</text>
<polygon fill="#ffffff" stroke="none" points="338.5,-39 338.5,-57 446.5,-57 446.5,-39 338.5,-39"/>
<polygon fill="none" stroke="black" points="338.5,-39 338.5,-57 446.5,-57 446.5,-39 338.5,-39"/>
<text text-anchor="start" x="410.5" y="-45.2" font-family="IPAGothic" font-size="11.00">0 rows</text>
<polygon fill="#ffffff" stroke="none" points="446.5,-39 446.5,-57 564.5,-57 564.5,-39 446.5,-39"/>
<polygon fill="none" stroke="black" points="446.5,-39 446.5,-57 564.5,-57 564.5,-39 446.5,-39"/>
<text text-anchor="start" x="542.5" y="-45.2" font-family="IPAGothic" font-size="11.00">1 &gt;</text>
<polygon fill="none" stroke="black" stroke-width="2" points="244,-38 244,-454 565,-454 565,-38 244,-38"/>
</a>
</g>
</g>
<!-- 仕入（Results_8）&#45;&gt;商談（Issues_7） -->
<g id="edge1" class="edge">
<title>仕入（Results_8）:w&#45;&gt;商談（Issues_7）:e</title>
<path fill="none" stroke="black" d="M598.93,-420C588.13,-420 580.99,-420 565.5,-420"/>
<polygon fill="black" stroke="black" points="606,-420 614,-423.6 610,-420 614,-420 614,-420 614,-420 610,-420 614,-416.4 606,-420 606,-420"/>
<ellipse fill="none" stroke="black" cx="602.3" cy="-420" rx="3.2" ry="3.2"/>
</g>
<!-- 顧客マスタ（Results_6） -->
<g id="node3" class="node">
<title>顧客マスタ（Results_6）</title>
<g id="a_node3"><a xlink:href="../../tables/______Results_6__71a0957b.html" xlink:title="顧客マスタ（Results_6）" target="_top">
<polygon fill="#ffffff" stroke="none" points="8,-329 8,-409 194,-409 194,-329 8,-329"/>
<polygon fill="#f5f5f5" stroke="none" points="8,-387 8,-409 194,-409 194,-387 8,-387"/>
<polygon fill="none" stroke="black" points="8,-387 8,-409 194,-409 194,-387 8,-387"/>
<text text-anchor="start" x="9" y="-396.2" font-family="IPAGothic" font-weight="bold" font-size="11.00">顧客マスタ（Results_6）</text>
<text text-anchor="start" x="156" y="-395.2" font-family="IPAGothic" font-size="11.00">[table]</text>
<polygon fill="none" stroke="black" points="8,-365 8,-387 194,-387 194,-365 8,-365"/>
<image xlink:href="../../images/primaryKeys.png" width="11px" height="12px" preserveAspectRatio="xMinYMin meet" x="13" y="-382"/>
<text text-anchor="start" x="33" y="-373.2" font-family="IPAGothic" font-size="11.00">ID（ResultId）</text>
<polygon fill="none" stroke="black" points="8,-347 8,-365 194,-365 194,-347 8,-347"/>
<text text-anchor="start" x="11" y="-353.2" font-family="IPAGothic" font-size="11.00">...</text>
<polygon fill="#ffffff" stroke="none" points="8,-329 8,-347 76,-347 76,-329 8,-329"/>
<polygon fill="none" stroke="black" points="8,-329 8,-347 76,-347 76,-329 8,-329"/>
<text text-anchor="start" x="11" y="-335.2" font-family="IPAGothic" font-size="11.00"> &#160;</text>
<polygon fill="#ffffff" stroke="none" points="76,-329 76,-347 142,-347 142,-329 76,-329"/>
<polygon fill="none" stroke="black" points="76,-329 76,-347 142,-347 142,-329 76,-329"/>
<text text-anchor="start" x="106" y="-335.2" font-family="IPAGothic" font-size="11.00">0 rows</text>
<polygon fill="#ffffff" stroke="none" points="142,-329 142,-347 194,-347 194,-329 142,-329"/>
<polygon fill="none" stroke="black" points="142,-329 142,-347 194,-347 194,-329 142,-329"/>
<text text-anchor="start" x="172" y="-335.2" font-family="IPAGothic" font-size="11.00">1 &gt;</text>
</a>
</g>
</g>
<!-- 商談（Issues_7）&#45;&gt;顧客マスタ（Results_6） -->
<g id="edge2" class="edge">
<title>商談（Issues_7）:w&#45;&gt;顧客マスタ（Results_6）:e</title>
<path fill="none" stroke="black" d="M229.12,-376C218.1,-376 210.81,-376 195,-376"/>
<polygon fill="black" stroke="black" points="236.5,-376 244.5,-379.6 240.5,-376 244.5,-376 244.5,-376 244.5,-376 240.5,-376 244.5,-372.4 236.5,-376 236.5,-376"/>
<ellipse fill="none" stroke="black" cx="232.8" cy="-376" rx="3.2" ry="3.2"/>
</g>
</g>
</svg>
