<?xml version="1.0" encoding="UTF-8" standalone="no"?>
<!DOCTYPE svg PUBLIC "-//W3C//DTD SVG 1.1//EN"
 "http://www.w3.org/Graphics/SVG/1.1/DTD/svg11.dtd">
<!-- Generated by graphviz version 7.0.4 (20221203.1631)
 -->
<!-- Title: twoDegreesRelationshipsDiagram Pages: 1 -->
<svg width="807pt" height="291pt"
 viewBox="0.00 0.00 807.00 291.00" xmlns="http://www.w3.org/2000/svg" xmlns:xlink="http://www.w3.org/1999/xlink">
<g id="graph0" class="graph" transform="scale(1 1) rotate(0) translate(4 287)">
<title>twoDegreesRelationshipsDiagram</title>
<polygon fill="#ffffff" stroke="none" points="-4,4 -4,-287 803,-287 803,4 -4,4"/>
<text text-anchor="middle" x="72" y="-7.2" font-family="IPAGothic" font-size="11.00">Generated by SchemaSpy</text>
<!-- 仕入（Results_8） -->
<g id="node1" class="node">
<title>仕入（Results_8）</title>
<g id="a_node1"><a xlink:href="../../tables/___Results_8__6767d8b2.html" xlink:title="仕入（Results_8）" target="_top">
<polygon fill="#ffffff" stroke="none" points="493,-37 493,-279 791,-279 791,-37 493,-37"/>
<polygon fill="#f5f5f5" stroke="none" points="495,-255 495,-277 789,-277 789,-255 495,-255"/>
<polygon fill="none" stroke="black" points="495,-255 495,-277 789,-277 789,-255 495,-255"/>
<text text-anchor="start" x="497" y="-264.2" font-family="IPAGothic" font-weight="bold" font-size="11.00">仕入（Results_8）</text>
<text text-anchor="start" x="751" y="-263.2" font-family="IPAGothic" font-size="11.00">[table]</text>
<polygon fill="none" stroke="black" points="495,-233 495,-255 671,-255 671,-233 495,-233"/>
<image xlink:href="../../images/primaryKeys.png" width="11px" height="12px" preserveAspectRatio="xMinYMin meet" x="500" y="-250"/>
<text text-anchor="start" x="515" y="-241.2" font-family="IPAGothic" font-size="11.00">ID（ResultId）</text>
<polygon fill="none" stroke="black" points="671,-233 671,-255 789,-255 789,-233 671,-233"/>
<text text-anchor="start" x="674" y="-241.2" font-family="IPAGothic" font-size="11.00">int[4]</text>
<polygon fill="none" stroke="black" points="495,-211 495,-233 671,-233 671,-211 495,-211"/>
<text text-anchor="start" x="515" y="-219.2" font-family="IPAGothic" font-size="11.00">バージョン（Ver）</text>
<polygon fill="none" stroke="black" points="671,-211 671,-233 789,-233 789,-211 671,-211"/>
<text text-anchor="start" x="674" y="-219.2" font-family="IPAGothic" font-size="11.00">int[4]</text>
<polygon fill="none" stroke="black" points="495,-189 495,-211 671,-211 671,-189 495,-189"/>
<image xlink:href="../../images/foreignKeys.png" width="11px" height="12px" preserveAspectRatio="xMinYMin meet" x="500" y="-206"/>
<text text-anchor="start" x="515" y="-197.2" font-family="IPAGothic" font-size="11.00">商談（ClassA）</text>
<polygon fill="none" stroke="black" points="671,-189 671,-211 789,-211 789,-189 671,-189"/>
<text text-anchor="start" x="674" y="-197.2" font-family="IPAGothic" font-size="11.00">int[4]</text>
<polygon fill="none" stroke="black" points="495,-167 495,-189 671,-189 671,-167 495,-167"/>
<text text-anchor="start" x="515" y="-175.2" font-family="IPAGothic" font-size="11.00">件名（Title）</text>
<polygon fill="none" stroke="black" points="671,-167 671,-189 789,-189 789,-167 671,-167"/>
<text text-anchor="start" x="674" y="-175.2" font-family="IPAGothic" font-size="11.00">nvarchar[2048]</text>
<polygon fill="none" stroke="black" points="495,-145 495,-167 671,-167 671,-145 495,-145"/>
<text text-anchor="start" x="515" y="-153.2" font-family="IPAGothic" font-size="11.00">内容（Body）</text>
<polygon fill="none" stroke="black" points="671,-145 671,-167 789,-167 789,-145 671,-145"/>
<text text-anchor="start" x="674" y="-153.2" font-family="IPAGothic" font-size="11.00">nvarchar[2147483647]</text>
<polygon fill="none" stroke="black" points="495,-123 495,-145 671,-145 671,-123 495,-123"/>
<text text-anchor="start" x="515" y="-131.2" font-family="IPAGothic" font-size="11.00">金額（NumA）</text>
<polygon fill="none" stroke="black" points="671,-123 671,-145 789,-145 789,-123 671,-123"/>
<text text-anchor="start" x="674" y="-131.2" font-family="IPAGothic" font-size="11.00">decimal[21,4]</text>
<polygon fill="none" stroke="black" points="495,-101 495,-123 671,-123 671,-101 495,-101"/>
<text text-anchor="start" x="515" y="-109.2" font-family="IPAGothic" font-size="11.00">担当者（Owner）</text>
<polygon fill="none" stroke="black" points="671,-101 671,-123 789,-123 789,-101 671,-101"/>
<text text-anchor="start" x="674" y="-109.2" font-family="IPAGothic" font-size="11.00">int[4]</text>
<polygon fill="none" stroke="black" points="495,-79 495,-101 671,-101 671,-79 495,-79"/>
<text text-anchor="start" x="515" y="-87.2" font-family="IPAGothic" font-size="11.00">添付資料（AttachmentsA）</text>
<polygon fill="none" stroke="black" points="671,-79 671,-101 789,-101 789,-79 671,-79"/>
<text text-anchor="start" x="674" y="-87.2" font-family="IPAGothic" font-size="11.00">nvarchar[2147483647]</text>
<polygon fill="none" stroke="black" points="495,-57 495,-79 671,-79 671,-57 495,-57"/>
<text text-anchor="start" x="515" y="-65.2" font-family="IPAGothic" font-size="11.00">コメント（Comments）</text>
<polygon fill="none" stroke="black" points="671,-57 671,-79 789,-79 789,-57 671,-57"/>
<text text-anchor="start" x="674" y="-65.2" font-family="IPAGothic" font-size="11.00">nvarchar[2147483647]</text>
<polygon fill="#ffffff" stroke="none" points="495,-39 495,-57 576,-57 576,-39 495,-39"/>
<polygon fill="none" stroke="black" points="495,-39 495,-57 576,-57 576,-39 495,-39"/>
<text text-anchor="start" x="498" y="-45.2" font-family="IPAGothic" font-size="11.00">&lt; 1</text>
<polygon fill="#ffffff" stroke="none" points="576,-39 576,-57 671,-57 671,-39 576,-39"/>
<polygon fill="none" stroke="black" points="576,-39 576,-57 671,-57 671,-39 576,-39"/>
<text text-anchor="start" x="635" y="-45.2" font-family="IPAGothic" font-size="11.00">0 rows</text>
<polygon fill="#ffffff" stroke="none" points="671,-39 671,-57 789,-57 789,-39 671,-39"/>
<polygon fill="none" stroke="black" points="671,-39 671,-57 789,-57 789,-39 671,-39"/>
<text text-anchor="start" x="767" y="-45.2" font-family="IPAGothic" font-size="11.00">0 &gt;</text>
<polygon fill="none" stroke="black" stroke-width="2" points="494,-38 494,-278 790,-278 790,-38 494,-38"/>
</a>
</g>
</g>
<!-- 商談（Issues_7） -->
<g id="node2" class="node">
<title>商談（Issues_7）</title>
<g id="a_node2"><a xlink:href="../../tables/___Issues_7__691c9030.html" xlink:title="商談（Issues_7）" target="_top">
<polygon fill="#ffffff" stroke="none" points="243,-131 243,-233 444,-233 444,-131 243,-131"/>
<polygon fill="#f5f5f5" stroke="none" points="243.5,-211 243.5,-233 444.5,-233 444.5,-211 243.5,-211"/>
<polygon fill="none" stroke="black" points="243.5,-211 243.5,-233 444.5,-233 444.5,-211 243.5,-211"/>
<text text-anchor="start" x="245" y="-220.2" font-family="IPAGothic" font-weight="bold" font-size="11.00">商談（Issues_7）</text>
<text text-anchor="start" x="406.5" y="-219.2" font-family="IPAGothic" font-size="11.00">[table]</text>
<polygon fill="none" stroke="black" points="243.5,-189 243.5,-211 444.5,-211 444.5,-189 243.5,-189"/>
<image xlink:href="../../images/primaryKeys.png" width="11px" height="12px" preserveAspectRatio="xMinYMin meet" x="248.5" y="-206"/>
<text text-anchor="start" x="263.5" y="-197.2" font-family="IPAGothic" font-size="11.00">ID（IssueId）</text>
<polygon fill="none" stroke="black" points="243.5,-167 243.5,-189 444.5,-189 444.5,-167 243.5,-167"/>
<image xlink:href="../../images/foreignKeys.png" width="11px" height="12px" preserveAspectRatio="xMinYMin meet" x="248.5" y="-184"/>
<text text-anchor="start" x="263.5" y="-175.2" font-family="IPAGothic" font-size="11.00">顧客（ClassA）</text>
<polygon fill="none" stroke="black" points="243.5,-149 243.5,-167 444.5,-167 444.5,-149 243.5,-149"/>
<text text-anchor="start" x="246.5" y="-155.2" font-family="IPAGothic" font-size="11.00">...</text>
<polygon fill="#ffffff" stroke="none" points="243.5,-131 243.5,-149 324.5,-149 324.5,-131 243.5,-131"/>
<polygon fill="none" stroke="black" points="243.5,-131 243.5,-149 324.5,-149 324.5,-131 243.5,-131"/>
<text text-anchor="start" x="246.5" y="-137.2" font-family="IPAGothic" font-size="11.00">&lt; 1</text>
<polygon fill="#ffffff" stroke="none" points="324.5,-131 324.5,-149 391.5,-149 391.5,-131 324.5,-131"/>
<polygon fill="none" stroke="black" points="324.5,-131 324.5,-149 391.5,-149 391.5,-131 324.5,-131"/>
<text text-anchor="start" x="355.5" y="-137.2" font-family="IPAGothic" font-size="11.00">0 rows</text>
<polygon fill="#ffffff" stroke="none" points="391.5,-131 391.5,-149 444.5,-149 444.5,-131 391.5,-131"/>
<polygon fill="none" stroke="black" points="391.5,-131 391.5,-149 444.5,-149 444.5,-131 391.5,-131"/>
<text text-anchor="start" x="422.5" y="-137.2" font-family="IPAGothic" font-size="11.00">1 &gt;</text>
</a>
</g>
</g>
<!-- 仕入（Results_8）&#45;&gt;商談（Issues_7） -->
<g id="edge1" class="edge">
<title>仕入（Results_8）:w&#45;&gt;商談（Issues_7）:e</title>
<path fill="none" stroke="black" d="M478.93,-200C468.13,-200 460.99,-200 445.5,-200"/>
<polygon fill="black" stroke="black" points="486,-200 494,-203.6 490,-200 494,-200 494,-200 494,-200 490,-200 494,-196.4 486,-200 486,-200"/>
<ellipse fill="none" stroke="black" cx="482.3" cy="-200" rx="3.2" ry="3.2"/>
</g>
<!-- 顧客マスタ（Results_6） -->
<g id="node3" class="node">
<title>顧客マスタ（Results_6）</title>
<g id="a_node3"><a xlink:href="../../tables/______Results_6__71a0957b.html" xlink:title="顧客マスタ（Results_6）" target="_top">
<polygon fill="#ffffff" stroke="none" points="8,-151 8,-209 194,-209 194,-151 8,-151"/>
<polygon fill="#f5f5f5" stroke="none" points="8,-187 8,-209 194,-209 194,-187 8,-187"/>
<polygon fill="none" stroke="black" points="8,-187 8,-209 194,-209 194,-187 8,-187"/>
<text text-anchor="start" x="9" y="-196.2" font-family="IPAGothic" font-weight="bold" font-size="11.00">顧客マスタ（Results_6）</text>
<text text-anchor="start" x="156" y="-195.2" font-family="IPAGothic" font-size="11.00">[table]</text>
<polygon fill="none" stroke="black" points="8,-169 8,-187 194,-187 194,-169 8,-169"/>
<text text-anchor="start" x="11" y="-175.2" font-family="IPAGothic" font-size="11.00">...</text>
<polygon fill="#ffffff" stroke="none" points="8,-151 8,-169 76,-169 76,-151 8,-151"/>
<polygon fill="none" stroke="black" points="8,-151 8,-169 76,-169 76,-151 8,-151"/>
<text text-anchor="start" x="11" y="-157.2" font-family="IPAGothic" font-size="11.00"> &#160;</text>
<polygon fill="#ffffff" stroke="none" points="76,-151 76,-169 142,-169 142,-151 76,-151"/>
<polygon fill="none" stroke="black" points="76,-151 76,-169 142,-169 142,-151 76,-151"/>
<text text-anchor="start" x="106" y="-157.2" font-family="IPAGothic" font-size="11.00">0 rows</text>
<polygon fill="#ffffff" stroke="none" points="142,-151 142,-169 194,-169 194,-151 142,-151"/>
<polygon fill="none" stroke="black" points="142,-151 142,-169 194,-169 194,-151 142,-151"/>
<text text-anchor="start" x="172" y="-157.2" font-family="IPAGothic" font-size="11.00">1 &gt;</text>
</a>
</g>
</g>
<!-- 商談（Issues_7）&#45;&gt;顧客マスタ（Results_6） -->
<g id="edge2" class="edge">
<title>商談（Issues_7）:w&#45;&gt;顧客マスタ（Results_6）:e</title>
<path fill="none" stroke="black" d="M227.4,-178C217.01,-178 210.01,-178 195,-178"/>
<polygon fill="black" stroke="black" points="234.5,-178 242.5,-181.6 238.5,-178 242.5,-178 242.5,-178 242.5,-178 238.5,-178 242.5,-174.4 234.5,-178 234.5,-178"/>
<ellipse fill="none" stroke="black" cx="230.8" cy="-178" rx="3.2" ry="3.2"/>
</g>
</g>
</svg>
