<?xml version="1.0" encoding="UTF-8" standalone="no"?>
<!DOCTYPE svg PUBLIC "-//W3C//DTD SVG 1.1//EN"
 "http://www.w3.org/Graphics/SVG/1.1/DTD/svg11.dtd">
<!-- Generated by graphviz version 7.0.4 (20221203.1631)
 -->
<!-- Title: oneDegreeRelationshipsDiagram Pages: 1 -->
<svg width="572pt" height="291pt"
 viewBox="0.00 0.00 572.00 291.00" xmlns="http://www.w3.org/2000/svg" xmlns:xlink="http://www.w3.org/1999/xlink">
<g id="graph0" class="graph" transform="scale(1 1) rotate(0) translate(4 287)">
<title>oneDegreeRelationshipsDiagram</title>
<polygon fill="#ffffff" stroke="none" points="-4,4 -4,-287 568,-287 568,4 -4,4"/>
<text text-anchor="middle" x="72" y="-7.2" font-family="IPAGothic" font-size="11.00">Generated by SchemaSpy</text>
<!-- 仕入（Results_8） -->
<g id="node1" class="node">
<title>仕入（Results_8）</title>
<g id="a_node1"><a xlink:href="../../tables/___Results_8__6767d8b2.html" xlink:title="仕入（Results_8）" target="_top">
<polygon fill="#ffffff" stroke="none" points="258,-37 258,-279 556,-279 556,-37 258,-37"/>
<polygon fill="#f5f5f5" stroke="none" points="260,-255 260,-277 554,-277 554,-255 260,-255"/>
<polygon fill="none" stroke="black" points="260,-255 260,-277 554,-277 554,-255 260,-255"/>
<text text-anchor="start" x="262" y="-264.2" font-family="IPAGothic" font-weight="bold" font-size="11.00">仕入（Results_8）</text>
<text text-anchor="start" x="516" y="-263.2" font-family="IPAGothic" font-size="11.00">[table]</text>
<polygon fill="none" stroke="black" points="260,-233 260,-255 436,-255 436,-233 260,-233"/>
<image xlink:href="../../images/primaryKeys.png" width="11px" height="12px" preserveAspectRatio="xMinYMin meet" x="265" y="-250"/>
<text text-anchor="start" x="280" y="-241.2" font-family="IPAGothic" font-size="11.00">ID（ResultId）</text>
<polygon fill="none" stroke="black" points="436,-233 436,-255 554,-255 554,-233 436,-233"/>
<text text-anchor="start" x="439" y="-241.2" font-family="IPAGothic" font-size="11.00">int[4]</text>
<polygon fill="none" stroke="black" points="260,-211 260,-233 436,-233 436,-211 260,-211"/>
<text text-anchor="start" x="280" y="-219.2" font-family="IPAGothic" font-size="11.00">バージョン（Ver）</text>
<polygon fill="none" stroke="black" points="436,-211 436,-233 554,-233 554,-211 436,-211"/>
<text text-anchor="start" x="439" y="-219.2" font-family="IPAGothic" font-size="11.00">int[4]</text>
<polygon fill="none" stroke="black" points="260,-189 260,-211 436,-211 436,-189 260,-189"/>
<image xlink:href="../../images/foreignKeys.png" width="11px" height="12px" preserveAspectRatio="xMinYMin meet" x="265" y="-206"/>
<text text-anchor="start" x="280" y="-197.2" font-family="IPAGothic" font-size="11.00">商談（ClassA）</text>
<polygon fill="none" stroke="black" points="436,-189 436,-211 554,-211 554,-189 436,-189"/>
<text text-anchor="start" x="439" y="-197.2" font-family="IPAGothic" font-size="11.00">int[4]</text>
<polygon fill="none" stroke="black" points="260,-167 260,-189 436,-189 436,-167 260,-167"/>
<text text-anchor="start" x="280" y="-175.2" font-family="IPAGothic" font-size="11.00">件名（Title）</text>
<polygon fill="none" stroke="black" points="436,-167 436,-189 554,-189 554,-167 436,-167"/>
<text text-anchor="start" x="439" y="-175.2" font-family="IPAGothic" font-size="11.00">nvarchar[2048]</text>
<polygon fill="none" stroke="black" points="260,-145 260,-167 436,-167 436,-145 260,-145"/>
<text text-anchor="start" x="280" y="-153.2" font-family="IPAGothic" font-size="11.00">内容（Body）</text>
<polygon fill="none" stroke="black" points="436,-145 436,-167 554,-167 554,-145 436,-145"/>
<text text-anchor="start" x="439" y="-153.2" font-family="IPAGothic" font-size="11.00">nvarchar[2147483647]</text>
<polygon fill="none" stroke="black" points="260,-123 260,-145 436,-145 436,-123 260,-123"/>
<text text-anchor="start" x="280" y="-131.2" font-family="IPAGothic" font-size="11.00">金額（NumA）</text>
<polygon fill="none" stroke="black" points="436,-123 436,-145 554,-145 554,-123 436,-123"/>
<text text-anchor="start" x="439" y="-131.2" font-family="IPAGothic" font-size="11.00">decimal[21,4]</text>
<polygon fill="none" stroke="black" points="260,-101 260,-123 436,-123 436,-101 260,-101"/>
<text text-anchor="start" x="280" y="-109.2" font-family="IPAGothic" font-size="11.00">担当者（Owner）</text>
<polygon fill="none" stroke="black" points="436,-101 436,-123 554,-123 554,-101 436,-101"/>
<text text-anchor="start" x="439" y="-109.2" font-family="IPAGothic" font-size="11.00">int[4]</text>
<polygon fill="none" stroke="black" points="260,-79 260,-101 436,-101 436,-79 260,-79"/>
<text text-anchor="start" x="280" y="-87.2" font-family="IPAGothic" font-size="11.00">添付資料（AttachmentsA）</text>
<polygon fill="none" stroke="black" points="436,-79 436,-101 554,-101 554,-79 436,-79"/>
<text text-anchor="start" x="439" y="-87.2" font-family="IPAGothic" font-size="11.00">nvarchar[2147483647]</text>
<polygon fill="none" stroke="black" points="260,-57 260,-79 436,-79 436,-57 260,-57"/>
<text text-anchor="start" x="280" y="-65.2" font-family="IPAGothic" font-size="11.00">コメント（Comments）</text>
<polygon fill="none" stroke="black" points="436,-57 436,-79 554,-79 554,-57 436,-57"/>
<text text-anchor="start" x="439" y="-65.2" font-family="IPAGothic" font-size="11.00">nvarchar[2147483647]</text>
<polygon fill="#ffffff" stroke="none" points="260,-39 260,-57 341,-57 341,-39 260,-39"/>
<polygon fill="none" stroke="black" points="260,-39 260,-57 341,-57 341,-39 260,-39"/>
<text text-anchor="start" x="263" y="-45.2" font-family="IPAGothic" font-size="11.00">&lt; 1</text>
<polygon fill="#ffffff" stroke="none" points="341,-39 341,-57 436,-57 436,-39 341,-39"/>
<polygon fill="none" stroke="black" points="341,-39 341,-57 436,-57 436,-39 341,-39"/>
<text text-anchor="start" x="400" y="-45.2" font-family="IPAGothic" font-size="11.00">0 rows</text>
<polygon fill="#ffffff" stroke="none" points="436,-39 436,-57 554,-57 554,-39 436,-39"/>
<polygon fill="none" stroke="black" points="436,-39 436,-57 554,-57 554,-39 436,-39"/>
<text text-anchor="start" x="532" y="-45.2" font-family="IPAGothic" font-size="11.00">0 &gt;</text>
<polygon fill="none" stroke="black" stroke-width="2" points="259,-38 259,-278 555,-278 555,-38 259,-38"/>
</a>
</g>
</g>
<!-- 商談（Issues_7） -->
<g id="node2" class="node">
<title>商談（Issues_7）</title>
<g id="a_node2"><a xlink:href="../../tables/___Issues_7__691c9030.html" xlink:title="商談（Issues_7）" target="_top">
<polygon fill="#ffffff" stroke="none" points="8,-131 8,-233 209,-233 209,-131 8,-131"/>
<polygon fill="#f5f5f5" stroke="none" points="8.5,-211 8.5,-233 209.5,-233 209.5,-211 8.5,-211"/>
<polygon fill="none" stroke="black" points="8.5,-211 8.5,-233 209.5,-233 209.5,-211 8.5,-211"/>
<text text-anchor="start" x="10" y="-220.2" font-family="IPAGothic" font-weight="bold" font-size="11.00">商談（Issues_7）</text>
<text text-anchor="start" x="171.5" y="-219.2" font-family="IPAGothic" font-size="11.00">[table]</text>
<polygon fill="none" stroke="black" points="8.5,-189 8.5,-211 209.5,-211 209.5,-189 8.5,-189"/>
<image xlink:href="../../images/primaryKeys.png" width="11px" height="12px" preserveAspectRatio="xMinYMin meet" x="13.5" y="-206"/>
<text text-anchor="start" x="28.5" y="-197.2" font-family="IPAGothic" font-size="11.00">ID（IssueId）</text>
<polygon fill="none" stroke="black" points="8.5,-167 8.5,-189 209.5,-189 209.5,-167 8.5,-167"/>
<image xlink:href="../../images/foreignKeys.png" width="11px" height="12px" preserveAspectRatio="xMinYMin meet" x="13.5" y="-184"/>
<text text-anchor="start" x="28.5" y="-175.2" font-family="IPAGothic" font-size="11.00">顧客（ClassA）</text>
<polygon fill="none" stroke="black" points="8.5,-149 8.5,-167 209.5,-167 209.5,-149 8.5,-149"/>
<text text-anchor="start" x="11.5" y="-155.2" font-family="IPAGothic" font-size="11.00">...</text>
<polygon fill="#ffffff" stroke="none" points="8.5,-131 8.5,-149 89.5,-149 89.5,-131 8.5,-131"/>
<polygon fill="none" stroke="black" points="8.5,-131 8.5,-149 89.5,-149 89.5,-131 8.5,-131"/>
<text text-anchor="start" x="11.5" y="-137.2" font-family="IPAGothic" font-size="11.00">&lt; 1</text>
<polygon fill="#ffffff" stroke="none" points="89.5,-131 89.5,-149 156.5,-149 156.5,-131 89.5,-131"/>
<polygon fill="none" stroke="black" points="89.5,-131 89.5,-149 156.5,-149 156.5,-131 89.5,-131"/>
<text text-anchor="start" x="120.5" y="-137.2" font-family="IPAGothic" font-size="11.00">0 rows</text>
<polygon fill="#ffffff" stroke="none" points="156.5,-131 156.5,-149 209.5,-149 209.5,-131 156.5,-131"/>
<polygon fill="none" stroke="black" points="156.5,-131 156.5,-149 209.5,-149 209.5,-131 156.5,-131"/>
<text text-anchor="start" x="187.5" y="-137.2" font-family="IPAGothic" font-size="11.00">1 &gt;</text>
</a>
</g>
</g>
<!-- 仕入（Results_8）&#45;&gt;商談（Issues_7） -->
<g id="edge1" class="edge">
<title>仕入（Results_8）:w&#45;&gt;商談（Issues_7）:e</title>
<path fill="none" stroke="black" d="M243.93,-200C233.13,-200 225.99,-200 210.5,-200"/>
<polygon fill="black" stroke="black" points="251,-200 259,-203.6 255,-200 259,-200 259,-200 259,-200 255,-200 259,-196.4 251,-200 251,-200"/>
<ellipse fill="none" stroke="black" cx="247.3" cy="-200" rx="3.2" ry="3.2"/>
</g>
</g>
</svg>
