<?xml version="1.0" encoding="UTF-8" standalone="no"?>
<!DOCTYPE svg PUBLIC "-//W3C//DTD SVG 1.1//EN"
 "http://www.w3.org/Graphics/SVG/1.1/DTD/svg11.dtd">
<!-- Generated by graphviz version 7.0.4 (20221203.1631)
 -->
<!-- Title: oneDegreeRelationshipsDiagram Pages: 1 -->
<svg width="631pt" height="548pt"
 viewBox="0.00 0.00 631.00 548.00" xmlns="http://www.w3.org/2000/svg" xmlns:xlink="http://www.w3.org/1999/xlink">
<g id="graph0" class="graph" transform="scale(1 1) rotate(0) translate(4 544)">
<title>oneDegreeRelationshipsDiagram</title>
<polygon fill="#ffffff" stroke="none" points="-4,4 -4,-544 627,-544 627,4 -4,4"/>
<text text-anchor="middle" x="72" y="-7.2" font-family="IPAGothic" font-size="11.00">Generated by SchemaSpy</text>
<!-- レビュー記録（Results_4） -->
<g id="node1" class="node">
<title>レビュー記録（Results_4）</title>
<g id="a_node1"><a xlink:href="../../tables/_______Results_4__36cfdf6e.html" xlink:title="レビュー記録（Results_4）" target="_top">
<polygon fill="#ffffff" stroke="none" points="407,-434 407,-536 605,-536 605,-434 407,-434"/>
<polygon fill="#f5f5f5" stroke="none" points="407,-514 407,-536 605,-536 605,-514 407,-514"/>
<polygon fill="none" stroke="black" points="407,-514 407,-536 605,-536 605,-514 407,-514"/>
<text text-anchor="start" x="408" y="-523.2" font-family="IPAGothic" font-weight="bold" font-size="11.00">レビュー記録（Results_4）</text>
<text text-anchor="start" x="567" y="-522.2" font-family="IPAGothic" font-size="11.00">[table]</text>
<polygon fill="none" stroke="black" points="407,-492 407,-514 605,-514 605,-492 407,-492"/>
<image xlink:href="../../images/primaryKeys.png" width="11px" height="12px" preserveAspectRatio="xMinYMin meet" x="412" y="-509"/>
<text text-anchor="start" x="438" y="-500.2" font-family="IPAGothic" font-size="11.00">ID（ResultId）</text>
<polygon fill="none" stroke="black" points="407,-470 407,-492 605,-492 605,-470 407,-470"/>
<image xlink:href="../../images/foreignKeys.png" width="11px" height="12px" preserveAspectRatio="xMinYMin meet" x="412" y="-487"/>
<text text-anchor="start" x="438" y="-478.2" font-family="IPAGothic" font-size="11.00">WBS（ClassA）</text>
<polygon fill="none" stroke="black" points="407,-452 407,-470 605,-470 605,-452 407,-452"/>
<text text-anchor="start" x="410" y="-458.2" font-family="IPAGothic" font-size="11.00">...</text>
<polygon fill="#ffffff" stroke="none" points="407,-434 407,-452 492,-452 492,-434 407,-434"/>
<polygon fill="none" stroke="black" points="407,-434 407,-452 492,-452 492,-434 407,-434"/>
<text text-anchor="start" x="410" y="-440.2" font-family="IPAGothic" font-size="11.00">&lt; 1</text>
<polygon fill="#ffffff" stroke="none" points="492,-434 492,-452 561,-452 561,-434 492,-434"/>
<polygon fill="none" stroke="black" points="492,-434 492,-452 561,-452 561,-434 492,-434"/>
<text text-anchor="start" x="525" y="-440.2" font-family="IPAGothic" font-size="11.00">0 rows</text>
<polygon fill="#ffffff" stroke="none" points="561,-434 561,-452 605,-452 605,-434 561,-434"/>
<polygon fill="none" stroke="black" points="561,-434 561,-452 605,-452 605,-434 561,-434"/>
<text text-anchor="start" x="594" y="-440.2" font-family="IPAGothic" font-size="11.00"> &#160;</text>
</a>
</g>
</g>
<!-- WBS（Issues_2） -->
<g id="node2" class="node">
<title>WBS（Issues_2）</title>
<g id="a_node2"><a xlink:href="../../tables/WBS_Issues_2__9cf79b7c.html" xlink:title="WBS（Issues_2）" target="_top">
<polygon fill="#ffffff" stroke="none" points="8,-37 8,-455 348,-455 348,-37 8,-37"/>
<polygon fill="#f5f5f5" stroke="none" points="10,-431 10,-453 346,-453 346,-431 10,-431"/>
<polygon fill="none" stroke="black" points="10,-431 10,-453 346,-453 346,-431 10,-431"/>
<text text-anchor="start" x="12.5" y="-440.2" font-family="IPAGothic" font-weight="bold" font-size="11.00">WBS（Issues_2）</text>
<text text-anchor="start" x="308" y="-439.2" font-family="IPAGothic" font-size="11.00">[table]</text>
<polygon fill="none" stroke="black" points="10,-409 10,-431 228,-431 228,-409 10,-409"/>
<image xlink:href="../../images/primaryKeys.png" width="11px" height="12px" preserveAspectRatio="xMinYMin meet" x="15" y="-426"/>
<text text-anchor="start" x="30" y="-417.2" font-family="IPAGothic" font-size="11.00">ID（IssueId）</text>
<polygon fill="none" stroke="black" points="228,-409 228,-431 346,-431 346,-409 228,-409"/>
<text text-anchor="start" x="231" y="-417.2" font-family="IPAGothic" font-size="11.00">int[4]</text>
<polygon fill="none" stroke="black" points="10,-387 10,-409 228,-409 228,-387 10,-387"/>
<text text-anchor="start" x="30" y="-395.2" font-family="IPAGothic" font-size="11.00">バージョン（Ver）</text>
<polygon fill="none" stroke="black" points="228,-387 228,-409 346,-409 346,-387 228,-387"/>
<text text-anchor="start" x="231" y="-395.2" font-family="IPAGothic" font-size="11.00">int[4]</text>
<polygon fill="none" stroke="black" points="10,-365 10,-387 228,-387 228,-365 10,-365"/>
<text text-anchor="start" x="30" y="-373.2" font-family="IPAGothic" font-size="11.00">タイトル（Title）</text>
<polygon fill="none" stroke="black" points="228,-365 228,-387 346,-387 346,-365 228,-365"/>
<text text-anchor="start" x="231" y="-373.2" font-family="IPAGothic" font-size="11.00">nvarchar[2048]</text>
<polygon fill="none" stroke="black" points="10,-343 10,-365 228,-365 228,-343 10,-343"/>
<text text-anchor="start" x="30" y="-351.2" font-family="IPAGothic" font-size="11.00">内容（Body）</text>
<polygon fill="none" stroke="black" points="228,-343 228,-365 346,-365 346,-343 228,-343"/>
<text text-anchor="start" x="231" y="-351.2" font-family="IPAGothic" font-size="11.00">nvarchar[2147483647]</text>
<polygon fill="none" stroke="black" points="10,-321 10,-343 228,-343 228,-321 10,-321"/>
<text text-anchor="start" x="30" y="-329.2" font-family="IPAGothic" font-size="11.00">開始（StartTime）</text>
<polygon fill="none" stroke="black" points="228,-321 228,-343 346,-343 346,-321 228,-321"/>
<text text-anchor="start" x="231" y="-329.2" font-family="IPAGothic" font-size="11.00">datetime[16,3]</text>
<polygon fill="none" stroke="black" points="10,-299 10,-321 228,-321 228,-299 10,-299"/>
<text text-anchor="start" x="30" y="-307.2" font-family="IPAGothic" font-size="11.00">完了（CompletionTime）</text>
<polygon fill="none" stroke="black" points="228,-299 228,-321 346,-321 346,-299 228,-299"/>
<text text-anchor="start" x="231" y="-307.2" font-family="IPAGothic" font-size="11.00">datetime[16,3]</text>
<polygon fill="none" stroke="black" points="10,-277 10,-299 228,-299 228,-277 10,-277"/>
<text text-anchor="start" x="30" y="-285.2" font-family="IPAGothic" font-size="11.00">作業量（WorkValue）</text>
<polygon fill="none" stroke="black" points="228,-277 228,-299 346,-299 346,-277 228,-277"/>
<text text-anchor="start" x="231" y="-285.2" font-family="IPAGothic" font-size="11.00">decimal[21,4]</text>
<polygon fill="none" stroke="black" points="10,-255 10,-277 228,-277 228,-255 10,-255"/>
<text text-anchor="start" x="30" y="-263.2" font-family="IPAGothic" font-size="11.00">進捗率（ProgressRate）</text>
<polygon fill="none" stroke="black" points="228,-255 228,-277 346,-277 346,-255 228,-255"/>
<text text-anchor="start" x="231" y="-263.2" font-family="IPAGothic" font-size="11.00">decimal[6,1]</text>
<polygon fill="none" stroke="black" points="10,-233 10,-255 228,-255 228,-233 10,-233"/>
<text text-anchor="start" x="30" y="-241.2" font-family="IPAGothic" font-size="11.00">残作業量（RemainingWorkValue）</text>
<polygon fill="none" stroke="black" points="228,-233 228,-255 346,-255 346,-233 228,-233"/>
<text text-anchor="start" x="231" y="-241.2" font-family="IPAGothic" font-size="11.00">decimal[21,4]</text>
<polygon fill="none" stroke="black" points="10,-211 10,-233 228,-233 228,-211 10,-211"/>
<text text-anchor="start" x="30" y="-219.2" font-family="IPAGothic" font-size="11.00">状況（Status）</text>
<polygon fill="none" stroke="black" points="228,-211 228,-233 346,-233 346,-211 228,-211"/>
<text text-anchor="start" x="231" y="-219.2" font-family="IPAGothic" font-size="11.00">int[4]</text>
<polygon fill="none" stroke="black" points="10,-189 10,-211 228,-211 228,-189 10,-189"/>
<text text-anchor="start" x="30" y="-197.2" font-family="IPAGothic" font-size="11.00">管理者（Manager）</text>
<polygon fill="none" stroke="black" points="228,-189 228,-211 346,-211 346,-189 228,-189"/>
<text text-anchor="start" x="231" y="-197.2" font-family="IPAGothic" font-size="11.00">int[4]</text>
<polygon fill="none" stroke="black" points="10,-167 10,-189 228,-189 228,-167 10,-167"/>
<text text-anchor="start" x="30" y="-175.2" font-family="IPAGothic" font-size="11.00">担当者（Owner）</text>
<polygon fill="none" stroke="black" points="228,-167 228,-189 346,-189 346,-167 228,-167"/>
<text text-anchor="start" x="231" y="-175.2" font-family="IPAGothic" font-size="11.00">int[4]</text>
<polygon fill="none" stroke="black" points="10,-145 10,-167 228,-167 228,-145 10,-145"/>
<text text-anchor="start" x="30" y="-153.2" font-family="IPAGothic" font-size="11.00">作業工程（ClassA）</text>
<polygon fill="none" stroke="black" points="228,-145 228,-167 346,-167 346,-145 228,-145"/>
<text text-anchor="start" x="231" y="-153.2" font-family="IPAGothic" font-size="11.00">nvarchar[2048]</text>
<polygon fill="none" stroke="black" points="10,-123 10,-145 228,-145 228,-123 10,-123"/>
<text text-anchor="start" x="30" y="-131.2" font-family="IPAGothic" font-size="11.00">作業内容（ClassB）</text>
<polygon fill="none" stroke="black" points="228,-123 228,-145 346,-145 346,-123 228,-123"/>
<text text-anchor="start" x="231" y="-131.2" font-family="IPAGothic" font-size="11.00">nvarchar[2048]</text>
<polygon fill="none" stroke="black" points="10,-101 10,-123 228,-123 228,-101 10,-101"/>
<text text-anchor="start" x="30" y="-109.2" font-family="IPAGothic" font-size="11.00">機能分類（ClassC）</text>
<polygon fill="none" stroke="black" points="228,-101 228,-123 346,-123 346,-101 228,-101"/>
<text text-anchor="start" x="231" y="-109.2" font-family="IPAGothic" font-size="11.00">nvarchar[2048]</text>
<polygon fill="none" stroke="black" points="10,-79 10,-101 228,-101 228,-79 10,-79"/>
<text text-anchor="start" x="30" y="-87.2" font-family="IPAGothic" font-size="11.00">添付資料（AttachmentsA）</text>
<polygon fill="none" stroke="black" points="228,-79 228,-101 346,-101 346,-79 228,-79"/>
<text text-anchor="start" x="231" y="-87.2" font-family="IPAGothic" font-size="11.00">nvarchar[2147483647]</text>
<polygon fill="none" stroke="black" points="10,-57 10,-79 228,-79 228,-57 10,-57"/>
<text text-anchor="start" x="30" y="-65.2" font-family="IPAGothic" font-size="11.00">コメント（Comments）</text>
<polygon fill="none" stroke="black" points="228,-57 228,-79 346,-79 346,-57 228,-57"/>
<text text-anchor="start" x="231" y="-65.2" font-family="IPAGothic" font-size="11.00">nvarchar[2147483647]</text>
<polygon fill="#ffffff" stroke="none" points="10,-39 10,-57 112,-57 112,-39 10,-39"/>
<polygon fill="none" stroke="black" points="10,-39 10,-57 112,-57 112,-39 10,-39"/>
<text text-anchor="start" x="13" y="-45.2" font-family="IPAGothic" font-size="11.00">&lt; 0</text>
<polygon fill="#ffffff" stroke="none" points="112,-39 112,-57 228,-57 228,-39 112,-39"/>
<polygon fill="none" stroke="black" points="112,-39 112,-57 228,-57 228,-39 112,-39"/>
<text text-anchor="start" x="192" y="-45.2" font-family="IPAGothic" font-size="11.00">0 rows</text>
<polygon fill="#ffffff" stroke="none" points="228,-39 228,-57 346,-57 346,-39 228,-39"/>
<polygon fill="none" stroke="black" points="228,-39 228,-57 346,-57 346,-39 228,-39"/>
<text text-anchor="start" x="324" y="-45.2" font-family="IPAGothic" font-size="11.00">2 &gt;</text>
<polygon fill="none" stroke="black" stroke-width="2" points="9,-38 9,-454 347,-454 347,-38 9,-38"/>
</a>
</g>
</g>
<!-- レビュー記録（Results_4）&#45;&gt;WBS（Issues_2） -->
<g id="edge1" class="edge">
<title>レビュー記録（Results_4）:w&#45;&gt;WBS（Issues_2）:e</title>
<path fill="none" stroke="black" d="M391.33,-476.61C372.22,-462.63 378.53,-420 347,-420"/>
<polygon fill="black" stroke="black" points="398.34,-478.71 404.97,-484.45 402.17,-479.85 406,-481 406,-481 406,-481 402.17,-479.85 407.03,-477.55 398.34,-478.71 398.34,-478.71"/>
<ellipse fill="none" stroke="black" cx="394.79" cy="-477.65" rx="3.2" ry="3.2"/>
</g>
<!-- 課題管理（Issues_3） -->
<g id="node3" class="node">
<title>課題管理（Issues_3）</title>
<g id="a_node3"><a xlink:href="../../tables/_____Issues_3__d1af85d2.html" xlink:title="課題管理（Issues_3）" target="_top">
<polygon fill="#ffffff" stroke="none" points="397,-311 397,-413 615,-413 615,-311 397,-311"/>
<polygon fill="#f5f5f5" stroke="none" points="397,-391 397,-413 615,-413 615,-391 397,-391"/>
<polygon fill="none" stroke="black" points="397,-391 397,-413 615,-413 615,-391 397,-391"/>
<text text-anchor="start" x="397.5" y="-400.2" font-family="IPAGothic" font-weight="bold" font-size="11.00">課題管理（Issues_3）</text>
<text text-anchor="start" x="577" y="-399.2" font-family="IPAGothic" font-size="11.00">[table]</text>
<polygon fill="none" stroke="black" points="397,-369 397,-391 615,-391 615,-369 397,-369"/>
<image xlink:href="../../images/primaryKeys.png" width="11px" height="12px" preserveAspectRatio="xMinYMin meet" x="402" y="-386"/>
<text text-anchor="start" x="417" y="-377.2" font-family="IPAGothic" font-size="11.00">ID（IssueId）</text>
<polygon fill="none" stroke="black" points="397,-347 397,-369 615,-369 615,-347 397,-347"/>
<image xlink:href="../../images/foreignKeys.png" width="11px" height="12px" preserveAspectRatio="xMinYMin meet" x="402" y="-364"/>
<text text-anchor="start" x="417" y="-355.2" font-family="IPAGothic" font-size="11.00">WBS（ClassA）</text>
<polygon fill="none" stroke="black" points="397,-329 397,-347 615,-347 615,-329 397,-329"/>
<text text-anchor="start" x="400" y="-335.2" font-family="IPAGothic" font-size="11.00">...</text>
<polygon fill="#ffffff" stroke="none" points="397,-311 397,-329 492,-329 492,-311 397,-311"/>
<polygon fill="none" stroke="black" points="397,-311 397,-329 492,-329 492,-311 397,-311"/>
<text text-anchor="start" x="400" y="-317.2" font-family="IPAGothic" font-size="11.00">&lt; 1</text>
<polygon fill="#ffffff" stroke="none" points="492,-311 492,-329 566,-329 566,-311 492,-311"/>
<polygon fill="none" stroke="black" points="492,-311 492,-329 566,-329 566,-311 492,-311"/>
<text text-anchor="start" x="530" y="-317.2" font-family="IPAGothic" font-size="11.00">0 rows</text>
<polygon fill="#ffffff" stroke="none" points="566,-311 566,-329 615,-329 615,-311 566,-311"/>
<polygon fill="none" stroke="black" points="566,-311 566,-329 615,-329 615,-311 566,-311"/>
<text text-anchor="start" x="604" y="-317.2" font-family="IPAGothic" font-size="11.00"> &#160;</text>
</a>
</g>
</g>
<!-- 課題管理（Issues_3）&#45;&gt;WBS（Issues_2） -->
<g id="edge2" class="edge">
<title>課題管理（Issues_3）:w&#45;&gt;WBS（Issues_2）:e</title>
<path fill="none" stroke="black" d="M381.87,-363.29C366.69,-378.28 375.81,-420 347,-420"/>
<polygon fill="black" stroke="black" points="388.51,-360.8 397.26,-361.37 392.25,-359.4 396,-358 396,-358 396,-358 392.25,-359.4 394.74,-354.63 388.51,-360.8 388.51,-360.8"/>
<ellipse fill="none" stroke="black" cx="385.04" cy="-362.1" rx="3.2" ry="3.2"/>
</g>
</g>
</svg>
